M48
; DRILL file {KiCad 7.0.10} date Sun Feb  4 21:18:48 2024
; FORMAT={-:-/ absolute / metric / decimal}
; #@! TF.CreationDate,2024-02-04T21:18:48-08:00
; #@! TF.GenerationSoftware,Kicad,Pcbnew,7.0.10
; #@! TF.FileFunction,Plated,1,2,PTH
FMAT,2
METRIC
; #@! TA.AperFunction,Plated,PTH,ViaDrill
T1C0.400
; #@! TA.AperFunction,Plated,PTH,ComponentDrill
T2C0.800
; #@! TA.AperFunction,Plated,PTH,ComponentDrill
T3C0.900
; #@! TA.AperFunction,Plated,PTH,ComponentDrill
T4C0.991
; #@! TA.AperFunction,Plated,PTH,ComponentDrill
T5C1.000
; #@! TA.AperFunction,Plated,PTH,ComponentDrill
T6C1.092
; #@! TA.AperFunction,Plated,PTH,ComponentDrill
T7C1.100
; #@! TA.AperFunction,Plated,PTH,ComponentDrill
T8C1.500
%
G90
G05
T1
X122.9Y-50.331
X128.326Y-47.855
T2
X78.707Y-32.771
X78.707Y-40.391
X78.707Y-89.921
X78.707Y-97.541
X84.18Y-103.256
X84.422Y-46.106
X84.422Y-65.156
X91.8Y-103.256
X92.042Y-46.106
X92.042Y-65.156
X101.09Y-103.256
X101.188Y-75.931
X108.71Y-103.256
X108.808Y-75.931
X114.075Y-70.696
X114.075Y-78.316
X114.337Y-89.996
X114.337Y-97.616
X120.14Y-65.156
X120.14Y-103.256
X127.76Y-65.156
X127.76Y-103.256
X133.487Y-89.846
X133.487Y-97.466
X133.826Y-70.596
X133.826Y-78.216
X138.238Y-128.021
X138.238Y-135.641
X139.19Y-65.156
X146.81Y-65.156
X148.665Y-45.706
X152.475Y-70.896
X152.475Y-78.516
X152.525Y-108.971
X152.525Y-116.591
X152.587Y-89.996
X152.587Y-97.616
X156.285Y-45.706
X158.24Y-65.156
X165.861Y-65.156
X171.576Y-108.971
X171.576Y-116.591
X171.587Y-89.996
X171.587Y-97.616
X171.675Y-70.796
X171.675Y-78.416
X177.29Y-65.156
X177.29Y-93.731
X184.91Y-65.156
X184.91Y-93.731
X190.625Y-70.796
X190.625Y-78.416
X196.34Y-65.156
X196.34Y-93.731
X203.96Y-65.156
X203.96Y-93.731
T4
X109.837Y-126.607
X109.837Y-136.767
X113.125Y-127.176
X113.125Y-137.336
X135.857Y-31.644
X135.857Y-41.804
X138.382Y-34.026
X138.382Y-44.186
T5
X177.835Y-32.406
X177.835Y-34.946
X177.835Y-37.486
X177.835Y-40.026
X180.375Y-32.406
X180.375Y-34.946
X180.375Y-37.486
X180.375Y-40.026
T6
X116.331Y-31.659
X116.331Y-34.199
X116.331Y-36.739
X116.331Y-39.279
X116.331Y-41.819
X116.331Y-44.359
X116.331Y-46.899
X116.331Y-49.439
X116.331Y-51.979
X116.331Y-54.519
X116.331Y-57.059
X116.331Y-59.599
X116.331Y-111.352
X116.331Y-113.892
X116.331Y-116.432
X116.331Y-118.972
X116.331Y-121.512
X116.331Y-124.052
X116.331Y-126.592
X116.331Y-129.132
X116.331Y-131.672
X116.331Y-134.212
X116.331Y-136.752
X116.559Y-108.812
X118.87Y-59.599
X118.87Y-108.812
X121.41Y-59.599
X121.41Y-108.812
X123.95Y-59.599
X123.95Y-108.812
X126.49Y-59.599
X126.49Y-108.812
X129.03Y-59.599
X129.03Y-108.812
X131.342Y-59.599
X131.57Y-31.659
X131.57Y-34.199
X131.57Y-36.739
X131.57Y-39.279
X131.57Y-41.819
X131.57Y-44.359
X131.57Y-46.899
X131.57Y-49.439
X131.57Y-51.979
X131.57Y-54.519
X131.57Y-57.059
X131.57Y-108.812
X131.57Y-111.352
X131.57Y-113.892
X131.57Y-116.432
X131.57Y-118.972
X131.57Y-121.512
X131.57Y-124.052
X131.57Y-126.592
X131.57Y-129.132
X131.57Y-131.672
X131.57Y-134.212
X131.57Y-136.752
T7
X78.707Y-67.781
X78.707Y-72.381
X78.707Y-76.981
X78.707Y-81.581
X78.707Y-105.881
X78.707Y-110.481
X78.707Y-115.081
X78.707Y-119.681
X98.001Y-123.137
X98.35Y-45.274
X102.6Y-123.137
X102.95Y-45.274
X107.2Y-123.137
X107.55Y-45.274
X111.8Y-123.137
X112.15Y-45.274
T8
X88.391Y-32.771
X88.391Y-51.821
X88.391Y-70.871
X88.391Y-89.921
X88.391Y-108.971
X90.93Y-39.121
X90.93Y-58.171
X90.93Y-77.221
X90.93Y-96.271
X90.93Y-115.321
X101.09Y-62.616
X102.361Y-98.811
X102.361Y-117.861
X107.441Y-60.076
X108.71Y-96.271
X108.71Y-115.321
X120.14Y-53.091
X120.14Y-72.141
X121.41Y-98.811
X121.41Y-117.861
X126.49Y-50.551
X126.49Y-69.601
X127.76Y-96.271
X127.76Y-115.321
X139.19Y-53.091
X139.19Y-72.141
X140.46Y-98.811
X140.46Y-117.861
X145.54Y-50.551
X145.54Y-69.601
X146.81Y-96.271
X146.81Y-115.321
X148.715Y-34.041
X149.986Y-136.911
X155.065Y-31.501
X156.335Y-134.371
X158.24Y-53.091
X158.24Y-72.141
X159.51Y-98.811
X159.51Y-117.861
X164.59Y-50.551
X164.59Y-69.601
X165.861Y-96.271
X165.861Y-115.321
X177.29Y-53.091
X177.29Y-72.141
X178.56Y-108.336
X183.641Y-50.551
X183.641Y-69.601
X184.91Y-105.796
X196.34Y-53.091
X196.34Y-72.141
X197.611Y-108.336
X202.69Y-50.551
X202.69Y-69.601
X203.96Y-105.796
T3
X102.6Y-31.249G85X102.6Y-30.849
G05
X102.6Y-34.249G85X102.6Y-33.849
G05
X102.6Y-38.249G85X102.6Y-37.849
G05
X102.6Y-129.062G85X102.6Y-129.462
G05
X107.2Y-39.349G85X107.2Y-38.949
G05
X107.2Y-130.162G85X107.2Y-130.562
G05
X107.2Y-134.162G85X107.2Y-134.562
G05
X107.2Y-137.162G85X107.2Y-137.562
G05
M30
