%TF.GenerationSoftware,KiCad,Pcbnew,7.0.10*%
%TF.CreationDate,2024-02-04T11:58:59-08:00*%
%TF.ProjectId,oddball_steno,6f646462-616c-46c5-9f73-74656e6f2e6b,rev?*%
%TF.SameCoordinates,Original*%
%TF.FileFunction,Legend,Bot*%
%TF.FilePolarity,Positive*%
%FSLAX46Y46*%
G04 Gerber Fmt 4.6, Leading zero omitted, Abs format (unit mm)*
G04 Created by KiCad (PCBNEW 7.0.10) date 2024-02-04 11:58:59*
%MOMM*%
%LPD*%
G01*
G04 APERTURE LIST*
G04 Aperture macros list*
%AMRoundRect*
0 Rectangle with rounded corners*
0 $1 Rounding radius*
0 $2 $3 $4 $5 $6 $7 $8 $9 X,Y pos of 4 corners*
0 Add a 4 corners polygon primitive as box body*
4,1,4,$2,$3,$4,$5,$6,$7,$8,$9,$2,$3,0*
0 Add four circle primitives for the rounded corners*
1,1,$1+$1,$2,$3*
1,1,$1+$1,$4,$5*
1,1,$1+$1,$6,$7*
1,1,$1+$1,$8,$9*
0 Add four rect primitives between the rounded corners*
20,1,$1+$1,$2,$3,$4,$5,0*
20,1,$1+$1,$4,$5,$6,$7,0*
20,1,$1+$1,$6,$7,$8,$9,0*
20,1,$1+$1,$8,$9,$2,$3,0*%
G04 Aperture macros list end*
%ADD10C,0.150000*%
%ADD11C,0.200000*%
%ADD12C,0.120000*%
%ADD13C,0.381000*%
%ADD14C,1.752600*%
%ADD15R,1.752600X1.752600*%
%ADD16C,1.651000*%
%ADD17C,1.000000*%
%ADD18C,2.000000*%
%ADD19C,1.750000*%
%ADD20C,4.000000*%
%ADD21C,2.500000*%
%ADD22C,2.100000*%
%ADD23RoundRect,0.250001X-0.799999X-0.799999X0.799999X-0.799999X0.799999X0.799999X-0.799999X0.799999X0*%
%ADD24R,1.600000X1.600000*%
%ADD25O,1.600000X1.600000*%
%ADD26RoundRect,0.250001X-0.799999X0.799999X-0.799999X-0.799999X0.799999X-0.799999X0.799999X0.799999X0*%
%ADD27R,1.700000X1.700000*%
%ADD28O,1.700000X1.700000*%
%ADD29R,2.800000X1.000000*%
%ADD30RoundRect,0.250001X0.799999X0.799999X-0.799999X0.799999X-0.799999X-0.799999X0.799999X-0.799999X0*%
%ADD31C,0.800000*%
%ADD32O,1.600000X2.000000*%
G04 APERTURE END LIST*
D10*
X100558833Y-146135444D02*
X100892166Y-145659253D01*
X101130261Y-146135444D02*
X101130261Y-145135444D01*
X101130261Y-145135444D02*
X100749309Y-145135444D01*
X100749309Y-145135444D02*
X100654071Y-145183063D01*
X100654071Y-145183063D02*
X100606452Y-145230682D01*
X100606452Y-145230682D02*
X100558833Y-145325920D01*
X100558833Y-145325920D02*
X100558833Y-145468777D01*
X100558833Y-145468777D02*
X100606452Y-145564015D01*
X100606452Y-145564015D02*
X100654071Y-145611634D01*
X100654071Y-145611634D02*
X100749309Y-145659253D01*
X100749309Y-145659253D02*
X101130261Y-145659253D01*
X100130261Y-145611634D02*
X99796928Y-145611634D01*
X99654071Y-146135444D02*
X100130261Y-146135444D01*
X100130261Y-146135444D02*
X100130261Y-145135444D01*
X100130261Y-145135444D02*
X99654071Y-145135444D01*
X98892166Y-145611634D02*
X99225499Y-145611634D01*
X99225499Y-146135444D02*
X99225499Y-145135444D01*
X99225499Y-145135444D02*
X98749309Y-145135444D01*
X98225499Y-145135444D02*
X98225499Y-145373539D01*
X98463594Y-145278301D02*
X98225499Y-145373539D01*
X98225499Y-145373539D02*
X97987404Y-145278301D01*
X98368356Y-145564015D02*
X98225499Y-145373539D01*
X98225499Y-145373539D02*
X98082642Y-145564015D01*
X97463594Y-145135444D02*
X97463594Y-145373539D01*
X97701689Y-145278301D02*
X97463594Y-145373539D01*
X97463594Y-145373539D02*
X97225499Y-145278301D01*
X97606451Y-145564015D02*
X97463594Y-145373539D01*
X97463594Y-145373539D02*
X97320737Y-145564015D01*
X207158833Y-146135444D02*
X207492166Y-145659253D01*
X207730261Y-146135444D02*
X207730261Y-145135444D01*
X207730261Y-145135444D02*
X207349309Y-145135444D01*
X207349309Y-145135444D02*
X207254071Y-145183063D01*
X207254071Y-145183063D02*
X207206452Y-145230682D01*
X207206452Y-145230682D02*
X207158833Y-145325920D01*
X207158833Y-145325920D02*
X207158833Y-145468777D01*
X207158833Y-145468777D02*
X207206452Y-145564015D01*
X207206452Y-145564015D02*
X207254071Y-145611634D01*
X207254071Y-145611634D02*
X207349309Y-145659253D01*
X207349309Y-145659253D02*
X207730261Y-145659253D01*
X206730261Y-145611634D02*
X206396928Y-145611634D01*
X206254071Y-146135444D02*
X206730261Y-146135444D01*
X206730261Y-146135444D02*
X206730261Y-145135444D01*
X206730261Y-145135444D02*
X206254071Y-145135444D01*
X205492166Y-145611634D02*
X205825499Y-145611634D01*
X205825499Y-146135444D02*
X205825499Y-145135444D01*
X205825499Y-145135444D02*
X205349309Y-145135444D01*
X204825499Y-145135444D02*
X204825499Y-145373539D01*
X205063594Y-145278301D02*
X204825499Y-145373539D01*
X204825499Y-145373539D02*
X204587404Y-145278301D01*
X204968356Y-145564015D02*
X204825499Y-145373539D01*
X204825499Y-145373539D02*
X204682642Y-145564015D01*
X204063594Y-145135444D02*
X204063594Y-145373539D01*
X204301689Y-145278301D02*
X204063594Y-145373539D01*
X204063594Y-145373539D02*
X203825499Y-145278301D01*
X204206451Y-145564015D02*
X204063594Y-145373539D01*
X204063594Y-145373539D02*
X203920737Y-145564015D01*
X81103833Y-21705444D02*
X81437166Y-21229253D01*
X81675261Y-21705444D02*
X81675261Y-20705444D01*
X81675261Y-20705444D02*
X81294309Y-20705444D01*
X81294309Y-20705444D02*
X81199071Y-20753063D01*
X81199071Y-20753063D02*
X81151452Y-20800682D01*
X81151452Y-20800682D02*
X81103833Y-20895920D01*
X81103833Y-20895920D02*
X81103833Y-21038777D01*
X81103833Y-21038777D02*
X81151452Y-21134015D01*
X81151452Y-21134015D02*
X81199071Y-21181634D01*
X81199071Y-21181634D02*
X81294309Y-21229253D01*
X81294309Y-21229253D02*
X81675261Y-21229253D01*
X80675261Y-21181634D02*
X80341928Y-21181634D01*
X80199071Y-21705444D02*
X80675261Y-21705444D01*
X80675261Y-21705444D02*
X80675261Y-20705444D01*
X80675261Y-20705444D02*
X80199071Y-20705444D01*
X79437166Y-21181634D02*
X79770499Y-21181634D01*
X79770499Y-21705444D02*
X79770499Y-20705444D01*
X79770499Y-20705444D02*
X79294309Y-20705444D01*
X78770499Y-20705444D02*
X78770499Y-20943539D01*
X79008594Y-20848301D02*
X78770499Y-20943539D01*
X78770499Y-20943539D02*
X78532404Y-20848301D01*
X78913356Y-21134015D02*
X78770499Y-20943539D01*
X78770499Y-20943539D02*
X78627642Y-21134015D01*
X78008594Y-20705444D02*
X78008594Y-20943539D01*
X78246689Y-20848301D02*
X78008594Y-20943539D01*
X78008594Y-20943539D02*
X77770499Y-20848301D01*
X78151451Y-21134015D02*
X78008594Y-20943539D01*
X78008594Y-20943539D02*
X77865737Y-21134015D01*
X205103833Y-21725444D02*
X205437166Y-21249253D01*
X205675261Y-21725444D02*
X205675261Y-20725444D01*
X205675261Y-20725444D02*
X205294309Y-20725444D01*
X205294309Y-20725444D02*
X205199071Y-20773063D01*
X205199071Y-20773063D02*
X205151452Y-20820682D01*
X205151452Y-20820682D02*
X205103833Y-20915920D01*
X205103833Y-20915920D02*
X205103833Y-21058777D01*
X205103833Y-21058777D02*
X205151452Y-21154015D01*
X205151452Y-21154015D02*
X205199071Y-21201634D01*
X205199071Y-21201634D02*
X205294309Y-21249253D01*
X205294309Y-21249253D02*
X205675261Y-21249253D01*
X204675261Y-21201634D02*
X204341928Y-21201634D01*
X204199071Y-21725444D02*
X204675261Y-21725444D01*
X204675261Y-21725444D02*
X204675261Y-20725444D01*
X204675261Y-20725444D02*
X204199071Y-20725444D01*
X203437166Y-21201634D02*
X203770499Y-21201634D01*
X203770499Y-21725444D02*
X203770499Y-20725444D01*
X203770499Y-20725444D02*
X203294309Y-20725444D01*
X202770499Y-20725444D02*
X202770499Y-20963539D01*
X203008594Y-20868301D02*
X202770499Y-20963539D01*
X202770499Y-20963539D02*
X202532404Y-20868301D01*
X202913356Y-21154015D02*
X202770499Y-20963539D01*
X202770499Y-20963539D02*
X202627642Y-21154015D01*
X202008594Y-20725444D02*
X202008594Y-20963539D01*
X202246689Y-20868301D02*
X202008594Y-20963539D01*
X202008594Y-20963539D02*
X201770499Y-20868301D01*
X202151451Y-21154015D02*
X202008594Y-20963539D01*
X202008594Y-20963539D02*
X201865737Y-21154015D01*
X190461569Y-66916339D02*
X189461569Y-66916339D01*
X189461569Y-66916339D02*
X189461569Y-67154434D01*
X189461569Y-67154434D02*
X189509188Y-67297291D01*
X189509188Y-67297291D02*
X189604426Y-67392529D01*
X189604426Y-67392529D02*
X189699664Y-67440148D01*
X189699664Y-67440148D02*
X189890140Y-67487767D01*
X189890140Y-67487767D02*
X190032997Y-67487767D01*
X190032997Y-67487767D02*
X190223473Y-67440148D01*
X190223473Y-67440148D02*
X190318711Y-67392529D01*
X190318711Y-67392529D02*
X190413950Y-67297291D01*
X190413950Y-67297291D02*
X190461569Y-67154434D01*
X190461569Y-67154434D02*
X190461569Y-66916339D01*
X189556807Y-67868720D02*
X189509188Y-67916339D01*
X189509188Y-67916339D02*
X189461569Y-68011577D01*
X189461569Y-68011577D02*
X189461569Y-68249672D01*
X189461569Y-68249672D02*
X189509188Y-68344910D01*
X189509188Y-68344910D02*
X189556807Y-68392529D01*
X189556807Y-68392529D02*
X189652045Y-68440148D01*
X189652045Y-68440148D02*
X189747283Y-68440148D01*
X189747283Y-68440148D02*
X189890140Y-68392529D01*
X189890140Y-68392529D02*
X190461569Y-67821101D01*
X190461569Y-67821101D02*
X190461569Y-68440148D01*
X190461569Y-69392529D02*
X190461569Y-68821101D01*
X190461569Y-69106815D02*
X189461569Y-69106815D01*
X189461569Y-69106815D02*
X189604426Y-69011577D01*
X189604426Y-69011577D02*
X189699664Y-68916339D01*
X189699664Y-68916339D02*
X189747283Y-68821101D01*
X189280319Y-70533720D02*
X188280319Y-70533720D01*
X189280319Y-71105148D02*
X188708890Y-70676577D01*
X188280319Y-71105148D02*
X188851747Y-70533720D01*
X75621569Y-105462291D02*
X76335854Y-105462291D01*
X76335854Y-105462291D02*
X76478711Y-105414672D01*
X76478711Y-105414672D02*
X76573950Y-105319434D01*
X76573950Y-105319434D02*
X76621569Y-105176577D01*
X76621569Y-105176577D02*
X76621569Y-105081339D01*
X75621569Y-106367053D02*
X75621569Y-106176577D01*
X75621569Y-106176577D02*
X75669188Y-106081339D01*
X75669188Y-106081339D02*
X75716807Y-106033720D01*
X75716807Y-106033720D02*
X75859664Y-105938482D01*
X75859664Y-105938482D02*
X76050140Y-105890863D01*
X76050140Y-105890863D02*
X76431092Y-105890863D01*
X76431092Y-105890863D02*
X76526330Y-105938482D01*
X76526330Y-105938482D02*
X76573950Y-105986101D01*
X76573950Y-105986101D02*
X76621569Y-106081339D01*
X76621569Y-106081339D02*
X76621569Y-106271815D01*
X76621569Y-106271815D02*
X76573950Y-106367053D01*
X76573950Y-106367053D02*
X76526330Y-106414672D01*
X76526330Y-106414672D02*
X76431092Y-106462291D01*
X76431092Y-106462291D02*
X76192997Y-106462291D01*
X76192997Y-106462291D02*
X76097759Y-106414672D01*
X76097759Y-106414672D02*
X76050140Y-106367053D01*
X76050140Y-106367053D02*
X76002521Y-106271815D01*
X76002521Y-106271815D02*
X76002521Y-106081339D01*
X76002521Y-106081339D02*
X76050140Y-105986101D01*
X76050140Y-105986101D02*
X76097759Y-105938482D01*
X76097759Y-105938482D02*
X76192997Y-105890863D01*
X129678166Y-123995122D02*
X129944832Y-123995122D01*
X129944832Y-124414170D02*
X129944832Y-123614170D01*
X129944832Y-123614170D02*
X129563880Y-123614170D01*
X128916261Y-123614170D02*
X129068642Y-123614170D01*
X129068642Y-123614170D02*
X129144833Y-123652265D01*
X129144833Y-123652265D02*
X129182928Y-123690360D01*
X129182928Y-123690360D02*
X129259118Y-123804646D01*
X129259118Y-123804646D02*
X129297214Y-123957027D01*
X129297214Y-123957027D02*
X129297214Y-124261789D01*
X129297214Y-124261789D02*
X129259118Y-124337979D01*
X129259118Y-124337979D02*
X129221023Y-124376075D01*
X129221023Y-124376075D02*
X129144833Y-124414170D01*
X129144833Y-124414170D02*
X128992452Y-124414170D01*
X128992452Y-124414170D02*
X128916261Y-124376075D01*
X128916261Y-124376075D02*
X128878166Y-124337979D01*
X128878166Y-124337979D02*
X128840071Y-124261789D01*
X128840071Y-124261789D02*
X128840071Y-124071313D01*
X128840071Y-124071313D02*
X128878166Y-123995122D01*
X128878166Y-123995122D02*
X128916261Y-123957027D01*
X128916261Y-123957027D02*
X128992452Y-123918932D01*
X128992452Y-123918932D02*
X129144833Y-123918932D01*
X129144833Y-123918932D02*
X129221023Y-123957027D01*
X129221023Y-123957027D02*
X129259118Y-123995122D01*
X129259118Y-123995122D02*
X129297214Y-124071313D01*
X126757166Y-112865122D02*
X127023832Y-112865122D01*
X127023832Y-113284170D02*
X127023832Y-112484170D01*
X127023832Y-112484170D02*
X126642880Y-112484170D01*
X125919071Y-113284170D02*
X126376214Y-113284170D01*
X126147642Y-113284170D02*
X126147642Y-112484170D01*
X126147642Y-112484170D02*
X126223833Y-112598455D01*
X126223833Y-112598455D02*
X126300023Y-112674646D01*
X126300023Y-112674646D02*
X126376214Y-112712741D01*
X119099023Y-131272265D02*
X119175213Y-131234170D01*
X119175213Y-131234170D02*
X119289499Y-131234170D01*
X119289499Y-131234170D02*
X119403785Y-131272265D01*
X119403785Y-131272265D02*
X119479975Y-131348455D01*
X119479975Y-131348455D02*
X119518070Y-131424646D01*
X119518070Y-131424646D02*
X119556166Y-131577027D01*
X119556166Y-131577027D02*
X119556166Y-131691313D01*
X119556166Y-131691313D02*
X119518070Y-131843694D01*
X119518070Y-131843694D02*
X119479975Y-131919884D01*
X119479975Y-131919884D02*
X119403785Y-131996075D01*
X119403785Y-131996075D02*
X119289499Y-132034170D01*
X119289499Y-132034170D02*
X119213308Y-132034170D01*
X119213308Y-132034170D02*
X119099023Y-131996075D01*
X119099023Y-131996075D02*
X119060927Y-131957979D01*
X119060927Y-131957979D02*
X119060927Y-131691313D01*
X119060927Y-131691313D02*
X119213308Y-131691313D01*
X118718070Y-132034170D02*
X118718070Y-131234170D01*
X118718070Y-131234170D02*
X118260927Y-132034170D01*
X118260927Y-132034170D02*
X118260927Y-131234170D01*
X117879975Y-132034170D02*
X117879975Y-131234170D01*
X117879975Y-131234170D02*
X117689499Y-131234170D01*
X117689499Y-131234170D02*
X117575213Y-131272265D01*
X117575213Y-131272265D02*
X117499023Y-131348455D01*
X117499023Y-131348455D02*
X117460928Y-131424646D01*
X117460928Y-131424646D02*
X117422832Y-131577027D01*
X117422832Y-131577027D02*
X117422832Y-131691313D01*
X117422832Y-131691313D02*
X117460928Y-131843694D01*
X117460928Y-131843694D02*
X117499023Y-131919884D01*
X117499023Y-131919884D02*
X117575213Y-131996075D01*
X117575213Y-131996075D02*
X117689499Y-132034170D01*
X117689499Y-132034170D02*
X117879975Y-132034170D01*
X130021023Y-136352265D02*
X130097213Y-136314170D01*
X130097213Y-136314170D02*
X130211499Y-136314170D01*
X130211499Y-136314170D02*
X130325785Y-136352265D01*
X130325785Y-136352265D02*
X130401975Y-136428455D01*
X130401975Y-136428455D02*
X130440070Y-136504646D01*
X130440070Y-136504646D02*
X130478166Y-136657027D01*
X130478166Y-136657027D02*
X130478166Y-136771313D01*
X130478166Y-136771313D02*
X130440070Y-136923694D01*
X130440070Y-136923694D02*
X130401975Y-136999884D01*
X130401975Y-136999884D02*
X130325785Y-137076075D01*
X130325785Y-137076075D02*
X130211499Y-137114170D01*
X130211499Y-137114170D02*
X130135308Y-137114170D01*
X130135308Y-137114170D02*
X130021023Y-137076075D01*
X130021023Y-137076075D02*
X129982927Y-137037979D01*
X129982927Y-137037979D02*
X129982927Y-136771313D01*
X129982927Y-136771313D02*
X130135308Y-136771313D01*
X129640070Y-137114170D02*
X129640070Y-136314170D01*
X129640070Y-136314170D02*
X129182927Y-137114170D01*
X129182927Y-137114170D02*
X129182927Y-136314170D01*
X128801975Y-137114170D02*
X128801975Y-136314170D01*
X128801975Y-136314170D02*
X128611499Y-136314170D01*
X128611499Y-136314170D02*
X128497213Y-136352265D01*
X128497213Y-136352265D02*
X128421023Y-136428455D01*
X128421023Y-136428455D02*
X128382928Y-136504646D01*
X128382928Y-136504646D02*
X128344832Y-136657027D01*
X128344832Y-136657027D02*
X128344832Y-136771313D01*
X128344832Y-136771313D02*
X128382928Y-136923694D01*
X128382928Y-136923694D02*
X128421023Y-136999884D01*
X128421023Y-136999884D02*
X128497213Y-137076075D01*
X128497213Y-137076075D02*
X128611499Y-137114170D01*
X128611499Y-137114170D02*
X128801975Y-137114170D01*
X129678166Y-129075122D02*
X129944832Y-129075122D01*
X129944832Y-129494170D02*
X129944832Y-128694170D01*
X129944832Y-128694170D02*
X129563880Y-128694170D01*
X128916261Y-128960836D02*
X128916261Y-129494170D01*
X129106737Y-128656075D02*
X129297214Y-129227503D01*
X129297214Y-129227503D02*
X128801975Y-129227503D01*
X129735309Y-118915122D02*
X129621023Y-118953217D01*
X129621023Y-118953217D02*
X129582928Y-118991313D01*
X129582928Y-118991313D02*
X129544832Y-119067503D01*
X129544832Y-119067503D02*
X129544832Y-119181789D01*
X129544832Y-119181789D02*
X129582928Y-119257979D01*
X129582928Y-119257979D02*
X129621023Y-119296075D01*
X129621023Y-119296075D02*
X129697213Y-119334170D01*
X129697213Y-119334170D02*
X130001975Y-119334170D01*
X130001975Y-119334170D02*
X130001975Y-118534170D01*
X130001975Y-118534170D02*
X129735309Y-118534170D01*
X129735309Y-118534170D02*
X129659118Y-118572265D01*
X129659118Y-118572265D02*
X129621023Y-118610360D01*
X129621023Y-118610360D02*
X129582928Y-118686551D01*
X129582928Y-118686551D02*
X129582928Y-118762741D01*
X129582928Y-118762741D02*
X129621023Y-118838932D01*
X129621023Y-118838932D02*
X129659118Y-118877027D01*
X129659118Y-118877027D02*
X129735309Y-118915122D01*
X129735309Y-118915122D02*
X130001975Y-118915122D01*
X128782928Y-119334170D02*
X129240071Y-119334170D01*
X129011499Y-119334170D02*
X129011499Y-118534170D01*
X129011499Y-118534170D02*
X129087690Y-118648455D01*
X129087690Y-118648455D02*
X129163880Y-118724646D01*
X129163880Y-118724646D02*
X129240071Y-118762741D01*
X128683833Y-112665122D02*
X128917166Y-112665122D01*
X128917166Y-113084170D02*
X128917166Y-112284170D01*
X128917166Y-112284170D02*
X128583833Y-112284170D01*
X128183833Y-112284170D02*
X128117166Y-112284170D01*
X128117166Y-112284170D02*
X128050499Y-112322265D01*
X128050499Y-112322265D02*
X128017166Y-112360360D01*
X128017166Y-112360360D02*
X127983833Y-112436551D01*
X127983833Y-112436551D02*
X127950499Y-112588932D01*
X127950499Y-112588932D02*
X127950499Y-112779408D01*
X127950499Y-112779408D02*
X127983833Y-112931789D01*
X127983833Y-112931789D02*
X128017166Y-113007979D01*
X128017166Y-113007979D02*
X128050499Y-113046075D01*
X128050499Y-113046075D02*
X128117166Y-113084170D01*
X128117166Y-113084170D02*
X128183833Y-113084170D01*
X128183833Y-113084170D02*
X128250499Y-113046075D01*
X128250499Y-113046075D02*
X128283833Y-113007979D01*
X128283833Y-113007979D02*
X128317166Y-112931789D01*
X128317166Y-112931789D02*
X128350499Y-112779408D01*
X128350499Y-112779408D02*
X128350499Y-112588932D01*
X128350499Y-112588932D02*
X128317166Y-112436551D01*
X128317166Y-112436551D02*
X128283833Y-112360360D01*
X128283833Y-112360360D02*
X128250499Y-112322265D01*
X128250499Y-112322265D02*
X128183833Y-112284170D01*
X119079975Y-129494170D02*
X119079975Y-128694170D01*
X119079975Y-128694170D02*
X118889499Y-128694170D01*
X118889499Y-128694170D02*
X118775213Y-128732265D01*
X118775213Y-128732265D02*
X118699023Y-128808455D01*
X118699023Y-128808455D02*
X118660928Y-128884646D01*
X118660928Y-128884646D02*
X118622832Y-129037027D01*
X118622832Y-129037027D02*
X118622832Y-129151313D01*
X118622832Y-129151313D02*
X118660928Y-129303694D01*
X118660928Y-129303694D02*
X118699023Y-129379884D01*
X118699023Y-129379884D02*
X118775213Y-129456075D01*
X118775213Y-129456075D02*
X118889499Y-129494170D01*
X118889499Y-129494170D02*
X119079975Y-129494170D01*
X117860928Y-129494170D02*
X118318071Y-129494170D01*
X118089499Y-129494170D02*
X118089499Y-128694170D01*
X118089499Y-128694170D02*
X118165690Y-128808455D01*
X118165690Y-128808455D02*
X118241880Y-128884646D01*
X118241880Y-128884646D02*
X118318071Y-128922741D01*
X129735309Y-113835122D02*
X129621023Y-113873217D01*
X129621023Y-113873217D02*
X129582928Y-113911313D01*
X129582928Y-113911313D02*
X129544832Y-113987503D01*
X129544832Y-113987503D02*
X129544832Y-114101789D01*
X129544832Y-114101789D02*
X129582928Y-114177979D01*
X129582928Y-114177979D02*
X129621023Y-114216075D01*
X129621023Y-114216075D02*
X129697213Y-114254170D01*
X129697213Y-114254170D02*
X130001975Y-114254170D01*
X130001975Y-114254170D02*
X130001975Y-113454170D01*
X130001975Y-113454170D02*
X129735309Y-113454170D01*
X129735309Y-113454170D02*
X129659118Y-113492265D01*
X129659118Y-113492265D02*
X129621023Y-113530360D01*
X129621023Y-113530360D02*
X129582928Y-113606551D01*
X129582928Y-113606551D02*
X129582928Y-113682741D01*
X129582928Y-113682741D02*
X129621023Y-113758932D01*
X129621023Y-113758932D02*
X129659118Y-113797027D01*
X129659118Y-113797027D02*
X129735309Y-113835122D01*
X129735309Y-113835122D02*
X130001975Y-113835122D01*
X129240071Y-113530360D02*
X129201975Y-113492265D01*
X129201975Y-113492265D02*
X129125785Y-113454170D01*
X129125785Y-113454170D02*
X128935309Y-113454170D01*
X128935309Y-113454170D02*
X128859118Y-113492265D01*
X128859118Y-113492265D02*
X128821023Y-113530360D01*
X128821023Y-113530360D02*
X128782928Y-113606551D01*
X128782928Y-113606551D02*
X128782928Y-113682741D01*
X128782928Y-113682741D02*
X128821023Y-113797027D01*
X128821023Y-113797027D02*
X129278166Y-114254170D01*
X129278166Y-114254170D02*
X128782928Y-114254170D01*
X129735309Y-116375122D02*
X129621023Y-116413217D01*
X129621023Y-116413217D02*
X129582928Y-116451313D01*
X129582928Y-116451313D02*
X129544832Y-116527503D01*
X129544832Y-116527503D02*
X129544832Y-116641789D01*
X129544832Y-116641789D02*
X129582928Y-116717979D01*
X129582928Y-116717979D02*
X129621023Y-116756075D01*
X129621023Y-116756075D02*
X129697213Y-116794170D01*
X129697213Y-116794170D02*
X130001975Y-116794170D01*
X130001975Y-116794170D02*
X130001975Y-115994170D01*
X130001975Y-115994170D02*
X129735309Y-115994170D01*
X129735309Y-115994170D02*
X129659118Y-116032265D01*
X129659118Y-116032265D02*
X129621023Y-116070360D01*
X129621023Y-116070360D02*
X129582928Y-116146551D01*
X129582928Y-116146551D02*
X129582928Y-116222741D01*
X129582928Y-116222741D02*
X129621023Y-116298932D01*
X129621023Y-116298932D02*
X129659118Y-116337027D01*
X129659118Y-116337027D02*
X129735309Y-116375122D01*
X129735309Y-116375122D02*
X130001975Y-116375122D01*
X129278166Y-115994170D02*
X128782928Y-115994170D01*
X128782928Y-115994170D02*
X129049594Y-116298932D01*
X129049594Y-116298932D02*
X128935309Y-116298932D01*
X128935309Y-116298932D02*
X128859118Y-116337027D01*
X128859118Y-116337027D02*
X128821023Y-116375122D01*
X128821023Y-116375122D02*
X128782928Y-116451313D01*
X128782928Y-116451313D02*
X128782928Y-116641789D01*
X128782928Y-116641789D02*
X128821023Y-116717979D01*
X128821023Y-116717979D02*
X128859118Y-116756075D01*
X128859118Y-116756075D02*
X128935309Y-116794170D01*
X128935309Y-116794170D02*
X129163880Y-116794170D01*
X129163880Y-116794170D02*
X129240071Y-116756075D01*
X129240071Y-116756075D02*
X129278166Y-116717979D01*
X130478166Y-131234170D02*
X130211499Y-132034170D01*
X130211499Y-132034170D02*
X129944833Y-131234170D01*
X129221023Y-131957979D02*
X129259119Y-131996075D01*
X129259119Y-131996075D02*
X129373404Y-132034170D01*
X129373404Y-132034170D02*
X129449595Y-132034170D01*
X129449595Y-132034170D02*
X129563881Y-131996075D01*
X129563881Y-131996075D02*
X129640071Y-131919884D01*
X129640071Y-131919884D02*
X129678166Y-131843694D01*
X129678166Y-131843694D02*
X129716262Y-131691313D01*
X129716262Y-131691313D02*
X129716262Y-131577027D01*
X129716262Y-131577027D02*
X129678166Y-131424646D01*
X129678166Y-131424646D02*
X129640071Y-131348455D01*
X129640071Y-131348455D02*
X129563881Y-131272265D01*
X129563881Y-131272265D02*
X129449595Y-131234170D01*
X129449595Y-131234170D02*
X129373404Y-131234170D01*
X129373404Y-131234170D02*
X129259119Y-131272265D01*
X129259119Y-131272265D02*
X129221023Y-131310360D01*
X128421023Y-131957979D02*
X128459119Y-131996075D01*
X128459119Y-131996075D02*
X128573404Y-132034170D01*
X128573404Y-132034170D02*
X128649595Y-132034170D01*
X128649595Y-132034170D02*
X128763881Y-131996075D01*
X128763881Y-131996075D02*
X128840071Y-131919884D01*
X128840071Y-131919884D02*
X128878166Y-131843694D01*
X128878166Y-131843694D02*
X128916262Y-131691313D01*
X128916262Y-131691313D02*
X128916262Y-131577027D01*
X128916262Y-131577027D02*
X128878166Y-131424646D01*
X128878166Y-131424646D02*
X128840071Y-131348455D01*
X128840071Y-131348455D02*
X128763881Y-131272265D01*
X128763881Y-131272265D02*
X128649595Y-131234170D01*
X128649595Y-131234170D02*
X128573404Y-131234170D01*
X128573404Y-131234170D02*
X128459119Y-131272265D01*
X128459119Y-131272265D02*
X128421023Y-131310360D01*
X119079975Y-119334170D02*
X119079975Y-118534170D01*
X119079975Y-118534170D02*
X118889499Y-118534170D01*
X118889499Y-118534170D02*
X118775213Y-118572265D01*
X118775213Y-118572265D02*
X118699023Y-118648455D01*
X118699023Y-118648455D02*
X118660928Y-118724646D01*
X118660928Y-118724646D02*
X118622832Y-118877027D01*
X118622832Y-118877027D02*
X118622832Y-118991313D01*
X118622832Y-118991313D02*
X118660928Y-119143694D01*
X118660928Y-119143694D02*
X118699023Y-119219884D01*
X118699023Y-119219884D02*
X118775213Y-119296075D01*
X118775213Y-119296075D02*
X118889499Y-119334170D01*
X118889499Y-119334170D02*
X119079975Y-119334170D01*
X118356166Y-118534170D02*
X117822832Y-118534170D01*
X117822832Y-118534170D02*
X118165690Y-119334170D01*
X130110023Y-112461658D02*
X130207671Y-112505431D01*
X130207671Y-112505431D02*
X130258179Y-112502064D01*
X130258179Y-112502064D02*
X130335624Y-112471759D01*
X130335624Y-112471759D02*
X130416436Y-112390947D01*
X130416436Y-112390947D02*
X130446740Y-112313502D01*
X130446740Y-112313502D02*
X130450108Y-112262994D01*
X130450108Y-112262994D02*
X130429904Y-112188917D01*
X130429904Y-112188917D02*
X130241343Y-112000355D01*
X130241343Y-112000355D02*
X129675657Y-112566040D01*
X129675657Y-112566040D02*
X129840649Y-112731032D01*
X129840649Y-112731032D02*
X129914727Y-112751235D01*
X129914727Y-112751235D02*
X129965234Y-112747868D01*
X129965234Y-112747868D02*
X130042679Y-112717563D01*
X130042679Y-112717563D02*
X130096554Y-112663688D01*
X130096554Y-112663688D02*
X130126859Y-112586243D01*
X130126859Y-112586243D02*
X130130226Y-112535736D01*
X130130226Y-112535736D02*
X130110023Y-112461658D01*
X130110023Y-112461658D02*
X129945031Y-112296666D01*
X130382764Y-113273147D02*
X130288483Y-113178866D01*
X130288483Y-113178866D02*
X130268280Y-113104788D01*
X130268280Y-113104788D02*
X130271647Y-113054281D01*
X130271647Y-113054281D02*
X130305319Y-112926328D01*
X130305319Y-112926328D02*
X130389498Y-112795008D01*
X130389498Y-112795008D02*
X130604998Y-112579509D01*
X130604998Y-112579509D02*
X130682443Y-112549204D01*
X130682443Y-112549204D02*
X130732950Y-112545837D01*
X130732950Y-112545837D02*
X130807028Y-112566040D01*
X130807028Y-112566040D02*
X130901309Y-112660321D01*
X130901309Y-112660321D02*
X130921512Y-112734399D01*
X130921512Y-112734399D02*
X130918145Y-112784907D01*
X130918145Y-112784907D02*
X130887840Y-112862352D01*
X130887840Y-112862352D02*
X130753153Y-112997039D01*
X130753153Y-112997039D02*
X130675708Y-113027343D01*
X130675708Y-113027343D02*
X130625201Y-113030710D01*
X130625201Y-113030710D02*
X130551123Y-113010507D01*
X130551123Y-113010507D02*
X130456842Y-112916226D01*
X130456842Y-112916226D02*
X130436639Y-112842149D01*
X130436639Y-112842149D02*
X130440006Y-112791641D01*
X130440006Y-112791641D02*
X130470311Y-112714196D01*
X119079975Y-124414170D02*
X119079975Y-123614170D01*
X119079975Y-123614170D02*
X118889499Y-123614170D01*
X118889499Y-123614170D02*
X118775213Y-123652265D01*
X118775213Y-123652265D02*
X118699023Y-123728455D01*
X118699023Y-123728455D02*
X118660928Y-123804646D01*
X118660928Y-123804646D02*
X118622832Y-123957027D01*
X118622832Y-123957027D02*
X118622832Y-124071313D01*
X118622832Y-124071313D02*
X118660928Y-124223694D01*
X118660928Y-124223694D02*
X118699023Y-124299884D01*
X118699023Y-124299884D02*
X118775213Y-124376075D01*
X118775213Y-124376075D02*
X118889499Y-124414170D01*
X118889499Y-124414170D02*
X119079975Y-124414170D01*
X117937118Y-123880836D02*
X117937118Y-124414170D01*
X118127594Y-123576075D02*
X118318071Y-124147503D01*
X118318071Y-124147503D02*
X117822832Y-124147503D01*
X122000975Y-113284170D02*
X122000975Y-112484170D01*
X122000975Y-112484170D02*
X121810499Y-112484170D01*
X121810499Y-112484170D02*
X121696213Y-112522265D01*
X121696213Y-112522265D02*
X121620023Y-112598455D01*
X121620023Y-112598455D02*
X121581928Y-112674646D01*
X121581928Y-112674646D02*
X121543832Y-112827027D01*
X121543832Y-112827027D02*
X121543832Y-112941313D01*
X121543832Y-112941313D02*
X121581928Y-113093694D01*
X121581928Y-113093694D02*
X121620023Y-113169884D01*
X121620023Y-113169884D02*
X121696213Y-113246075D01*
X121696213Y-113246075D02*
X121810499Y-113284170D01*
X121810499Y-113284170D02*
X122000975Y-113284170D01*
X120820023Y-112484170D02*
X121200975Y-112484170D01*
X121200975Y-112484170D02*
X121239071Y-112865122D01*
X121239071Y-112865122D02*
X121200975Y-112827027D01*
X121200975Y-112827027D02*
X121124785Y-112788932D01*
X121124785Y-112788932D02*
X120934309Y-112788932D01*
X120934309Y-112788932D02*
X120858118Y-112827027D01*
X120858118Y-112827027D02*
X120820023Y-112865122D01*
X120820023Y-112865122D02*
X120781928Y-112941313D01*
X120781928Y-112941313D02*
X120781928Y-113131789D01*
X120781928Y-113131789D02*
X120820023Y-113207979D01*
X120820023Y-113207979D02*
X120858118Y-113246075D01*
X120858118Y-113246075D02*
X120934309Y-113284170D01*
X120934309Y-113284170D02*
X121124785Y-113284170D01*
X121124785Y-113284170D02*
X121200975Y-113246075D01*
X121200975Y-113246075D02*
X121239071Y-113207979D01*
X129678166Y-121455122D02*
X129944832Y-121455122D01*
X129944832Y-121874170D02*
X129944832Y-121074170D01*
X129944832Y-121074170D02*
X129563880Y-121074170D01*
X129335309Y-121074170D02*
X128801975Y-121074170D01*
X128801975Y-121074170D02*
X129144833Y-121874170D01*
X129735309Y-139235122D02*
X129621023Y-139273217D01*
X129621023Y-139273217D02*
X129582928Y-139311313D01*
X129582928Y-139311313D02*
X129544832Y-139387503D01*
X129544832Y-139387503D02*
X129544832Y-139501789D01*
X129544832Y-139501789D02*
X129582928Y-139577979D01*
X129582928Y-139577979D02*
X129621023Y-139616075D01*
X129621023Y-139616075D02*
X129697213Y-139654170D01*
X129697213Y-139654170D02*
X130001975Y-139654170D01*
X130001975Y-139654170D02*
X130001975Y-138854170D01*
X130001975Y-138854170D02*
X129735309Y-138854170D01*
X129735309Y-138854170D02*
X129659118Y-138892265D01*
X129659118Y-138892265D02*
X129621023Y-138930360D01*
X129621023Y-138930360D02*
X129582928Y-139006551D01*
X129582928Y-139006551D02*
X129582928Y-139082741D01*
X129582928Y-139082741D02*
X129621023Y-139158932D01*
X129621023Y-139158932D02*
X129659118Y-139197027D01*
X129659118Y-139197027D02*
X129735309Y-139235122D01*
X129735309Y-139235122D02*
X130001975Y-139235122D01*
X129049594Y-138854170D02*
X128973404Y-138854170D01*
X128973404Y-138854170D02*
X128897213Y-138892265D01*
X128897213Y-138892265D02*
X128859118Y-138930360D01*
X128859118Y-138930360D02*
X128821023Y-139006551D01*
X128821023Y-139006551D02*
X128782928Y-139158932D01*
X128782928Y-139158932D02*
X128782928Y-139349408D01*
X128782928Y-139349408D02*
X128821023Y-139501789D01*
X128821023Y-139501789D02*
X128859118Y-139577979D01*
X128859118Y-139577979D02*
X128897213Y-139616075D01*
X128897213Y-139616075D02*
X128973404Y-139654170D01*
X128973404Y-139654170D02*
X129049594Y-139654170D01*
X129049594Y-139654170D02*
X129125785Y-139616075D01*
X129125785Y-139616075D02*
X129163880Y-139577979D01*
X129163880Y-139577979D02*
X129201975Y-139501789D01*
X129201975Y-139501789D02*
X129240071Y-139349408D01*
X129240071Y-139349408D02*
X129240071Y-139158932D01*
X129240071Y-139158932D02*
X129201975Y-139006551D01*
X129201975Y-139006551D02*
X129163880Y-138930360D01*
X129163880Y-138930360D02*
X129125785Y-138892265D01*
X129125785Y-138892265D02*
X129049594Y-138854170D01*
X124083832Y-113207979D02*
X124121928Y-113246075D01*
X124121928Y-113246075D02*
X124236213Y-113284170D01*
X124236213Y-113284170D02*
X124312404Y-113284170D01*
X124312404Y-113284170D02*
X124426690Y-113246075D01*
X124426690Y-113246075D02*
X124502880Y-113169884D01*
X124502880Y-113169884D02*
X124540975Y-113093694D01*
X124540975Y-113093694D02*
X124579071Y-112941313D01*
X124579071Y-112941313D02*
X124579071Y-112827027D01*
X124579071Y-112827027D02*
X124540975Y-112674646D01*
X124540975Y-112674646D02*
X124502880Y-112598455D01*
X124502880Y-112598455D02*
X124426690Y-112522265D01*
X124426690Y-112522265D02*
X124312404Y-112484170D01*
X124312404Y-112484170D02*
X124236213Y-112484170D01*
X124236213Y-112484170D02*
X124121928Y-112522265D01*
X124121928Y-112522265D02*
X124083832Y-112560360D01*
X123817166Y-112484170D02*
X123283832Y-112484170D01*
X123283832Y-112484170D02*
X123626690Y-113284170D01*
X117710716Y-112381398D02*
X117666943Y-112479046D01*
X117666943Y-112479046D02*
X117670310Y-112529554D01*
X117670310Y-112529554D02*
X117700615Y-112606999D01*
X117700615Y-112606999D02*
X117781427Y-112687811D01*
X117781427Y-112687811D02*
X117858872Y-112718115D01*
X117858872Y-112718115D02*
X117909380Y-112721483D01*
X117909380Y-112721483D02*
X117983457Y-112701279D01*
X117983457Y-112701279D02*
X118172019Y-112512718D01*
X118172019Y-112512718D02*
X117606334Y-111947032D01*
X117606334Y-111947032D02*
X117441342Y-112112024D01*
X117441342Y-112112024D02*
X117421139Y-112186102D01*
X117421139Y-112186102D02*
X117424506Y-112236609D01*
X117424506Y-112236609D02*
X117454811Y-112314054D01*
X117454811Y-112314054D02*
X117508686Y-112367929D01*
X117508686Y-112367929D02*
X117586131Y-112398234D01*
X117586131Y-112398234D02*
X117636638Y-112401601D01*
X117636638Y-112401601D02*
X117710716Y-112381398D01*
X117710716Y-112381398D02*
X117875708Y-112216406D01*
X116875657Y-112677709D02*
X117111359Y-112442007D01*
X117111359Y-112442007D02*
X117404303Y-112687811D01*
X117404303Y-112687811D02*
X117353796Y-112684444D01*
X117353796Y-112684444D02*
X117279718Y-112704647D01*
X117279718Y-112704647D02*
X117161867Y-112822498D01*
X117161867Y-112822498D02*
X117141664Y-112896576D01*
X117141664Y-112896576D02*
X117145031Y-112947083D01*
X117145031Y-112947083D02*
X117175335Y-113024528D01*
X117175335Y-113024528D02*
X117310022Y-113159215D01*
X117310022Y-113159215D02*
X117387467Y-113189520D01*
X117387467Y-113189520D02*
X117437975Y-113192887D01*
X117437975Y-113192887D02*
X117512053Y-113172684D01*
X117512053Y-113172684D02*
X117629904Y-113054833D01*
X117629904Y-113054833D02*
X117650107Y-112980755D01*
X117650107Y-112980755D02*
X117646740Y-112930247D01*
X119733833Y-112665122D02*
X119633833Y-112703217D01*
X119633833Y-112703217D02*
X119600499Y-112741313D01*
X119600499Y-112741313D02*
X119567166Y-112817503D01*
X119567166Y-112817503D02*
X119567166Y-112931789D01*
X119567166Y-112931789D02*
X119600499Y-113007979D01*
X119600499Y-113007979D02*
X119633833Y-113046075D01*
X119633833Y-113046075D02*
X119700499Y-113084170D01*
X119700499Y-113084170D02*
X119967166Y-113084170D01*
X119967166Y-113084170D02*
X119967166Y-112284170D01*
X119967166Y-112284170D02*
X119733833Y-112284170D01*
X119733833Y-112284170D02*
X119667166Y-112322265D01*
X119667166Y-112322265D02*
X119633833Y-112360360D01*
X119633833Y-112360360D02*
X119600499Y-112436551D01*
X119600499Y-112436551D02*
X119600499Y-112512741D01*
X119600499Y-112512741D02*
X119633833Y-112588932D01*
X119633833Y-112588932D02*
X119667166Y-112627027D01*
X119667166Y-112627027D02*
X119733833Y-112665122D01*
X119733833Y-112665122D02*
X119967166Y-112665122D01*
X119333833Y-112284170D02*
X118867166Y-112284170D01*
X118867166Y-112284170D02*
X119167166Y-113084170D01*
X119041880Y-116375122D02*
X118775214Y-116375122D01*
X118660928Y-116794170D02*
X119041880Y-116794170D01*
X119041880Y-116794170D02*
X119041880Y-115994170D01*
X119041880Y-115994170D02*
X118660928Y-115994170D01*
X117975213Y-115994170D02*
X118127594Y-115994170D01*
X118127594Y-115994170D02*
X118203785Y-116032265D01*
X118203785Y-116032265D02*
X118241880Y-116070360D01*
X118241880Y-116070360D02*
X118318070Y-116184646D01*
X118318070Y-116184646D02*
X118356166Y-116337027D01*
X118356166Y-116337027D02*
X118356166Y-116641789D01*
X118356166Y-116641789D02*
X118318070Y-116717979D01*
X118318070Y-116717979D02*
X118279975Y-116756075D01*
X118279975Y-116756075D02*
X118203785Y-116794170D01*
X118203785Y-116794170D02*
X118051404Y-116794170D01*
X118051404Y-116794170D02*
X117975213Y-116756075D01*
X117975213Y-116756075D02*
X117937118Y-116717979D01*
X117937118Y-116717979D02*
X117899023Y-116641789D01*
X117899023Y-116641789D02*
X117899023Y-116451313D01*
X117899023Y-116451313D02*
X117937118Y-116375122D01*
X117937118Y-116375122D02*
X117975213Y-116337027D01*
X117975213Y-116337027D02*
X118051404Y-116298932D01*
X118051404Y-116298932D02*
X118203785Y-116298932D01*
X118203785Y-116298932D02*
X118279975Y-116337027D01*
X118279975Y-116337027D02*
X118318070Y-116375122D01*
X118318070Y-116375122D02*
X118356166Y-116451313D01*
X119099023Y-133812265D02*
X119175213Y-133774170D01*
X119175213Y-133774170D02*
X119289499Y-133774170D01*
X119289499Y-133774170D02*
X119403785Y-133812265D01*
X119403785Y-133812265D02*
X119479975Y-133888455D01*
X119479975Y-133888455D02*
X119518070Y-133964646D01*
X119518070Y-133964646D02*
X119556166Y-134117027D01*
X119556166Y-134117027D02*
X119556166Y-134231313D01*
X119556166Y-134231313D02*
X119518070Y-134383694D01*
X119518070Y-134383694D02*
X119479975Y-134459884D01*
X119479975Y-134459884D02*
X119403785Y-134536075D01*
X119403785Y-134536075D02*
X119289499Y-134574170D01*
X119289499Y-134574170D02*
X119213308Y-134574170D01*
X119213308Y-134574170D02*
X119099023Y-134536075D01*
X119099023Y-134536075D02*
X119060927Y-134497979D01*
X119060927Y-134497979D02*
X119060927Y-134231313D01*
X119060927Y-134231313D02*
X119213308Y-134231313D01*
X118718070Y-134574170D02*
X118718070Y-133774170D01*
X118718070Y-133774170D02*
X118260927Y-134574170D01*
X118260927Y-134574170D02*
X118260927Y-133774170D01*
X117879975Y-134574170D02*
X117879975Y-133774170D01*
X117879975Y-133774170D02*
X117689499Y-133774170D01*
X117689499Y-133774170D02*
X117575213Y-133812265D01*
X117575213Y-133812265D02*
X117499023Y-133888455D01*
X117499023Y-133888455D02*
X117460928Y-133964646D01*
X117460928Y-133964646D02*
X117422832Y-134117027D01*
X117422832Y-134117027D02*
X117422832Y-134231313D01*
X117422832Y-134231313D02*
X117460928Y-134383694D01*
X117460928Y-134383694D02*
X117499023Y-134459884D01*
X117499023Y-134459884D02*
X117575213Y-134536075D01*
X117575213Y-134536075D02*
X117689499Y-134574170D01*
X117689499Y-134574170D02*
X117879975Y-134574170D01*
X129678166Y-126535122D02*
X129944832Y-126535122D01*
X129944832Y-126954170D02*
X129944832Y-126154170D01*
X129944832Y-126154170D02*
X129563880Y-126154170D01*
X128878166Y-126154170D02*
X129259118Y-126154170D01*
X129259118Y-126154170D02*
X129297214Y-126535122D01*
X129297214Y-126535122D02*
X129259118Y-126497027D01*
X129259118Y-126497027D02*
X129182928Y-126458932D01*
X129182928Y-126458932D02*
X128992452Y-126458932D01*
X128992452Y-126458932D02*
X128916261Y-126497027D01*
X128916261Y-126497027D02*
X128878166Y-126535122D01*
X128878166Y-126535122D02*
X128840071Y-126611313D01*
X128840071Y-126611313D02*
X128840071Y-126801789D01*
X128840071Y-126801789D02*
X128878166Y-126877979D01*
X128878166Y-126877979D02*
X128916261Y-126916075D01*
X128916261Y-126916075D02*
X128992452Y-126954170D01*
X128992452Y-126954170D02*
X129182928Y-126954170D01*
X129182928Y-126954170D02*
X129259118Y-126916075D01*
X129259118Y-126916075D02*
X129297214Y-126877979D01*
X118622832Y-121797979D02*
X118660928Y-121836075D01*
X118660928Y-121836075D02*
X118775213Y-121874170D01*
X118775213Y-121874170D02*
X118851404Y-121874170D01*
X118851404Y-121874170D02*
X118965690Y-121836075D01*
X118965690Y-121836075D02*
X119041880Y-121759884D01*
X119041880Y-121759884D02*
X119079975Y-121683694D01*
X119079975Y-121683694D02*
X119118071Y-121531313D01*
X119118071Y-121531313D02*
X119118071Y-121417027D01*
X119118071Y-121417027D02*
X119079975Y-121264646D01*
X119079975Y-121264646D02*
X119041880Y-121188455D01*
X119041880Y-121188455D02*
X118965690Y-121112265D01*
X118965690Y-121112265D02*
X118851404Y-121074170D01*
X118851404Y-121074170D02*
X118775213Y-121074170D01*
X118775213Y-121074170D02*
X118660928Y-121112265D01*
X118660928Y-121112265D02*
X118622832Y-121150360D01*
X117937118Y-121074170D02*
X118089499Y-121074170D01*
X118089499Y-121074170D02*
X118165690Y-121112265D01*
X118165690Y-121112265D02*
X118203785Y-121150360D01*
X118203785Y-121150360D02*
X118279975Y-121264646D01*
X118279975Y-121264646D02*
X118318071Y-121417027D01*
X118318071Y-121417027D02*
X118318071Y-121721789D01*
X118318071Y-121721789D02*
X118279975Y-121797979D01*
X118279975Y-121797979D02*
X118241880Y-121836075D01*
X118241880Y-121836075D02*
X118165690Y-121874170D01*
X118165690Y-121874170D02*
X118013309Y-121874170D01*
X118013309Y-121874170D02*
X117937118Y-121836075D01*
X117937118Y-121836075D02*
X117899023Y-121797979D01*
X117899023Y-121797979D02*
X117860928Y-121721789D01*
X117860928Y-121721789D02*
X117860928Y-121531313D01*
X117860928Y-121531313D02*
X117899023Y-121455122D01*
X117899023Y-121455122D02*
X117937118Y-121417027D01*
X117937118Y-121417027D02*
X118013309Y-121378932D01*
X118013309Y-121378932D02*
X118165690Y-121378932D01*
X118165690Y-121378932D02*
X118241880Y-121417027D01*
X118241880Y-121417027D02*
X118279975Y-121455122D01*
X118279975Y-121455122D02*
X118318071Y-121531313D01*
X122569104Y-138854170D02*
X122111961Y-138854170D01*
X122340533Y-139654170D02*
X122340533Y-138854170D01*
X121921485Y-138854170D02*
X121388151Y-139654170D01*
X121388151Y-138854170D02*
X121921485Y-139654170D01*
X120931008Y-138854170D02*
X120854818Y-138854170D01*
X120854818Y-138854170D02*
X120778627Y-138892265D01*
X120778627Y-138892265D02*
X120740532Y-138930360D01*
X120740532Y-138930360D02*
X120702437Y-139006551D01*
X120702437Y-139006551D02*
X120664342Y-139158932D01*
X120664342Y-139158932D02*
X120664342Y-139349408D01*
X120664342Y-139349408D02*
X120702437Y-139501789D01*
X120702437Y-139501789D02*
X120740532Y-139577979D01*
X120740532Y-139577979D02*
X120778627Y-139616075D01*
X120778627Y-139616075D02*
X120854818Y-139654170D01*
X120854818Y-139654170D02*
X120931008Y-139654170D01*
X120931008Y-139654170D02*
X121007199Y-139616075D01*
X121007199Y-139616075D02*
X121045294Y-139577979D01*
X121045294Y-139577979D02*
X121083389Y-139501789D01*
X121083389Y-139501789D02*
X121121485Y-139349408D01*
X121121485Y-139349408D02*
X121121485Y-139158932D01*
X121121485Y-139158932D02*
X121083389Y-139006551D01*
X121083389Y-139006551D02*
X121045294Y-138930360D01*
X121045294Y-138930360D02*
X121007199Y-138892265D01*
X121007199Y-138892265D02*
X120931008Y-138854170D01*
X119750056Y-138816075D02*
X120435770Y-139844646D01*
X119483389Y-139654170D02*
X119483389Y-138854170D01*
X119483389Y-138854170D02*
X119292913Y-138854170D01*
X119292913Y-138854170D02*
X119178627Y-138892265D01*
X119178627Y-138892265D02*
X119102437Y-138968455D01*
X119102437Y-138968455D02*
X119064342Y-139044646D01*
X119064342Y-139044646D02*
X119026246Y-139197027D01*
X119026246Y-139197027D02*
X119026246Y-139311313D01*
X119026246Y-139311313D02*
X119064342Y-139463694D01*
X119064342Y-139463694D02*
X119102437Y-139539884D01*
X119102437Y-139539884D02*
X119178627Y-139616075D01*
X119178627Y-139616075D02*
X119292913Y-139654170D01*
X119292913Y-139654170D02*
X119483389Y-139654170D01*
X118759580Y-138854170D02*
X118264342Y-138854170D01*
X118264342Y-138854170D02*
X118531008Y-139158932D01*
X118531008Y-139158932D02*
X118416723Y-139158932D01*
X118416723Y-139158932D02*
X118340532Y-139197027D01*
X118340532Y-139197027D02*
X118302437Y-139235122D01*
X118302437Y-139235122D02*
X118264342Y-139311313D01*
X118264342Y-139311313D02*
X118264342Y-139501789D01*
X118264342Y-139501789D02*
X118302437Y-139577979D01*
X118302437Y-139577979D02*
X118340532Y-139616075D01*
X118340532Y-139616075D02*
X118416723Y-139654170D01*
X118416723Y-139654170D02*
X118645294Y-139654170D01*
X118645294Y-139654170D02*
X118721485Y-139616075D01*
X118721485Y-139616075D02*
X118759580Y-139577979D01*
X118813309Y-113835122D02*
X118699023Y-113873217D01*
X118699023Y-113873217D02*
X118660928Y-113911313D01*
X118660928Y-113911313D02*
X118622832Y-113987503D01*
X118622832Y-113987503D02*
X118622832Y-114101789D01*
X118622832Y-114101789D02*
X118660928Y-114177979D01*
X118660928Y-114177979D02*
X118699023Y-114216075D01*
X118699023Y-114216075D02*
X118775213Y-114254170D01*
X118775213Y-114254170D02*
X119079975Y-114254170D01*
X119079975Y-114254170D02*
X119079975Y-113454170D01*
X119079975Y-113454170D02*
X118813309Y-113454170D01*
X118813309Y-113454170D02*
X118737118Y-113492265D01*
X118737118Y-113492265D02*
X118699023Y-113530360D01*
X118699023Y-113530360D02*
X118660928Y-113606551D01*
X118660928Y-113606551D02*
X118660928Y-113682741D01*
X118660928Y-113682741D02*
X118699023Y-113758932D01*
X118699023Y-113758932D02*
X118737118Y-113797027D01*
X118737118Y-113797027D02*
X118813309Y-113835122D01*
X118813309Y-113835122D02*
X119079975Y-113835122D01*
X117937118Y-113720836D02*
X117937118Y-114254170D01*
X118127594Y-113416075D02*
X118318071Y-113987503D01*
X118318071Y-113987503D02*
X117822832Y-113987503D01*
X119079975Y-126954170D02*
X119079975Y-126154170D01*
X119079975Y-126154170D02*
X118889499Y-126154170D01*
X118889499Y-126154170D02*
X118775213Y-126192265D01*
X118775213Y-126192265D02*
X118699023Y-126268455D01*
X118699023Y-126268455D02*
X118660928Y-126344646D01*
X118660928Y-126344646D02*
X118622832Y-126497027D01*
X118622832Y-126497027D02*
X118622832Y-126611313D01*
X118622832Y-126611313D02*
X118660928Y-126763694D01*
X118660928Y-126763694D02*
X118699023Y-126839884D01*
X118699023Y-126839884D02*
X118775213Y-126916075D01*
X118775213Y-126916075D02*
X118889499Y-126954170D01*
X118889499Y-126954170D02*
X119079975Y-126954170D01*
X118127594Y-126154170D02*
X118051404Y-126154170D01*
X118051404Y-126154170D02*
X117975213Y-126192265D01*
X117975213Y-126192265D02*
X117937118Y-126230360D01*
X117937118Y-126230360D02*
X117899023Y-126306551D01*
X117899023Y-126306551D02*
X117860928Y-126458932D01*
X117860928Y-126458932D02*
X117860928Y-126649408D01*
X117860928Y-126649408D02*
X117899023Y-126801789D01*
X117899023Y-126801789D02*
X117937118Y-126877979D01*
X117937118Y-126877979D02*
X117975213Y-126916075D01*
X117975213Y-126916075D02*
X118051404Y-126954170D01*
X118051404Y-126954170D02*
X118127594Y-126954170D01*
X118127594Y-126954170D02*
X118203785Y-126916075D01*
X118203785Y-126916075D02*
X118241880Y-126877979D01*
X118241880Y-126877979D02*
X118279975Y-126801789D01*
X118279975Y-126801789D02*
X118318071Y-126649408D01*
X118318071Y-126649408D02*
X118318071Y-126458932D01*
X118318071Y-126458932D02*
X118279975Y-126306551D01*
X118279975Y-126306551D02*
X118241880Y-126230360D01*
X118241880Y-126230360D02*
X118203785Y-126192265D01*
X118203785Y-126192265D02*
X118127594Y-126154170D01*
X130216953Y-134566075D02*
X130102667Y-134604170D01*
X130102667Y-134604170D02*
X129912191Y-134604170D01*
X129912191Y-134604170D02*
X129836000Y-134566075D01*
X129836000Y-134566075D02*
X129797905Y-134527979D01*
X129797905Y-134527979D02*
X129759810Y-134451789D01*
X129759810Y-134451789D02*
X129759810Y-134375598D01*
X129759810Y-134375598D02*
X129797905Y-134299408D01*
X129797905Y-134299408D02*
X129836000Y-134261313D01*
X129836000Y-134261313D02*
X129912191Y-134223217D01*
X129912191Y-134223217D02*
X130064572Y-134185122D01*
X130064572Y-134185122D02*
X130140762Y-134147027D01*
X130140762Y-134147027D02*
X130178857Y-134108932D01*
X130178857Y-134108932D02*
X130216953Y-134032741D01*
X130216953Y-134032741D02*
X130216953Y-133956551D01*
X130216953Y-133956551D02*
X130178857Y-133880360D01*
X130178857Y-133880360D02*
X130140762Y-133842265D01*
X130140762Y-133842265D02*
X130064572Y-133804170D01*
X130064572Y-133804170D02*
X129874095Y-133804170D01*
X129874095Y-133804170D02*
X129759810Y-133842265D01*
X129531238Y-133804170D02*
X129074095Y-133804170D01*
X129302667Y-134604170D02*
X129302667Y-133804170D01*
X119079975Y-137114170D02*
X119079975Y-136314170D01*
X119079975Y-136314170D02*
X118889499Y-136314170D01*
X118889499Y-136314170D02*
X118775213Y-136352265D01*
X118775213Y-136352265D02*
X118699023Y-136428455D01*
X118699023Y-136428455D02*
X118660928Y-136504646D01*
X118660928Y-136504646D02*
X118622832Y-136657027D01*
X118622832Y-136657027D02*
X118622832Y-136771313D01*
X118622832Y-136771313D02*
X118660928Y-136923694D01*
X118660928Y-136923694D02*
X118699023Y-136999884D01*
X118699023Y-136999884D02*
X118775213Y-137076075D01*
X118775213Y-137076075D02*
X118889499Y-137114170D01*
X118889499Y-137114170D02*
X119079975Y-137114170D01*
X118318071Y-136390360D02*
X118279975Y-136352265D01*
X118279975Y-136352265D02*
X118203785Y-136314170D01*
X118203785Y-136314170D02*
X118013309Y-136314170D01*
X118013309Y-136314170D02*
X117937118Y-136352265D01*
X117937118Y-136352265D02*
X117899023Y-136390360D01*
X117899023Y-136390360D02*
X117860928Y-136466551D01*
X117860928Y-136466551D02*
X117860928Y-136542741D01*
X117860928Y-136542741D02*
X117899023Y-136657027D01*
X117899023Y-136657027D02*
X118356166Y-137114170D01*
X118356166Y-137114170D02*
X117860928Y-137114170D01*
X140812819Y-133632530D02*
X139812819Y-133632530D01*
X139812819Y-133632530D02*
X139812819Y-133870625D01*
X139812819Y-133870625D02*
X139860438Y-134013482D01*
X139860438Y-134013482D02*
X139955676Y-134108720D01*
X139955676Y-134108720D02*
X140050914Y-134156339D01*
X140050914Y-134156339D02*
X140241390Y-134203958D01*
X140241390Y-134203958D02*
X140384247Y-134203958D01*
X140384247Y-134203958D02*
X140574723Y-134156339D01*
X140574723Y-134156339D02*
X140669961Y-134108720D01*
X140669961Y-134108720D02*
X140765200Y-134013482D01*
X140765200Y-134013482D02*
X140812819Y-133870625D01*
X140812819Y-133870625D02*
X140812819Y-133632530D01*
X140812819Y-135156339D02*
X140812819Y-134584911D01*
X140812819Y-134870625D02*
X139812819Y-134870625D01*
X139812819Y-134870625D02*
X139955676Y-134775387D01*
X139955676Y-134775387D02*
X140050914Y-134680149D01*
X140050914Y-134680149D02*
X140098533Y-134584911D01*
X140492819Y-137918720D02*
X139492819Y-137918720D01*
X140492819Y-138490148D02*
X139921390Y-138061577D01*
X139492819Y-138490148D02*
X140064247Y-137918720D01*
X155100319Y-114582530D02*
X154100319Y-114582530D01*
X154100319Y-114582530D02*
X154100319Y-114820625D01*
X154100319Y-114820625D02*
X154147938Y-114963482D01*
X154147938Y-114963482D02*
X154243176Y-115058720D01*
X154243176Y-115058720D02*
X154338414Y-115106339D01*
X154338414Y-115106339D02*
X154528890Y-115153958D01*
X154528890Y-115153958D02*
X154671747Y-115153958D01*
X154671747Y-115153958D02*
X154862223Y-115106339D01*
X154862223Y-115106339D02*
X154957461Y-115058720D01*
X154957461Y-115058720D02*
X155052700Y-114963482D01*
X155052700Y-114963482D02*
X155100319Y-114820625D01*
X155100319Y-114820625D02*
X155100319Y-114582530D01*
X154100319Y-115487292D02*
X154100319Y-116106339D01*
X154100319Y-116106339D02*
X154481271Y-115773006D01*
X154481271Y-115773006D02*
X154481271Y-115915863D01*
X154481271Y-115915863D02*
X154528890Y-116011101D01*
X154528890Y-116011101D02*
X154576509Y-116058720D01*
X154576509Y-116058720D02*
X154671747Y-116106339D01*
X154671747Y-116106339D02*
X154909842Y-116106339D01*
X154909842Y-116106339D02*
X155005080Y-116058720D01*
X155005080Y-116058720D02*
X155052700Y-116011101D01*
X155052700Y-116011101D02*
X155100319Y-115915863D01*
X155100319Y-115915863D02*
X155100319Y-115630149D01*
X155100319Y-115630149D02*
X155052700Y-115534911D01*
X155052700Y-115534911D02*
X155005080Y-115487292D01*
X154780319Y-118868720D02*
X153780319Y-118868720D01*
X154780319Y-119440148D02*
X154208890Y-119011577D01*
X153780319Y-119440148D02*
X154351747Y-118868720D01*
X152311569Y-66366339D02*
X151311569Y-66366339D01*
X151311569Y-66366339D02*
X151311569Y-66604434D01*
X151311569Y-66604434D02*
X151359188Y-66747291D01*
X151359188Y-66747291D02*
X151454426Y-66842529D01*
X151454426Y-66842529D02*
X151549664Y-66890148D01*
X151549664Y-66890148D02*
X151740140Y-66937767D01*
X151740140Y-66937767D02*
X151882997Y-66937767D01*
X151882997Y-66937767D02*
X152073473Y-66890148D01*
X152073473Y-66890148D02*
X152168711Y-66842529D01*
X152168711Y-66842529D02*
X152263950Y-66747291D01*
X152263950Y-66747291D02*
X152311569Y-66604434D01*
X152311569Y-66604434D02*
X152311569Y-66366339D01*
X152311569Y-67890148D02*
X152311569Y-67318720D01*
X152311569Y-67604434D02*
X151311569Y-67604434D01*
X151311569Y-67604434D02*
X151454426Y-67509196D01*
X151454426Y-67509196D02*
X151549664Y-67413958D01*
X151549664Y-67413958D02*
X151597283Y-67318720D01*
X152311569Y-68366339D02*
X152311569Y-68556815D01*
X152311569Y-68556815D02*
X152263950Y-68652053D01*
X152263950Y-68652053D02*
X152216330Y-68699672D01*
X152216330Y-68699672D02*
X152073473Y-68794910D01*
X152073473Y-68794910D02*
X151882997Y-68842529D01*
X151882997Y-68842529D02*
X151502045Y-68842529D01*
X151502045Y-68842529D02*
X151406807Y-68794910D01*
X151406807Y-68794910D02*
X151359188Y-68747291D01*
X151359188Y-68747291D02*
X151311569Y-68652053D01*
X151311569Y-68652053D02*
X151311569Y-68461577D01*
X151311569Y-68461577D02*
X151359188Y-68366339D01*
X151359188Y-68366339D02*
X151406807Y-68318720D01*
X151406807Y-68318720D02*
X151502045Y-68271101D01*
X151502045Y-68271101D02*
X151740140Y-68271101D01*
X151740140Y-68271101D02*
X151835378Y-68318720D01*
X151835378Y-68318720D02*
X151882997Y-68366339D01*
X151882997Y-68366339D02*
X151930616Y-68461577D01*
X151930616Y-68461577D02*
X151930616Y-68652053D01*
X151930616Y-68652053D02*
X151882997Y-68747291D01*
X151882997Y-68747291D02*
X151835378Y-68794910D01*
X151835378Y-68794910D02*
X151740140Y-68842529D01*
X151130319Y-70633720D02*
X150130319Y-70633720D01*
X151130319Y-71205148D02*
X150558890Y-70776577D01*
X150130319Y-71205148D02*
X150701747Y-70633720D01*
X179438833Y-29530444D02*
X179438833Y-30244729D01*
X179438833Y-30244729D02*
X179486452Y-30387586D01*
X179486452Y-30387586D02*
X179581690Y-30482825D01*
X179581690Y-30482825D02*
X179724547Y-30530444D01*
X179724547Y-30530444D02*
X179819785Y-30530444D01*
X179057880Y-29530444D02*
X178438833Y-29530444D01*
X178438833Y-29530444D02*
X178772166Y-29911396D01*
X178772166Y-29911396D02*
X178629309Y-29911396D01*
X178629309Y-29911396D02*
X178534071Y-29959015D01*
X178534071Y-29959015D02*
X178486452Y-30006634D01*
X178486452Y-30006634D02*
X178438833Y-30101872D01*
X178438833Y-30101872D02*
X178438833Y-30339967D01*
X178438833Y-30339967D02*
X178486452Y-30435205D01*
X178486452Y-30435205D02*
X178534071Y-30482825D01*
X178534071Y-30482825D02*
X178629309Y-30530444D01*
X178629309Y-30530444D02*
X178915023Y-30530444D01*
X178915023Y-30530444D02*
X179010261Y-30482825D01*
X179010261Y-30482825D02*
X179057880Y-30435205D01*
X115460319Y-101645089D02*
X114460319Y-101645089D01*
X114460319Y-101645089D02*
X114460319Y-101883184D01*
X114460319Y-101883184D02*
X114507938Y-102026041D01*
X114507938Y-102026041D02*
X114603176Y-102121279D01*
X114603176Y-102121279D02*
X114698414Y-102168898D01*
X114698414Y-102168898D02*
X114888890Y-102216517D01*
X114888890Y-102216517D02*
X115031747Y-102216517D01*
X115031747Y-102216517D02*
X115222223Y-102168898D01*
X115222223Y-102168898D02*
X115317461Y-102121279D01*
X115317461Y-102121279D02*
X115412700Y-102026041D01*
X115412700Y-102026041D02*
X115460319Y-101883184D01*
X115460319Y-101883184D02*
X115460319Y-101645089D01*
X115460319Y-103168898D02*
X115460319Y-102597470D01*
X115460319Y-102883184D02*
X114460319Y-102883184D01*
X114460319Y-102883184D02*
X114603176Y-102787946D01*
X114603176Y-102787946D02*
X114698414Y-102692708D01*
X114698414Y-102692708D02*
X114746033Y-102597470D01*
X114460319Y-103787946D02*
X114460319Y-103883184D01*
X114460319Y-103883184D02*
X114507938Y-103978422D01*
X114507938Y-103978422D02*
X114555557Y-104026041D01*
X114555557Y-104026041D02*
X114650795Y-104073660D01*
X114650795Y-104073660D02*
X114841271Y-104121279D01*
X114841271Y-104121279D02*
X115079366Y-104121279D01*
X115079366Y-104121279D02*
X115269842Y-104073660D01*
X115269842Y-104073660D02*
X115365080Y-104026041D01*
X115365080Y-104026041D02*
X115412700Y-103978422D01*
X115412700Y-103978422D02*
X115460319Y-103883184D01*
X115460319Y-103883184D02*
X115460319Y-103787946D01*
X115460319Y-103787946D02*
X115412700Y-103692708D01*
X115412700Y-103692708D02*
X115365080Y-103645089D01*
X115365080Y-103645089D02*
X115269842Y-103597470D01*
X115269842Y-103597470D02*
X115079366Y-103549851D01*
X115079366Y-103549851D02*
X114841271Y-103549851D01*
X114841271Y-103549851D02*
X114650795Y-103597470D01*
X114650795Y-103597470D02*
X114555557Y-103645089D01*
X114555557Y-103645089D02*
X114507938Y-103692708D01*
X114507938Y-103692708D02*
X114460319Y-103787946D01*
X116591569Y-99893720D02*
X115591569Y-99893720D01*
X116591569Y-100465148D02*
X116020140Y-100036577D01*
X115591569Y-100465148D02*
X116162997Y-99893720D01*
X150689785Y-65060444D02*
X150689785Y-64060444D01*
X150689785Y-64060444D02*
X150451690Y-64060444D01*
X150451690Y-64060444D02*
X150308833Y-64108063D01*
X150308833Y-64108063D02*
X150213595Y-64203301D01*
X150213595Y-64203301D02*
X150165976Y-64298539D01*
X150165976Y-64298539D02*
X150118357Y-64489015D01*
X150118357Y-64489015D02*
X150118357Y-64631872D01*
X150118357Y-64631872D02*
X150165976Y-64822348D01*
X150165976Y-64822348D02*
X150213595Y-64917586D01*
X150213595Y-64917586D02*
X150308833Y-65012825D01*
X150308833Y-65012825D02*
X150451690Y-65060444D01*
X150451690Y-65060444D02*
X150689785Y-65060444D01*
X149165976Y-65060444D02*
X149737404Y-65060444D01*
X149451690Y-65060444D02*
X149451690Y-64060444D01*
X149451690Y-64060444D02*
X149546928Y-64203301D01*
X149546928Y-64203301D02*
X149642166Y-64298539D01*
X149642166Y-64298539D02*
X149737404Y-64346158D01*
X148832642Y-64060444D02*
X148213595Y-64060444D01*
X148213595Y-64060444D02*
X148546928Y-64441396D01*
X148546928Y-64441396D02*
X148404071Y-64441396D01*
X148404071Y-64441396D02*
X148308833Y-64489015D01*
X148308833Y-64489015D02*
X148261214Y-64536634D01*
X148261214Y-64536634D02*
X148213595Y-64631872D01*
X148213595Y-64631872D02*
X148213595Y-64869967D01*
X148213595Y-64869967D02*
X148261214Y-64965205D01*
X148261214Y-64965205D02*
X148308833Y-65012825D01*
X148308833Y-65012825D02*
X148404071Y-65060444D01*
X148404071Y-65060444D02*
X148689785Y-65060444D01*
X148689785Y-65060444D02*
X148785023Y-65012825D01*
X148785023Y-65012825D02*
X148832642Y-64965205D01*
X147072404Y-63810444D02*
X147072404Y-62810444D01*
X146500976Y-63810444D02*
X146929547Y-63239015D01*
X146500976Y-62810444D02*
X147072404Y-63381872D01*
X112539785Y-75810444D02*
X112539785Y-74810444D01*
X112539785Y-74810444D02*
X112301690Y-74810444D01*
X112301690Y-74810444D02*
X112158833Y-74858063D01*
X112158833Y-74858063D02*
X112063595Y-74953301D01*
X112063595Y-74953301D02*
X112015976Y-75048539D01*
X112015976Y-75048539D02*
X111968357Y-75239015D01*
X111968357Y-75239015D02*
X111968357Y-75381872D01*
X111968357Y-75381872D02*
X112015976Y-75572348D01*
X112015976Y-75572348D02*
X112063595Y-75667586D01*
X112063595Y-75667586D02*
X112158833Y-75762825D01*
X112158833Y-75762825D02*
X112301690Y-75810444D01*
X112301690Y-75810444D02*
X112539785Y-75810444D01*
X111587404Y-74905682D02*
X111539785Y-74858063D01*
X111539785Y-74858063D02*
X111444547Y-74810444D01*
X111444547Y-74810444D02*
X111206452Y-74810444D01*
X111206452Y-74810444D02*
X111111214Y-74858063D01*
X111111214Y-74858063D02*
X111063595Y-74905682D01*
X111063595Y-74905682D02*
X111015976Y-75000920D01*
X111015976Y-75000920D02*
X111015976Y-75096158D01*
X111015976Y-75096158D02*
X111063595Y-75239015D01*
X111063595Y-75239015D02*
X111635023Y-75810444D01*
X111635023Y-75810444D02*
X111015976Y-75810444D01*
X110635023Y-74905682D02*
X110587404Y-74858063D01*
X110587404Y-74858063D02*
X110492166Y-74810444D01*
X110492166Y-74810444D02*
X110254071Y-74810444D01*
X110254071Y-74810444D02*
X110158833Y-74858063D01*
X110158833Y-74858063D02*
X110111214Y-74905682D01*
X110111214Y-74905682D02*
X110063595Y-75000920D01*
X110063595Y-75000920D02*
X110063595Y-75096158D01*
X110063595Y-75096158D02*
X110111214Y-75239015D01*
X110111214Y-75239015D02*
X110682642Y-75810444D01*
X110682642Y-75810444D02*
X110063595Y-75810444D01*
X109069904Y-74585444D02*
X109069904Y-73585444D01*
X108498476Y-74585444D02*
X108927047Y-74014015D01*
X108498476Y-73585444D02*
X109069904Y-74156872D01*
X113861569Y-66116339D02*
X112861569Y-66116339D01*
X112861569Y-66116339D02*
X112861569Y-66354434D01*
X112861569Y-66354434D02*
X112909188Y-66497291D01*
X112909188Y-66497291D02*
X113004426Y-66592529D01*
X113004426Y-66592529D02*
X113099664Y-66640148D01*
X113099664Y-66640148D02*
X113290140Y-66687767D01*
X113290140Y-66687767D02*
X113432997Y-66687767D01*
X113432997Y-66687767D02*
X113623473Y-66640148D01*
X113623473Y-66640148D02*
X113718711Y-66592529D01*
X113718711Y-66592529D02*
X113813950Y-66497291D01*
X113813950Y-66497291D02*
X113861569Y-66354434D01*
X113861569Y-66354434D02*
X113861569Y-66116339D01*
X113861569Y-67640148D02*
X113861569Y-67068720D01*
X113861569Y-67354434D02*
X112861569Y-67354434D01*
X112861569Y-67354434D02*
X113004426Y-67259196D01*
X113004426Y-67259196D02*
X113099664Y-67163958D01*
X113099664Y-67163958D02*
X113147283Y-67068720D01*
X112861569Y-67973482D02*
X112861569Y-68640148D01*
X112861569Y-68640148D02*
X113861569Y-68211577D01*
X112730319Y-70433720D02*
X111730319Y-70433720D01*
X112730319Y-71005148D02*
X112158890Y-70576577D01*
X111730319Y-71005148D02*
X112301747Y-70433720D01*
X201483832Y-41227825D02*
X201340975Y-41275444D01*
X201340975Y-41275444D02*
X201102880Y-41275444D01*
X201102880Y-41275444D02*
X201007642Y-41227825D01*
X201007642Y-41227825D02*
X200960023Y-41180205D01*
X200960023Y-41180205D02*
X200912404Y-41084967D01*
X200912404Y-41084967D02*
X200912404Y-40989729D01*
X200912404Y-40989729D02*
X200960023Y-40894491D01*
X200960023Y-40894491D02*
X201007642Y-40846872D01*
X201007642Y-40846872D02*
X201102880Y-40799253D01*
X201102880Y-40799253D02*
X201293356Y-40751634D01*
X201293356Y-40751634D02*
X201388594Y-40704015D01*
X201388594Y-40704015D02*
X201436213Y-40656396D01*
X201436213Y-40656396D02*
X201483832Y-40561158D01*
X201483832Y-40561158D02*
X201483832Y-40465920D01*
X201483832Y-40465920D02*
X201436213Y-40370682D01*
X201436213Y-40370682D02*
X201388594Y-40323063D01*
X201388594Y-40323063D02*
X201293356Y-40275444D01*
X201293356Y-40275444D02*
X201055261Y-40275444D01*
X201055261Y-40275444D02*
X200912404Y-40323063D01*
X200579070Y-40275444D02*
X200340975Y-41275444D01*
X200340975Y-41275444D02*
X200150499Y-40561158D01*
X200150499Y-40561158D02*
X199960023Y-41275444D01*
X199960023Y-41275444D02*
X199721928Y-40275444D01*
X199388594Y-40370682D02*
X199340975Y-40323063D01*
X199340975Y-40323063D02*
X199245737Y-40275444D01*
X199245737Y-40275444D02*
X199007642Y-40275444D01*
X199007642Y-40275444D02*
X198912404Y-40323063D01*
X198912404Y-40323063D02*
X198864785Y-40370682D01*
X198864785Y-40370682D02*
X198817166Y-40465920D01*
X198817166Y-40465920D02*
X198817166Y-40561158D01*
X198817166Y-40561158D02*
X198864785Y-40704015D01*
X198864785Y-40704015D02*
X199436213Y-41275444D01*
X199436213Y-41275444D02*
X198817166Y-41275444D01*
X77234069Y-101831339D02*
X76234069Y-101831339D01*
X76234069Y-101831339D02*
X76234069Y-102069434D01*
X76234069Y-102069434D02*
X76281688Y-102212291D01*
X76281688Y-102212291D02*
X76376926Y-102307529D01*
X76376926Y-102307529D02*
X76472164Y-102355148D01*
X76472164Y-102355148D02*
X76662640Y-102402767D01*
X76662640Y-102402767D02*
X76805497Y-102402767D01*
X76805497Y-102402767D02*
X76995973Y-102355148D01*
X76995973Y-102355148D02*
X77091211Y-102307529D01*
X77091211Y-102307529D02*
X77186450Y-102212291D01*
X77186450Y-102212291D02*
X77234069Y-102069434D01*
X77234069Y-102069434D02*
X77234069Y-101831339D01*
X76329307Y-102783720D02*
X76281688Y-102831339D01*
X76281688Y-102831339D02*
X76234069Y-102926577D01*
X76234069Y-102926577D02*
X76234069Y-103164672D01*
X76234069Y-103164672D02*
X76281688Y-103259910D01*
X76281688Y-103259910D02*
X76329307Y-103307529D01*
X76329307Y-103307529D02*
X76424545Y-103355148D01*
X76424545Y-103355148D02*
X76519783Y-103355148D01*
X76519783Y-103355148D02*
X76662640Y-103307529D01*
X76662640Y-103307529D02*
X77234069Y-102736101D01*
X77234069Y-102736101D02*
X77234069Y-103355148D01*
X76234069Y-103688482D02*
X76234069Y-104355148D01*
X76234069Y-104355148D02*
X77234069Y-103926577D01*
X78421569Y-99818720D02*
X77421569Y-99818720D01*
X78421569Y-100390148D02*
X77850140Y-99961577D01*
X77421569Y-100390148D02*
X77992997Y-99818720D01*
X188989785Y-65060444D02*
X188989785Y-64060444D01*
X188989785Y-64060444D02*
X188751690Y-64060444D01*
X188751690Y-64060444D02*
X188608833Y-64108063D01*
X188608833Y-64108063D02*
X188513595Y-64203301D01*
X188513595Y-64203301D02*
X188465976Y-64298539D01*
X188465976Y-64298539D02*
X188418357Y-64489015D01*
X188418357Y-64489015D02*
X188418357Y-64631872D01*
X188418357Y-64631872D02*
X188465976Y-64822348D01*
X188465976Y-64822348D02*
X188513595Y-64917586D01*
X188513595Y-64917586D02*
X188608833Y-65012825D01*
X188608833Y-65012825D02*
X188751690Y-65060444D01*
X188751690Y-65060444D02*
X188989785Y-65060444D01*
X187465976Y-65060444D02*
X188037404Y-65060444D01*
X187751690Y-65060444D02*
X187751690Y-64060444D01*
X187751690Y-64060444D02*
X187846928Y-64203301D01*
X187846928Y-64203301D02*
X187942166Y-64298539D01*
X187942166Y-64298539D02*
X188037404Y-64346158D01*
X186561214Y-64060444D02*
X187037404Y-64060444D01*
X187037404Y-64060444D02*
X187085023Y-64536634D01*
X187085023Y-64536634D02*
X187037404Y-64489015D01*
X187037404Y-64489015D02*
X186942166Y-64441396D01*
X186942166Y-64441396D02*
X186704071Y-64441396D01*
X186704071Y-64441396D02*
X186608833Y-64489015D01*
X186608833Y-64489015D02*
X186561214Y-64536634D01*
X186561214Y-64536634D02*
X186513595Y-64631872D01*
X186513595Y-64631872D02*
X186513595Y-64869967D01*
X186513595Y-64869967D02*
X186561214Y-64965205D01*
X186561214Y-64965205D02*
X186608833Y-65012825D01*
X186608833Y-65012825D02*
X186704071Y-65060444D01*
X186704071Y-65060444D02*
X186942166Y-65060444D01*
X186942166Y-65060444D02*
X187037404Y-65012825D01*
X187037404Y-65012825D02*
X187085023Y-64965205D01*
X185172404Y-63810444D02*
X185172404Y-62810444D01*
X184600976Y-63810444D02*
X185029547Y-63239015D01*
X184600976Y-62810444D02*
X185172404Y-63381872D01*
D11*
X109622302Y-133298303D02*
X110288969Y-133298303D01*
X109241350Y-133060208D02*
X109955635Y-132822113D01*
X109955635Y-132822113D02*
X109955635Y-133441160D01*
X110193730Y-133822113D02*
X110241350Y-133869732D01*
X110241350Y-133869732D02*
X110288969Y-133822113D01*
X110288969Y-133822113D02*
X110241350Y-133774494D01*
X110241350Y-133774494D02*
X110193730Y-133822113D01*
X110193730Y-133822113D02*
X110288969Y-133822113D01*
X109288969Y-134203065D02*
X109288969Y-134869731D01*
X109288969Y-134869731D02*
X110288969Y-134441160D01*
X110288969Y-135250684D02*
X109288969Y-135250684D01*
X109908016Y-135345922D02*
X110288969Y-135631636D01*
X109622302Y-135631636D02*
X110003254Y-135250684D01*
X112911052Y-133867053D02*
X113577719Y-133867053D01*
X112530100Y-133628958D02*
X113244385Y-133390863D01*
X113244385Y-133390863D02*
X113244385Y-134009910D01*
X113482480Y-134390863D02*
X113530100Y-134438482D01*
X113530100Y-134438482D02*
X113577719Y-134390863D01*
X113577719Y-134390863D02*
X113530100Y-134343244D01*
X113530100Y-134343244D02*
X113482480Y-134390863D01*
X113482480Y-134390863D02*
X113577719Y-134390863D01*
X112577719Y-134771815D02*
X112577719Y-135438481D01*
X112577719Y-135438481D02*
X113577719Y-135009910D01*
X113577719Y-135819434D02*
X112577719Y-135819434D01*
X113196766Y-135914672D02*
X113577719Y-136200386D01*
X112911052Y-136200386D02*
X113292004Y-135819434D01*
D10*
X208339785Y-64710444D02*
X208339785Y-63710444D01*
X208339785Y-63710444D02*
X208101690Y-63710444D01*
X208101690Y-63710444D02*
X207958833Y-63758063D01*
X207958833Y-63758063D02*
X207863595Y-63853301D01*
X207863595Y-63853301D02*
X207815976Y-63948539D01*
X207815976Y-63948539D02*
X207768357Y-64139015D01*
X207768357Y-64139015D02*
X207768357Y-64281872D01*
X207768357Y-64281872D02*
X207815976Y-64472348D01*
X207815976Y-64472348D02*
X207863595Y-64567586D01*
X207863595Y-64567586D02*
X207958833Y-64662825D01*
X207958833Y-64662825D02*
X208101690Y-64710444D01*
X208101690Y-64710444D02*
X208339785Y-64710444D01*
X206815976Y-64710444D02*
X207387404Y-64710444D01*
X207101690Y-64710444D02*
X207101690Y-63710444D01*
X207101690Y-63710444D02*
X207196928Y-63853301D01*
X207196928Y-63853301D02*
X207292166Y-63948539D01*
X207292166Y-63948539D02*
X207387404Y-63996158D01*
X205958833Y-63710444D02*
X206149309Y-63710444D01*
X206149309Y-63710444D02*
X206244547Y-63758063D01*
X206244547Y-63758063D02*
X206292166Y-63805682D01*
X206292166Y-63805682D02*
X206387404Y-63948539D01*
X206387404Y-63948539D02*
X206435023Y-64139015D01*
X206435023Y-64139015D02*
X206435023Y-64519967D01*
X206435023Y-64519967D02*
X206387404Y-64615205D01*
X206387404Y-64615205D02*
X206339785Y-64662825D01*
X206339785Y-64662825D02*
X206244547Y-64710444D01*
X206244547Y-64710444D02*
X206054071Y-64710444D01*
X206054071Y-64710444D02*
X205958833Y-64662825D01*
X205958833Y-64662825D02*
X205911214Y-64615205D01*
X205911214Y-64615205D02*
X205863595Y-64519967D01*
X205863595Y-64519967D02*
X205863595Y-64281872D01*
X205863595Y-64281872D02*
X205911214Y-64186634D01*
X205911214Y-64186634D02*
X205958833Y-64139015D01*
X205958833Y-64139015D02*
X206054071Y-64091396D01*
X206054071Y-64091396D02*
X206244547Y-64091396D01*
X206244547Y-64091396D02*
X206339785Y-64139015D01*
X206339785Y-64139015D02*
X206387404Y-64186634D01*
X206387404Y-64186634D02*
X206435023Y-64281872D01*
X204222404Y-63810444D02*
X204222404Y-62810444D01*
X203650976Y-63810444D02*
X204079547Y-63239015D01*
X203650976Y-62810444D02*
X204222404Y-63381872D01*
X175724844Y-96500444D02*
X175724844Y-95500444D01*
X175724844Y-95500444D02*
X175486749Y-95500444D01*
X175486749Y-95500444D02*
X175343892Y-95548063D01*
X175343892Y-95548063D02*
X175248654Y-95643301D01*
X175248654Y-95643301D02*
X175201035Y-95738539D01*
X175201035Y-95738539D02*
X175153416Y-95929015D01*
X175153416Y-95929015D02*
X175153416Y-96071872D01*
X175153416Y-96071872D02*
X175201035Y-96262348D01*
X175201035Y-96262348D02*
X175248654Y-96357586D01*
X175248654Y-96357586D02*
X175343892Y-96452825D01*
X175343892Y-96452825D02*
X175486749Y-96500444D01*
X175486749Y-96500444D02*
X175724844Y-96500444D01*
X174296273Y-95500444D02*
X174486749Y-95500444D01*
X174486749Y-95500444D02*
X174581987Y-95548063D01*
X174581987Y-95548063D02*
X174629606Y-95595682D01*
X174629606Y-95595682D02*
X174724844Y-95738539D01*
X174724844Y-95738539D02*
X174772463Y-95929015D01*
X174772463Y-95929015D02*
X174772463Y-96309967D01*
X174772463Y-96309967D02*
X174724844Y-96405205D01*
X174724844Y-96405205D02*
X174677225Y-96452825D01*
X174677225Y-96452825D02*
X174581987Y-96500444D01*
X174581987Y-96500444D02*
X174391511Y-96500444D01*
X174391511Y-96500444D02*
X174296273Y-96452825D01*
X174296273Y-96452825D02*
X174248654Y-96405205D01*
X174248654Y-96405205D02*
X174201035Y-96309967D01*
X174201035Y-96309967D02*
X174201035Y-96071872D01*
X174201035Y-96071872D02*
X174248654Y-95976634D01*
X174248654Y-95976634D02*
X174296273Y-95929015D01*
X174296273Y-95929015D02*
X174391511Y-95881396D01*
X174391511Y-95881396D02*
X174581987Y-95881396D01*
X174581987Y-95881396D02*
X174677225Y-95929015D01*
X174677225Y-95929015D02*
X174724844Y-95976634D01*
X174724844Y-95976634D02*
X174772463Y-96071872D01*
X177552404Y-98525444D02*
X177552404Y-97525444D01*
X176980976Y-98525444D02*
X177409547Y-97954015D01*
X176980976Y-97525444D02*
X177552404Y-98096872D01*
X171661569Y-66566339D02*
X170661569Y-66566339D01*
X170661569Y-66566339D02*
X170661569Y-66804434D01*
X170661569Y-66804434D02*
X170709188Y-66947291D01*
X170709188Y-66947291D02*
X170804426Y-67042529D01*
X170804426Y-67042529D02*
X170899664Y-67090148D01*
X170899664Y-67090148D02*
X171090140Y-67137767D01*
X171090140Y-67137767D02*
X171232997Y-67137767D01*
X171232997Y-67137767D02*
X171423473Y-67090148D01*
X171423473Y-67090148D02*
X171518711Y-67042529D01*
X171518711Y-67042529D02*
X171613950Y-66947291D01*
X171613950Y-66947291D02*
X171661569Y-66804434D01*
X171661569Y-66804434D02*
X171661569Y-66566339D01*
X170756807Y-67518720D02*
X170709188Y-67566339D01*
X170709188Y-67566339D02*
X170661569Y-67661577D01*
X170661569Y-67661577D02*
X170661569Y-67899672D01*
X170661569Y-67899672D02*
X170709188Y-67994910D01*
X170709188Y-67994910D02*
X170756807Y-68042529D01*
X170756807Y-68042529D02*
X170852045Y-68090148D01*
X170852045Y-68090148D02*
X170947283Y-68090148D01*
X170947283Y-68090148D02*
X171090140Y-68042529D01*
X171090140Y-68042529D02*
X171661569Y-67471101D01*
X171661569Y-67471101D02*
X171661569Y-68090148D01*
X170661569Y-68709196D02*
X170661569Y-68804434D01*
X170661569Y-68804434D02*
X170709188Y-68899672D01*
X170709188Y-68899672D02*
X170756807Y-68947291D01*
X170756807Y-68947291D02*
X170852045Y-68994910D01*
X170852045Y-68994910D02*
X171042521Y-69042529D01*
X171042521Y-69042529D02*
X171280616Y-69042529D01*
X171280616Y-69042529D02*
X171471092Y-68994910D01*
X171471092Y-68994910D02*
X171566330Y-68947291D01*
X171566330Y-68947291D02*
X171613950Y-68899672D01*
X171613950Y-68899672D02*
X171661569Y-68804434D01*
X171661569Y-68804434D02*
X171661569Y-68709196D01*
X171661569Y-68709196D02*
X171613950Y-68613958D01*
X171613950Y-68613958D02*
X171566330Y-68566339D01*
X171566330Y-68566339D02*
X171471092Y-68518720D01*
X171471092Y-68518720D02*
X171280616Y-68471101D01*
X171280616Y-68471101D02*
X171042521Y-68471101D01*
X171042521Y-68471101D02*
X170852045Y-68518720D01*
X170852045Y-68518720D02*
X170756807Y-68566339D01*
X170756807Y-68566339D02*
X170709188Y-68613958D01*
X170709188Y-68613958D02*
X170661569Y-68709196D01*
X170330319Y-70533720D02*
X169330319Y-70533720D01*
X170330319Y-71105148D02*
X169758890Y-70676577D01*
X169330319Y-71105148D02*
X169901747Y-70533720D01*
X134610319Y-101471280D02*
X133610319Y-101471280D01*
X133610319Y-101471280D02*
X133610319Y-101709375D01*
X133610319Y-101709375D02*
X133657938Y-101852232D01*
X133657938Y-101852232D02*
X133753176Y-101947470D01*
X133753176Y-101947470D02*
X133848414Y-101995089D01*
X133848414Y-101995089D02*
X134038890Y-102042708D01*
X134038890Y-102042708D02*
X134181747Y-102042708D01*
X134181747Y-102042708D02*
X134372223Y-101995089D01*
X134372223Y-101995089D02*
X134467461Y-101947470D01*
X134467461Y-101947470D02*
X134562700Y-101852232D01*
X134562700Y-101852232D02*
X134610319Y-101709375D01*
X134610319Y-101709375D02*
X134610319Y-101471280D01*
X134610319Y-102518899D02*
X134610319Y-102709375D01*
X134610319Y-102709375D02*
X134562700Y-102804613D01*
X134562700Y-102804613D02*
X134515080Y-102852232D01*
X134515080Y-102852232D02*
X134372223Y-102947470D01*
X134372223Y-102947470D02*
X134181747Y-102995089D01*
X134181747Y-102995089D02*
X133800795Y-102995089D01*
X133800795Y-102995089D02*
X133705557Y-102947470D01*
X133705557Y-102947470D02*
X133657938Y-102899851D01*
X133657938Y-102899851D02*
X133610319Y-102804613D01*
X133610319Y-102804613D02*
X133610319Y-102614137D01*
X133610319Y-102614137D02*
X133657938Y-102518899D01*
X133657938Y-102518899D02*
X133705557Y-102471280D01*
X133705557Y-102471280D02*
X133800795Y-102423661D01*
X133800795Y-102423661D02*
X134038890Y-102423661D01*
X134038890Y-102423661D02*
X134134128Y-102471280D01*
X134134128Y-102471280D02*
X134181747Y-102518899D01*
X134181747Y-102518899D02*
X134229366Y-102614137D01*
X134229366Y-102614137D02*
X134229366Y-102804613D01*
X134229366Y-102804613D02*
X134181747Y-102899851D01*
X134181747Y-102899851D02*
X134134128Y-102947470D01*
X134134128Y-102947470D02*
X134038890Y-102995089D01*
X135741569Y-99743720D02*
X134741569Y-99743720D01*
X135741569Y-100315148D02*
X135170140Y-99886577D01*
X134741569Y-100315148D02*
X135312997Y-99743720D01*
D11*
X135642302Y-35795803D02*
X136308969Y-35795803D01*
X135261350Y-35557708D02*
X135975635Y-35319613D01*
X135975635Y-35319613D02*
X135975635Y-35938660D01*
X136213730Y-36319613D02*
X136261350Y-36367232D01*
X136261350Y-36367232D02*
X136308969Y-36319613D01*
X136308969Y-36319613D02*
X136261350Y-36271994D01*
X136261350Y-36271994D02*
X136213730Y-36319613D01*
X136213730Y-36319613D02*
X136308969Y-36319613D01*
X135308969Y-36700565D02*
X135308969Y-37367231D01*
X135308969Y-37367231D02*
X136308969Y-36938660D01*
X136308969Y-37748184D02*
X135308969Y-37748184D01*
X135928016Y-37843422D02*
X136308969Y-38129136D01*
X135642302Y-38129136D02*
X136023254Y-37748184D01*
D10*
X86664785Y-104130444D02*
X86664785Y-103130444D01*
X86664785Y-103130444D02*
X86426690Y-103130444D01*
X86426690Y-103130444D02*
X86283833Y-103178063D01*
X86283833Y-103178063D02*
X86188595Y-103273301D01*
X86188595Y-103273301D02*
X86140976Y-103368539D01*
X86140976Y-103368539D02*
X86093357Y-103559015D01*
X86093357Y-103559015D02*
X86093357Y-103701872D01*
X86093357Y-103701872D02*
X86140976Y-103892348D01*
X86140976Y-103892348D02*
X86188595Y-103987586D01*
X86188595Y-103987586D02*
X86283833Y-104082825D01*
X86283833Y-104082825D02*
X86426690Y-104130444D01*
X86426690Y-104130444D02*
X86664785Y-104130444D01*
X85712404Y-103225682D02*
X85664785Y-103178063D01*
X85664785Y-103178063D02*
X85569547Y-103130444D01*
X85569547Y-103130444D02*
X85331452Y-103130444D01*
X85331452Y-103130444D02*
X85236214Y-103178063D01*
X85236214Y-103178063D02*
X85188595Y-103225682D01*
X85188595Y-103225682D02*
X85140976Y-103320920D01*
X85140976Y-103320920D02*
X85140976Y-103416158D01*
X85140976Y-103416158D02*
X85188595Y-103559015D01*
X85188595Y-103559015D02*
X85760023Y-104130444D01*
X85760023Y-104130444D02*
X85140976Y-104130444D01*
X84569547Y-103559015D02*
X84664785Y-103511396D01*
X84664785Y-103511396D02*
X84712404Y-103463777D01*
X84712404Y-103463777D02*
X84760023Y-103368539D01*
X84760023Y-103368539D02*
X84760023Y-103320920D01*
X84760023Y-103320920D02*
X84712404Y-103225682D01*
X84712404Y-103225682D02*
X84664785Y-103178063D01*
X84664785Y-103178063D02*
X84569547Y-103130444D01*
X84569547Y-103130444D02*
X84379071Y-103130444D01*
X84379071Y-103130444D02*
X84283833Y-103178063D01*
X84283833Y-103178063D02*
X84236214Y-103225682D01*
X84236214Y-103225682D02*
X84188595Y-103320920D01*
X84188595Y-103320920D02*
X84188595Y-103368539D01*
X84188595Y-103368539D02*
X84236214Y-103463777D01*
X84236214Y-103463777D02*
X84283833Y-103511396D01*
X84283833Y-103511396D02*
X84379071Y-103559015D01*
X84379071Y-103559015D02*
X84569547Y-103559015D01*
X84569547Y-103559015D02*
X84664785Y-103606634D01*
X84664785Y-103606634D02*
X84712404Y-103654253D01*
X84712404Y-103654253D02*
X84760023Y-103749491D01*
X84760023Y-103749491D02*
X84760023Y-103939967D01*
X84760023Y-103939967D02*
X84712404Y-104035205D01*
X84712404Y-104035205D02*
X84664785Y-104082825D01*
X84664785Y-104082825D02*
X84569547Y-104130444D01*
X84569547Y-104130444D02*
X84379071Y-104130444D01*
X84379071Y-104130444D02*
X84283833Y-104082825D01*
X84283833Y-104082825D02*
X84236214Y-104035205D01*
X84236214Y-104035205D02*
X84188595Y-103939967D01*
X84188595Y-103939967D02*
X84188595Y-103749491D01*
X84188595Y-103749491D02*
X84236214Y-103654253D01*
X84236214Y-103654253D02*
X84283833Y-103606634D01*
X84283833Y-103606634D02*
X84379071Y-103559015D01*
X89522404Y-104450444D02*
X89522404Y-103450444D01*
X88950976Y-104450444D02*
X89379547Y-103879015D01*
X88950976Y-103450444D02*
X89522404Y-104021872D01*
X118074844Y-107200444D02*
X118074844Y-106200444D01*
X118074844Y-106200444D02*
X117836749Y-106200444D01*
X117836749Y-106200444D02*
X117693892Y-106248063D01*
X117693892Y-106248063D02*
X117598654Y-106343301D01*
X117598654Y-106343301D02*
X117551035Y-106438539D01*
X117551035Y-106438539D02*
X117503416Y-106629015D01*
X117503416Y-106629015D02*
X117503416Y-106771872D01*
X117503416Y-106771872D02*
X117551035Y-106962348D01*
X117551035Y-106962348D02*
X117598654Y-107057586D01*
X117598654Y-107057586D02*
X117693892Y-107152825D01*
X117693892Y-107152825D02*
X117836749Y-107200444D01*
X117836749Y-107200444D02*
X118074844Y-107200444D01*
X116646273Y-106533777D02*
X116646273Y-107200444D01*
X116884368Y-106152825D02*
X117122463Y-106867110D01*
X117122463Y-106867110D02*
X116503416Y-106867110D01*
X120402404Y-108050444D02*
X120402404Y-107050444D01*
X119830976Y-108050444D02*
X120259547Y-107479015D01*
X119830976Y-107050444D02*
X120402404Y-107621872D01*
D11*
X138167302Y-38177053D02*
X138833969Y-38177053D01*
X137786350Y-37938958D02*
X138500635Y-37700863D01*
X138500635Y-37700863D02*
X138500635Y-38319910D01*
X138738730Y-38700863D02*
X138786350Y-38748482D01*
X138786350Y-38748482D02*
X138833969Y-38700863D01*
X138833969Y-38700863D02*
X138786350Y-38653244D01*
X138786350Y-38653244D02*
X138738730Y-38700863D01*
X138738730Y-38700863D02*
X138833969Y-38700863D01*
X137833969Y-39081815D02*
X137833969Y-39748481D01*
X137833969Y-39748481D02*
X138833969Y-39319910D01*
X138833969Y-40129434D02*
X137833969Y-40129434D01*
X138453016Y-40224672D02*
X138833969Y-40510386D01*
X138167302Y-40510386D02*
X138548254Y-40129434D01*
D10*
X86906035Y-63490444D02*
X86906035Y-62490444D01*
X86906035Y-62490444D02*
X86667940Y-62490444D01*
X86667940Y-62490444D02*
X86525083Y-62538063D01*
X86525083Y-62538063D02*
X86429845Y-62633301D01*
X86429845Y-62633301D02*
X86382226Y-62728539D01*
X86382226Y-62728539D02*
X86334607Y-62919015D01*
X86334607Y-62919015D02*
X86334607Y-63061872D01*
X86334607Y-63061872D02*
X86382226Y-63252348D01*
X86382226Y-63252348D02*
X86429845Y-63347586D01*
X86429845Y-63347586D02*
X86525083Y-63442825D01*
X86525083Y-63442825D02*
X86667940Y-63490444D01*
X86667940Y-63490444D02*
X86906035Y-63490444D01*
X85953654Y-62585682D02*
X85906035Y-62538063D01*
X85906035Y-62538063D02*
X85810797Y-62490444D01*
X85810797Y-62490444D02*
X85572702Y-62490444D01*
X85572702Y-62490444D02*
X85477464Y-62538063D01*
X85477464Y-62538063D02*
X85429845Y-62585682D01*
X85429845Y-62585682D02*
X85382226Y-62680920D01*
X85382226Y-62680920D02*
X85382226Y-62776158D01*
X85382226Y-62776158D02*
X85429845Y-62919015D01*
X85429845Y-62919015D02*
X86001273Y-63490444D01*
X86001273Y-63490444D02*
X85382226Y-63490444D01*
X84525083Y-62490444D02*
X84715559Y-62490444D01*
X84715559Y-62490444D02*
X84810797Y-62538063D01*
X84810797Y-62538063D02*
X84858416Y-62585682D01*
X84858416Y-62585682D02*
X84953654Y-62728539D01*
X84953654Y-62728539D02*
X85001273Y-62919015D01*
X85001273Y-62919015D02*
X85001273Y-63299967D01*
X85001273Y-63299967D02*
X84953654Y-63395205D01*
X84953654Y-63395205D02*
X84906035Y-63442825D01*
X84906035Y-63442825D02*
X84810797Y-63490444D01*
X84810797Y-63490444D02*
X84620321Y-63490444D01*
X84620321Y-63490444D02*
X84525083Y-63442825D01*
X84525083Y-63442825D02*
X84477464Y-63395205D01*
X84477464Y-63395205D02*
X84429845Y-63299967D01*
X84429845Y-63299967D02*
X84429845Y-63061872D01*
X84429845Y-63061872D02*
X84477464Y-62966634D01*
X84477464Y-62966634D02*
X84525083Y-62919015D01*
X84525083Y-62919015D02*
X84620321Y-62871396D01*
X84620321Y-62871396D02*
X84810797Y-62871396D01*
X84810797Y-62871396D02*
X84906035Y-62919015D01*
X84906035Y-62919015D02*
X84953654Y-62966634D01*
X84953654Y-62966634D02*
X85001273Y-63061872D01*
X89763654Y-63810444D02*
X89763654Y-62810444D01*
X89192226Y-63810444D02*
X89620797Y-63239015D01*
X89192226Y-62810444D02*
X89763654Y-63381872D01*
X130021023Y-38879765D02*
X130097213Y-38841670D01*
X130097213Y-38841670D02*
X130211499Y-38841670D01*
X130211499Y-38841670D02*
X130325785Y-38879765D01*
X130325785Y-38879765D02*
X130401975Y-38955955D01*
X130401975Y-38955955D02*
X130440070Y-39032146D01*
X130440070Y-39032146D02*
X130478166Y-39184527D01*
X130478166Y-39184527D02*
X130478166Y-39298813D01*
X130478166Y-39298813D02*
X130440070Y-39451194D01*
X130440070Y-39451194D02*
X130401975Y-39527384D01*
X130401975Y-39527384D02*
X130325785Y-39603575D01*
X130325785Y-39603575D02*
X130211499Y-39641670D01*
X130211499Y-39641670D02*
X130135308Y-39641670D01*
X130135308Y-39641670D02*
X130021023Y-39603575D01*
X130021023Y-39603575D02*
X129982927Y-39565479D01*
X129982927Y-39565479D02*
X129982927Y-39298813D01*
X129982927Y-39298813D02*
X130135308Y-39298813D01*
X129640070Y-39641670D02*
X129640070Y-38841670D01*
X129640070Y-38841670D02*
X129182927Y-39641670D01*
X129182927Y-39641670D02*
X129182927Y-38841670D01*
X128801975Y-39641670D02*
X128801975Y-38841670D01*
X128801975Y-38841670D02*
X128611499Y-38841670D01*
X128611499Y-38841670D02*
X128497213Y-38879765D01*
X128497213Y-38879765D02*
X128421023Y-38955955D01*
X128421023Y-38955955D02*
X128382928Y-39032146D01*
X128382928Y-39032146D02*
X128344832Y-39184527D01*
X128344832Y-39184527D02*
X128344832Y-39298813D01*
X128344832Y-39298813D02*
X128382928Y-39451194D01*
X128382928Y-39451194D02*
X128421023Y-39527384D01*
X128421023Y-39527384D02*
X128497213Y-39603575D01*
X128497213Y-39603575D02*
X128611499Y-39641670D01*
X128611499Y-39641670D02*
X128801975Y-39641670D01*
X130001975Y-52341670D02*
X130001975Y-51541670D01*
X130001975Y-51541670D02*
X129811499Y-51541670D01*
X129811499Y-51541670D02*
X129697213Y-51579765D01*
X129697213Y-51579765D02*
X129621023Y-51655955D01*
X129621023Y-51655955D02*
X129582928Y-51732146D01*
X129582928Y-51732146D02*
X129544832Y-51884527D01*
X129544832Y-51884527D02*
X129544832Y-51998813D01*
X129544832Y-51998813D02*
X129582928Y-52151194D01*
X129582928Y-52151194D02*
X129621023Y-52227384D01*
X129621023Y-52227384D02*
X129697213Y-52303575D01*
X129697213Y-52303575D02*
X129811499Y-52341670D01*
X129811499Y-52341670D02*
X130001975Y-52341670D01*
X129278166Y-51541670D02*
X128744832Y-51541670D01*
X128744832Y-51541670D02*
X129087690Y-52341670D01*
X117790976Y-58489591D02*
X117693328Y-58445818D01*
X117693328Y-58445818D02*
X117642820Y-58449185D01*
X117642820Y-58449185D02*
X117565375Y-58479490D01*
X117565375Y-58479490D02*
X117484563Y-58560302D01*
X117484563Y-58560302D02*
X117454259Y-58637747D01*
X117454259Y-58637747D02*
X117450891Y-58688255D01*
X117450891Y-58688255D02*
X117471095Y-58762332D01*
X117471095Y-58762332D02*
X117659656Y-58950894D01*
X117659656Y-58950894D02*
X118225342Y-58385209D01*
X118225342Y-58385209D02*
X118060350Y-58220217D01*
X118060350Y-58220217D02*
X117986272Y-58200014D01*
X117986272Y-58200014D02*
X117935765Y-58203381D01*
X117935765Y-58203381D02*
X117858320Y-58233686D01*
X117858320Y-58233686D02*
X117804445Y-58287561D01*
X117804445Y-58287561D02*
X117774140Y-58365006D01*
X117774140Y-58365006D02*
X117770773Y-58415513D01*
X117770773Y-58415513D02*
X117790976Y-58489591D01*
X117790976Y-58489591D02*
X117955968Y-58654583D01*
X117518235Y-57678102D02*
X117612516Y-57772383D01*
X117612516Y-57772383D02*
X117632719Y-57846461D01*
X117632719Y-57846461D02*
X117629352Y-57896968D01*
X117629352Y-57896968D02*
X117595680Y-58024921D01*
X117595680Y-58024921D02*
X117511501Y-58156241D01*
X117511501Y-58156241D02*
X117296001Y-58371740D01*
X117296001Y-58371740D02*
X117218556Y-58402045D01*
X117218556Y-58402045D02*
X117168049Y-58405412D01*
X117168049Y-58405412D02*
X117093971Y-58385209D01*
X117093971Y-58385209D02*
X116999690Y-58290928D01*
X116999690Y-58290928D02*
X116979487Y-58216850D01*
X116979487Y-58216850D02*
X116982854Y-58166342D01*
X116982854Y-58166342D02*
X117013159Y-58088897D01*
X117013159Y-58088897D02*
X117147846Y-57954210D01*
X117147846Y-57954210D02*
X117225291Y-57923906D01*
X117225291Y-57923906D02*
X117275798Y-57920539D01*
X117275798Y-57920539D02*
X117349876Y-57940742D01*
X117349876Y-57940742D02*
X117444157Y-58035023D01*
X117444157Y-58035023D02*
X117464360Y-58109100D01*
X117464360Y-58109100D02*
X117460993Y-58159608D01*
X117460993Y-58159608D02*
X117430688Y-58237053D01*
X129963880Y-54462622D02*
X129697214Y-54462622D01*
X129582928Y-54881670D02*
X129963880Y-54881670D01*
X129963880Y-54881670D02*
X129963880Y-54081670D01*
X129963880Y-54081670D02*
X129582928Y-54081670D01*
X128897213Y-54081670D02*
X129049594Y-54081670D01*
X129049594Y-54081670D02*
X129125785Y-54119765D01*
X129125785Y-54119765D02*
X129163880Y-54157860D01*
X129163880Y-54157860D02*
X129240070Y-54272146D01*
X129240070Y-54272146D02*
X129278166Y-54424527D01*
X129278166Y-54424527D02*
X129278166Y-54729289D01*
X129278166Y-54729289D02*
X129240070Y-54805479D01*
X129240070Y-54805479D02*
X129201975Y-54843575D01*
X129201975Y-54843575D02*
X129125785Y-54881670D01*
X129125785Y-54881670D02*
X128973404Y-54881670D01*
X128973404Y-54881670D02*
X128897213Y-54843575D01*
X128897213Y-54843575D02*
X128859118Y-54805479D01*
X128859118Y-54805479D02*
X128821023Y-54729289D01*
X128821023Y-54729289D02*
X128821023Y-54538813D01*
X128821023Y-54538813D02*
X128859118Y-54462622D01*
X128859118Y-54462622D02*
X128897213Y-54424527D01*
X128897213Y-54424527D02*
X128973404Y-54386432D01*
X128973404Y-54386432D02*
X129125785Y-54386432D01*
X129125785Y-54386432D02*
X129201975Y-54424527D01*
X129201975Y-54424527D02*
X129240070Y-54462622D01*
X129240070Y-54462622D02*
X129278166Y-54538813D01*
X121677166Y-57972622D02*
X121943832Y-57972622D01*
X121943832Y-58391670D02*
X121943832Y-57591670D01*
X121943832Y-57591670D02*
X121562880Y-57591670D01*
X120839071Y-58391670D02*
X121296214Y-58391670D01*
X121067642Y-58391670D02*
X121067642Y-57591670D01*
X121067642Y-57591670D02*
X121143833Y-57705955D01*
X121143833Y-57705955D02*
X121220023Y-57782146D01*
X121220023Y-57782146D02*
X121296214Y-57820241D01*
X130001975Y-42181670D02*
X130001975Y-41381670D01*
X130001975Y-41381670D02*
X129811499Y-41381670D01*
X129811499Y-41381670D02*
X129697213Y-41419765D01*
X129697213Y-41419765D02*
X129621023Y-41495955D01*
X129621023Y-41495955D02*
X129582928Y-41572146D01*
X129582928Y-41572146D02*
X129544832Y-41724527D01*
X129544832Y-41724527D02*
X129544832Y-41838813D01*
X129544832Y-41838813D02*
X129582928Y-41991194D01*
X129582928Y-41991194D02*
X129621023Y-42067384D01*
X129621023Y-42067384D02*
X129697213Y-42143575D01*
X129697213Y-42143575D02*
X129811499Y-42181670D01*
X129811499Y-42181670D02*
X130001975Y-42181670D01*
X128782928Y-42181670D02*
X129240071Y-42181670D01*
X129011499Y-42181670D02*
X129011499Y-41381670D01*
X129011499Y-41381670D02*
X129087690Y-41495955D01*
X129087690Y-41495955D02*
X129163880Y-41572146D01*
X129163880Y-41572146D02*
X129240071Y-41610241D01*
X130001975Y-44721670D02*
X130001975Y-43921670D01*
X130001975Y-43921670D02*
X129811499Y-43921670D01*
X129811499Y-43921670D02*
X129697213Y-43959765D01*
X129697213Y-43959765D02*
X129621023Y-44035955D01*
X129621023Y-44035955D02*
X129582928Y-44112146D01*
X129582928Y-44112146D02*
X129544832Y-44264527D01*
X129544832Y-44264527D02*
X129544832Y-44378813D01*
X129544832Y-44378813D02*
X129582928Y-44531194D01*
X129582928Y-44531194D02*
X129621023Y-44607384D01*
X129621023Y-44607384D02*
X129697213Y-44683575D01*
X129697213Y-44683575D02*
X129811499Y-44721670D01*
X129811499Y-44721670D02*
X130001975Y-44721670D01*
X129049594Y-43921670D02*
X128973404Y-43921670D01*
X128973404Y-43921670D02*
X128897213Y-43959765D01*
X128897213Y-43959765D02*
X128859118Y-43997860D01*
X128859118Y-43997860D02*
X128821023Y-44074051D01*
X128821023Y-44074051D02*
X128782928Y-44226432D01*
X128782928Y-44226432D02*
X128782928Y-44416908D01*
X128782928Y-44416908D02*
X128821023Y-44569289D01*
X128821023Y-44569289D02*
X128859118Y-44645479D01*
X128859118Y-44645479D02*
X128897213Y-44683575D01*
X128897213Y-44683575D02*
X128973404Y-44721670D01*
X128973404Y-44721670D02*
X129049594Y-44721670D01*
X129049594Y-44721670D02*
X129125785Y-44683575D01*
X129125785Y-44683575D02*
X129163880Y-44645479D01*
X129163880Y-44645479D02*
X129201975Y-44569289D01*
X129201975Y-44569289D02*
X129240071Y-44416908D01*
X129240071Y-44416908D02*
X129240071Y-44226432D01*
X129240071Y-44226432D02*
X129201975Y-44074051D01*
X129201975Y-44074051D02*
X129163880Y-43997860D01*
X129163880Y-43997860D02*
X129125785Y-43959765D01*
X129125785Y-43959765D02*
X129049594Y-43921670D01*
X128733833Y-58172622D02*
X128633833Y-58210717D01*
X128633833Y-58210717D02*
X128600499Y-58248813D01*
X128600499Y-58248813D02*
X128567166Y-58325003D01*
X128567166Y-58325003D02*
X128567166Y-58439289D01*
X128567166Y-58439289D02*
X128600499Y-58515479D01*
X128600499Y-58515479D02*
X128633833Y-58553575D01*
X128633833Y-58553575D02*
X128700499Y-58591670D01*
X128700499Y-58591670D02*
X128967166Y-58591670D01*
X128967166Y-58591670D02*
X128967166Y-57791670D01*
X128967166Y-57791670D02*
X128733833Y-57791670D01*
X128733833Y-57791670D02*
X128667166Y-57829765D01*
X128667166Y-57829765D02*
X128633833Y-57867860D01*
X128633833Y-57867860D02*
X128600499Y-57944051D01*
X128600499Y-57944051D02*
X128600499Y-58020241D01*
X128600499Y-58020241D02*
X128633833Y-58096432D01*
X128633833Y-58096432D02*
X128667166Y-58134527D01*
X128667166Y-58134527D02*
X128733833Y-58172622D01*
X128733833Y-58172622D02*
X128967166Y-58172622D01*
X128333833Y-57791670D02*
X127867166Y-57791670D01*
X127867166Y-57791670D02*
X128167166Y-58591670D01*
X119556166Y-38841670D02*
X119289499Y-39641670D01*
X119289499Y-39641670D02*
X119022833Y-38841670D01*
X118299023Y-39565479D02*
X118337119Y-39603575D01*
X118337119Y-39603575D02*
X118451404Y-39641670D01*
X118451404Y-39641670D02*
X118527595Y-39641670D01*
X118527595Y-39641670D02*
X118641881Y-39603575D01*
X118641881Y-39603575D02*
X118718071Y-39527384D01*
X118718071Y-39527384D02*
X118756166Y-39451194D01*
X118756166Y-39451194D02*
X118794262Y-39298813D01*
X118794262Y-39298813D02*
X118794262Y-39184527D01*
X118794262Y-39184527D02*
X118756166Y-39032146D01*
X118756166Y-39032146D02*
X118718071Y-38955955D01*
X118718071Y-38955955D02*
X118641881Y-38879765D01*
X118641881Y-38879765D02*
X118527595Y-38841670D01*
X118527595Y-38841670D02*
X118451404Y-38841670D01*
X118451404Y-38841670D02*
X118337119Y-38879765D01*
X118337119Y-38879765D02*
X118299023Y-38917860D01*
X117499023Y-39565479D02*
X117537119Y-39603575D01*
X117537119Y-39603575D02*
X117651404Y-39641670D01*
X117651404Y-39641670D02*
X117727595Y-39641670D01*
X117727595Y-39641670D02*
X117841881Y-39603575D01*
X117841881Y-39603575D02*
X117918071Y-39527384D01*
X117918071Y-39527384D02*
X117956166Y-39451194D01*
X117956166Y-39451194D02*
X117994262Y-39298813D01*
X117994262Y-39298813D02*
X117994262Y-39184527D01*
X117994262Y-39184527D02*
X117956166Y-39032146D01*
X117956166Y-39032146D02*
X117918071Y-38955955D01*
X117918071Y-38955955D02*
X117841881Y-38879765D01*
X117841881Y-38879765D02*
X117727595Y-38841670D01*
X117727595Y-38841670D02*
X117651404Y-38841670D01*
X117651404Y-38841670D02*
X117537119Y-38879765D01*
X117537119Y-38879765D02*
X117499023Y-38917860D01*
X118756166Y-41762622D02*
X119022832Y-41762622D01*
X119022832Y-42181670D02*
X119022832Y-41381670D01*
X119022832Y-41381670D02*
X118641880Y-41381670D01*
X117994261Y-41648336D02*
X117994261Y-42181670D01*
X118184737Y-41343575D02*
X118375214Y-41915003D01*
X118375214Y-41915003D02*
X117879975Y-41915003D01*
X118756166Y-44302622D02*
X119022832Y-44302622D01*
X119022832Y-44721670D02*
X119022832Y-43921670D01*
X119022832Y-43921670D02*
X118641880Y-43921670D01*
X117956166Y-43921670D02*
X118337118Y-43921670D01*
X118337118Y-43921670D02*
X118375214Y-44302622D01*
X118375214Y-44302622D02*
X118337118Y-44264527D01*
X118337118Y-44264527D02*
X118260928Y-44226432D01*
X118260928Y-44226432D02*
X118070452Y-44226432D01*
X118070452Y-44226432D02*
X117994261Y-44264527D01*
X117994261Y-44264527D02*
X117956166Y-44302622D01*
X117956166Y-44302622D02*
X117918071Y-44378813D01*
X117918071Y-44378813D02*
X117918071Y-44569289D01*
X117918071Y-44569289D02*
X117956166Y-44645479D01*
X117956166Y-44645479D02*
X117994261Y-44683575D01*
X117994261Y-44683575D02*
X118070452Y-44721670D01*
X118070452Y-44721670D02*
X118260928Y-44721670D01*
X118260928Y-44721670D02*
X118337118Y-44683575D01*
X118337118Y-44683575D02*
X118375214Y-44645479D01*
X119683833Y-58172622D02*
X119917166Y-58172622D01*
X119917166Y-58591670D02*
X119917166Y-57791670D01*
X119917166Y-57791670D02*
X119583833Y-57791670D01*
X119183833Y-57791670D02*
X119117166Y-57791670D01*
X119117166Y-57791670D02*
X119050499Y-57829765D01*
X119050499Y-57829765D02*
X119017166Y-57867860D01*
X119017166Y-57867860D02*
X118983833Y-57944051D01*
X118983833Y-57944051D02*
X118950499Y-58096432D01*
X118950499Y-58096432D02*
X118950499Y-58286908D01*
X118950499Y-58286908D02*
X118983833Y-58439289D01*
X118983833Y-58439289D02*
X119017166Y-58515479D01*
X119017166Y-58515479D02*
X119050499Y-58553575D01*
X119050499Y-58553575D02*
X119117166Y-58591670D01*
X119117166Y-58591670D02*
X119183833Y-58591670D01*
X119183833Y-58591670D02*
X119250499Y-58553575D01*
X119250499Y-58553575D02*
X119283833Y-58515479D01*
X119283833Y-58515479D02*
X119317166Y-58439289D01*
X119317166Y-58439289D02*
X119350499Y-58286908D01*
X119350499Y-58286908D02*
X119350499Y-58096432D01*
X119350499Y-58096432D02*
X119317166Y-57944051D01*
X119317166Y-57944051D02*
X119283833Y-57867860D01*
X119283833Y-57867860D02*
X119250499Y-57829765D01*
X119250499Y-57829765D02*
X119183833Y-57791670D01*
X130021023Y-36339765D02*
X130097213Y-36301670D01*
X130097213Y-36301670D02*
X130211499Y-36301670D01*
X130211499Y-36301670D02*
X130325785Y-36339765D01*
X130325785Y-36339765D02*
X130401975Y-36415955D01*
X130401975Y-36415955D02*
X130440070Y-36492146D01*
X130440070Y-36492146D02*
X130478166Y-36644527D01*
X130478166Y-36644527D02*
X130478166Y-36758813D01*
X130478166Y-36758813D02*
X130440070Y-36911194D01*
X130440070Y-36911194D02*
X130401975Y-36987384D01*
X130401975Y-36987384D02*
X130325785Y-37063575D01*
X130325785Y-37063575D02*
X130211499Y-37101670D01*
X130211499Y-37101670D02*
X130135308Y-37101670D01*
X130135308Y-37101670D02*
X130021023Y-37063575D01*
X130021023Y-37063575D02*
X129982927Y-37025479D01*
X129982927Y-37025479D02*
X129982927Y-36758813D01*
X129982927Y-36758813D02*
X130135308Y-36758813D01*
X129640070Y-37101670D02*
X129640070Y-36301670D01*
X129640070Y-36301670D02*
X129182927Y-37101670D01*
X129182927Y-37101670D02*
X129182927Y-36301670D01*
X128801975Y-37101670D02*
X128801975Y-36301670D01*
X128801975Y-36301670D02*
X128611499Y-36301670D01*
X128611499Y-36301670D02*
X128497213Y-36339765D01*
X128497213Y-36339765D02*
X128421023Y-36415955D01*
X128421023Y-36415955D02*
X128382928Y-36492146D01*
X128382928Y-36492146D02*
X128344832Y-36644527D01*
X128344832Y-36644527D02*
X128344832Y-36758813D01*
X128344832Y-36758813D02*
X128382928Y-36911194D01*
X128382928Y-36911194D02*
X128421023Y-36987384D01*
X128421023Y-36987384D02*
X128497213Y-37063575D01*
X128497213Y-37063575D02*
X128611499Y-37101670D01*
X128611499Y-37101670D02*
X128801975Y-37101670D01*
X129544832Y-49725479D02*
X129582928Y-49763575D01*
X129582928Y-49763575D02*
X129697213Y-49801670D01*
X129697213Y-49801670D02*
X129773404Y-49801670D01*
X129773404Y-49801670D02*
X129887690Y-49763575D01*
X129887690Y-49763575D02*
X129963880Y-49687384D01*
X129963880Y-49687384D02*
X130001975Y-49611194D01*
X130001975Y-49611194D02*
X130040071Y-49458813D01*
X130040071Y-49458813D02*
X130040071Y-49344527D01*
X130040071Y-49344527D02*
X130001975Y-49192146D01*
X130001975Y-49192146D02*
X129963880Y-49115955D01*
X129963880Y-49115955D02*
X129887690Y-49039765D01*
X129887690Y-49039765D02*
X129773404Y-49001670D01*
X129773404Y-49001670D02*
X129697213Y-49001670D01*
X129697213Y-49001670D02*
X129582928Y-49039765D01*
X129582928Y-49039765D02*
X129544832Y-49077860D01*
X128859118Y-49001670D02*
X129011499Y-49001670D01*
X129011499Y-49001670D02*
X129087690Y-49039765D01*
X129087690Y-49039765D02*
X129125785Y-49077860D01*
X129125785Y-49077860D02*
X129201975Y-49192146D01*
X129201975Y-49192146D02*
X129240071Y-49344527D01*
X129240071Y-49344527D02*
X129240071Y-49649289D01*
X129240071Y-49649289D02*
X129201975Y-49725479D01*
X129201975Y-49725479D02*
X129163880Y-49763575D01*
X129163880Y-49763575D02*
X129087690Y-49801670D01*
X129087690Y-49801670D02*
X128935309Y-49801670D01*
X128935309Y-49801670D02*
X128859118Y-49763575D01*
X128859118Y-49763575D02*
X128821023Y-49725479D01*
X128821023Y-49725479D02*
X128782928Y-49649289D01*
X128782928Y-49649289D02*
X128782928Y-49458813D01*
X128782928Y-49458813D02*
X128821023Y-49382622D01*
X128821023Y-49382622D02*
X128859118Y-49344527D01*
X128859118Y-49344527D02*
X128935309Y-49306432D01*
X128935309Y-49306432D02*
X129087690Y-49306432D01*
X129087690Y-49306432D02*
X129163880Y-49344527D01*
X129163880Y-49344527D02*
X129201975Y-49382622D01*
X129201975Y-49382622D02*
X129240071Y-49458813D01*
X118813309Y-54462622D02*
X118699023Y-54500717D01*
X118699023Y-54500717D02*
X118660928Y-54538813D01*
X118660928Y-54538813D02*
X118622832Y-54615003D01*
X118622832Y-54615003D02*
X118622832Y-54729289D01*
X118622832Y-54729289D02*
X118660928Y-54805479D01*
X118660928Y-54805479D02*
X118699023Y-54843575D01*
X118699023Y-54843575D02*
X118775213Y-54881670D01*
X118775213Y-54881670D02*
X119079975Y-54881670D01*
X119079975Y-54881670D02*
X119079975Y-54081670D01*
X119079975Y-54081670D02*
X118813309Y-54081670D01*
X118813309Y-54081670D02*
X118737118Y-54119765D01*
X118737118Y-54119765D02*
X118699023Y-54157860D01*
X118699023Y-54157860D02*
X118660928Y-54234051D01*
X118660928Y-54234051D02*
X118660928Y-54310241D01*
X118660928Y-54310241D02*
X118699023Y-54386432D01*
X118699023Y-54386432D02*
X118737118Y-54424527D01*
X118737118Y-54424527D02*
X118813309Y-54462622D01*
X118813309Y-54462622D02*
X119079975Y-54462622D01*
X118356166Y-54081670D02*
X117860928Y-54081670D01*
X117860928Y-54081670D02*
X118127594Y-54386432D01*
X118127594Y-54386432D02*
X118013309Y-54386432D01*
X118013309Y-54386432D02*
X117937118Y-54424527D01*
X117937118Y-54424527D02*
X117899023Y-54462622D01*
X117899023Y-54462622D02*
X117860928Y-54538813D01*
X117860928Y-54538813D02*
X117860928Y-54729289D01*
X117860928Y-54729289D02*
X117899023Y-54805479D01*
X117899023Y-54805479D02*
X117937118Y-54843575D01*
X117937118Y-54843575D02*
X118013309Y-54881670D01*
X118013309Y-54881670D02*
X118241880Y-54881670D01*
X118241880Y-54881670D02*
X118318071Y-54843575D01*
X118318071Y-54843575D02*
X118356166Y-54805479D01*
X124083832Y-58315479D02*
X124121928Y-58353575D01*
X124121928Y-58353575D02*
X124236213Y-58391670D01*
X124236213Y-58391670D02*
X124312404Y-58391670D01*
X124312404Y-58391670D02*
X124426690Y-58353575D01*
X124426690Y-58353575D02*
X124502880Y-58277384D01*
X124502880Y-58277384D02*
X124540975Y-58201194D01*
X124540975Y-58201194D02*
X124579071Y-58048813D01*
X124579071Y-58048813D02*
X124579071Y-57934527D01*
X124579071Y-57934527D02*
X124540975Y-57782146D01*
X124540975Y-57782146D02*
X124502880Y-57705955D01*
X124502880Y-57705955D02*
X124426690Y-57629765D01*
X124426690Y-57629765D02*
X124312404Y-57591670D01*
X124312404Y-57591670D02*
X124236213Y-57591670D01*
X124236213Y-57591670D02*
X124121928Y-57629765D01*
X124121928Y-57629765D02*
X124083832Y-57667860D01*
X123817166Y-57591670D02*
X123283832Y-57591670D01*
X123283832Y-57591670D02*
X123626690Y-58391670D01*
X130001975Y-47261670D02*
X130001975Y-46461670D01*
X130001975Y-46461670D02*
X129811499Y-46461670D01*
X129811499Y-46461670D02*
X129697213Y-46499765D01*
X129697213Y-46499765D02*
X129621023Y-46575955D01*
X129621023Y-46575955D02*
X129582928Y-46652146D01*
X129582928Y-46652146D02*
X129544832Y-46804527D01*
X129544832Y-46804527D02*
X129544832Y-46918813D01*
X129544832Y-46918813D02*
X129582928Y-47071194D01*
X129582928Y-47071194D02*
X129621023Y-47147384D01*
X129621023Y-47147384D02*
X129697213Y-47223575D01*
X129697213Y-47223575D02*
X129811499Y-47261670D01*
X129811499Y-47261670D02*
X130001975Y-47261670D01*
X128859118Y-46728336D02*
X128859118Y-47261670D01*
X129049594Y-46423575D02*
X129240071Y-46995003D01*
X129240071Y-46995003D02*
X128744832Y-46995003D01*
X130510716Y-58088898D02*
X130466943Y-58186546D01*
X130466943Y-58186546D02*
X130470310Y-58237054D01*
X130470310Y-58237054D02*
X130500615Y-58314499D01*
X130500615Y-58314499D02*
X130581427Y-58395311D01*
X130581427Y-58395311D02*
X130658872Y-58425615D01*
X130658872Y-58425615D02*
X130709380Y-58428983D01*
X130709380Y-58428983D02*
X130783457Y-58408779D01*
X130783457Y-58408779D02*
X130972019Y-58220218D01*
X130972019Y-58220218D02*
X130406334Y-57654532D01*
X130406334Y-57654532D02*
X130241342Y-57819524D01*
X130241342Y-57819524D02*
X130221139Y-57893602D01*
X130221139Y-57893602D02*
X130224506Y-57944109D01*
X130224506Y-57944109D02*
X130254811Y-58021554D01*
X130254811Y-58021554D02*
X130308686Y-58075429D01*
X130308686Y-58075429D02*
X130386131Y-58105734D01*
X130386131Y-58105734D02*
X130436638Y-58109101D01*
X130436638Y-58109101D02*
X130510716Y-58088898D01*
X130510716Y-58088898D02*
X130675708Y-57923906D01*
X129675657Y-58385209D02*
X129911359Y-58149507D01*
X129911359Y-58149507D02*
X130204303Y-58395311D01*
X130204303Y-58395311D02*
X130153796Y-58391944D01*
X130153796Y-58391944D02*
X130079718Y-58412147D01*
X130079718Y-58412147D02*
X129961867Y-58529998D01*
X129961867Y-58529998D02*
X129941664Y-58604076D01*
X129941664Y-58604076D02*
X129945031Y-58654583D01*
X129945031Y-58654583D02*
X129975335Y-58732028D01*
X129975335Y-58732028D02*
X130110022Y-58866715D01*
X130110022Y-58866715D02*
X130187467Y-58897020D01*
X130187467Y-58897020D02*
X130237975Y-58900387D01*
X130237975Y-58900387D02*
X130312053Y-58880184D01*
X130312053Y-58880184D02*
X130429904Y-58762333D01*
X130429904Y-58762333D02*
X130450107Y-58688255D01*
X130450107Y-58688255D02*
X130446740Y-58637747D01*
X127080975Y-58391670D02*
X127080975Y-57591670D01*
X127080975Y-57591670D02*
X126890499Y-57591670D01*
X126890499Y-57591670D02*
X126776213Y-57629765D01*
X126776213Y-57629765D02*
X126700023Y-57705955D01*
X126700023Y-57705955D02*
X126661928Y-57782146D01*
X126661928Y-57782146D02*
X126623832Y-57934527D01*
X126623832Y-57934527D02*
X126623832Y-58048813D01*
X126623832Y-58048813D02*
X126661928Y-58201194D01*
X126661928Y-58201194D02*
X126700023Y-58277384D01*
X126700023Y-58277384D02*
X126776213Y-58353575D01*
X126776213Y-58353575D02*
X126890499Y-58391670D01*
X126890499Y-58391670D02*
X127080975Y-58391670D01*
X125900023Y-57591670D02*
X126280975Y-57591670D01*
X126280975Y-57591670D02*
X126319071Y-57972622D01*
X126319071Y-57972622D02*
X126280975Y-57934527D01*
X126280975Y-57934527D02*
X126204785Y-57896432D01*
X126204785Y-57896432D02*
X126014309Y-57896432D01*
X126014309Y-57896432D02*
X125938118Y-57934527D01*
X125938118Y-57934527D02*
X125900023Y-57972622D01*
X125900023Y-57972622D02*
X125861928Y-58048813D01*
X125861928Y-58048813D02*
X125861928Y-58239289D01*
X125861928Y-58239289D02*
X125900023Y-58315479D01*
X125900023Y-58315479D02*
X125938118Y-58353575D01*
X125938118Y-58353575D02*
X126014309Y-58391670D01*
X126014309Y-58391670D02*
X126204785Y-58391670D01*
X126204785Y-58391670D02*
X126280975Y-58353575D01*
X126280975Y-58353575D02*
X126319071Y-58315479D01*
X119099023Y-33799765D02*
X119175213Y-33761670D01*
X119175213Y-33761670D02*
X119289499Y-33761670D01*
X119289499Y-33761670D02*
X119403785Y-33799765D01*
X119403785Y-33799765D02*
X119479975Y-33875955D01*
X119479975Y-33875955D02*
X119518070Y-33952146D01*
X119518070Y-33952146D02*
X119556166Y-34104527D01*
X119556166Y-34104527D02*
X119556166Y-34218813D01*
X119556166Y-34218813D02*
X119518070Y-34371194D01*
X119518070Y-34371194D02*
X119479975Y-34447384D01*
X119479975Y-34447384D02*
X119403785Y-34523575D01*
X119403785Y-34523575D02*
X119289499Y-34561670D01*
X119289499Y-34561670D02*
X119213308Y-34561670D01*
X119213308Y-34561670D02*
X119099023Y-34523575D01*
X119099023Y-34523575D02*
X119060927Y-34485479D01*
X119060927Y-34485479D02*
X119060927Y-34218813D01*
X119060927Y-34218813D02*
X119213308Y-34218813D01*
X118718070Y-34561670D02*
X118718070Y-33761670D01*
X118718070Y-33761670D02*
X118260927Y-34561670D01*
X118260927Y-34561670D02*
X118260927Y-33761670D01*
X117879975Y-34561670D02*
X117879975Y-33761670D01*
X117879975Y-33761670D02*
X117689499Y-33761670D01*
X117689499Y-33761670D02*
X117575213Y-33799765D01*
X117575213Y-33799765D02*
X117499023Y-33875955D01*
X117499023Y-33875955D02*
X117460928Y-33952146D01*
X117460928Y-33952146D02*
X117422832Y-34104527D01*
X117422832Y-34104527D02*
X117422832Y-34218813D01*
X117422832Y-34218813D02*
X117460928Y-34371194D01*
X117460928Y-34371194D02*
X117499023Y-34447384D01*
X117499023Y-34447384D02*
X117575213Y-34523575D01*
X117575213Y-34523575D02*
X117689499Y-34561670D01*
X117689499Y-34561670D02*
X117879975Y-34561670D01*
X130001975Y-34561670D02*
X130001975Y-33761670D01*
X130001975Y-33761670D02*
X129811499Y-33761670D01*
X129811499Y-33761670D02*
X129697213Y-33799765D01*
X129697213Y-33799765D02*
X129621023Y-33875955D01*
X129621023Y-33875955D02*
X129582928Y-33952146D01*
X129582928Y-33952146D02*
X129544832Y-34104527D01*
X129544832Y-34104527D02*
X129544832Y-34218813D01*
X129544832Y-34218813D02*
X129582928Y-34371194D01*
X129582928Y-34371194D02*
X129621023Y-34447384D01*
X129621023Y-34447384D02*
X129697213Y-34523575D01*
X129697213Y-34523575D02*
X129811499Y-34561670D01*
X129811499Y-34561670D02*
X130001975Y-34561670D01*
X129240071Y-33837860D02*
X129201975Y-33799765D01*
X129201975Y-33799765D02*
X129125785Y-33761670D01*
X129125785Y-33761670D02*
X128935309Y-33761670D01*
X128935309Y-33761670D02*
X128859118Y-33799765D01*
X128859118Y-33799765D02*
X128821023Y-33837860D01*
X128821023Y-33837860D02*
X128782928Y-33914051D01*
X128782928Y-33914051D02*
X128782928Y-33990241D01*
X128782928Y-33990241D02*
X128821023Y-34104527D01*
X128821023Y-34104527D02*
X129278166Y-34561670D01*
X129278166Y-34561670D02*
X128782928Y-34561670D01*
X118750713Y-37033575D02*
X118636427Y-37071670D01*
X118636427Y-37071670D02*
X118445951Y-37071670D01*
X118445951Y-37071670D02*
X118369760Y-37033575D01*
X118369760Y-37033575D02*
X118331665Y-36995479D01*
X118331665Y-36995479D02*
X118293570Y-36919289D01*
X118293570Y-36919289D02*
X118293570Y-36843098D01*
X118293570Y-36843098D02*
X118331665Y-36766908D01*
X118331665Y-36766908D02*
X118369760Y-36728813D01*
X118369760Y-36728813D02*
X118445951Y-36690717D01*
X118445951Y-36690717D02*
X118598332Y-36652622D01*
X118598332Y-36652622D02*
X118674522Y-36614527D01*
X118674522Y-36614527D02*
X118712617Y-36576432D01*
X118712617Y-36576432D02*
X118750713Y-36500241D01*
X118750713Y-36500241D02*
X118750713Y-36424051D01*
X118750713Y-36424051D02*
X118712617Y-36347860D01*
X118712617Y-36347860D02*
X118674522Y-36309765D01*
X118674522Y-36309765D02*
X118598332Y-36271670D01*
X118598332Y-36271670D02*
X118407855Y-36271670D01*
X118407855Y-36271670D02*
X118293570Y-36309765D01*
X118064998Y-36271670D02*
X117607855Y-36271670D01*
X117836427Y-37071670D02*
X117836427Y-36271670D01*
X118813309Y-31602622D02*
X118699023Y-31640717D01*
X118699023Y-31640717D02*
X118660928Y-31678813D01*
X118660928Y-31678813D02*
X118622832Y-31755003D01*
X118622832Y-31755003D02*
X118622832Y-31869289D01*
X118622832Y-31869289D02*
X118660928Y-31945479D01*
X118660928Y-31945479D02*
X118699023Y-31983575D01*
X118699023Y-31983575D02*
X118775213Y-32021670D01*
X118775213Y-32021670D02*
X119079975Y-32021670D01*
X119079975Y-32021670D02*
X119079975Y-31221670D01*
X119079975Y-31221670D02*
X118813309Y-31221670D01*
X118813309Y-31221670D02*
X118737118Y-31259765D01*
X118737118Y-31259765D02*
X118699023Y-31297860D01*
X118699023Y-31297860D02*
X118660928Y-31374051D01*
X118660928Y-31374051D02*
X118660928Y-31450241D01*
X118660928Y-31450241D02*
X118699023Y-31526432D01*
X118699023Y-31526432D02*
X118737118Y-31564527D01*
X118737118Y-31564527D02*
X118813309Y-31602622D01*
X118813309Y-31602622D02*
X119079975Y-31602622D01*
X118127594Y-31221670D02*
X118051404Y-31221670D01*
X118051404Y-31221670D02*
X117975213Y-31259765D01*
X117975213Y-31259765D02*
X117937118Y-31297860D01*
X117937118Y-31297860D02*
X117899023Y-31374051D01*
X117899023Y-31374051D02*
X117860928Y-31526432D01*
X117860928Y-31526432D02*
X117860928Y-31716908D01*
X117860928Y-31716908D02*
X117899023Y-31869289D01*
X117899023Y-31869289D02*
X117937118Y-31945479D01*
X117937118Y-31945479D02*
X117975213Y-31983575D01*
X117975213Y-31983575D02*
X118051404Y-32021670D01*
X118051404Y-32021670D02*
X118127594Y-32021670D01*
X118127594Y-32021670D02*
X118203785Y-31983575D01*
X118203785Y-31983575D02*
X118241880Y-31945479D01*
X118241880Y-31945479D02*
X118279975Y-31869289D01*
X118279975Y-31869289D02*
X118318071Y-31716908D01*
X118318071Y-31716908D02*
X118318071Y-31526432D01*
X118318071Y-31526432D02*
X118279975Y-31374051D01*
X118279975Y-31374051D02*
X118241880Y-31297860D01*
X118241880Y-31297860D02*
X118203785Y-31259765D01*
X118203785Y-31259765D02*
X118127594Y-31221670D01*
X118813309Y-57002622D02*
X118699023Y-57040717D01*
X118699023Y-57040717D02*
X118660928Y-57078813D01*
X118660928Y-57078813D02*
X118622832Y-57155003D01*
X118622832Y-57155003D02*
X118622832Y-57269289D01*
X118622832Y-57269289D02*
X118660928Y-57345479D01*
X118660928Y-57345479D02*
X118699023Y-57383575D01*
X118699023Y-57383575D02*
X118775213Y-57421670D01*
X118775213Y-57421670D02*
X119079975Y-57421670D01*
X119079975Y-57421670D02*
X119079975Y-56621670D01*
X119079975Y-56621670D02*
X118813309Y-56621670D01*
X118813309Y-56621670D02*
X118737118Y-56659765D01*
X118737118Y-56659765D02*
X118699023Y-56697860D01*
X118699023Y-56697860D02*
X118660928Y-56774051D01*
X118660928Y-56774051D02*
X118660928Y-56850241D01*
X118660928Y-56850241D02*
X118699023Y-56926432D01*
X118699023Y-56926432D02*
X118737118Y-56964527D01*
X118737118Y-56964527D02*
X118813309Y-57002622D01*
X118813309Y-57002622D02*
X119079975Y-57002622D01*
X118318071Y-56697860D02*
X118279975Y-56659765D01*
X118279975Y-56659765D02*
X118203785Y-56621670D01*
X118203785Y-56621670D02*
X118013309Y-56621670D01*
X118013309Y-56621670D02*
X117937118Y-56659765D01*
X117937118Y-56659765D02*
X117899023Y-56697860D01*
X117899023Y-56697860D02*
X117860928Y-56774051D01*
X117860928Y-56774051D02*
X117860928Y-56850241D01*
X117860928Y-56850241D02*
X117899023Y-56964527D01*
X117899023Y-56964527D02*
X118356166Y-57421670D01*
X118356166Y-57421670D02*
X117860928Y-57421670D01*
X118756166Y-46842622D02*
X119022832Y-46842622D01*
X119022832Y-47261670D02*
X119022832Y-46461670D01*
X119022832Y-46461670D02*
X118641880Y-46461670D01*
X117994261Y-46461670D02*
X118146642Y-46461670D01*
X118146642Y-46461670D02*
X118222833Y-46499765D01*
X118222833Y-46499765D02*
X118260928Y-46537860D01*
X118260928Y-46537860D02*
X118337118Y-46652146D01*
X118337118Y-46652146D02*
X118375214Y-46804527D01*
X118375214Y-46804527D02*
X118375214Y-47109289D01*
X118375214Y-47109289D02*
X118337118Y-47185479D01*
X118337118Y-47185479D02*
X118299023Y-47223575D01*
X118299023Y-47223575D02*
X118222833Y-47261670D01*
X118222833Y-47261670D02*
X118070452Y-47261670D01*
X118070452Y-47261670D02*
X117994261Y-47223575D01*
X117994261Y-47223575D02*
X117956166Y-47185479D01*
X117956166Y-47185479D02*
X117918071Y-47109289D01*
X117918071Y-47109289D02*
X117918071Y-46918813D01*
X117918071Y-46918813D02*
X117956166Y-46842622D01*
X117956166Y-46842622D02*
X117994261Y-46804527D01*
X117994261Y-46804527D02*
X118070452Y-46766432D01*
X118070452Y-46766432D02*
X118222833Y-46766432D01*
X118222833Y-46766432D02*
X118299023Y-46804527D01*
X118299023Y-46804527D02*
X118337118Y-46842622D01*
X118337118Y-46842622D02*
X118375214Y-46918813D01*
X118756166Y-49382622D02*
X119022832Y-49382622D01*
X119022832Y-49801670D02*
X119022832Y-49001670D01*
X119022832Y-49001670D02*
X118641880Y-49001670D01*
X118413309Y-49001670D02*
X117879975Y-49001670D01*
X117879975Y-49001670D02*
X118222833Y-49801670D01*
X129735309Y-57002622D02*
X129621023Y-57040717D01*
X129621023Y-57040717D02*
X129582928Y-57078813D01*
X129582928Y-57078813D02*
X129544832Y-57155003D01*
X129544832Y-57155003D02*
X129544832Y-57269289D01*
X129544832Y-57269289D02*
X129582928Y-57345479D01*
X129582928Y-57345479D02*
X129621023Y-57383575D01*
X129621023Y-57383575D02*
X129697213Y-57421670D01*
X129697213Y-57421670D02*
X130001975Y-57421670D01*
X130001975Y-57421670D02*
X130001975Y-56621670D01*
X130001975Y-56621670D02*
X129735309Y-56621670D01*
X129735309Y-56621670D02*
X129659118Y-56659765D01*
X129659118Y-56659765D02*
X129621023Y-56697860D01*
X129621023Y-56697860D02*
X129582928Y-56774051D01*
X129582928Y-56774051D02*
X129582928Y-56850241D01*
X129582928Y-56850241D02*
X129621023Y-56926432D01*
X129621023Y-56926432D02*
X129659118Y-56964527D01*
X129659118Y-56964527D02*
X129735309Y-57002622D01*
X129735309Y-57002622D02*
X130001975Y-57002622D01*
X128859118Y-56888336D02*
X128859118Y-57421670D01*
X129049594Y-56583575D02*
X129240071Y-57155003D01*
X129240071Y-57155003D02*
X128744832Y-57155003D01*
X129712848Y-31221670D02*
X129255705Y-31221670D01*
X129484277Y-32021670D02*
X129484277Y-31221670D01*
X129065229Y-31221670D02*
X128531895Y-32021670D01*
X128531895Y-31221670D02*
X129065229Y-32021670D01*
X128074752Y-31221670D02*
X127998562Y-31221670D01*
X127998562Y-31221670D02*
X127922371Y-31259765D01*
X127922371Y-31259765D02*
X127884276Y-31297860D01*
X127884276Y-31297860D02*
X127846181Y-31374051D01*
X127846181Y-31374051D02*
X127808086Y-31526432D01*
X127808086Y-31526432D02*
X127808086Y-31716908D01*
X127808086Y-31716908D02*
X127846181Y-31869289D01*
X127846181Y-31869289D02*
X127884276Y-31945479D01*
X127884276Y-31945479D02*
X127922371Y-31983575D01*
X127922371Y-31983575D02*
X127998562Y-32021670D01*
X127998562Y-32021670D02*
X128074752Y-32021670D01*
X128074752Y-32021670D02*
X128150943Y-31983575D01*
X128150943Y-31983575D02*
X128189038Y-31945479D01*
X128189038Y-31945479D02*
X128227133Y-31869289D01*
X128227133Y-31869289D02*
X128265229Y-31716908D01*
X128265229Y-31716908D02*
X128265229Y-31526432D01*
X128265229Y-31526432D02*
X128227133Y-31374051D01*
X128227133Y-31374051D02*
X128189038Y-31297860D01*
X128189038Y-31297860D02*
X128150943Y-31259765D01*
X128150943Y-31259765D02*
X128074752Y-31221670D01*
X126893800Y-31183575D02*
X127579514Y-32212146D01*
X126627133Y-32021670D02*
X126627133Y-31221670D01*
X126627133Y-31221670D02*
X126436657Y-31221670D01*
X126436657Y-31221670D02*
X126322371Y-31259765D01*
X126322371Y-31259765D02*
X126246181Y-31335955D01*
X126246181Y-31335955D02*
X126208086Y-31412146D01*
X126208086Y-31412146D02*
X126169990Y-31564527D01*
X126169990Y-31564527D02*
X126169990Y-31678813D01*
X126169990Y-31678813D02*
X126208086Y-31831194D01*
X126208086Y-31831194D02*
X126246181Y-31907384D01*
X126246181Y-31907384D02*
X126322371Y-31983575D01*
X126322371Y-31983575D02*
X126436657Y-32021670D01*
X126436657Y-32021670D02*
X126627133Y-32021670D01*
X125903324Y-31221670D02*
X125408086Y-31221670D01*
X125408086Y-31221670D02*
X125674752Y-31526432D01*
X125674752Y-31526432D02*
X125560467Y-31526432D01*
X125560467Y-31526432D02*
X125484276Y-31564527D01*
X125484276Y-31564527D02*
X125446181Y-31602622D01*
X125446181Y-31602622D02*
X125408086Y-31678813D01*
X125408086Y-31678813D02*
X125408086Y-31869289D01*
X125408086Y-31869289D02*
X125446181Y-31945479D01*
X125446181Y-31945479D02*
X125484276Y-31983575D01*
X125484276Y-31983575D02*
X125560467Y-32021670D01*
X125560467Y-32021670D02*
X125789038Y-32021670D01*
X125789038Y-32021670D02*
X125865229Y-31983575D01*
X125865229Y-31983575D02*
X125903324Y-31945479D01*
X118813309Y-51922622D02*
X118699023Y-51960717D01*
X118699023Y-51960717D02*
X118660928Y-51998813D01*
X118660928Y-51998813D02*
X118622832Y-52075003D01*
X118622832Y-52075003D02*
X118622832Y-52189289D01*
X118622832Y-52189289D02*
X118660928Y-52265479D01*
X118660928Y-52265479D02*
X118699023Y-52303575D01*
X118699023Y-52303575D02*
X118775213Y-52341670D01*
X118775213Y-52341670D02*
X119079975Y-52341670D01*
X119079975Y-52341670D02*
X119079975Y-51541670D01*
X119079975Y-51541670D02*
X118813309Y-51541670D01*
X118813309Y-51541670D02*
X118737118Y-51579765D01*
X118737118Y-51579765D02*
X118699023Y-51617860D01*
X118699023Y-51617860D02*
X118660928Y-51694051D01*
X118660928Y-51694051D02*
X118660928Y-51770241D01*
X118660928Y-51770241D02*
X118699023Y-51846432D01*
X118699023Y-51846432D02*
X118737118Y-51884527D01*
X118737118Y-51884527D02*
X118813309Y-51922622D01*
X118813309Y-51922622D02*
X119079975Y-51922622D01*
X117860928Y-52341670D02*
X118318071Y-52341670D01*
X118089499Y-52341670D02*
X118089499Y-51541670D01*
X118089499Y-51541670D02*
X118165690Y-51655955D01*
X118165690Y-51655955D02*
X118241880Y-51732146D01*
X118241880Y-51732146D02*
X118318071Y-51770241D01*
X153610319Y-101721280D02*
X152610319Y-101721280D01*
X152610319Y-101721280D02*
X152610319Y-101959375D01*
X152610319Y-101959375D02*
X152657938Y-102102232D01*
X152657938Y-102102232D02*
X152753176Y-102197470D01*
X152753176Y-102197470D02*
X152848414Y-102245089D01*
X152848414Y-102245089D02*
X153038890Y-102292708D01*
X153038890Y-102292708D02*
X153181747Y-102292708D01*
X153181747Y-102292708D02*
X153372223Y-102245089D01*
X153372223Y-102245089D02*
X153467461Y-102197470D01*
X153467461Y-102197470D02*
X153562700Y-102102232D01*
X153562700Y-102102232D02*
X153610319Y-101959375D01*
X153610319Y-101959375D02*
X153610319Y-101721280D01*
X153038890Y-102864137D02*
X152991271Y-102768899D01*
X152991271Y-102768899D02*
X152943652Y-102721280D01*
X152943652Y-102721280D02*
X152848414Y-102673661D01*
X152848414Y-102673661D02*
X152800795Y-102673661D01*
X152800795Y-102673661D02*
X152705557Y-102721280D01*
X152705557Y-102721280D02*
X152657938Y-102768899D01*
X152657938Y-102768899D02*
X152610319Y-102864137D01*
X152610319Y-102864137D02*
X152610319Y-103054613D01*
X152610319Y-103054613D02*
X152657938Y-103149851D01*
X152657938Y-103149851D02*
X152705557Y-103197470D01*
X152705557Y-103197470D02*
X152800795Y-103245089D01*
X152800795Y-103245089D02*
X152848414Y-103245089D01*
X152848414Y-103245089D02*
X152943652Y-103197470D01*
X152943652Y-103197470D02*
X152991271Y-103149851D01*
X152991271Y-103149851D02*
X153038890Y-103054613D01*
X153038890Y-103054613D02*
X153038890Y-102864137D01*
X153038890Y-102864137D02*
X153086509Y-102768899D01*
X153086509Y-102768899D02*
X153134128Y-102721280D01*
X153134128Y-102721280D02*
X153229366Y-102673661D01*
X153229366Y-102673661D02*
X153419842Y-102673661D01*
X153419842Y-102673661D02*
X153515080Y-102721280D01*
X153515080Y-102721280D02*
X153562700Y-102768899D01*
X153562700Y-102768899D02*
X153610319Y-102864137D01*
X153610319Y-102864137D02*
X153610319Y-103054613D01*
X153610319Y-103054613D02*
X153562700Y-103149851D01*
X153562700Y-103149851D02*
X153515080Y-103197470D01*
X153515080Y-103197470D02*
X153419842Y-103245089D01*
X153419842Y-103245089D02*
X153229366Y-103245089D01*
X153229366Y-103245089D02*
X153134128Y-103197470D01*
X153134128Y-103197470D02*
X153086509Y-103149851D01*
X153086509Y-103149851D02*
X153038890Y-103054613D01*
X154841569Y-99893720D02*
X153841569Y-99893720D01*
X154841569Y-100465148D02*
X154270140Y-100036577D01*
X153841569Y-100465148D02*
X154412997Y-99893720D01*
X133511569Y-66416339D02*
X132511569Y-66416339D01*
X132511569Y-66416339D02*
X132511569Y-66654434D01*
X132511569Y-66654434D02*
X132559188Y-66797291D01*
X132559188Y-66797291D02*
X132654426Y-66892529D01*
X132654426Y-66892529D02*
X132749664Y-66940148D01*
X132749664Y-66940148D02*
X132940140Y-66987767D01*
X132940140Y-66987767D02*
X133082997Y-66987767D01*
X133082997Y-66987767D02*
X133273473Y-66940148D01*
X133273473Y-66940148D02*
X133368711Y-66892529D01*
X133368711Y-66892529D02*
X133463950Y-66797291D01*
X133463950Y-66797291D02*
X133511569Y-66654434D01*
X133511569Y-66654434D02*
X133511569Y-66416339D01*
X133511569Y-67940148D02*
X133511569Y-67368720D01*
X133511569Y-67654434D02*
X132511569Y-67654434D01*
X132511569Y-67654434D02*
X132654426Y-67559196D01*
X132654426Y-67559196D02*
X132749664Y-67463958D01*
X132749664Y-67463958D02*
X132797283Y-67368720D01*
X132940140Y-68511577D02*
X132892521Y-68416339D01*
X132892521Y-68416339D02*
X132844902Y-68368720D01*
X132844902Y-68368720D02*
X132749664Y-68321101D01*
X132749664Y-68321101D02*
X132702045Y-68321101D01*
X132702045Y-68321101D02*
X132606807Y-68368720D01*
X132606807Y-68368720D02*
X132559188Y-68416339D01*
X132559188Y-68416339D02*
X132511569Y-68511577D01*
X132511569Y-68511577D02*
X132511569Y-68702053D01*
X132511569Y-68702053D02*
X132559188Y-68797291D01*
X132559188Y-68797291D02*
X132606807Y-68844910D01*
X132606807Y-68844910D02*
X132702045Y-68892529D01*
X132702045Y-68892529D02*
X132749664Y-68892529D01*
X132749664Y-68892529D02*
X132844902Y-68844910D01*
X132844902Y-68844910D02*
X132892521Y-68797291D01*
X132892521Y-68797291D02*
X132940140Y-68702053D01*
X132940140Y-68702053D02*
X132940140Y-68511577D01*
X132940140Y-68511577D02*
X132987759Y-68416339D01*
X132987759Y-68416339D02*
X133035378Y-68368720D01*
X133035378Y-68368720D02*
X133130616Y-68321101D01*
X133130616Y-68321101D02*
X133321092Y-68321101D01*
X133321092Y-68321101D02*
X133416330Y-68368720D01*
X133416330Y-68368720D02*
X133463950Y-68416339D01*
X133463950Y-68416339D02*
X133511569Y-68511577D01*
X133511569Y-68511577D02*
X133511569Y-68702053D01*
X133511569Y-68702053D02*
X133463950Y-68797291D01*
X133463950Y-68797291D02*
X133416330Y-68844910D01*
X133416330Y-68844910D02*
X133321092Y-68892529D01*
X133321092Y-68892529D02*
X133130616Y-68892529D01*
X133130616Y-68892529D02*
X133035378Y-68844910D01*
X133035378Y-68844910D02*
X132987759Y-68797291D01*
X132987759Y-68797291D02*
X132940140Y-68702053D01*
X132480319Y-70333720D02*
X131480319Y-70333720D01*
X132480319Y-70905148D02*
X131908890Y-70476577D01*
X131480319Y-70905148D02*
X132051747Y-70333720D01*
X86906035Y-44440444D02*
X86906035Y-43440444D01*
X86906035Y-43440444D02*
X86667940Y-43440444D01*
X86667940Y-43440444D02*
X86525083Y-43488063D01*
X86525083Y-43488063D02*
X86429845Y-43583301D01*
X86429845Y-43583301D02*
X86382226Y-43678539D01*
X86382226Y-43678539D02*
X86334607Y-43869015D01*
X86334607Y-43869015D02*
X86334607Y-44011872D01*
X86334607Y-44011872D02*
X86382226Y-44202348D01*
X86382226Y-44202348D02*
X86429845Y-44297586D01*
X86429845Y-44297586D02*
X86525083Y-44392825D01*
X86525083Y-44392825D02*
X86667940Y-44440444D01*
X86667940Y-44440444D02*
X86906035Y-44440444D01*
X85953654Y-43535682D02*
X85906035Y-43488063D01*
X85906035Y-43488063D02*
X85810797Y-43440444D01*
X85810797Y-43440444D02*
X85572702Y-43440444D01*
X85572702Y-43440444D02*
X85477464Y-43488063D01*
X85477464Y-43488063D02*
X85429845Y-43535682D01*
X85429845Y-43535682D02*
X85382226Y-43630920D01*
X85382226Y-43630920D02*
X85382226Y-43726158D01*
X85382226Y-43726158D02*
X85429845Y-43869015D01*
X85429845Y-43869015D02*
X86001273Y-44440444D01*
X86001273Y-44440444D02*
X85382226Y-44440444D01*
X84477464Y-43440444D02*
X84953654Y-43440444D01*
X84953654Y-43440444D02*
X85001273Y-43916634D01*
X85001273Y-43916634D02*
X84953654Y-43869015D01*
X84953654Y-43869015D02*
X84858416Y-43821396D01*
X84858416Y-43821396D02*
X84620321Y-43821396D01*
X84620321Y-43821396D02*
X84525083Y-43869015D01*
X84525083Y-43869015D02*
X84477464Y-43916634D01*
X84477464Y-43916634D02*
X84429845Y-44011872D01*
X84429845Y-44011872D02*
X84429845Y-44249967D01*
X84429845Y-44249967D02*
X84477464Y-44345205D01*
X84477464Y-44345205D02*
X84525083Y-44392825D01*
X84525083Y-44392825D02*
X84620321Y-44440444D01*
X84620321Y-44440444D02*
X84858416Y-44440444D01*
X84858416Y-44440444D02*
X84953654Y-44392825D01*
X84953654Y-44392825D02*
X85001273Y-44345205D01*
X89763654Y-44760444D02*
X89763654Y-43760444D01*
X89192226Y-44760444D02*
X89620797Y-44189015D01*
X89192226Y-43760444D02*
X89763654Y-44331872D01*
X105583833Y-42479194D02*
X105583833Y-43193479D01*
X105583833Y-43193479D02*
X105631452Y-43336336D01*
X105631452Y-43336336D02*
X105726690Y-43431575D01*
X105726690Y-43431575D02*
X105869547Y-43479194D01*
X105869547Y-43479194D02*
X105964785Y-43479194D01*
X104679071Y-42812527D02*
X104679071Y-43479194D01*
X104917166Y-42431575D02*
X105155261Y-43145860D01*
X105155261Y-43145860D02*
X104536214Y-43145860D01*
X195001035Y-97550444D02*
X195001035Y-96550444D01*
X195001035Y-96550444D02*
X194762940Y-96550444D01*
X194762940Y-96550444D02*
X194620083Y-96598063D01*
X194620083Y-96598063D02*
X194524845Y-96693301D01*
X194524845Y-96693301D02*
X194477226Y-96788539D01*
X194477226Y-96788539D02*
X194429607Y-96979015D01*
X194429607Y-96979015D02*
X194429607Y-97121872D01*
X194429607Y-97121872D02*
X194477226Y-97312348D01*
X194477226Y-97312348D02*
X194524845Y-97407586D01*
X194524845Y-97407586D02*
X194620083Y-97502825D01*
X194620083Y-97502825D02*
X194762940Y-97550444D01*
X194762940Y-97550444D02*
X195001035Y-97550444D01*
X193477226Y-97550444D02*
X194048654Y-97550444D01*
X193762940Y-97550444D02*
X193762940Y-96550444D01*
X193762940Y-96550444D02*
X193858178Y-96693301D01*
X193858178Y-96693301D02*
X193953416Y-96788539D01*
X193953416Y-96788539D02*
X194048654Y-96836158D01*
X192524845Y-97550444D02*
X193096273Y-97550444D01*
X192810559Y-97550444D02*
X192810559Y-96550444D01*
X192810559Y-96550444D02*
X192905797Y-96693301D01*
X192905797Y-96693301D02*
X193001035Y-96788539D01*
X193001035Y-96788539D02*
X193096273Y-96836158D01*
X196602404Y-98525444D02*
X196602404Y-97525444D01*
X196030976Y-98525444D02*
X196459547Y-97954015D01*
X196030976Y-97525444D02*
X196602404Y-98096872D01*
X160289785Y-45410444D02*
X160289785Y-44410444D01*
X160289785Y-44410444D02*
X160051690Y-44410444D01*
X160051690Y-44410444D02*
X159908833Y-44458063D01*
X159908833Y-44458063D02*
X159813595Y-44553301D01*
X159813595Y-44553301D02*
X159765976Y-44648539D01*
X159765976Y-44648539D02*
X159718357Y-44839015D01*
X159718357Y-44839015D02*
X159718357Y-44981872D01*
X159718357Y-44981872D02*
X159765976Y-45172348D01*
X159765976Y-45172348D02*
X159813595Y-45267586D01*
X159813595Y-45267586D02*
X159908833Y-45362825D01*
X159908833Y-45362825D02*
X160051690Y-45410444D01*
X160051690Y-45410444D02*
X160289785Y-45410444D01*
X159337404Y-44505682D02*
X159289785Y-44458063D01*
X159289785Y-44458063D02*
X159194547Y-44410444D01*
X159194547Y-44410444D02*
X158956452Y-44410444D01*
X158956452Y-44410444D02*
X158861214Y-44458063D01*
X158861214Y-44458063D02*
X158813595Y-44505682D01*
X158813595Y-44505682D02*
X158765976Y-44600920D01*
X158765976Y-44600920D02*
X158765976Y-44696158D01*
X158765976Y-44696158D02*
X158813595Y-44839015D01*
X158813595Y-44839015D02*
X159385023Y-45410444D01*
X159385023Y-45410444D02*
X158765976Y-45410444D01*
X158432642Y-44410444D02*
X157813595Y-44410444D01*
X157813595Y-44410444D02*
X158146928Y-44791396D01*
X158146928Y-44791396D02*
X158004071Y-44791396D01*
X158004071Y-44791396D02*
X157908833Y-44839015D01*
X157908833Y-44839015D02*
X157861214Y-44886634D01*
X157861214Y-44886634D02*
X157813595Y-44981872D01*
X157813595Y-44981872D02*
X157813595Y-45219967D01*
X157813595Y-45219967D02*
X157861214Y-45315205D01*
X157861214Y-45315205D02*
X157908833Y-45362825D01*
X157908833Y-45362825D02*
X158004071Y-45410444D01*
X158004071Y-45410444D02*
X158289785Y-45410444D01*
X158289785Y-45410444D02*
X158385023Y-45362825D01*
X158385023Y-45362825D02*
X158432642Y-45315205D01*
X156547404Y-44360444D02*
X156547404Y-43360444D01*
X155975976Y-44360444D02*
X156404547Y-43789015D01*
X155975976Y-43360444D02*
X156547404Y-43931872D01*
X201483832Y-139017825D02*
X201340975Y-139065444D01*
X201340975Y-139065444D02*
X201102880Y-139065444D01*
X201102880Y-139065444D02*
X201007642Y-139017825D01*
X201007642Y-139017825D02*
X200960023Y-138970205D01*
X200960023Y-138970205D02*
X200912404Y-138874967D01*
X200912404Y-138874967D02*
X200912404Y-138779729D01*
X200912404Y-138779729D02*
X200960023Y-138684491D01*
X200960023Y-138684491D02*
X201007642Y-138636872D01*
X201007642Y-138636872D02*
X201102880Y-138589253D01*
X201102880Y-138589253D02*
X201293356Y-138541634D01*
X201293356Y-138541634D02*
X201388594Y-138494015D01*
X201388594Y-138494015D02*
X201436213Y-138446396D01*
X201436213Y-138446396D02*
X201483832Y-138351158D01*
X201483832Y-138351158D02*
X201483832Y-138255920D01*
X201483832Y-138255920D02*
X201436213Y-138160682D01*
X201436213Y-138160682D02*
X201388594Y-138113063D01*
X201388594Y-138113063D02*
X201293356Y-138065444D01*
X201293356Y-138065444D02*
X201055261Y-138065444D01*
X201055261Y-138065444D02*
X200912404Y-138113063D01*
X200579070Y-138065444D02*
X200340975Y-139065444D01*
X200340975Y-139065444D02*
X200150499Y-138351158D01*
X200150499Y-138351158D02*
X199960023Y-139065444D01*
X199960023Y-139065444D02*
X199721928Y-138065444D01*
X198817166Y-139065444D02*
X199388594Y-139065444D01*
X199102880Y-139065444D02*
X199102880Y-138065444D01*
X199102880Y-138065444D02*
X199198118Y-138208301D01*
X199198118Y-138208301D02*
X199293356Y-138303539D01*
X199293356Y-138303539D02*
X199388594Y-138351158D01*
X174150319Y-114582530D02*
X173150319Y-114582530D01*
X173150319Y-114582530D02*
X173150319Y-114820625D01*
X173150319Y-114820625D02*
X173197938Y-114963482D01*
X173197938Y-114963482D02*
X173293176Y-115058720D01*
X173293176Y-115058720D02*
X173388414Y-115106339D01*
X173388414Y-115106339D02*
X173578890Y-115153958D01*
X173578890Y-115153958D02*
X173721747Y-115153958D01*
X173721747Y-115153958D02*
X173912223Y-115106339D01*
X173912223Y-115106339D02*
X174007461Y-115058720D01*
X174007461Y-115058720D02*
X174102700Y-114963482D01*
X174102700Y-114963482D02*
X174150319Y-114820625D01*
X174150319Y-114820625D02*
X174150319Y-114582530D01*
X173245557Y-115534911D02*
X173197938Y-115582530D01*
X173197938Y-115582530D02*
X173150319Y-115677768D01*
X173150319Y-115677768D02*
X173150319Y-115915863D01*
X173150319Y-115915863D02*
X173197938Y-116011101D01*
X173197938Y-116011101D02*
X173245557Y-116058720D01*
X173245557Y-116058720D02*
X173340795Y-116106339D01*
X173340795Y-116106339D02*
X173436033Y-116106339D01*
X173436033Y-116106339D02*
X173578890Y-116058720D01*
X173578890Y-116058720D02*
X174150319Y-115487292D01*
X174150319Y-115487292D02*
X174150319Y-116106339D01*
X173830319Y-118868720D02*
X172830319Y-118868720D01*
X173830319Y-119440148D02*
X173258890Y-119011577D01*
X172830319Y-119440148D02*
X173401747Y-118868720D01*
X172610319Y-101621280D02*
X171610319Y-101621280D01*
X171610319Y-101621280D02*
X171610319Y-101859375D01*
X171610319Y-101859375D02*
X171657938Y-102002232D01*
X171657938Y-102002232D02*
X171753176Y-102097470D01*
X171753176Y-102097470D02*
X171848414Y-102145089D01*
X171848414Y-102145089D02*
X172038890Y-102192708D01*
X172038890Y-102192708D02*
X172181747Y-102192708D01*
X172181747Y-102192708D02*
X172372223Y-102145089D01*
X172372223Y-102145089D02*
X172467461Y-102097470D01*
X172467461Y-102097470D02*
X172562700Y-102002232D01*
X172562700Y-102002232D02*
X172610319Y-101859375D01*
X172610319Y-101859375D02*
X172610319Y-101621280D01*
X171610319Y-102526042D02*
X171610319Y-103192708D01*
X171610319Y-103192708D02*
X172610319Y-102764137D01*
X173841569Y-99893720D02*
X172841569Y-99893720D01*
X173841569Y-100465148D02*
X173270140Y-100036577D01*
X172841569Y-100465148D02*
X173412997Y-99893720D01*
X170089785Y-64810444D02*
X170089785Y-63810444D01*
X170089785Y-63810444D02*
X169851690Y-63810444D01*
X169851690Y-63810444D02*
X169708833Y-63858063D01*
X169708833Y-63858063D02*
X169613595Y-63953301D01*
X169613595Y-63953301D02*
X169565976Y-64048539D01*
X169565976Y-64048539D02*
X169518357Y-64239015D01*
X169518357Y-64239015D02*
X169518357Y-64381872D01*
X169518357Y-64381872D02*
X169565976Y-64572348D01*
X169565976Y-64572348D02*
X169613595Y-64667586D01*
X169613595Y-64667586D02*
X169708833Y-64762825D01*
X169708833Y-64762825D02*
X169851690Y-64810444D01*
X169851690Y-64810444D02*
X170089785Y-64810444D01*
X168565976Y-64810444D02*
X169137404Y-64810444D01*
X168851690Y-64810444D02*
X168851690Y-63810444D01*
X168851690Y-63810444D02*
X168946928Y-63953301D01*
X168946928Y-63953301D02*
X169042166Y-64048539D01*
X169042166Y-64048539D02*
X169137404Y-64096158D01*
X167708833Y-64143777D02*
X167708833Y-64810444D01*
X167946928Y-63762825D02*
X168185023Y-64477110D01*
X168185023Y-64477110D02*
X167565976Y-64477110D01*
X166122404Y-63810444D02*
X166122404Y-62810444D01*
X165550976Y-63810444D02*
X165979547Y-63239015D01*
X165550976Y-62810444D02*
X166122404Y-63381872D01*
X77134069Y-41680089D02*
X76134069Y-41680089D01*
X76134069Y-41680089D02*
X76134069Y-41918184D01*
X76134069Y-41918184D02*
X76181688Y-42061041D01*
X76181688Y-42061041D02*
X76276926Y-42156279D01*
X76276926Y-42156279D02*
X76372164Y-42203898D01*
X76372164Y-42203898D02*
X76562640Y-42251517D01*
X76562640Y-42251517D02*
X76705497Y-42251517D01*
X76705497Y-42251517D02*
X76895973Y-42203898D01*
X76895973Y-42203898D02*
X76991211Y-42156279D01*
X76991211Y-42156279D02*
X77086450Y-42061041D01*
X77086450Y-42061041D02*
X77134069Y-41918184D01*
X77134069Y-41918184D02*
X77134069Y-41680089D01*
X76229307Y-42632470D02*
X76181688Y-42680089D01*
X76181688Y-42680089D02*
X76134069Y-42775327D01*
X76134069Y-42775327D02*
X76134069Y-43013422D01*
X76134069Y-43013422D02*
X76181688Y-43108660D01*
X76181688Y-43108660D02*
X76229307Y-43156279D01*
X76229307Y-43156279D02*
X76324545Y-43203898D01*
X76324545Y-43203898D02*
X76419783Y-43203898D01*
X76419783Y-43203898D02*
X76562640Y-43156279D01*
X76562640Y-43156279D02*
X77134069Y-42584851D01*
X77134069Y-42584851D02*
X77134069Y-43203898D01*
X76467402Y-44061041D02*
X77134069Y-44061041D01*
X76086450Y-43822946D02*
X76800735Y-43584851D01*
X76800735Y-43584851D02*
X76800735Y-44203898D01*
X78421569Y-40128720D02*
X77421569Y-40128720D01*
X78421569Y-40700148D02*
X77850140Y-40271577D01*
X77421569Y-40700148D02*
X77992997Y-40128720D01*
X75484069Y-64811041D02*
X76198354Y-64811041D01*
X76198354Y-64811041D02*
X76341211Y-64763422D01*
X76341211Y-64763422D02*
X76436450Y-64668184D01*
X76436450Y-64668184D02*
X76484069Y-64525327D01*
X76484069Y-64525327D02*
X76484069Y-64430089D01*
X75484069Y-65763422D02*
X75484069Y-65287232D01*
X75484069Y-65287232D02*
X75960259Y-65239613D01*
X75960259Y-65239613D02*
X75912640Y-65287232D01*
X75912640Y-65287232D02*
X75865021Y-65382470D01*
X75865021Y-65382470D02*
X75865021Y-65620565D01*
X75865021Y-65620565D02*
X75912640Y-65715803D01*
X75912640Y-65715803D02*
X75960259Y-65763422D01*
X75960259Y-65763422D02*
X76055497Y-65811041D01*
X76055497Y-65811041D02*
X76293592Y-65811041D01*
X76293592Y-65811041D02*
X76388830Y-65763422D01*
X76388830Y-65763422D02*
X76436450Y-65715803D01*
X76436450Y-65715803D02*
X76484069Y-65620565D01*
X76484069Y-65620565D02*
X76484069Y-65382470D01*
X76484069Y-65382470D02*
X76436450Y-65287232D01*
X76436450Y-65287232D02*
X76388830Y-65239613D01*
X99524844Y-106900444D02*
X99524844Y-105900444D01*
X99524844Y-105900444D02*
X99286749Y-105900444D01*
X99286749Y-105900444D02*
X99143892Y-105948063D01*
X99143892Y-105948063D02*
X99048654Y-106043301D01*
X99048654Y-106043301D02*
X99001035Y-106138539D01*
X99001035Y-106138539D02*
X98953416Y-106329015D01*
X98953416Y-106329015D02*
X98953416Y-106471872D01*
X98953416Y-106471872D02*
X99001035Y-106662348D01*
X99001035Y-106662348D02*
X99048654Y-106757586D01*
X99048654Y-106757586D02*
X99143892Y-106852825D01*
X99143892Y-106852825D02*
X99286749Y-106900444D01*
X99286749Y-106900444D02*
X99524844Y-106900444D01*
X98048654Y-105900444D02*
X98524844Y-105900444D01*
X98524844Y-105900444D02*
X98572463Y-106376634D01*
X98572463Y-106376634D02*
X98524844Y-106329015D01*
X98524844Y-106329015D02*
X98429606Y-106281396D01*
X98429606Y-106281396D02*
X98191511Y-106281396D01*
X98191511Y-106281396D02*
X98096273Y-106329015D01*
X98096273Y-106329015D02*
X98048654Y-106376634D01*
X98048654Y-106376634D02*
X98001035Y-106471872D01*
X98001035Y-106471872D02*
X98001035Y-106709967D01*
X98001035Y-106709967D02*
X98048654Y-106805205D01*
X98048654Y-106805205D02*
X98096273Y-106852825D01*
X98096273Y-106852825D02*
X98191511Y-106900444D01*
X98191511Y-106900444D02*
X98429606Y-106900444D01*
X98429606Y-106900444D02*
X98524844Y-106852825D01*
X98524844Y-106852825D02*
X98572463Y-106805205D01*
X101352404Y-108050444D02*
X101352404Y-107050444D01*
X100780976Y-108050444D02*
X101209547Y-107479015D01*
X100780976Y-107050444D02*
X101352404Y-107621872D01*
X131739785Y-64960444D02*
X131739785Y-63960444D01*
X131739785Y-63960444D02*
X131501690Y-63960444D01*
X131501690Y-63960444D02*
X131358833Y-64008063D01*
X131358833Y-64008063D02*
X131263595Y-64103301D01*
X131263595Y-64103301D02*
X131215976Y-64198539D01*
X131215976Y-64198539D02*
X131168357Y-64389015D01*
X131168357Y-64389015D02*
X131168357Y-64531872D01*
X131168357Y-64531872D02*
X131215976Y-64722348D01*
X131215976Y-64722348D02*
X131263595Y-64817586D01*
X131263595Y-64817586D02*
X131358833Y-64912825D01*
X131358833Y-64912825D02*
X131501690Y-64960444D01*
X131501690Y-64960444D02*
X131739785Y-64960444D01*
X130215976Y-64960444D02*
X130787404Y-64960444D01*
X130501690Y-64960444D02*
X130501690Y-63960444D01*
X130501690Y-63960444D02*
X130596928Y-64103301D01*
X130596928Y-64103301D02*
X130692166Y-64198539D01*
X130692166Y-64198539D02*
X130787404Y-64246158D01*
X129835023Y-64055682D02*
X129787404Y-64008063D01*
X129787404Y-64008063D02*
X129692166Y-63960444D01*
X129692166Y-63960444D02*
X129454071Y-63960444D01*
X129454071Y-63960444D02*
X129358833Y-64008063D01*
X129358833Y-64008063D02*
X129311214Y-64055682D01*
X129311214Y-64055682D02*
X129263595Y-64150920D01*
X129263595Y-64150920D02*
X129263595Y-64246158D01*
X129263595Y-64246158D02*
X129311214Y-64389015D01*
X129311214Y-64389015D02*
X129882642Y-64960444D01*
X129882642Y-64960444D02*
X129263595Y-64960444D01*
X128022404Y-63810444D02*
X128022404Y-62810444D01*
X127450976Y-63810444D02*
X127879547Y-63239015D01*
X127450976Y-62810444D02*
X128022404Y-63381872D01*
D12*
%TO.C,D21*%
X190625500Y-71835625D02*
X190625500Y-72485625D01*
X191745500Y-72485625D02*
X191745500Y-76725625D01*
X189505500Y-72485625D02*
X191745500Y-72485625D01*
X189505500Y-73085625D02*
X191745500Y-73085625D01*
X189505500Y-73205625D02*
X191745500Y-73205625D01*
X189505500Y-73325625D02*
X191745500Y-73325625D01*
X191745500Y-76725625D02*
X189505500Y-76725625D01*
X189505500Y-76725625D02*
X189505500Y-72485625D01*
X190625500Y-77375625D02*
X190625500Y-76725625D01*
%TO.C,U1*%
D10*
X128882068Y-134082515D02*
X128782068Y-134082515D01*
X128782068Y-133882515D01*
X128882068Y-133882515D01*
X128882068Y-134082515D01*
G36*
X128882068Y-134082515D02*
G01*
X128782068Y-134082515D01*
X128782068Y-133882515D01*
X128882068Y-133882515D01*
X128882068Y-134082515D01*
G37*
X128682068Y-134282515D02*
X128582068Y-134282515D01*
X128582068Y-134182515D01*
X128682068Y-134182515D01*
X128682068Y-134282515D01*
G36*
X128682068Y-134282515D02*
G01*
X128582068Y-134282515D01*
X128582068Y-134182515D01*
X128682068Y-134182515D01*
X128682068Y-134282515D01*
G37*
X128882068Y-134682515D02*
X128782068Y-134682515D01*
X128782068Y-134382515D01*
X128882068Y-134382515D01*
X128882068Y-134682515D01*
G36*
X128882068Y-134682515D02*
G01*
X128782068Y-134682515D01*
X128782068Y-134382515D01*
X128882068Y-134382515D01*
X128882068Y-134682515D01*
G37*
X128882068Y-134682515D02*
X128382068Y-134682515D01*
X128382068Y-134582515D01*
X128882068Y-134582515D01*
X128882068Y-134682515D01*
G36*
X128882068Y-134682515D02*
G01*
X128382068Y-134682515D01*
X128382068Y-134582515D01*
X128882068Y-134582515D01*
X128882068Y-134682515D01*
G37*
X128482068Y-134682515D02*
X128382068Y-134682515D01*
X128382068Y-133882515D01*
X128482068Y-133882515D01*
X128482068Y-134682515D01*
G36*
X128482068Y-134682515D02*
G01*
X128382068Y-134682515D01*
X128382068Y-133882515D01*
X128482068Y-133882515D01*
X128482068Y-134682515D01*
G37*
D13*
X132840500Y-110081875D02*
X132840500Y-140561875D01*
X115060500Y-110081875D02*
X132840500Y-110081875D01*
X117600500Y-138021875D02*
X115060500Y-138021875D01*
X132840500Y-140561875D02*
X132840500Y-143101875D01*
X117600500Y-140561875D02*
X117600500Y-138021875D01*
X117600500Y-140561875D02*
X115060500Y-140561875D01*
X115060500Y-140561875D02*
X115060500Y-110081875D01*
X132840500Y-143101875D02*
X115060500Y-143101875D01*
X115060500Y-143101875D02*
X115060500Y-140561875D01*
D12*
%TO.C,D1*%
X138238000Y-131600625D02*
X138238000Y-132250625D01*
X139358000Y-132250625D02*
X139358000Y-136490625D01*
X137118000Y-132250625D02*
X139358000Y-132250625D01*
X139358000Y-135650625D02*
X137118000Y-135650625D01*
X139358000Y-135770625D02*
X137118000Y-135770625D01*
X139358000Y-135890625D02*
X137118000Y-135890625D01*
X139358000Y-136490625D02*
X137118000Y-136490625D01*
X137118000Y-136490625D02*
X137118000Y-132250625D01*
X138238000Y-137140625D02*
X138238000Y-136490625D01*
%TO.C,D3*%
X152525500Y-112550625D02*
X152525500Y-113200625D01*
X153645500Y-113200625D02*
X153645500Y-117440625D01*
X151405500Y-113200625D02*
X153645500Y-113200625D01*
X153645500Y-116600625D02*
X151405500Y-116600625D01*
X153645500Y-116720625D02*
X151405500Y-116720625D01*
X153645500Y-116840625D02*
X151405500Y-116840625D01*
X153645500Y-117440625D02*
X151405500Y-117440625D01*
X151405500Y-117440625D02*
X151405500Y-113200625D01*
X152525500Y-118090625D02*
X152525500Y-117440625D01*
%TO.C,D19*%
X152475500Y-71935625D02*
X152475500Y-72585625D01*
X153595500Y-72585625D02*
X153595500Y-76825625D01*
X151355500Y-72585625D02*
X153595500Y-72585625D01*
X151355500Y-73185625D02*
X153595500Y-73185625D01*
X151355500Y-73305625D02*
X153595500Y-73305625D01*
X151355500Y-73425625D02*
X153595500Y-73425625D01*
X153595500Y-76825625D02*
X151355500Y-76825625D01*
X151355500Y-76825625D02*
X151355500Y-72585625D01*
X152475500Y-77475625D02*
X152475500Y-76825625D01*
%TO.C,J3*%
X181705500Y-41355625D02*
X176505500Y-41355625D01*
X181705500Y-33675625D02*
X181705500Y-41355625D01*
X181705500Y-33675625D02*
X179105500Y-33675625D01*
X181705500Y-32405625D02*
X181705500Y-31075625D01*
X181705500Y-31075625D02*
X180375500Y-31075625D01*
X179105500Y-33675625D02*
X179105500Y-31075625D01*
X179105500Y-31075625D02*
X176505500Y-31075625D01*
X176505500Y-31075625D02*
X176505500Y-41355625D01*
%TO.C,D10*%
X114336750Y-93575625D02*
X114336750Y-94225625D01*
X115456750Y-94225625D02*
X115456750Y-98465625D01*
X113216750Y-94225625D02*
X115456750Y-94225625D01*
X115456750Y-97625625D02*
X113216750Y-97625625D01*
X115456750Y-97745625D02*
X113216750Y-97745625D01*
X115456750Y-97865625D02*
X113216750Y-97865625D01*
X115456750Y-98465625D02*
X113216750Y-98465625D01*
X113216750Y-98465625D02*
X113216750Y-94225625D01*
X114336750Y-99115625D02*
X114336750Y-98465625D01*
%TO.C,D13*%
X145770500Y-65155625D02*
X145120500Y-65155625D01*
X145120500Y-66275625D02*
X140880500Y-66275625D01*
X145120500Y-64035625D02*
X145120500Y-66275625D01*
X144520500Y-64035625D02*
X144520500Y-66275625D01*
X144400500Y-64035625D02*
X144400500Y-66275625D01*
X144280500Y-64035625D02*
X144280500Y-66275625D01*
X140880500Y-66275625D02*
X140880500Y-64035625D01*
X140880500Y-64035625D02*
X145120500Y-64035625D01*
X140230500Y-65155625D02*
X140880500Y-65155625D01*
%TO.C,D22*%
X107768000Y-75930625D02*
X107118000Y-75930625D01*
X107118000Y-77050625D02*
X102878000Y-77050625D01*
X107118000Y-74810625D02*
X107118000Y-77050625D01*
X106518000Y-74810625D02*
X106518000Y-77050625D01*
X106398000Y-74810625D02*
X106398000Y-77050625D01*
X106278000Y-74810625D02*
X106278000Y-77050625D01*
X102878000Y-77050625D02*
X102878000Y-74810625D01*
X102878000Y-74810625D02*
X107118000Y-74810625D01*
X102228000Y-75930625D02*
X102878000Y-75930625D01*
%TO.C,D17*%
X114075500Y-71735625D02*
X114075500Y-72385625D01*
X115195500Y-72385625D02*
X115195500Y-76625625D01*
X112955500Y-72385625D02*
X115195500Y-72385625D01*
X112955500Y-72985625D02*
X115195500Y-72985625D01*
X112955500Y-73105625D02*
X115195500Y-73105625D01*
X112955500Y-73225625D02*
X115195500Y-73225625D01*
X115195500Y-76625625D02*
X112955500Y-76625625D01*
X112955500Y-76625625D02*
X112955500Y-72385625D01*
X114075500Y-77275625D02*
X114075500Y-76625625D01*
%TO.C,SW2*%
X203360500Y-39790625D02*
X196940500Y-39790625D01*
X203360500Y-39380625D02*
X203360500Y-39790625D01*
X203360500Y-35380625D02*
X203360500Y-37780625D01*
X203360500Y-33370625D02*
X203360500Y-33780625D01*
X196940500Y-39790625D02*
X196940500Y-39510625D01*
X196940500Y-37780625D02*
X196940500Y-35380625D01*
X196940500Y-33780625D02*
X196940500Y-33370625D01*
X196940500Y-33370625D02*
X203360500Y-33370625D01*
%TO.C,D27*%
X76166750Y-99040625D02*
X76166750Y-98390625D01*
X75046750Y-98390625D02*
X75046750Y-94150625D01*
X77286750Y-98390625D02*
X75046750Y-98390625D01*
X77286750Y-97790625D02*
X75046750Y-97790625D01*
X77286750Y-97670625D02*
X75046750Y-97670625D01*
X77286750Y-97550625D02*
X75046750Y-97550625D01*
X75046750Y-94150625D02*
X77286750Y-94150625D01*
X77286750Y-94150625D02*
X77286750Y-98390625D01*
X76166750Y-93500625D02*
X76166750Y-94150625D01*
%TO.C,D15*%
X183870500Y-65155625D02*
X183220500Y-65155625D01*
X183220500Y-66275625D02*
X178980500Y-66275625D01*
X183220500Y-64035625D02*
X183220500Y-66275625D01*
X182620500Y-64035625D02*
X182620500Y-66275625D01*
X182500500Y-64035625D02*
X182500500Y-66275625D01*
X182380500Y-64035625D02*
X182380500Y-66275625D01*
X178980500Y-66275625D02*
X178980500Y-64035625D01*
X178980500Y-64035625D02*
X183220500Y-64035625D01*
X178330500Y-65155625D02*
X178980500Y-65155625D01*
D10*
%TO.C,R4*%
X109836750Y-131226875D02*
X109836750Y-130026875D01*
X109836750Y-131226875D02*
X109036750Y-131426875D01*
X110636750Y-131426875D02*
X109836750Y-131226875D01*
X109036750Y-131426875D02*
X108836750Y-131626875D01*
X110836750Y-131626875D02*
X110636750Y-131426875D01*
X108836750Y-131626875D02*
X108836750Y-132026875D01*
X110836750Y-132026875D02*
X110836750Y-131626875D01*
X108836750Y-132026875D02*
X109036750Y-132226875D01*
X110636750Y-132226875D02*
X110836750Y-132026875D01*
X109036750Y-132226875D02*
X109036750Y-136226875D01*
X110636750Y-136226875D02*
X110636750Y-132226875D01*
X109036750Y-136226875D02*
X108836750Y-136426875D01*
X110836750Y-136426875D02*
X110636750Y-136226875D01*
X108836750Y-136426875D02*
X108836750Y-136826875D01*
X110836750Y-136826875D02*
X110836750Y-136426875D01*
X108836750Y-136826875D02*
X109036750Y-137026875D01*
X110636750Y-137026875D02*
X110836750Y-136826875D01*
X109036750Y-137026875D02*
X109836750Y-137226875D01*
X109836750Y-137226875D02*
X110636750Y-137026875D01*
X109836750Y-138426875D02*
X109836750Y-137226875D01*
%TO.C,R3*%
X113125500Y-137795625D02*
X113125500Y-138995625D01*
X113125500Y-137795625D02*
X113925500Y-137595625D01*
X112325500Y-137595625D02*
X113125500Y-137795625D01*
X113925500Y-137595625D02*
X114125500Y-137395625D01*
X112125500Y-137395625D02*
X112325500Y-137595625D01*
X114125500Y-137395625D02*
X114125500Y-136995625D01*
X112125500Y-136995625D02*
X112125500Y-137395625D01*
X114125500Y-136995625D02*
X113925500Y-136795625D01*
X112325500Y-136795625D02*
X112125500Y-136995625D01*
X113925500Y-136795625D02*
X113925500Y-132795625D01*
X112325500Y-132795625D02*
X112325500Y-136795625D01*
X113925500Y-132795625D02*
X114125500Y-132595625D01*
X112125500Y-132595625D02*
X112325500Y-132795625D01*
X114125500Y-132595625D02*
X114125500Y-132195625D01*
X112125500Y-132195625D02*
X112125500Y-132595625D01*
X114125500Y-132195625D02*
X113925500Y-131995625D01*
X112325500Y-131995625D02*
X112125500Y-132195625D01*
X113925500Y-131995625D02*
X113125500Y-131795625D01*
X113125500Y-131795625D02*
X112325500Y-131995625D01*
X113125500Y-130595625D02*
X113125500Y-131795625D01*
D12*
%TO.C,D16*%
X202920500Y-65155625D02*
X202270500Y-65155625D01*
X202270500Y-66275625D02*
X198030500Y-66275625D01*
X202270500Y-64035625D02*
X202270500Y-66275625D01*
X201670500Y-64035625D02*
X201670500Y-66275625D01*
X201550500Y-64035625D02*
X201550500Y-66275625D01*
X201430500Y-64035625D02*
X201430500Y-66275625D01*
X198030500Y-66275625D02*
X198030500Y-64035625D01*
X198030500Y-64035625D02*
X202270500Y-64035625D01*
X197380500Y-65155625D02*
X198030500Y-65155625D01*
%TO.C,D6*%
X183870500Y-96270625D02*
X183220500Y-96270625D01*
X183220500Y-97390625D02*
X178980500Y-97390625D01*
X183220500Y-95150625D02*
X183220500Y-97390625D01*
X179820500Y-97390625D02*
X179820500Y-95150625D01*
X179700500Y-97390625D02*
X179700500Y-95150625D01*
X179580500Y-97390625D02*
X179580500Y-95150625D01*
X178980500Y-97390625D02*
X178980500Y-95150625D01*
X178980500Y-95150625D02*
X183220500Y-95150625D01*
X178330500Y-96270625D02*
X178980500Y-96270625D01*
%TO.C,D20*%
X171675500Y-71835625D02*
X171675500Y-72485625D01*
X172795500Y-72485625D02*
X172795500Y-76725625D01*
X170555500Y-72485625D02*
X172795500Y-72485625D01*
X170555500Y-73085625D02*
X172795500Y-73085625D01*
X170555500Y-73205625D02*
X172795500Y-73205625D01*
X170555500Y-73325625D02*
X172795500Y-73325625D01*
X172795500Y-76725625D02*
X170555500Y-76725625D01*
X170555500Y-76725625D02*
X170555500Y-72485625D01*
X171675500Y-77375625D02*
X171675500Y-76725625D01*
%TO.C,D9*%
X133486750Y-93425625D02*
X133486750Y-94075625D01*
X134606750Y-94075625D02*
X134606750Y-98315625D01*
X132366750Y-94075625D02*
X134606750Y-94075625D01*
X134606750Y-97475625D02*
X132366750Y-97475625D01*
X134606750Y-97595625D02*
X132366750Y-97595625D01*
X134606750Y-97715625D02*
X132366750Y-97715625D01*
X134606750Y-98315625D02*
X132366750Y-98315625D01*
X132366750Y-98315625D02*
X132366750Y-94075625D01*
X133486750Y-98965625D02*
X133486750Y-98315625D01*
D10*
%TO.C,R1*%
X135856750Y-40924375D02*
X135856750Y-39724375D01*
X135856750Y-39724375D02*
X136656750Y-39524375D01*
X135056750Y-39524375D02*
X135856750Y-39724375D01*
X136656750Y-39524375D02*
X136856750Y-39324375D01*
X134856750Y-39324375D02*
X135056750Y-39524375D01*
X136856750Y-39324375D02*
X136856750Y-38924375D01*
X134856750Y-38924375D02*
X134856750Y-39324375D01*
X136856750Y-38924375D02*
X136656750Y-38724375D01*
X135056750Y-38724375D02*
X134856750Y-38924375D01*
X136656750Y-38724375D02*
X136656750Y-34724375D01*
X135056750Y-34724375D02*
X135056750Y-38724375D01*
X136656750Y-34724375D02*
X136856750Y-34524375D01*
X134856750Y-34524375D02*
X135056750Y-34724375D01*
X136856750Y-34524375D02*
X136856750Y-34124375D01*
X134856750Y-34124375D02*
X134856750Y-34524375D01*
X136856750Y-34124375D02*
X136656750Y-33924375D01*
X135056750Y-33924375D02*
X134856750Y-34124375D01*
X136656750Y-33924375D02*
X135856750Y-33724375D01*
X135856750Y-33724375D02*
X135056750Y-33924375D01*
X135856750Y-33724375D02*
X135856750Y-32524375D01*
D12*
%TO.C,D28*%
X88220500Y-105795625D02*
X87570500Y-105795625D01*
X87570500Y-106915625D02*
X83330500Y-106915625D01*
X87570500Y-104675625D02*
X87570500Y-106915625D01*
X86970500Y-104675625D02*
X86970500Y-106915625D01*
X86850500Y-104675625D02*
X86850500Y-106915625D01*
X86730500Y-104675625D02*
X86730500Y-106915625D01*
X83330500Y-106915625D02*
X83330500Y-104675625D01*
X83330500Y-104675625D02*
X87570500Y-104675625D01*
X82680500Y-105795625D02*
X83330500Y-105795625D01*
%TO.C,D4*%
X126720500Y-105795625D02*
X126070500Y-105795625D01*
X126070500Y-106915625D02*
X121830500Y-106915625D01*
X126070500Y-104675625D02*
X126070500Y-106915625D01*
X122670500Y-106915625D02*
X122670500Y-104675625D01*
X122550500Y-106915625D02*
X122550500Y-104675625D01*
X122430500Y-106915625D02*
X122430500Y-104675625D01*
X121830500Y-106915625D02*
X121830500Y-104675625D01*
X121830500Y-104675625D02*
X126070500Y-104675625D01*
X121180500Y-105795625D02*
X121830500Y-105795625D01*
D10*
%TO.C,R2*%
X138381750Y-34905625D02*
X138381750Y-36105625D01*
X138381750Y-36105625D02*
X137581750Y-36305625D01*
X139181750Y-36305625D02*
X138381750Y-36105625D01*
X137581750Y-36305625D02*
X137381750Y-36505625D01*
X139381750Y-36505625D02*
X139181750Y-36305625D01*
X137381750Y-36505625D02*
X137381750Y-36905625D01*
X139381750Y-36905625D02*
X139381750Y-36505625D01*
X137381750Y-36905625D02*
X137581750Y-37105625D01*
X139181750Y-37105625D02*
X139381750Y-36905625D01*
X137581750Y-37105625D02*
X137581750Y-41105625D01*
X139181750Y-41105625D02*
X139181750Y-37105625D01*
X137581750Y-41105625D02*
X137381750Y-41305625D01*
X139381750Y-41305625D02*
X139181750Y-41105625D01*
X137381750Y-41305625D02*
X137381750Y-41705625D01*
X139381750Y-41705625D02*
X139381750Y-41305625D01*
X137381750Y-41705625D02*
X137581750Y-41905625D01*
X139181750Y-41905625D02*
X139381750Y-41705625D01*
X137581750Y-41905625D02*
X138381750Y-42105625D01*
X138381750Y-42105625D02*
X139181750Y-41905625D01*
X138381750Y-42105625D02*
X138381750Y-43305625D01*
D12*
%TO.C,D26*%
X88461750Y-65155625D02*
X87811750Y-65155625D01*
X87811750Y-66275625D02*
X83571750Y-66275625D01*
X87811750Y-64035625D02*
X87811750Y-66275625D01*
X87211750Y-64035625D02*
X87211750Y-66275625D01*
X87091750Y-64035625D02*
X87091750Y-66275625D01*
X86971750Y-64035625D02*
X86971750Y-66275625D01*
X83571750Y-66275625D02*
X83571750Y-64035625D01*
X83571750Y-64035625D02*
X87811750Y-64035625D01*
X82921750Y-65155625D02*
X83571750Y-65155625D01*
D13*
%TO.C,U3*%
X132840500Y-27849375D02*
X132840500Y-30389375D01*
X115060500Y-27849375D02*
X132840500Y-27849375D01*
X132840500Y-30389375D02*
X132840500Y-60869375D01*
X130300500Y-30389375D02*
X132840500Y-30389375D01*
X130300500Y-30389375D02*
X130300500Y-32929375D01*
X115060500Y-30389375D02*
X115060500Y-27849375D01*
X130300500Y-32929375D02*
X132840500Y-32929375D01*
X132840500Y-60869375D02*
X115060500Y-60869375D01*
X115060500Y-60869375D02*
X115060500Y-30389375D01*
D10*
X119518932Y-37068735D02*
X119418932Y-37068735D01*
X119418932Y-36268735D01*
X119518932Y-36268735D01*
X119518932Y-37068735D01*
G36*
X119518932Y-37068735D02*
G01*
X119418932Y-37068735D01*
X119418932Y-36268735D01*
X119518932Y-36268735D01*
X119518932Y-37068735D01*
G37*
X119518932Y-36368735D02*
X119018932Y-36368735D01*
X119018932Y-36268735D01*
X119518932Y-36268735D01*
X119518932Y-36368735D01*
G36*
X119518932Y-36368735D02*
G01*
X119018932Y-36368735D01*
X119018932Y-36268735D01*
X119518932Y-36268735D01*
X119518932Y-36368735D01*
G37*
X119118932Y-36568735D02*
X119018932Y-36568735D01*
X119018932Y-36268735D01*
X119118932Y-36268735D01*
X119118932Y-36568735D01*
G36*
X119118932Y-36568735D02*
G01*
X119018932Y-36568735D01*
X119018932Y-36268735D01*
X119118932Y-36268735D01*
X119118932Y-36568735D01*
G37*
X119318932Y-36768735D02*
X119218932Y-36768735D01*
X119218932Y-36668735D01*
X119318932Y-36668735D01*
X119318932Y-36768735D01*
G36*
X119318932Y-36768735D02*
G01*
X119218932Y-36768735D01*
X119218932Y-36668735D01*
X119318932Y-36668735D01*
X119318932Y-36768735D01*
G37*
X119118932Y-37068735D02*
X119018932Y-37068735D01*
X119018932Y-36868735D01*
X119118932Y-36868735D01*
X119118932Y-37068735D01*
G36*
X119118932Y-37068735D02*
G01*
X119018932Y-37068735D01*
X119018932Y-36868735D01*
X119118932Y-36868735D01*
X119118932Y-37068735D01*
G37*
D12*
%TO.C,D8*%
X152586750Y-93575625D02*
X152586750Y-94225625D01*
X153706750Y-94225625D02*
X153706750Y-98465625D01*
X151466750Y-94225625D02*
X153706750Y-94225625D01*
X153706750Y-97625625D02*
X151466750Y-97625625D01*
X153706750Y-97745625D02*
X151466750Y-97745625D01*
X153706750Y-97865625D02*
X151466750Y-97865625D01*
X153706750Y-98465625D02*
X151466750Y-98465625D01*
X151466750Y-98465625D02*
X151466750Y-94225625D01*
X152586750Y-99115625D02*
X152586750Y-98465625D01*
%TO.C,D18*%
X133825500Y-71635625D02*
X133825500Y-72285625D01*
X134945500Y-72285625D02*
X134945500Y-76525625D01*
X132705500Y-72285625D02*
X134945500Y-72285625D01*
X132705500Y-72885625D02*
X134945500Y-72885625D01*
X132705500Y-73005625D02*
X134945500Y-73005625D01*
X132705500Y-73125625D02*
X134945500Y-73125625D01*
X134945500Y-76525625D02*
X132705500Y-76525625D01*
X132705500Y-76525625D02*
X132705500Y-72285625D01*
X133825500Y-77175625D02*
X133825500Y-76525625D01*
%TO.C,D25*%
X88461750Y-46105625D02*
X87811750Y-46105625D01*
X87811750Y-47225625D02*
X83571750Y-47225625D01*
X87811750Y-44985625D02*
X87811750Y-47225625D01*
X87211750Y-44985625D02*
X87211750Y-47225625D01*
X87091750Y-44985625D02*
X87091750Y-47225625D01*
X86971750Y-44985625D02*
X86971750Y-47225625D01*
X83571750Y-47225625D02*
X83571750Y-44985625D01*
X83571750Y-44985625D02*
X87811750Y-44985625D01*
X82921750Y-46105625D02*
X83571750Y-46105625D01*
%TO.C,D11*%
X202920500Y-96270625D02*
X202270500Y-96270625D01*
X202270500Y-97390625D02*
X198030500Y-97390625D01*
X202270500Y-95150625D02*
X202270500Y-97390625D01*
X198870500Y-97390625D02*
X198870500Y-95150625D01*
X198750500Y-97390625D02*
X198750500Y-95150625D01*
X198630500Y-97390625D02*
X198630500Y-95150625D01*
X198030500Y-97390625D02*
X198030500Y-95150625D01*
X198030500Y-95150625D02*
X202270500Y-95150625D01*
X197380500Y-96270625D02*
X198030500Y-96270625D01*
%TO.C,D23*%
X155245500Y-45705625D02*
X154595500Y-45705625D01*
X154595500Y-46825625D02*
X150355500Y-46825625D01*
X154595500Y-44585625D02*
X154595500Y-46825625D01*
X153995500Y-44585625D02*
X153995500Y-46825625D01*
X153875500Y-44585625D02*
X153875500Y-46825625D01*
X153755500Y-44585625D02*
X153755500Y-46825625D01*
X150355500Y-46825625D02*
X150355500Y-44585625D01*
X150355500Y-44585625D02*
X154595500Y-44585625D01*
X149705500Y-45705625D02*
X150355500Y-45705625D01*
%TO.C,SW1*%
X196940500Y-131160625D02*
X203360500Y-131160625D01*
X196940500Y-131570625D02*
X196940500Y-131160625D01*
X196940500Y-135570625D02*
X196940500Y-133170625D01*
X196940500Y-137580625D02*
X196940500Y-137300625D01*
X203360500Y-131160625D02*
X203360500Y-131570625D01*
X203360500Y-133170625D02*
X203360500Y-135570625D01*
X203360500Y-137170625D02*
X203360500Y-137580625D01*
X203360500Y-137580625D02*
X196940500Y-137580625D01*
D10*
%TO.C,U4*%
X107950500Y-27849375D02*
X107950500Y-39949375D01*
X107700500Y-27849375D02*
X107700500Y-25849375D01*
X102100500Y-27849375D02*
X102100500Y-25849375D01*
X102100500Y-25849375D02*
X107700500Y-25849375D01*
X101850500Y-39949375D02*
X107950500Y-39949375D01*
X101850500Y-27849375D02*
X107950500Y-27849375D01*
X101850500Y-27849375D02*
X101850500Y-39949375D01*
D12*
%TO.C,D2*%
X171575500Y-112550625D02*
X171575500Y-113200625D01*
X172695500Y-113200625D02*
X172695500Y-117440625D01*
X170455500Y-113200625D02*
X172695500Y-113200625D01*
X172695500Y-116600625D02*
X170455500Y-116600625D01*
X172695500Y-116720625D02*
X170455500Y-116720625D01*
X172695500Y-116840625D02*
X170455500Y-116840625D01*
X172695500Y-117440625D02*
X170455500Y-117440625D01*
X170455500Y-117440625D02*
X170455500Y-113200625D01*
X171575500Y-118090625D02*
X171575500Y-117440625D01*
%TO.C,D7*%
X171586750Y-93575625D02*
X171586750Y-94225625D01*
X172706750Y-94225625D02*
X172706750Y-98465625D01*
X170466750Y-94225625D02*
X172706750Y-94225625D01*
X172706750Y-97625625D02*
X170466750Y-97625625D01*
X172706750Y-97745625D02*
X170466750Y-97745625D01*
X172706750Y-97865625D02*
X170466750Y-97865625D01*
X172706750Y-98465625D02*
X170466750Y-98465625D01*
X170466750Y-98465625D02*
X170466750Y-94225625D01*
X171586750Y-99115625D02*
X171586750Y-98465625D01*
%TO.C,D14*%
X164820500Y-65155625D02*
X164170500Y-65155625D01*
X164170500Y-66275625D02*
X159930500Y-66275625D01*
X164170500Y-64035625D02*
X164170500Y-66275625D01*
X163570500Y-64035625D02*
X163570500Y-66275625D01*
X163450500Y-64035625D02*
X163450500Y-66275625D01*
X163330500Y-64035625D02*
X163330500Y-66275625D01*
X159930500Y-66275625D02*
X159930500Y-64035625D01*
X159930500Y-64035625D02*
X164170500Y-64035625D01*
X159280500Y-65155625D02*
X159930500Y-65155625D01*
%TO.C,D24*%
X76166750Y-39350625D02*
X76166750Y-38700625D01*
X75046750Y-38700625D02*
X75046750Y-34460625D01*
X77286750Y-38700625D02*
X75046750Y-38700625D01*
X77286750Y-38100625D02*
X75046750Y-38100625D01*
X77286750Y-37980625D02*
X75046750Y-37980625D01*
X77286750Y-37860625D02*
X75046750Y-37860625D01*
X75046750Y-34460625D02*
X77286750Y-34460625D01*
X77286750Y-34460625D02*
X77286750Y-38700625D01*
X76166750Y-33810625D02*
X76166750Y-34460625D01*
%TO.C,D5*%
X107670500Y-105795625D02*
X107020500Y-105795625D01*
X107020500Y-106915625D02*
X102780500Y-106915625D01*
X107020500Y-104675625D02*
X107020500Y-106915625D01*
X103620500Y-106915625D02*
X103620500Y-104675625D01*
X103500500Y-106915625D02*
X103500500Y-104675625D01*
X103380500Y-106915625D02*
X103380500Y-104675625D01*
X102780500Y-106915625D02*
X102780500Y-104675625D01*
X102780500Y-104675625D02*
X107020500Y-104675625D01*
X102130500Y-105795625D02*
X102780500Y-105795625D01*
%TO.C,D12*%
X126720500Y-65155625D02*
X126070500Y-65155625D01*
X126070500Y-66275625D02*
X121830500Y-66275625D01*
X126070500Y-64035625D02*
X126070500Y-66275625D01*
X125470500Y-64035625D02*
X125470500Y-66275625D01*
X125350500Y-64035625D02*
X125350500Y-66275625D01*
X125230500Y-64035625D02*
X125230500Y-66275625D01*
X121830500Y-66275625D02*
X121830500Y-64035625D01*
X121830500Y-64035625D02*
X126070500Y-64035625D01*
X121180500Y-65155625D02*
X121830500Y-65155625D01*
D10*
%TO.C,U2*%
X107950500Y-143101875D02*
X107950500Y-131001875D01*
X107950500Y-143101875D02*
X101850500Y-143101875D01*
X107950500Y-131001875D02*
X101850500Y-131001875D01*
X107700500Y-145101875D02*
X102100500Y-145101875D01*
X107700500Y-143101875D02*
X107700500Y-145101875D01*
X102100500Y-143101875D02*
X102100500Y-145101875D01*
X101850500Y-143101875D02*
X101850500Y-131001875D01*
%TD*%
D14*
%TO.C,U1*%
X129030500Y-111351875D03*
X126490500Y-111351875D03*
X123950500Y-111351875D03*
X121410500Y-111351875D03*
X118870500Y-111351875D03*
X131570500Y-139291875D03*
X131570500Y-136751875D03*
X131570500Y-134211875D03*
X131570500Y-131671875D03*
X131570500Y-129131875D03*
X131570500Y-126591875D03*
X131570500Y-124051875D03*
X131570500Y-121511875D03*
X131570500Y-118971875D03*
X131570500Y-116431875D03*
X131570500Y-113891875D03*
X131570500Y-111351875D03*
X116559100Y-111351875D03*
X116330500Y-113891875D03*
X116330500Y-116431875D03*
X116330500Y-118971875D03*
X116330500Y-121511875D03*
X116330500Y-124051875D03*
X116330500Y-126591875D03*
X116330500Y-129131875D03*
X116330500Y-131671875D03*
X116330500Y-134211875D03*
X116330500Y-136751875D03*
D15*
X116330500Y-139291875D03*
%TD*%
D16*
%TO.C,R4*%
X109836750Y-129146875D03*
X109836750Y-139306875D03*
%TD*%
%TO.C,R3*%
X113125500Y-139875625D03*
X113125500Y-129715625D03*
%TD*%
%TO.C,R1*%
X135856750Y-41804375D03*
X135856750Y-31644375D03*
%TD*%
%TO.C,R2*%
X138381750Y-34025625D03*
X138381750Y-44185625D03*
%TD*%
D15*
%TO.C,U3*%
X131570500Y-31659375D03*
D14*
X131570500Y-34199375D03*
X131570500Y-36739375D03*
X131570500Y-39279375D03*
X131570500Y-41819375D03*
X131570500Y-44359375D03*
X131570500Y-46899375D03*
X131570500Y-49439375D03*
X131570500Y-51979375D03*
X131570500Y-54519375D03*
X131570500Y-57059375D03*
X131341900Y-59599375D03*
X116330500Y-59599375D03*
X116330500Y-57059375D03*
X116330500Y-54519375D03*
X116330500Y-51979375D03*
X116330500Y-49439375D03*
X116330500Y-46899375D03*
X116330500Y-44359375D03*
X116330500Y-41819375D03*
X116330500Y-39279375D03*
X116330500Y-36739375D03*
X116330500Y-34199375D03*
X116330500Y-31659375D03*
X129030500Y-59599375D03*
X126490500Y-59599375D03*
X123950500Y-59599375D03*
X121410500Y-59599375D03*
X118870500Y-59599375D03*
%TD*%
%LPC*%
D17*
%TO.C,*%
X75770500Y-21420625D03*
%TD*%
%TO.C,*%
X207675500Y-21420625D03*
%TD*%
%TO.C,*%
X207675500Y-149530625D03*
%TD*%
%TO.C,REF\u002A\u002A*%
X97375500Y-149530625D03*
%TD*%
D18*
%TO.C,REF\u002A\u002A*%
X99225500Y-147680625D03*
%TD*%
%TO.C,REF\u002A\u002A*%
X205825500Y-147680625D03*
%TD*%
%TO.C,REF\u002A\u002A*%
X77620500Y-23250625D03*
%TD*%
%TO.C,REF\u002A\u002A*%
X205825500Y-23270625D03*
%TD*%
D19*
%TO.C,S25*%
X83310500Y-50550625D03*
D20*
X83310500Y-55630625D03*
D19*
X83310500Y-60710625D03*
D21*
X85850500Y-51820625D03*
X88390500Y-58170625D03*
%TD*%
%TO.C,S7*%
X159510500Y-101350625D03*
X165860500Y-98810625D03*
D19*
X156970500Y-96270625D03*
D20*
X162050500Y-96270625D03*
D19*
X167130500Y-96270625D03*
%TD*%
%TO.C,S26*%
X83310500Y-69600625D03*
D20*
X83310500Y-74680625D03*
D19*
X83310500Y-79760625D03*
D21*
X85850500Y-70870625D03*
X88390500Y-77220625D03*
%TD*%
D19*
%TO.C,S17*%
X118870500Y-74680625D03*
D20*
X123950500Y-74680625D03*
D19*
X129030500Y-74680625D03*
D21*
X120140500Y-72140625D03*
X126490500Y-69600625D03*
%TD*%
D19*
%TO.C,S27*%
X83310500Y-91190625D03*
D20*
X83310500Y-96270625D03*
D19*
X83310500Y-101350625D03*
D21*
X85850500Y-92460625D03*
X88390500Y-98810625D03*
%TD*%
D19*
%TO.C,S16*%
X195070500Y-55630625D03*
D20*
X200150500Y-55630625D03*
D19*
X205230500Y-55630625D03*
D21*
X196340500Y-53090625D03*
X202690500Y-50550625D03*
%TD*%
%TO.C,S5*%
X102360500Y-120400625D03*
X108710500Y-117860625D03*
D19*
X99820500Y-115320625D03*
D20*
X104900500Y-115320625D03*
D19*
X109980500Y-115320625D03*
%TD*%
%TO.C,S24*%
X83310500Y-31500625D03*
D20*
X83310500Y-36580625D03*
D19*
X83310500Y-41660625D03*
D21*
X85850500Y-32770625D03*
X88390500Y-39120625D03*
%TD*%
%TO.C,S1*%
X149985500Y-139450625D03*
X156335500Y-136910625D03*
D19*
X147445500Y-134370625D03*
D20*
X152525500Y-134370625D03*
D19*
X157605500Y-134370625D03*
%TD*%
%TO.C,S23*%
X147445500Y-36580625D03*
D20*
X152525500Y-36580625D03*
D19*
X157605500Y-36580625D03*
D21*
X148715500Y-34040625D03*
X155065500Y-31500625D03*
%TD*%
D19*
%TO.C,S22*%
X99820500Y-65155625D03*
D20*
X104900500Y-65155625D03*
D19*
X109980500Y-65155625D03*
D21*
X101090500Y-62615625D03*
X107440500Y-60075625D03*
%TD*%
%TO.C,S6*%
X178560500Y-110875625D03*
X184910500Y-108335625D03*
D19*
X176020500Y-105795625D03*
D20*
X181100500Y-105795625D03*
D19*
X186180500Y-105795625D03*
%TD*%
%TO.C,S12*%
X118870500Y-55630625D03*
D20*
X123950500Y-55630625D03*
D19*
X129030500Y-55630625D03*
D21*
X120140500Y-53090625D03*
X126490500Y-50550625D03*
%TD*%
D19*
%TO.C,S28*%
X83310500Y-110240625D03*
D20*
X83310500Y-115320625D03*
D19*
X83310500Y-120400625D03*
D21*
X85850500Y-111510625D03*
X88390500Y-117860625D03*
%TD*%
%TO.C,S11*%
X197610500Y-110875625D03*
X203960500Y-108335625D03*
D19*
X195070500Y-105795625D03*
D20*
X200150500Y-105795625D03*
D19*
X205230500Y-105795625D03*
%TD*%
D21*
%TO.C,S8*%
X140460500Y-101350625D03*
X146810500Y-98810625D03*
D19*
X137920500Y-96270625D03*
D20*
X143000500Y-96270625D03*
D19*
X148080500Y-96270625D03*
%TD*%
%TO.C,S15*%
X176020500Y-55630625D03*
D20*
X181100500Y-55630625D03*
D19*
X186180500Y-55630625D03*
D21*
X177290500Y-53090625D03*
X183640500Y-50550625D03*
%TD*%
%TO.C,S2*%
X159510500Y-120400625D03*
X165860500Y-117860625D03*
D19*
X156970500Y-115320625D03*
D20*
X162050500Y-115320625D03*
D19*
X167130500Y-115320625D03*
%TD*%
%TO.C,S18*%
X137920500Y-74680625D03*
D20*
X143000500Y-74680625D03*
D19*
X148080500Y-74680625D03*
D21*
X139190500Y-72140625D03*
X145540500Y-69600625D03*
%TD*%
D19*
%TO.C,S14*%
X156970500Y-55630625D03*
D20*
X162050500Y-55630625D03*
D19*
X167130500Y-55630625D03*
D21*
X158240500Y-53090625D03*
X164590500Y-50550625D03*
%TD*%
%TO.C,S9*%
X121410500Y-101350625D03*
X127760500Y-98810625D03*
D19*
X118870500Y-96270625D03*
D20*
X123950500Y-96270625D03*
D19*
X129030500Y-96270625D03*
%TD*%
%TO.C,S21*%
X195070500Y-74680625D03*
D20*
X200150500Y-74680625D03*
D19*
X205230500Y-74680625D03*
D21*
X196340500Y-72140625D03*
X202690500Y-69600625D03*
%TD*%
D19*
%TO.C,S19*%
X156970500Y-74680625D03*
D20*
X162050500Y-74680625D03*
D19*
X167130500Y-74680625D03*
D21*
X158240500Y-72140625D03*
X164590500Y-69600625D03*
%TD*%
D19*
%TO.C,S13*%
X137920500Y-55630625D03*
D20*
X143000500Y-55630625D03*
D19*
X148080500Y-55630625D03*
D21*
X139190500Y-53090625D03*
X145540500Y-50550625D03*
%TD*%
D22*
%TO.C,J2*%
X111800500Y-125676875D03*
X107200500Y-125676875D03*
X102600500Y-125676875D03*
D23*
X98000500Y-125676875D03*
%TD*%
D21*
%TO.C,S3*%
X140460500Y-120400625D03*
X146810500Y-117860625D03*
D19*
X137920500Y-115320625D03*
D20*
X143000500Y-115320625D03*
D19*
X148080500Y-115320625D03*
%TD*%
D21*
%TO.C,S10*%
X102360500Y-101350625D03*
X108710500Y-98810625D03*
D19*
X99820500Y-96270625D03*
D20*
X104900500Y-96270625D03*
D19*
X109980500Y-96270625D03*
%TD*%
D21*
%TO.C,S4*%
X121410500Y-120400625D03*
X127760500Y-117860625D03*
D19*
X118870500Y-115320625D03*
D20*
X123950500Y-115320625D03*
D19*
X129030500Y-115320625D03*
%TD*%
%TO.C,S20*%
X176020500Y-74680625D03*
D20*
X181100500Y-74680625D03*
D19*
X186180500Y-74680625D03*
D21*
X177290500Y-72140625D03*
X183640500Y-69600625D03*
%TD*%
D24*
%TO.C,D21*%
X190625500Y-70795625D03*
D25*
X190625500Y-78415625D03*
%TD*%
D26*
%TO.C,J6*%
X76166750Y-108420625D03*
D22*
X76166750Y-113020625D03*
X76166750Y-117620625D03*
X76166750Y-122220625D03*
%TD*%
D14*
%TO.C,U1*%
X129030500Y-111351875D03*
X126490500Y-111351875D03*
X123950500Y-111351875D03*
X121410500Y-111351875D03*
X118870500Y-111351875D03*
X131570500Y-139291875D03*
X131570500Y-136751875D03*
X131570500Y-134211875D03*
X131570500Y-131671875D03*
X131570500Y-129131875D03*
X131570500Y-126591875D03*
X131570500Y-124051875D03*
X131570500Y-121511875D03*
X131570500Y-118971875D03*
X131570500Y-116431875D03*
X131570500Y-113891875D03*
X131570500Y-111351875D03*
X116559100Y-111351875D03*
X116330500Y-113891875D03*
X116330500Y-116431875D03*
X116330500Y-118971875D03*
X116330500Y-121511875D03*
X116330500Y-124051875D03*
X116330500Y-126591875D03*
X116330500Y-129131875D03*
X116330500Y-131671875D03*
X116330500Y-134211875D03*
X116330500Y-136751875D03*
D15*
X116330500Y-139291875D03*
%TD*%
D25*
%TO.C,D1*%
X138238000Y-130560625D03*
D24*
X138238000Y-138180625D03*
%TD*%
D25*
%TO.C,D3*%
X152525500Y-111510625D03*
D24*
X152525500Y-119130625D03*
%TD*%
%TO.C,D19*%
X152475500Y-70895625D03*
D25*
X152475500Y-78515625D03*
%TD*%
D27*
%TO.C,J3*%
X180375500Y-32405625D03*
D28*
X177835500Y-32405625D03*
X180375500Y-34945625D03*
X177835500Y-34945625D03*
X180375500Y-37485625D03*
X177835500Y-37485625D03*
X180375500Y-40025625D03*
X177835500Y-40025625D03*
%TD*%
D25*
%TO.C,D10*%
X114336750Y-92535625D03*
D24*
X114336750Y-100155625D03*
%TD*%
%TO.C,D13*%
X146810500Y-65155625D03*
D25*
X139190500Y-65155625D03*
%TD*%
D24*
%TO.C,D22*%
X108808000Y-75930625D03*
D25*
X101188000Y-75930625D03*
%TD*%
D24*
%TO.C,D17*%
X114075500Y-70695625D03*
D25*
X114075500Y-78315625D03*
%TD*%
D29*
%TO.C,SW2*%
X203050500Y-34580625D03*
X197250500Y-34580625D03*
X203050500Y-38580625D03*
X197250500Y-38580625D03*
%TD*%
D24*
%TO.C,D27*%
X76166750Y-100080625D03*
D25*
X76166750Y-92460625D03*
%TD*%
D24*
%TO.C,D15*%
X184910500Y-65155625D03*
D25*
X177290500Y-65155625D03*
%TD*%
D16*
%TO.C,R4*%
X109836750Y-129146875D03*
X109836750Y-139306875D03*
%TD*%
%TO.C,R3*%
X113125500Y-139875625D03*
X113125500Y-129715625D03*
%TD*%
D24*
%TO.C,D16*%
X203960500Y-65155625D03*
D25*
X196340500Y-65155625D03*
%TD*%
%TO.C,D6*%
X184910500Y-96270625D03*
D24*
X177290500Y-96270625D03*
%TD*%
%TO.C,D20*%
X171675500Y-70795625D03*
D25*
X171675500Y-78415625D03*
%TD*%
%TO.C,D9*%
X133486750Y-92385625D03*
D24*
X133486750Y-100005625D03*
%TD*%
D16*
%TO.C,R1*%
X135856750Y-41804375D03*
X135856750Y-31644375D03*
%TD*%
D24*
%TO.C,D28*%
X89260500Y-105795625D03*
D25*
X81640500Y-105795625D03*
%TD*%
%TO.C,D4*%
X127760500Y-105795625D03*
D24*
X120140500Y-105795625D03*
%TD*%
D16*
%TO.C,R2*%
X138381750Y-34025625D03*
X138381750Y-44185625D03*
%TD*%
D24*
%TO.C,D26*%
X89501750Y-65155625D03*
D25*
X81881750Y-65155625D03*
%TD*%
D15*
%TO.C,U3*%
X131570500Y-31659375D03*
D14*
X131570500Y-34199375D03*
X131570500Y-36739375D03*
X131570500Y-39279375D03*
X131570500Y-41819375D03*
X131570500Y-44359375D03*
X131570500Y-46899375D03*
X131570500Y-49439375D03*
X131570500Y-51979375D03*
X131570500Y-54519375D03*
X131570500Y-57059375D03*
X131341900Y-59599375D03*
X116330500Y-59599375D03*
X116330500Y-57059375D03*
X116330500Y-54519375D03*
X116330500Y-51979375D03*
X116330500Y-49439375D03*
X116330500Y-46899375D03*
X116330500Y-44359375D03*
X116330500Y-41819375D03*
X116330500Y-39279375D03*
X116330500Y-36739375D03*
X116330500Y-34199375D03*
X116330500Y-31659375D03*
X129030500Y-59599375D03*
X126490500Y-59599375D03*
X123950500Y-59599375D03*
X121410500Y-59599375D03*
X118870500Y-59599375D03*
%TD*%
D25*
%TO.C,D8*%
X152586750Y-92535625D03*
D24*
X152586750Y-100155625D03*
%TD*%
%TO.C,D18*%
X133825500Y-70595625D03*
D25*
X133825500Y-78215625D03*
%TD*%
D24*
%TO.C,D25*%
X89501750Y-46105625D03*
D25*
X81881750Y-46105625D03*
%TD*%
D30*
%TO.C,J4*%
X112150500Y-45274375D03*
D22*
X107550500Y-45274375D03*
X102950500Y-45274375D03*
X98350500Y-45274375D03*
%TD*%
D25*
%TO.C,D11*%
X203960500Y-96270625D03*
D24*
X196340500Y-96270625D03*
%TD*%
%TO.C,D23*%
X156285500Y-45705625D03*
D25*
X148665500Y-45705625D03*
%TD*%
D29*
%TO.C,SW1*%
X197250500Y-136370625D03*
X203050500Y-136370625D03*
X197250500Y-132370625D03*
X203050500Y-132370625D03*
%TD*%
D31*
%TO.C,U4*%
X104900500Y-36449375D03*
X104900500Y-29449375D03*
D32*
X107200500Y-39149375D03*
X102600500Y-38049375D03*
X102600500Y-34049375D03*
X102600500Y-31049375D03*
%TD*%
D25*
%TO.C,D2*%
X171575500Y-111510625D03*
D24*
X171575500Y-119130625D03*
%TD*%
D25*
%TO.C,D7*%
X171586750Y-92535625D03*
D24*
X171586750Y-100155625D03*
%TD*%
%TO.C,D14*%
X165860500Y-65155625D03*
D25*
X158240500Y-65155625D03*
%TD*%
D24*
%TO.C,D24*%
X76166750Y-40390625D03*
D25*
X76166750Y-32770625D03*
%TD*%
D26*
%TO.C,J5*%
X76166750Y-67780625D03*
D22*
X76166750Y-72380625D03*
X76166750Y-76980625D03*
X76166750Y-81580625D03*
%TD*%
D25*
%TO.C,D5*%
X108710500Y-105795625D03*
D24*
X101090500Y-105795625D03*
%TD*%
%TO.C,D12*%
X127760500Y-65155625D03*
D25*
X120140500Y-65155625D03*
%TD*%
D32*
%TO.C,U2*%
X107200500Y-139901875D03*
X107200500Y-136901875D03*
X107200500Y-132901875D03*
X102600500Y-131801875D03*
D31*
X104900500Y-141501875D03*
X104900500Y-134501875D03*
%TD*%
%LPD*%
M02*
