M48
; DRILL file {KiCad 7.0.10} date Sun Feb  4 11:59:52 2024
; FORMAT={-:-/ absolute / metric / decimal}
; #@! TF.CreationDate,2024-02-04T11:59:52-08:00
; #@! TF.GenerationSoftware,Kicad,Pcbnew,7.0.10
; #@! TF.FileFunction,NonPlated,1,2,NPTH
FMAT,2
METRIC
; #@! TA.AperFunction,NonPlated,NPTH,ComponentDrill
T1C0.800
; #@! TA.AperFunction,NonPlated,NPTH,ComponentDrill
T2C1.750
; #@! TA.AperFunction,NonPlated,NPTH,ComponentDrill
T3C2.000
; #@! TA.AperFunction,NonPlated,NPTH,ComponentDrill
T4C4.000
%
G90
G05
T1
X104.9Y-29.449
X104.9Y-36.449
X104.9Y-134.502
X104.9Y-141.502
T2
X83.31Y-31.501
X83.31Y-41.661
X83.31Y-50.551
X83.31Y-60.711
X83.31Y-69.601
X83.31Y-79.761
X83.31Y-91.191
X83.31Y-101.351
X83.31Y-110.241
X83.31Y-120.401
X99.82Y-65.156
X99.82Y-96.271
X99.82Y-115.321
X109.98Y-65.156
X109.98Y-96.271
X109.98Y-115.321
X118.87Y-55.631
X118.87Y-74.681
X118.87Y-96.271
X118.87Y-115.321
X129.03Y-55.631
X129.03Y-74.681
X129.03Y-96.271
X129.03Y-115.321
X137.921Y-55.631
X137.921Y-74.681
X137.921Y-96.271
X137.921Y-115.321
X147.445Y-36.581
X147.445Y-134.371
X148.081Y-55.631
X148.081Y-74.681
X148.081Y-96.271
X148.081Y-115.321
X156.97Y-55.631
X156.97Y-74.681
X156.97Y-96.271
X156.97Y-115.321
X157.606Y-36.581
X157.606Y-134.371
X167.13Y-55.631
X167.13Y-74.681
X167.13Y-96.271
X167.13Y-115.321
X176.02Y-55.631
X176.02Y-74.681
X176.02Y-105.796
X186.18Y-55.631
X186.18Y-74.681
X186.18Y-105.796
X195.07Y-55.631
X195.07Y-74.681
X195.07Y-105.796
X205.23Y-55.631
X205.23Y-74.681
X205.23Y-105.796
T3
X75.77Y-21.421
X97.376Y-149.531
X207.675Y-21.421
X207.675Y-149.531
T4
X83.31Y-36.581
X83.31Y-55.631
X83.31Y-74.681
X83.31Y-96.271
X83.31Y-115.321
X104.9Y-65.156
X104.9Y-96.271
X104.9Y-115.321
X123.95Y-55.631
X123.95Y-74.681
X123.95Y-96.271
X123.95Y-115.321
X143.0Y-55.631
X143.0Y-74.681
X143.0Y-96.271
X143.0Y-115.321
X152.525Y-36.581
X152.525Y-134.371
X162.05Y-55.631
X162.05Y-74.681
X162.05Y-96.271
X162.05Y-115.321
X181.1Y-55.631
X181.1Y-74.681
X181.1Y-105.796
X200.15Y-55.631
X200.15Y-74.681
X200.15Y-105.796
M30
