%TF.GenerationSoftware,KiCad,Pcbnew,7.0.10*%
%TF.CreationDate,2024-02-04T11:58:59-08:00*%
%TF.ProjectId,oddball_steno,6f646462-616c-46c5-9f73-74656e6f2e6b,rev?*%
%TF.SameCoordinates,Original*%
%TF.FileFunction,Legend,Top*%
%TF.FilePolarity,Positive*%
%FSLAX46Y46*%
G04 Gerber Fmt 4.6, Leading zero omitted, Abs format (unit mm)*
G04 Created by KiCad (PCBNEW 7.0.10) date 2024-02-04 11:58:59*
%MOMM*%
%LPD*%
G01*
G04 APERTURE LIST*
G04 Aperture macros list*
%AMRoundRect*
0 Rectangle with rounded corners*
0 $1 Rounding radius*
0 $2 $3 $4 $5 $6 $7 $8 $9 X,Y pos of 4 corners*
0 Add a 4 corners polygon primitive as box body*
4,1,4,$2,$3,$4,$5,$6,$7,$8,$9,$2,$3,0*
0 Add four circle primitives for the rounded corners*
1,1,$1+$1,$2,$3*
1,1,$1+$1,$4,$5*
1,1,$1+$1,$6,$7*
1,1,$1+$1,$8,$9*
0 Add four rect primitives between the rounded corners*
20,1,$1+$1,$2,$3,$4,$5,0*
20,1,$1+$1,$4,$5,$6,$7,0*
20,1,$1+$1,$6,$7,$8,$9,0*
20,1,$1+$1,$8,$9,$2,$3,0*%
G04 Aperture macros list end*
%ADD10C,0.150000*%
%ADD11C,0.120000*%
%ADD12C,0.381000*%
%ADD13C,1.752600*%
%ADD14R,1.752600X1.752600*%
%ADD15C,1.651000*%
%ADD16C,1.000000*%
%ADD17C,2.000000*%
%ADD18C,1.750000*%
%ADD19C,4.000000*%
%ADD20C,2.500000*%
%ADD21C,2.100000*%
%ADD22RoundRect,0.250001X-0.799999X-0.799999X0.799999X-0.799999X0.799999X0.799999X-0.799999X0.799999X0*%
%ADD23R,1.600000X1.600000*%
%ADD24O,1.600000X1.600000*%
%ADD25RoundRect,0.250001X-0.799999X0.799999X-0.799999X-0.799999X0.799999X-0.799999X0.799999X0.799999X0*%
%ADD26R,1.700000X1.700000*%
%ADD27O,1.700000X1.700000*%
%ADD28RoundRect,0.250001X0.799999X0.799999X-0.799999X0.799999X-0.799999X-0.799999X0.799999X-0.799999X0*%
%ADD29C,0.800000*%
%ADD30O,1.600000X2.000000*%
G04 APERTURE END LIST*
D10*
X97892166Y-146135444D02*
X97558833Y-145659253D01*
X97320738Y-146135444D02*
X97320738Y-145135444D01*
X97320738Y-145135444D02*
X97701690Y-145135444D01*
X97701690Y-145135444D02*
X97796928Y-145183063D01*
X97796928Y-145183063D02*
X97844547Y-145230682D01*
X97844547Y-145230682D02*
X97892166Y-145325920D01*
X97892166Y-145325920D02*
X97892166Y-145468777D01*
X97892166Y-145468777D02*
X97844547Y-145564015D01*
X97844547Y-145564015D02*
X97796928Y-145611634D01*
X97796928Y-145611634D02*
X97701690Y-145659253D01*
X97701690Y-145659253D02*
X97320738Y-145659253D01*
X98320738Y-145611634D02*
X98654071Y-145611634D01*
X98796928Y-146135444D02*
X98320738Y-146135444D01*
X98320738Y-146135444D02*
X98320738Y-145135444D01*
X98320738Y-145135444D02*
X98796928Y-145135444D01*
X99558833Y-145611634D02*
X99225500Y-145611634D01*
X99225500Y-146135444D02*
X99225500Y-145135444D01*
X99225500Y-145135444D02*
X99701690Y-145135444D01*
X100225500Y-145135444D02*
X100225500Y-145373539D01*
X99987405Y-145278301D02*
X100225500Y-145373539D01*
X100225500Y-145373539D02*
X100463595Y-145278301D01*
X100082643Y-145564015D02*
X100225500Y-145373539D01*
X100225500Y-145373539D02*
X100368357Y-145564015D01*
X100987405Y-145135444D02*
X100987405Y-145373539D01*
X100749310Y-145278301D02*
X100987405Y-145373539D01*
X100987405Y-145373539D02*
X101225500Y-145278301D01*
X100844548Y-145564015D02*
X100987405Y-145373539D01*
X100987405Y-145373539D02*
X101130262Y-145564015D01*
X78437166Y-21725444D02*
X78103833Y-21249253D01*
X77865738Y-21725444D02*
X77865738Y-20725444D01*
X77865738Y-20725444D02*
X78246690Y-20725444D01*
X78246690Y-20725444D02*
X78341928Y-20773063D01*
X78341928Y-20773063D02*
X78389547Y-20820682D01*
X78389547Y-20820682D02*
X78437166Y-20915920D01*
X78437166Y-20915920D02*
X78437166Y-21058777D01*
X78437166Y-21058777D02*
X78389547Y-21154015D01*
X78389547Y-21154015D02*
X78341928Y-21201634D01*
X78341928Y-21201634D02*
X78246690Y-21249253D01*
X78246690Y-21249253D02*
X77865738Y-21249253D01*
X78865738Y-21201634D02*
X79199071Y-21201634D01*
X79341928Y-21725444D02*
X78865738Y-21725444D01*
X78865738Y-21725444D02*
X78865738Y-20725444D01*
X78865738Y-20725444D02*
X79341928Y-20725444D01*
X80103833Y-21201634D02*
X79770500Y-21201634D01*
X79770500Y-21725444D02*
X79770500Y-20725444D01*
X79770500Y-20725444D02*
X80246690Y-20725444D01*
X80770500Y-20725444D02*
X80770500Y-20963539D01*
X80532405Y-20868301D02*
X80770500Y-20963539D01*
X80770500Y-20963539D02*
X81008595Y-20868301D01*
X80627643Y-21154015D02*
X80770500Y-20963539D01*
X80770500Y-20963539D02*
X80913357Y-21154015D01*
X81532405Y-20725444D02*
X81532405Y-20963539D01*
X81294310Y-20868301D02*
X81532405Y-20963539D01*
X81532405Y-20963539D02*
X81770500Y-20868301D01*
X81389548Y-21154015D02*
X81532405Y-20963539D01*
X81532405Y-20963539D02*
X81675262Y-21154015D01*
X204492166Y-146135444D02*
X204158833Y-145659253D01*
X203920738Y-146135444D02*
X203920738Y-145135444D01*
X203920738Y-145135444D02*
X204301690Y-145135444D01*
X204301690Y-145135444D02*
X204396928Y-145183063D01*
X204396928Y-145183063D02*
X204444547Y-145230682D01*
X204444547Y-145230682D02*
X204492166Y-145325920D01*
X204492166Y-145325920D02*
X204492166Y-145468777D01*
X204492166Y-145468777D02*
X204444547Y-145564015D01*
X204444547Y-145564015D02*
X204396928Y-145611634D01*
X204396928Y-145611634D02*
X204301690Y-145659253D01*
X204301690Y-145659253D02*
X203920738Y-145659253D01*
X204920738Y-145611634D02*
X205254071Y-145611634D01*
X205396928Y-146135444D02*
X204920738Y-146135444D01*
X204920738Y-146135444D02*
X204920738Y-145135444D01*
X204920738Y-145135444D02*
X205396928Y-145135444D01*
X206158833Y-145611634D02*
X205825500Y-145611634D01*
X205825500Y-146135444D02*
X205825500Y-145135444D01*
X205825500Y-145135444D02*
X206301690Y-145135444D01*
X206825500Y-145135444D02*
X206825500Y-145373539D01*
X206587405Y-145278301D02*
X206825500Y-145373539D01*
X206825500Y-145373539D02*
X207063595Y-145278301D01*
X206682643Y-145564015D02*
X206825500Y-145373539D01*
X206825500Y-145373539D02*
X206968357Y-145564015D01*
X207587405Y-145135444D02*
X207587405Y-145373539D01*
X207349310Y-145278301D02*
X207587405Y-145373539D01*
X207587405Y-145373539D02*
X207825500Y-145278301D01*
X207444548Y-145564015D02*
X207587405Y-145373539D01*
X207587405Y-145373539D02*
X207730262Y-145564015D01*
X202437166Y-21725444D02*
X202103833Y-21249253D01*
X201865738Y-21725444D02*
X201865738Y-20725444D01*
X201865738Y-20725444D02*
X202246690Y-20725444D01*
X202246690Y-20725444D02*
X202341928Y-20773063D01*
X202341928Y-20773063D02*
X202389547Y-20820682D01*
X202389547Y-20820682D02*
X202437166Y-20915920D01*
X202437166Y-20915920D02*
X202437166Y-21058777D01*
X202437166Y-21058777D02*
X202389547Y-21154015D01*
X202389547Y-21154015D02*
X202341928Y-21201634D01*
X202341928Y-21201634D02*
X202246690Y-21249253D01*
X202246690Y-21249253D02*
X201865738Y-21249253D01*
X202865738Y-21201634D02*
X203199071Y-21201634D01*
X203341928Y-21725444D02*
X202865738Y-21725444D01*
X202865738Y-21725444D02*
X202865738Y-20725444D01*
X202865738Y-20725444D02*
X203341928Y-20725444D01*
X204103833Y-21201634D02*
X203770500Y-21201634D01*
X203770500Y-21725444D02*
X203770500Y-20725444D01*
X203770500Y-20725444D02*
X204246690Y-20725444D01*
X204770500Y-20725444D02*
X204770500Y-20963539D01*
X204532405Y-20868301D02*
X204770500Y-20963539D01*
X204770500Y-20963539D02*
X205008595Y-20868301D01*
X204627643Y-21154015D02*
X204770500Y-20963539D01*
X204770500Y-20963539D02*
X204913357Y-21154015D01*
X205532405Y-20725444D02*
X205532405Y-20963539D01*
X205294310Y-20868301D02*
X205532405Y-20963539D01*
X205532405Y-20963539D02*
X205770500Y-20868301D01*
X205389548Y-21154015D02*
X205532405Y-20963539D01*
X205532405Y-20963539D02*
X205675262Y-21154015D01*
X91717700Y-56868719D02*
X91765319Y-56725862D01*
X91765319Y-56725862D02*
X91765319Y-56487767D01*
X91765319Y-56487767D02*
X91717700Y-56392529D01*
X91717700Y-56392529D02*
X91670080Y-56344910D01*
X91670080Y-56344910D02*
X91574842Y-56297291D01*
X91574842Y-56297291D02*
X91479604Y-56297291D01*
X91479604Y-56297291D02*
X91384366Y-56344910D01*
X91384366Y-56344910D02*
X91336747Y-56392529D01*
X91336747Y-56392529D02*
X91289128Y-56487767D01*
X91289128Y-56487767D02*
X91241509Y-56678243D01*
X91241509Y-56678243D02*
X91193890Y-56773481D01*
X91193890Y-56773481D02*
X91146271Y-56821100D01*
X91146271Y-56821100D02*
X91051033Y-56868719D01*
X91051033Y-56868719D02*
X90955795Y-56868719D01*
X90955795Y-56868719D02*
X90860557Y-56821100D01*
X90860557Y-56821100D02*
X90812938Y-56773481D01*
X90812938Y-56773481D02*
X90765319Y-56678243D01*
X90765319Y-56678243D02*
X90765319Y-56440148D01*
X90765319Y-56440148D02*
X90812938Y-56297291D01*
X90860557Y-55916338D02*
X90812938Y-55868719D01*
X90812938Y-55868719D02*
X90765319Y-55773481D01*
X90765319Y-55773481D02*
X90765319Y-55535386D01*
X90765319Y-55535386D02*
X90812938Y-55440148D01*
X90812938Y-55440148D02*
X90860557Y-55392529D01*
X90860557Y-55392529D02*
X90955795Y-55344910D01*
X90955795Y-55344910D02*
X91051033Y-55344910D01*
X91051033Y-55344910D02*
X91193890Y-55392529D01*
X91193890Y-55392529D02*
X91765319Y-55963957D01*
X91765319Y-55963957D02*
X91765319Y-55344910D01*
X90765319Y-54440148D02*
X90765319Y-54916338D01*
X90765319Y-54916338D02*
X91241509Y-54963957D01*
X91241509Y-54963957D02*
X91193890Y-54916338D01*
X91193890Y-54916338D02*
X91146271Y-54821100D01*
X91146271Y-54821100D02*
X91146271Y-54583005D01*
X91146271Y-54583005D02*
X91193890Y-54487767D01*
X91193890Y-54487767D02*
X91241509Y-54440148D01*
X91241509Y-54440148D02*
X91336747Y-54392529D01*
X91336747Y-54392529D02*
X91574842Y-54392529D01*
X91574842Y-54392529D02*
X91670080Y-54440148D01*
X91670080Y-54440148D02*
X91717700Y-54487767D01*
X91717700Y-54487767D02*
X91765319Y-54583005D01*
X91765319Y-54583005D02*
X91765319Y-54821100D01*
X91765319Y-54821100D02*
X91717700Y-54916338D01*
X91717700Y-54916338D02*
X91670080Y-54963957D01*
X161288595Y-104677825D02*
X161431452Y-104725444D01*
X161431452Y-104725444D02*
X161669547Y-104725444D01*
X161669547Y-104725444D02*
X161764785Y-104677825D01*
X161764785Y-104677825D02*
X161812404Y-104630205D01*
X161812404Y-104630205D02*
X161860023Y-104534967D01*
X161860023Y-104534967D02*
X161860023Y-104439729D01*
X161860023Y-104439729D02*
X161812404Y-104344491D01*
X161812404Y-104344491D02*
X161764785Y-104296872D01*
X161764785Y-104296872D02*
X161669547Y-104249253D01*
X161669547Y-104249253D02*
X161479071Y-104201634D01*
X161479071Y-104201634D02*
X161383833Y-104154015D01*
X161383833Y-104154015D02*
X161336214Y-104106396D01*
X161336214Y-104106396D02*
X161288595Y-104011158D01*
X161288595Y-104011158D02*
X161288595Y-103915920D01*
X161288595Y-103915920D02*
X161336214Y-103820682D01*
X161336214Y-103820682D02*
X161383833Y-103773063D01*
X161383833Y-103773063D02*
X161479071Y-103725444D01*
X161479071Y-103725444D02*
X161717166Y-103725444D01*
X161717166Y-103725444D02*
X161860023Y-103773063D01*
X162193357Y-103725444D02*
X162860023Y-103725444D01*
X162860023Y-103725444D02*
X162431452Y-104725444D01*
X91717700Y-75918719D02*
X91765319Y-75775862D01*
X91765319Y-75775862D02*
X91765319Y-75537767D01*
X91765319Y-75537767D02*
X91717700Y-75442529D01*
X91717700Y-75442529D02*
X91670080Y-75394910D01*
X91670080Y-75394910D02*
X91574842Y-75347291D01*
X91574842Y-75347291D02*
X91479604Y-75347291D01*
X91479604Y-75347291D02*
X91384366Y-75394910D01*
X91384366Y-75394910D02*
X91336747Y-75442529D01*
X91336747Y-75442529D02*
X91289128Y-75537767D01*
X91289128Y-75537767D02*
X91241509Y-75728243D01*
X91241509Y-75728243D02*
X91193890Y-75823481D01*
X91193890Y-75823481D02*
X91146271Y-75871100D01*
X91146271Y-75871100D02*
X91051033Y-75918719D01*
X91051033Y-75918719D02*
X90955795Y-75918719D01*
X90955795Y-75918719D02*
X90860557Y-75871100D01*
X90860557Y-75871100D02*
X90812938Y-75823481D01*
X90812938Y-75823481D02*
X90765319Y-75728243D01*
X90765319Y-75728243D02*
X90765319Y-75490148D01*
X90765319Y-75490148D02*
X90812938Y-75347291D01*
X90860557Y-74966338D02*
X90812938Y-74918719D01*
X90812938Y-74918719D02*
X90765319Y-74823481D01*
X90765319Y-74823481D02*
X90765319Y-74585386D01*
X90765319Y-74585386D02*
X90812938Y-74490148D01*
X90812938Y-74490148D02*
X90860557Y-74442529D01*
X90860557Y-74442529D02*
X90955795Y-74394910D01*
X90955795Y-74394910D02*
X91051033Y-74394910D01*
X91051033Y-74394910D02*
X91193890Y-74442529D01*
X91193890Y-74442529D02*
X91765319Y-75013957D01*
X91765319Y-75013957D02*
X91765319Y-74394910D01*
X90765319Y-73537767D02*
X90765319Y-73728243D01*
X90765319Y-73728243D02*
X90812938Y-73823481D01*
X90812938Y-73823481D02*
X90860557Y-73871100D01*
X90860557Y-73871100D02*
X91003414Y-73966338D01*
X91003414Y-73966338D02*
X91193890Y-74013957D01*
X91193890Y-74013957D02*
X91574842Y-74013957D01*
X91574842Y-74013957D02*
X91670080Y-73966338D01*
X91670080Y-73966338D02*
X91717700Y-73918719D01*
X91717700Y-73918719D02*
X91765319Y-73823481D01*
X91765319Y-73823481D02*
X91765319Y-73633005D01*
X91765319Y-73633005D02*
X91717700Y-73537767D01*
X91717700Y-73537767D02*
X91670080Y-73490148D01*
X91670080Y-73490148D02*
X91574842Y-73442529D01*
X91574842Y-73442529D02*
X91336747Y-73442529D01*
X91336747Y-73442529D02*
X91241509Y-73490148D01*
X91241509Y-73490148D02*
X91193890Y-73537767D01*
X91193890Y-73537767D02*
X91146271Y-73633005D01*
X91146271Y-73633005D02*
X91146271Y-73823481D01*
X91146271Y-73823481D02*
X91193890Y-73918719D01*
X91193890Y-73918719D02*
X91241509Y-73966338D01*
X91241509Y-73966338D02*
X91336747Y-74013957D01*
X122712405Y-67087825D02*
X122855262Y-67135444D01*
X122855262Y-67135444D02*
X123093357Y-67135444D01*
X123093357Y-67135444D02*
X123188595Y-67087825D01*
X123188595Y-67087825D02*
X123236214Y-67040205D01*
X123236214Y-67040205D02*
X123283833Y-66944967D01*
X123283833Y-66944967D02*
X123283833Y-66849729D01*
X123283833Y-66849729D02*
X123236214Y-66754491D01*
X123236214Y-66754491D02*
X123188595Y-66706872D01*
X123188595Y-66706872D02*
X123093357Y-66659253D01*
X123093357Y-66659253D02*
X122902881Y-66611634D01*
X122902881Y-66611634D02*
X122807643Y-66564015D01*
X122807643Y-66564015D02*
X122760024Y-66516396D01*
X122760024Y-66516396D02*
X122712405Y-66421158D01*
X122712405Y-66421158D02*
X122712405Y-66325920D01*
X122712405Y-66325920D02*
X122760024Y-66230682D01*
X122760024Y-66230682D02*
X122807643Y-66183063D01*
X122807643Y-66183063D02*
X122902881Y-66135444D01*
X122902881Y-66135444D02*
X123140976Y-66135444D01*
X123140976Y-66135444D02*
X123283833Y-66183063D01*
X124236214Y-67135444D02*
X123664786Y-67135444D01*
X123950500Y-67135444D02*
X123950500Y-66135444D01*
X123950500Y-66135444D02*
X123855262Y-66278301D01*
X123855262Y-66278301D02*
X123760024Y-66373539D01*
X123760024Y-66373539D02*
X123664786Y-66421158D01*
X124569548Y-66135444D02*
X125236214Y-66135444D01*
X125236214Y-66135444D02*
X124807643Y-67135444D01*
X91717700Y-97508719D02*
X91765319Y-97365862D01*
X91765319Y-97365862D02*
X91765319Y-97127767D01*
X91765319Y-97127767D02*
X91717700Y-97032529D01*
X91717700Y-97032529D02*
X91670080Y-96984910D01*
X91670080Y-96984910D02*
X91574842Y-96937291D01*
X91574842Y-96937291D02*
X91479604Y-96937291D01*
X91479604Y-96937291D02*
X91384366Y-96984910D01*
X91384366Y-96984910D02*
X91336747Y-97032529D01*
X91336747Y-97032529D02*
X91289128Y-97127767D01*
X91289128Y-97127767D02*
X91241509Y-97318243D01*
X91241509Y-97318243D02*
X91193890Y-97413481D01*
X91193890Y-97413481D02*
X91146271Y-97461100D01*
X91146271Y-97461100D02*
X91051033Y-97508719D01*
X91051033Y-97508719D02*
X90955795Y-97508719D01*
X90955795Y-97508719D02*
X90860557Y-97461100D01*
X90860557Y-97461100D02*
X90812938Y-97413481D01*
X90812938Y-97413481D02*
X90765319Y-97318243D01*
X90765319Y-97318243D02*
X90765319Y-97080148D01*
X90765319Y-97080148D02*
X90812938Y-96937291D01*
X90860557Y-96556338D02*
X90812938Y-96508719D01*
X90812938Y-96508719D02*
X90765319Y-96413481D01*
X90765319Y-96413481D02*
X90765319Y-96175386D01*
X90765319Y-96175386D02*
X90812938Y-96080148D01*
X90812938Y-96080148D02*
X90860557Y-96032529D01*
X90860557Y-96032529D02*
X90955795Y-95984910D01*
X90955795Y-95984910D02*
X91051033Y-95984910D01*
X91051033Y-95984910D02*
X91193890Y-96032529D01*
X91193890Y-96032529D02*
X91765319Y-96603957D01*
X91765319Y-96603957D02*
X91765319Y-95984910D01*
X90765319Y-95651576D02*
X90765319Y-94984910D01*
X90765319Y-94984910D02*
X91765319Y-95413481D01*
X198912405Y-48037825D02*
X199055262Y-48085444D01*
X199055262Y-48085444D02*
X199293357Y-48085444D01*
X199293357Y-48085444D02*
X199388595Y-48037825D01*
X199388595Y-48037825D02*
X199436214Y-47990205D01*
X199436214Y-47990205D02*
X199483833Y-47894967D01*
X199483833Y-47894967D02*
X199483833Y-47799729D01*
X199483833Y-47799729D02*
X199436214Y-47704491D01*
X199436214Y-47704491D02*
X199388595Y-47656872D01*
X199388595Y-47656872D02*
X199293357Y-47609253D01*
X199293357Y-47609253D02*
X199102881Y-47561634D01*
X199102881Y-47561634D02*
X199007643Y-47514015D01*
X199007643Y-47514015D02*
X198960024Y-47466396D01*
X198960024Y-47466396D02*
X198912405Y-47371158D01*
X198912405Y-47371158D02*
X198912405Y-47275920D01*
X198912405Y-47275920D02*
X198960024Y-47180682D01*
X198960024Y-47180682D02*
X199007643Y-47133063D01*
X199007643Y-47133063D02*
X199102881Y-47085444D01*
X199102881Y-47085444D02*
X199340976Y-47085444D01*
X199340976Y-47085444D02*
X199483833Y-47133063D01*
X200436214Y-48085444D02*
X199864786Y-48085444D01*
X200150500Y-48085444D02*
X200150500Y-47085444D01*
X200150500Y-47085444D02*
X200055262Y-47228301D01*
X200055262Y-47228301D02*
X199960024Y-47323539D01*
X199960024Y-47323539D02*
X199864786Y-47371158D01*
X201293357Y-47085444D02*
X201102881Y-47085444D01*
X201102881Y-47085444D02*
X201007643Y-47133063D01*
X201007643Y-47133063D02*
X200960024Y-47180682D01*
X200960024Y-47180682D02*
X200864786Y-47323539D01*
X200864786Y-47323539D02*
X200817167Y-47514015D01*
X200817167Y-47514015D02*
X200817167Y-47894967D01*
X200817167Y-47894967D02*
X200864786Y-47990205D01*
X200864786Y-47990205D02*
X200912405Y-48037825D01*
X200912405Y-48037825D02*
X201007643Y-48085444D01*
X201007643Y-48085444D02*
X201198119Y-48085444D01*
X201198119Y-48085444D02*
X201293357Y-48037825D01*
X201293357Y-48037825D02*
X201340976Y-47990205D01*
X201340976Y-47990205D02*
X201388595Y-47894967D01*
X201388595Y-47894967D02*
X201388595Y-47656872D01*
X201388595Y-47656872D02*
X201340976Y-47561634D01*
X201340976Y-47561634D02*
X201293357Y-47514015D01*
X201293357Y-47514015D02*
X201198119Y-47466396D01*
X201198119Y-47466396D02*
X201007643Y-47466396D01*
X201007643Y-47466396D02*
X200912405Y-47514015D01*
X200912405Y-47514015D02*
X200864786Y-47561634D01*
X200864786Y-47561634D02*
X200817167Y-47656872D01*
X104138595Y-123727825D02*
X104281452Y-123775444D01*
X104281452Y-123775444D02*
X104519547Y-123775444D01*
X104519547Y-123775444D02*
X104614785Y-123727825D01*
X104614785Y-123727825D02*
X104662404Y-123680205D01*
X104662404Y-123680205D02*
X104710023Y-123584967D01*
X104710023Y-123584967D02*
X104710023Y-123489729D01*
X104710023Y-123489729D02*
X104662404Y-123394491D01*
X104662404Y-123394491D02*
X104614785Y-123346872D01*
X104614785Y-123346872D02*
X104519547Y-123299253D01*
X104519547Y-123299253D02*
X104329071Y-123251634D01*
X104329071Y-123251634D02*
X104233833Y-123204015D01*
X104233833Y-123204015D02*
X104186214Y-123156396D01*
X104186214Y-123156396D02*
X104138595Y-123061158D01*
X104138595Y-123061158D02*
X104138595Y-122965920D01*
X104138595Y-122965920D02*
X104186214Y-122870682D01*
X104186214Y-122870682D02*
X104233833Y-122823063D01*
X104233833Y-122823063D02*
X104329071Y-122775444D01*
X104329071Y-122775444D02*
X104567166Y-122775444D01*
X104567166Y-122775444D02*
X104710023Y-122823063D01*
X105614785Y-122775444D02*
X105138595Y-122775444D01*
X105138595Y-122775444D02*
X105090976Y-123251634D01*
X105090976Y-123251634D02*
X105138595Y-123204015D01*
X105138595Y-123204015D02*
X105233833Y-123156396D01*
X105233833Y-123156396D02*
X105471928Y-123156396D01*
X105471928Y-123156396D02*
X105567166Y-123204015D01*
X105567166Y-123204015D02*
X105614785Y-123251634D01*
X105614785Y-123251634D02*
X105662404Y-123346872D01*
X105662404Y-123346872D02*
X105662404Y-123584967D01*
X105662404Y-123584967D02*
X105614785Y-123680205D01*
X105614785Y-123680205D02*
X105567166Y-123727825D01*
X105567166Y-123727825D02*
X105471928Y-123775444D01*
X105471928Y-123775444D02*
X105233833Y-123775444D01*
X105233833Y-123775444D02*
X105138595Y-123727825D01*
X105138595Y-123727825D02*
X105090976Y-123680205D01*
X91717700Y-37818719D02*
X91765319Y-37675862D01*
X91765319Y-37675862D02*
X91765319Y-37437767D01*
X91765319Y-37437767D02*
X91717700Y-37342529D01*
X91717700Y-37342529D02*
X91670080Y-37294910D01*
X91670080Y-37294910D02*
X91574842Y-37247291D01*
X91574842Y-37247291D02*
X91479604Y-37247291D01*
X91479604Y-37247291D02*
X91384366Y-37294910D01*
X91384366Y-37294910D02*
X91336747Y-37342529D01*
X91336747Y-37342529D02*
X91289128Y-37437767D01*
X91289128Y-37437767D02*
X91241509Y-37628243D01*
X91241509Y-37628243D02*
X91193890Y-37723481D01*
X91193890Y-37723481D02*
X91146271Y-37771100D01*
X91146271Y-37771100D02*
X91051033Y-37818719D01*
X91051033Y-37818719D02*
X90955795Y-37818719D01*
X90955795Y-37818719D02*
X90860557Y-37771100D01*
X90860557Y-37771100D02*
X90812938Y-37723481D01*
X90812938Y-37723481D02*
X90765319Y-37628243D01*
X90765319Y-37628243D02*
X90765319Y-37390148D01*
X90765319Y-37390148D02*
X90812938Y-37247291D01*
X90860557Y-36866338D02*
X90812938Y-36818719D01*
X90812938Y-36818719D02*
X90765319Y-36723481D01*
X90765319Y-36723481D02*
X90765319Y-36485386D01*
X90765319Y-36485386D02*
X90812938Y-36390148D01*
X90812938Y-36390148D02*
X90860557Y-36342529D01*
X90860557Y-36342529D02*
X90955795Y-36294910D01*
X90955795Y-36294910D02*
X91051033Y-36294910D01*
X91051033Y-36294910D02*
X91193890Y-36342529D01*
X91193890Y-36342529D02*
X91765319Y-36913957D01*
X91765319Y-36913957D02*
X91765319Y-36294910D01*
X91098652Y-35437767D02*
X91765319Y-35437767D01*
X90717700Y-35675862D02*
X91431985Y-35913957D01*
X91431985Y-35913957D02*
X91431985Y-35294910D01*
X151763595Y-142777825D02*
X151906452Y-142825444D01*
X151906452Y-142825444D02*
X152144547Y-142825444D01*
X152144547Y-142825444D02*
X152239785Y-142777825D01*
X152239785Y-142777825D02*
X152287404Y-142730205D01*
X152287404Y-142730205D02*
X152335023Y-142634967D01*
X152335023Y-142634967D02*
X152335023Y-142539729D01*
X152335023Y-142539729D02*
X152287404Y-142444491D01*
X152287404Y-142444491D02*
X152239785Y-142396872D01*
X152239785Y-142396872D02*
X152144547Y-142349253D01*
X152144547Y-142349253D02*
X151954071Y-142301634D01*
X151954071Y-142301634D02*
X151858833Y-142254015D01*
X151858833Y-142254015D02*
X151811214Y-142206396D01*
X151811214Y-142206396D02*
X151763595Y-142111158D01*
X151763595Y-142111158D02*
X151763595Y-142015920D01*
X151763595Y-142015920D02*
X151811214Y-141920682D01*
X151811214Y-141920682D02*
X151858833Y-141873063D01*
X151858833Y-141873063D02*
X151954071Y-141825444D01*
X151954071Y-141825444D02*
X152192166Y-141825444D01*
X152192166Y-141825444D02*
X152335023Y-141873063D01*
X153287404Y-142825444D02*
X152715976Y-142825444D01*
X153001690Y-142825444D02*
X153001690Y-141825444D01*
X153001690Y-141825444D02*
X152906452Y-141968301D01*
X152906452Y-141968301D02*
X152811214Y-142063539D01*
X152811214Y-142063539D02*
X152715976Y-142111158D01*
X151287405Y-28987825D02*
X151430262Y-29035444D01*
X151430262Y-29035444D02*
X151668357Y-29035444D01*
X151668357Y-29035444D02*
X151763595Y-28987825D01*
X151763595Y-28987825D02*
X151811214Y-28940205D01*
X151811214Y-28940205D02*
X151858833Y-28844967D01*
X151858833Y-28844967D02*
X151858833Y-28749729D01*
X151858833Y-28749729D02*
X151811214Y-28654491D01*
X151811214Y-28654491D02*
X151763595Y-28606872D01*
X151763595Y-28606872D02*
X151668357Y-28559253D01*
X151668357Y-28559253D02*
X151477881Y-28511634D01*
X151477881Y-28511634D02*
X151382643Y-28464015D01*
X151382643Y-28464015D02*
X151335024Y-28416396D01*
X151335024Y-28416396D02*
X151287405Y-28321158D01*
X151287405Y-28321158D02*
X151287405Y-28225920D01*
X151287405Y-28225920D02*
X151335024Y-28130682D01*
X151335024Y-28130682D02*
X151382643Y-28083063D01*
X151382643Y-28083063D02*
X151477881Y-28035444D01*
X151477881Y-28035444D02*
X151715976Y-28035444D01*
X151715976Y-28035444D02*
X151858833Y-28083063D01*
X152239786Y-28130682D02*
X152287405Y-28083063D01*
X152287405Y-28083063D02*
X152382643Y-28035444D01*
X152382643Y-28035444D02*
X152620738Y-28035444D01*
X152620738Y-28035444D02*
X152715976Y-28083063D01*
X152715976Y-28083063D02*
X152763595Y-28130682D01*
X152763595Y-28130682D02*
X152811214Y-28225920D01*
X152811214Y-28225920D02*
X152811214Y-28321158D01*
X152811214Y-28321158D02*
X152763595Y-28464015D01*
X152763595Y-28464015D02*
X152192167Y-29035444D01*
X152192167Y-29035444D02*
X152811214Y-29035444D01*
X153144548Y-28035444D02*
X153763595Y-28035444D01*
X153763595Y-28035444D02*
X153430262Y-28416396D01*
X153430262Y-28416396D02*
X153573119Y-28416396D01*
X153573119Y-28416396D02*
X153668357Y-28464015D01*
X153668357Y-28464015D02*
X153715976Y-28511634D01*
X153715976Y-28511634D02*
X153763595Y-28606872D01*
X153763595Y-28606872D02*
X153763595Y-28844967D01*
X153763595Y-28844967D02*
X153715976Y-28940205D01*
X153715976Y-28940205D02*
X153668357Y-28987825D01*
X153668357Y-28987825D02*
X153573119Y-29035444D01*
X153573119Y-29035444D02*
X153287405Y-29035444D01*
X153287405Y-29035444D02*
X153192167Y-28987825D01*
X153192167Y-28987825D02*
X153144548Y-28940205D01*
X103662405Y-57562825D02*
X103805262Y-57610444D01*
X103805262Y-57610444D02*
X104043357Y-57610444D01*
X104043357Y-57610444D02*
X104138595Y-57562825D01*
X104138595Y-57562825D02*
X104186214Y-57515205D01*
X104186214Y-57515205D02*
X104233833Y-57419967D01*
X104233833Y-57419967D02*
X104233833Y-57324729D01*
X104233833Y-57324729D02*
X104186214Y-57229491D01*
X104186214Y-57229491D02*
X104138595Y-57181872D01*
X104138595Y-57181872D02*
X104043357Y-57134253D01*
X104043357Y-57134253D02*
X103852881Y-57086634D01*
X103852881Y-57086634D02*
X103757643Y-57039015D01*
X103757643Y-57039015D02*
X103710024Y-56991396D01*
X103710024Y-56991396D02*
X103662405Y-56896158D01*
X103662405Y-56896158D02*
X103662405Y-56800920D01*
X103662405Y-56800920D02*
X103710024Y-56705682D01*
X103710024Y-56705682D02*
X103757643Y-56658063D01*
X103757643Y-56658063D02*
X103852881Y-56610444D01*
X103852881Y-56610444D02*
X104090976Y-56610444D01*
X104090976Y-56610444D02*
X104233833Y-56658063D01*
X104614786Y-56705682D02*
X104662405Y-56658063D01*
X104662405Y-56658063D02*
X104757643Y-56610444D01*
X104757643Y-56610444D02*
X104995738Y-56610444D01*
X104995738Y-56610444D02*
X105090976Y-56658063D01*
X105090976Y-56658063D02*
X105138595Y-56705682D01*
X105138595Y-56705682D02*
X105186214Y-56800920D01*
X105186214Y-56800920D02*
X105186214Y-56896158D01*
X105186214Y-56896158D02*
X105138595Y-57039015D01*
X105138595Y-57039015D02*
X104567167Y-57610444D01*
X104567167Y-57610444D02*
X105186214Y-57610444D01*
X105567167Y-56705682D02*
X105614786Y-56658063D01*
X105614786Y-56658063D02*
X105710024Y-56610444D01*
X105710024Y-56610444D02*
X105948119Y-56610444D01*
X105948119Y-56610444D02*
X106043357Y-56658063D01*
X106043357Y-56658063D02*
X106090976Y-56705682D01*
X106090976Y-56705682D02*
X106138595Y-56800920D01*
X106138595Y-56800920D02*
X106138595Y-56896158D01*
X106138595Y-56896158D02*
X106090976Y-57039015D01*
X106090976Y-57039015D02*
X105519548Y-57610444D01*
X105519548Y-57610444D02*
X106138595Y-57610444D01*
X180338595Y-114202825D02*
X180481452Y-114250444D01*
X180481452Y-114250444D02*
X180719547Y-114250444D01*
X180719547Y-114250444D02*
X180814785Y-114202825D01*
X180814785Y-114202825D02*
X180862404Y-114155205D01*
X180862404Y-114155205D02*
X180910023Y-114059967D01*
X180910023Y-114059967D02*
X180910023Y-113964729D01*
X180910023Y-113964729D02*
X180862404Y-113869491D01*
X180862404Y-113869491D02*
X180814785Y-113821872D01*
X180814785Y-113821872D02*
X180719547Y-113774253D01*
X180719547Y-113774253D02*
X180529071Y-113726634D01*
X180529071Y-113726634D02*
X180433833Y-113679015D01*
X180433833Y-113679015D02*
X180386214Y-113631396D01*
X180386214Y-113631396D02*
X180338595Y-113536158D01*
X180338595Y-113536158D02*
X180338595Y-113440920D01*
X180338595Y-113440920D02*
X180386214Y-113345682D01*
X180386214Y-113345682D02*
X180433833Y-113298063D01*
X180433833Y-113298063D02*
X180529071Y-113250444D01*
X180529071Y-113250444D02*
X180767166Y-113250444D01*
X180767166Y-113250444D02*
X180910023Y-113298063D01*
X181767166Y-113250444D02*
X181576690Y-113250444D01*
X181576690Y-113250444D02*
X181481452Y-113298063D01*
X181481452Y-113298063D02*
X181433833Y-113345682D01*
X181433833Y-113345682D02*
X181338595Y-113488539D01*
X181338595Y-113488539D02*
X181290976Y-113679015D01*
X181290976Y-113679015D02*
X181290976Y-114059967D01*
X181290976Y-114059967D02*
X181338595Y-114155205D01*
X181338595Y-114155205D02*
X181386214Y-114202825D01*
X181386214Y-114202825D02*
X181481452Y-114250444D01*
X181481452Y-114250444D02*
X181671928Y-114250444D01*
X181671928Y-114250444D02*
X181767166Y-114202825D01*
X181767166Y-114202825D02*
X181814785Y-114155205D01*
X181814785Y-114155205D02*
X181862404Y-114059967D01*
X181862404Y-114059967D02*
X181862404Y-113821872D01*
X181862404Y-113821872D02*
X181814785Y-113726634D01*
X181814785Y-113726634D02*
X181767166Y-113679015D01*
X181767166Y-113679015D02*
X181671928Y-113631396D01*
X181671928Y-113631396D02*
X181481452Y-113631396D01*
X181481452Y-113631396D02*
X181386214Y-113679015D01*
X181386214Y-113679015D02*
X181338595Y-113726634D01*
X181338595Y-113726634D02*
X181290976Y-113821872D01*
X122712405Y-48037825D02*
X122855262Y-48085444D01*
X122855262Y-48085444D02*
X123093357Y-48085444D01*
X123093357Y-48085444D02*
X123188595Y-48037825D01*
X123188595Y-48037825D02*
X123236214Y-47990205D01*
X123236214Y-47990205D02*
X123283833Y-47894967D01*
X123283833Y-47894967D02*
X123283833Y-47799729D01*
X123283833Y-47799729D02*
X123236214Y-47704491D01*
X123236214Y-47704491D02*
X123188595Y-47656872D01*
X123188595Y-47656872D02*
X123093357Y-47609253D01*
X123093357Y-47609253D02*
X122902881Y-47561634D01*
X122902881Y-47561634D02*
X122807643Y-47514015D01*
X122807643Y-47514015D02*
X122760024Y-47466396D01*
X122760024Y-47466396D02*
X122712405Y-47371158D01*
X122712405Y-47371158D02*
X122712405Y-47275920D01*
X122712405Y-47275920D02*
X122760024Y-47180682D01*
X122760024Y-47180682D02*
X122807643Y-47133063D01*
X122807643Y-47133063D02*
X122902881Y-47085444D01*
X122902881Y-47085444D02*
X123140976Y-47085444D01*
X123140976Y-47085444D02*
X123283833Y-47133063D01*
X124236214Y-48085444D02*
X123664786Y-48085444D01*
X123950500Y-48085444D02*
X123950500Y-47085444D01*
X123950500Y-47085444D02*
X123855262Y-47228301D01*
X123855262Y-47228301D02*
X123760024Y-47323539D01*
X123760024Y-47323539D02*
X123664786Y-47371158D01*
X124617167Y-47180682D02*
X124664786Y-47133063D01*
X124664786Y-47133063D02*
X124760024Y-47085444D01*
X124760024Y-47085444D02*
X124998119Y-47085444D01*
X124998119Y-47085444D02*
X125093357Y-47133063D01*
X125093357Y-47133063D02*
X125140976Y-47180682D01*
X125140976Y-47180682D02*
X125188595Y-47275920D01*
X125188595Y-47275920D02*
X125188595Y-47371158D01*
X125188595Y-47371158D02*
X125140976Y-47514015D01*
X125140976Y-47514015D02*
X124569548Y-48085444D01*
X124569548Y-48085444D02*
X125188595Y-48085444D01*
X91717700Y-116558719D02*
X91765319Y-116415862D01*
X91765319Y-116415862D02*
X91765319Y-116177767D01*
X91765319Y-116177767D02*
X91717700Y-116082529D01*
X91717700Y-116082529D02*
X91670080Y-116034910D01*
X91670080Y-116034910D02*
X91574842Y-115987291D01*
X91574842Y-115987291D02*
X91479604Y-115987291D01*
X91479604Y-115987291D02*
X91384366Y-116034910D01*
X91384366Y-116034910D02*
X91336747Y-116082529D01*
X91336747Y-116082529D02*
X91289128Y-116177767D01*
X91289128Y-116177767D02*
X91241509Y-116368243D01*
X91241509Y-116368243D02*
X91193890Y-116463481D01*
X91193890Y-116463481D02*
X91146271Y-116511100D01*
X91146271Y-116511100D02*
X91051033Y-116558719D01*
X91051033Y-116558719D02*
X90955795Y-116558719D01*
X90955795Y-116558719D02*
X90860557Y-116511100D01*
X90860557Y-116511100D02*
X90812938Y-116463481D01*
X90812938Y-116463481D02*
X90765319Y-116368243D01*
X90765319Y-116368243D02*
X90765319Y-116130148D01*
X90765319Y-116130148D02*
X90812938Y-115987291D01*
X90860557Y-115606338D02*
X90812938Y-115558719D01*
X90812938Y-115558719D02*
X90765319Y-115463481D01*
X90765319Y-115463481D02*
X90765319Y-115225386D01*
X90765319Y-115225386D02*
X90812938Y-115130148D01*
X90812938Y-115130148D02*
X90860557Y-115082529D01*
X90860557Y-115082529D02*
X90955795Y-115034910D01*
X90955795Y-115034910D02*
X91051033Y-115034910D01*
X91051033Y-115034910D02*
X91193890Y-115082529D01*
X91193890Y-115082529D02*
X91765319Y-115653957D01*
X91765319Y-115653957D02*
X91765319Y-115034910D01*
X91193890Y-114463481D02*
X91146271Y-114558719D01*
X91146271Y-114558719D02*
X91098652Y-114606338D01*
X91098652Y-114606338D02*
X91003414Y-114653957D01*
X91003414Y-114653957D02*
X90955795Y-114653957D01*
X90955795Y-114653957D02*
X90860557Y-114606338D01*
X90860557Y-114606338D02*
X90812938Y-114558719D01*
X90812938Y-114558719D02*
X90765319Y-114463481D01*
X90765319Y-114463481D02*
X90765319Y-114273005D01*
X90765319Y-114273005D02*
X90812938Y-114177767D01*
X90812938Y-114177767D02*
X90860557Y-114130148D01*
X90860557Y-114130148D02*
X90955795Y-114082529D01*
X90955795Y-114082529D02*
X91003414Y-114082529D01*
X91003414Y-114082529D02*
X91098652Y-114130148D01*
X91098652Y-114130148D02*
X91146271Y-114177767D01*
X91146271Y-114177767D02*
X91193890Y-114273005D01*
X91193890Y-114273005D02*
X91193890Y-114463481D01*
X91193890Y-114463481D02*
X91241509Y-114558719D01*
X91241509Y-114558719D02*
X91289128Y-114606338D01*
X91289128Y-114606338D02*
X91384366Y-114653957D01*
X91384366Y-114653957D02*
X91574842Y-114653957D01*
X91574842Y-114653957D02*
X91670080Y-114606338D01*
X91670080Y-114606338D02*
X91717700Y-114558719D01*
X91717700Y-114558719D02*
X91765319Y-114463481D01*
X91765319Y-114463481D02*
X91765319Y-114273005D01*
X91765319Y-114273005D02*
X91717700Y-114177767D01*
X91717700Y-114177767D02*
X91670080Y-114130148D01*
X91670080Y-114130148D02*
X91574842Y-114082529D01*
X91574842Y-114082529D02*
X91384366Y-114082529D01*
X91384366Y-114082529D02*
X91289128Y-114130148D01*
X91289128Y-114130148D02*
X91241509Y-114177767D01*
X91241509Y-114177767D02*
X91193890Y-114273005D01*
X198912405Y-114202825D02*
X199055262Y-114250444D01*
X199055262Y-114250444D02*
X199293357Y-114250444D01*
X199293357Y-114250444D02*
X199388595Y-114202825D01*
X199388595Y-114202825D02*
X199436214Y-114155205D01*
X199436214Y-114155205D02*
X199483833Y-114059967D01*
X199483833Y-114059967D02*
X199483833Y-113964729D01*
X199483833Y-113964729D02*
X199436214Y-113869491D01*
X199436214Y-113869491D02*
X199388595Y-113821872D01*
X199388595Y-113821872D02*
X199293357Y-113774253D01*
X199293357Y-113774253D02*
X199102881Y-113726634D01*
X199102881Y-113726634D02*
X199007643Y-113679015D01*
X199007643Y-113679015D02*
X198960024Y-113631396D01*
X198960024Y-113631396D02*
X198912405Y-113536158D01*
X198912405Y-113536158D02*
X198912405Y-113440920D01*
X198912405Y-113440920D02*
X198960024Y-113345682D01*
X198960024Y-113345682D02*
X199007643Y-113298063D01*
X199007643Y-113298063D02*
X199102881Y-113250444D01*
X199102881Y-113250444D02*
X199340976Y-113250444D01*
X199340976Y-113250444D02*
X199483833Y-113298063D01*
X200436214Y-114250444D02*
X199864786Y-114250444D01*
X200150500Y-114250444D02*
X200150500Y-113250444D01*
X200150500Y-113250444D02*
X200055262Y-113393301D01*
X200055262Y-113393301D02*
X199960024Y-113488539D01*
X199960024Y-113488539D02*
X199864786Y-113536158D01*
X201388595Y-114250444D02*
X200817167Y-114250444D01*
X201102881Y-114250444D02*
X201102881Y-113250444D01*
X201102881Y-113250444D02*
X201007643Y-113393301D01*
X201007643Y-113393301D02*
X200912405Y-113488539D01*
X200912405Y-113488539D02*
X200817167Y-113536158D01*
X142238595Y-104677825D02*
X142381452Y-104725444D01*
X142381452Y-104725444D02*
X142619547Y-104725444D01*
X142619547Y-104725444D02*
X142714785Y-104677825D01*
X142714785Y-104677825D02*
X142762404Y-104630205D01*
X142762404Y-104630205D02*
X142810023Y-104534967D01*
X142810023Y-104534967D02*
X142810023Y-104439729D01*
X142810023Y-104439729D02*
X142762404Y-104344491D01*
X142762404Y-104344491D02*
X142714785Y-104296872D01*
X142714785Y-104296872D02*
X142619547Y-104249253D01*
X142619547Y-104249253D02*
X142429071Y-104201634D01*
X142429071Y-104201634D02*
X142333833Y-104154015D01*
X142333833Y-104154015D02*
X142286214Y-104106396D01*
X142286214Y-104106396D02*
X142238595Y-104011158D01*
X142238595Y-104011158D02*
X142238595Y-103915920D01*
X142238595Y-103915920D02*
X142286214Y-103820682D01*
X142286214Y-103820682D02*
X142333833Y-103773063D01*
X142333833Y-103773063D02*
X142429071Y-103725444D01*
X142429071Y-103725444D02*
X142667166Y-103725444D01*
X142667166Y-103725444D02*
X142810023Y-103773063D01*
X143381452Y-104154015D02*
X143286214Y-104106396D01*
X143286214Y-104106396D02*
X143238595Y-104058777D01*
X143238595Y-104058777D02*
X143190976Y-103963539D01*
X143190976Y-103963539D02*
X143190976Y-103915920D01*
X143190976Y-103915920D02*
X143238595Y-103820682D01*
X143238595Y-103820682D02*
X143286214Y-103773063D01*
X143286214Y-103773063D02*
X143381452Y-103725444D01*
X143381452Y-103725444D02*
X143571928Y-103725444D01*
X143571928Y-103725444D02*
X143667166Y-103773063D01*
X143667166Y-103773063D02*
X143714785Y-103820682D01*
X143714785Y-103820682D02*
X143762404Y-103915920D01*
X143762404Y-103915920D02*
X143762404Y-103963539D01*
X143762404Y-103963539D02*
X143714785Y-104058777D01*
X143714785Y-104058777D02*
X143667166Y-104106396D01*
X143667166Y-104106396D02*
X143571928Y-104154015D01*
X143571928Y-104154015D02*
X143381452Y-104154015D01*
X143381452Y-104154015D02*
X143286214Y-104201634D01*
X143286214Y-104201634D02*
X143238595Y-104249253D01*
X143238595Y-104249253D02*
X143190976Y-104344491D01*
X143190976Y-104344491D02*
X143190976Y-104534967D01*
X143190976Y-104534967D02*
X143238595Y-104630205D01*
X143238595Y-104630205D02*
X143286214Y-104677825D01*
X143286214Y-104677825D02*
X143381452Y-104725444D01*
X143381452Y-104725444D02*
X143571928Y-104725444D01*
X143571928Y-104725444D02*
X143667166Y-104677825D01*
X143667166Y-104677825D02*
X143714785Y-104630205D01*
X143714785Y-104630205D02*
X143762404Y-104534967D01*
X143762404Y-104534967D02*
X143762404Y-104344491D01*
X143762404Y-104344491D02*
X143714785Y-104249253D01*
X143714785Y-104249253D02*
X143667166Y-104201634D01*
X143667166Y-104201634D02*
X143571928Y-104154015D01*
X179862405Y-48037825D02*
X180005262Y-48085444D01*
X180005262Y-48085444D02*
X180243357Y-48085444D01*
X180243357Y-48085444D02*
X180338595Y-48037825D01*
X180338595Y-48037825D02*
X180386214Y-47990205D01*
X180386214Y-47990205D02*
X180433833Y-47894967D01*
X180433833Y-47894967D02*
X180433833Y-47799729D01*
X180433833Y-47799729D02*
X180386214Y-47704491D01*
X180386214Y-47704491D02*
X180338595Y-47656872D01*
X180338595Y-47656872D02*
X180243357Y-47609253D01*
X180243357Y-47609253D02*
X180052881Y-47561634D01*
X180052881Y-47561634D02*
X179957643Y-47514015D01*
X179957643Y-47514015D02*
X179910024Y-47466396D01*
X179910024Y-47466396D02*
X179862405Y-47371158D01*
X179862405Y-47371158D02*
X179862405Y-47275920D01*
X179862405Y-47275920D02*
X179910024Y-47180682D01*
X179910024Y-47180682D02*
X179957643Y-47133063D01*
X179957643Y-47133063D02*
X180052881Y-47085444D01*
X180052881Y-47085444D02*
X180290976Y-47085444D01*
X180290976Y-47085444D02*
X180433833Y-47133063D01*
X181386214Y-48085444D02*
X180814786Y-48085444D01*
X181100500Y-48085444D02*
X181100500Y-47085444D01*
X181100500Y-47085444D02*
X181005262Y-47228301D01*
X181005262Y-47228301D02*
X180910024Y-47323539D01*
X180910024Y-47323539D02*
X180814786Y-47371158D01*
X182290976Y-47085444D02*
X181814786Y-47085444D01*
X181814786Y-47085444D02*
X181767167Y-47561634D01*
X181767167Y-47561634D02*
X181814786Y-47514015D01*
X181814786Y-47514015D02*
X181910024Y-47466396D01*
X181910024Y-47466396D02*
X182148119Y-47466396D01*
X182148119Y-47466396D02*
X182243357Y-47514015D01*
X182243357Y-47514015D02*
X182290976Y-47561634D01*
X182290976Y-47561634D02*
X182338595Y-47656872D01*
X182338595Y-47656872D02*
X182338595Y-47894967D01*
X182338595Y-47894967D02*
X182290976Y-47990205D01*
X182290976Y-47990205D02*
X182243357Y-48037825D01*
X182243357Y-48037825D02*
X182148119Y-48085444D01*
X182148119Y-48085444D02*
X181910024Y-48085444D01*
X181910024Y-48085444D02*
X181814786Y-48037825D01*
X181814786Y-48037825D02*
X181767167Y-47990205D01*
X161288595Y-123727825D02*
X161431452Y-123775444D01*
X161431452Y-123775444D02*
X161669547Y-123775444D01*
X161669547Y-123775444D02*
X161764785Y-123727825D01*
X161764785Y-123727825D02*
X161812404Y-123680205D01*
X161812404Y-123680205D02*
X161860023Y-123584967D01*
X161860023Y-123584967D02*
X161860023Y-123489729D01*
X161860023Y-123489729D02*
X161812404Y-123394491D01*
X161812404Y-123394491D02*
X161764785Y-123346872D01*
X161764785Y-123346872D02*
X161669547Y-123299253D01*
X161669547Y-123299253D02*
X161479071Y-123251634D01*
X161479071Y-123251634D02*
X161383833Y-123204015D01*
X161383833Y-123204015D02*
X161336214Y-123156396D01*
X161336214Y-123156396D02*
X161288595Y-123061158D01*
X161288595Y-123061158D02*
X161288595Y-122965920D01*
X161288595Y-122965920D02*
X161336214Y-122870682D01*
X161336214Y-122870682D02*
X161383833Y-122823063D01*
X161383833Y-122823063D02*
X161479071Y-122775444D01*
X161479071Y-122775444D02*
X161717166Y-122775444D01*
X161717166Y-122775444D02*
X161860023Y-122823063D01*
X162240976Y-122870682D02*
X162288595Y-122823063D01*
X162288595Y-122823063D02*
X162383833Y-122775444D01*
X162383833Y-122775444D02*
X162621928Y-122775444D01*
X162621928Y-122775444D02*
X162717166Y-122823063D01*
X162717166Y-122823063D02*
X162764785Y-122870682D01*
X162764785Y-122870682D02*
X162812404Y-122965920D01*
X162812404Y-122965920D02*
X162812404Y-123061158D01*
X162812404Y-123061158D02*
X162764785Y-123204015D01*
X162764785Y-123204015D02*
X162193357Y-123775444D01*
X162193357Y-123775444D02*
X162812404Y-123775444D01*
X141762405Y-67087825D02*
X141905262Y-67135444D01*
X141905262Y-67135444D02*
X142143357Y-67135444D01*
X142143357Y-67135444D02*
X142238595Y-67087825D01*
X142238595Y-67087825D02*
X142286214Y-67040205D01*
X142286214Y-67040205D02*
X142333833Y-66944967D01*
X142333833Y-66944967D02*
X142333833Y-66849729D01*
X142333833Y-66849729D02*
X142286214Y-66754491D01*
X142286214Y-66754491D02*
X142238595Y-66706872D01*
X142238595Y-66706872D02*
X142143357Y-66659253D01*
X142143357Y-66659253D02*
X141952881Y-66611634D01*
X141952881Y-66611634D02*
X141857643Y-66564015D01*
X141857643Y-66564015D02*
X141810024Y-66516396D01*
X141810024Y-66516396D02*
X141762405Y-66421158D01*
X141762405Y-66421158D02*
X141762405Y-66325920D01*
X141762405Y-66325920D02*
X141810024Y-66230682D01*
X141810024Y-66230682D02*
X141857643Y-66183063D01*
X141857643Y-66183063D02*
X141952881Y-66135444D01*
X141952881Y-66135444D02*
X142190976Y-66135444D01*
X142190976Y-66135444D02*
X142333833Y-66183063D01*
X143286214Y-67135444D02*
X142714786Y-67135444D01*
X143000500Y-67135444D02*
X143000500Y-66135444D01*
X143000500Y-66135444D02*
X142905262Y-66278301D01*
X142905262Y-66278301D02*
X142810024Y-66373539D01*
X142810024Y-66373539D02*
X142714786Y-66421158D01*
X143857643Y-66564015D02*
X143762405Y-66516396D01*
X143762405Y-66516396D02*
X143714786Y-66468777D01*
X143714786Y-66468777D02*
X143667167Y-66373539D01*
X143667167Y-66373539D02*
X143667167Y-66325920D01*
X143667167Y-66325920D02*
X143714786Y-66230682D01*
X143714786Y-66230682D02*
X143762405Y-66183063D01*
X143762405Y-66183063D02*
X143857643Y-66135444D01*
X143857643Y-66135444D02*
X144048119Y-66135444D01*
X144048119Y-66135444D02*
X144143357Y-66183063D01*
X144143357Y-66183063D02*
X144190976Y-66230682D01*
X144190976Y-66230682D02*
X144238595Y-66325920D01*
X144238595Y-66325920D02*
X144238595Y-66373539D01*
X144238595Y-66373539D02*
X144190976Y-66468777D01*
X144190976Y-66468777D02*
X144143357Y-66516396D01*
X144143357Y-66516396D02*
X144048119Y-66564015D01*
X144048119Y-66564015D02*
X143857643Y-66564015D01*
X143857643Y-66564015D02*
X143762405Y-66611634D01*
X143762405Y-66611634D02*
X143714786Y-66659253D01*
X143714786Y-66659253D02*
X143667167Y-66754491D01*
X143667167Y-66754491D02*
X143667167Y-66944967D01*
X143667167Y-66944967D02*
X143714786Y-67040205D01*
X143714786Y-67040205D02*
X143762405Y-67087825D01*
X143762405Y-67087825D02*
X143857643Y-67135444D01*
X143857643Y-67135444D02*
X144048119Y-67135444D01*
X144048119Y-67135444D02*
X144143357Y-67087825D01*
X144143357Y-67087825D02*
X144190976Y-67040205D01*
X144190976Y-67040205D02*
X144238595Y-66944967D01*
X144238595Y-66944967D02*
X144238595Y-66754491D01*
X144238595Y-66754491D02*
X144190976Y-66659253D01*
X144190976Y-66659253D02*
X144143357Y-66611634D01*
X144143357Y-66611634D02*
X144048119Y-66564015D01*
X160812405Y-48037825D02*
X160955262Y-48085444D01*
X160955262Y-48085444D02*
X161193357Y-48085444D01*
X161193357Y-48085444D02*
X161288595Y-48037825D01*
X161288595Y-48037825D02*
X161336214Y-47990205D01*
X161336214Y-47990205D02*
X161383833Y-47894967D01*
X161383833Y-47894967D02*
X161383833Y-47799729D01*
X161383833Y-47799729D02*
X161336214Y-47704491D01*
X161336214Y-47704491D02*
X161288595Y-47656872D01*
X161288595Y-47656872D02*
X161193357Y-47609253D01*
X161193357Y-47609253D02*
X161002881Y-47561634D01*
X161002881Y-47561634D02*
X160907643Y-47514015D01*
X160907643Y-47514015D02*
X160860024Y-47466396D01*
X160860024Y-47466396D02*
X160812405Y-47371158D01*
X160812405Y-47371158D02*
X160812405Y-47275920D01*
X160812405Y-47275920D02*
X160860024Y-47180682D01*
X160860024Y-47180682D02*
X160907643Y-47133063D01*
X160907643Y-47133063D02*
X161002881Y-47085444D01*
X161002881Y-47085444D02*
X161240976Y-47085444D01*
X161240976Y-47085444D02*
X161383833Y-47133063D01*
X162336214Y-48085444D02*
X161764786Y-48085444D01*
X162050500Y-48085444D02*
X162050500Y-47085444D01*
X162050500Y-47085444D02*
X161955262Y-47228301D01*
X161955262Y-47228301D02*
X161860024Y-47323539D01*
X161860024Y-47323539D02*
X161764786Y-47371158D01*
X163193357Y-47418777D02*
X163193357Y-48085444D01*
X162955262Y-47037825D02*
X162717167Y-47752110D01*
X162717167Y-47752110D02*
X163336214Y-47752110D01*
X123188595Y-104677825D02*
X123331452Y-104725444D01*
X123331452Y-104725444D02*
X123569547Y-104725444D01*
X123569547Y-104725444D02*
X123664785Y-104677825D01*
X123664785Y-104677825D02*
X123712404Y-104630205D01*
X123712404Y-104630205D02*
X123760023Y-104534967D01*
X123760023Y-104534967D02*
X123760023Y-104439729D01*
X123760023Y-104439729D02*
X123712404Y-104344491D01*
X123712404Y-104344491D02*
X123664785Y-104296872D01*
X123664785Y-104296872D02*
X123569547Y-104249253D01*
X123569547Y-104249253D02*
X123379071Y-104201634D01*
X123379071Y-104201634D02*
X123283833Y-104154015D01*
X123283833Y-104154015D02*
X123236214Y-104106396D01*
X123236214Y-104106396D02*
X123188595Y-104011158D01*
X123188595Y-104011158D02*
X123188595Y-103915920D01*
X123188595Y-103915920D02*
X123236214Y-103820682D01*
X123236214Y-103820682D02*
X123283833Y-103773063D01*
X123283833Y-103773063D02*
X123379071Y-103725444D01*
X123379071Y-103725444D02*
X123617166Y-103725444D01*
X123617166Y-103725444D02*
X123760023Y-103773063D01*
X124236214Y-104725444D02*
X124426690Y-104725444D01*
X124426690Y-104725444D02*
X124521928Y-104677825D01*
X124521928Y-104677825D02*
X124569547Y-104630205D01*
X124569547Y-104630205D02*
X124664785Y-104487348D01*
X124664785Y-104487348D02*
X124712404Y-104296872D01*
X124712404Y-104296872D02*
X124712404Y-103915920D01*
X124712404Y-103915920D02*
X124664785Y-103820682D01*
X124664785Y-103820682D02*
X124617166Y-103773063D01*
X124617166Y-103773063D02*
X124521928Y-103725444D01*
X124521928Y-103725444D02*
X124331452Y-103725444D01*
X124331452Y-103725444D02*
X124236214Y-103773063D01*
X124236214Y-103773063D02*
X124188595Y-103820682D01*
X124188595Y-103820682D02*
X124140976Y-103915920D01*
X124140976Y-103915920D02*
X124140976Y-104154015D01*
X124140976Y-104154015D02*
X124188595Y-104249253D01*
X124188595Y-104249253D02*
X124236214Y-104296872D01*
X124236214Y-104296872D02*
X124331452Y-104344491D01*
X124331452Y-104344491D02*
X124521928Y-104344491D01*
X124521928Y-104344491D02*
X124617166Y-104296872D01*
X124617166Y-104296872D02*
X124664785Y-104249253D01*
X124664785Y-104249253D02*
X124712404Y-104154015D01*
X198912405Y-67087825D02*
X199055262Y-67135444D01*
X199055262Y-67135444D02*
X199293357Y-67135444D01*
X199293357Y-67135444D02*
X199388595Y-67087825D01*
X199388595Y-67087825D02*
X199436214Y-67040205D01*
X199436214Y-67040205D02*
X199483833Y-66944967D01*
X199483833Y-66944967D02*
X199483833Y-66849729D01*
X199483833Y-66849729D02*
X199436214Y-66754491D01*
X199436214Y-66754491D02*
X199388595Y-66706872D01*
X199388595Y-66706872D02*
X199293357Y-66659253D01*
X199293357Y-66659253D02*
X199102881Y-66611634D01*
X199102881Y-66611634D02*
X199007643Y-66564015D01*
X199007643Y-66564015D02*
X198960024Y-66516396D01*
X198960024Y-66516396D02*
X198912405Y-66421158D01*
X198912405Y-66421158D02*
X198912405Y-66325920D01*
X198912405Y-66325920D02*
X198960024Y-66230682D01*
X198960024Y-66230682D02*
X199007643Y-66183063D01*
X199007643Y-66183063D02*
X199102881Y-66135444D01*
X199102881Y-66135444D02*
X199340976Y-66135444D01*
X199340976Y-66135444D02*
X199483833Y-66183063D01*
X199864786Y-66230682D02*
X199912405Y-66183063D01*
X199912405Y-66183063D02*
X200007643Y-66135444D01*
X200007643Y-66135444D02*
X200245738Y-66135444D01*
X200245738Y-66135444D02*
X200340976Y-66183063D01*
X200340976Y-66183063D02*
X200388595Y-66230682D01*
X200388595Y-66230682D02*
X200436214Y-66325920D01*
X200436214Y-66325920D02*
X200436214Y-66421158D01*
X200436214Y-66421158D02*
X200388595Y-66564015D01*
X200388595Y-66564015D02*
X199817167Y-67135444D01*
X199817167Y-67135444D02*
X200436214Y-67135444D01*
X201388595Y-67135444D02*
X200817167Y-67135444D01*
X201102881Y-67135444D02*
X201102881Y-66135444D01*
X201102881Y-66135444D02*
X201007643Y-66278301D01*
X201007643Y-66278301D02*
X200912405Y-66373539D01*
X200912405Y-66373539D02*
X200817167Y-66421158D01*
X160812405Y-67087825D02*
X160955262Y-67135444D01*
X160955262Y-67135444D02*
X161193357Y-67135444D01*
X161193357Y-67135444D02*
X161288595Y-67087825D01*
X161288595Y-67087825D02*
X161336214Y-67040205D01*
X161336214Y-67040205D02*
X161383833Y-66944967D01*
X161383833Y-66944967D02*
X161383833Y-66849729D01*
X161383833Y-66849729D02*
X161336214Y-66754491D01*
X161336214Y-66754491D02*
X161288595Y-66706872D01*
X161288595Y-66706872D02*
X161193357Y-66659253D01*
X161193357Y-66659253D02*
X161002881Y-66611634D01*
X161002881Y-66611634D02*
X160907643Y-66564015D01*
X160907643Y-66564015D02*
X160860024Y-66516396D01*
X160860024Y-66516396D02*
X160812405Y-66421158D01*
X160812405Y-66421158D02*
X160812405Y-66325920D01*
X160812405Y-66325920D02*
X160860024Y-66230682D01*
X160860024Y-66230682D02*
X160907643Y-66183063D01*
X160907643Y-66183063D02*
X161002881Y-66135444D01*
X161002881Y-66135444D02*
X161240976Y-66135444D01*
X161240976Y-66135444D02*
X161383833Y-66183063D01*
X162336214Y-67135444D02*
X161764786Y-67135444D01*
X162050500Y-67135444D02*
X162050500Y-66135444D01*
X162050500Y-66135444D02*
X161955262Y-66278301D01*
X161955262Y-66278301D02*
X161860024Y-66373539D01*
X161860024Y-66373539D02*
X161764786Y-66421158D01*
X162812405Y-67135444D02*
X163002881Y-67135444D01*
X163002881Y-67135444D02*
X163098119Y-67087825D01*
X163098119Y-67087825D02*
X163145738Y-67040205D01*
X163145738Y-67040205D02*
X163240976Y-66897348D01*
X163240976Y-66897348D02*
X163288595Y-66706872D01*
X163288595Y-66706872D02*
X163288595Y-66325920D01*
X163288595Y-66325920D02*
X163240976Y-66230682D01*
X163240976Y-66230682D02*
X163193357Y-66183063D01*
X163193357Y-66183063D02*
X163098119Y-66135444D01*
X163098119Y-66135444D02*
X162907643Y-66135444D01*
X162907643Y-66135444D02*
X162812405Y-66183063D01*
X162812405Y-66183063D02*
X162764786Y-66230682D01*
X162764786Y-66230682D02*
X162717167Y-66325920D01*
X162717167Y-66325920D02*
X162717167Y-66564015D01*
X162717167Y-66564015D02*
X162764786Y-66659253D01*
X162764786Y-66659253D02*
X162812405Y-66706872D01*
X162812405Y-66706872D02*
X162907643Y-66754491D01*
X162907643Y-66754491D02*
X163098119Y-66754491D01*
X163098119Y-66754491D02*
X163193357Y-66706872D01*
X163193357Y-66706872D02*
X163240976Y-66659253D01*
X163240976Y-66659253D02*
X163288595Y-66564015D01*
X141762405Y-48037825D02*
X141905262Y-48085444D01*
X141905262Y-48085444D02*
X142143357Y-48085444D01*
X142143357Y-48085444D02*
X142238595Y-48037825D01*
X142238595Y-48037825D02*
X142286214Y-47990205D01*
X142286214Y-47990205D02*
X142333833Y-47894967D01*
X142333833Y-47894967D02*
X142333833Y-47799729D01*
X142333833Y-47799729D02*
X142286214Y-47704491D01*
X142286214Y-47704491D02*
X142238595Y-47656872D01*
X142238595Y-47656872D02*
X142143357Y-47609253D01*
X142143357Y-47609253D02*
X141952881Y-47561634D01*
X141952881Y-47561634D02*
X141857643Y-47514015D01*
X141857643Y-47514015D02*
X141810024Y-47466396D01*
X141810024Y-47466396D02*
X141762405Y-47371158D01*
X141762405Y-47371158D02*
X141762405Y-47275920D01*
X141762405Y-47275920D02*
X141810024Y-47180682D01*
X141810024Y-47180682D02*
X141857643Y-47133063D01*
X141857643Y-47133063D02*
X141952881Y-47085444D01*
X141952881Y-47085444D02*
X142190976Y-47085444D01*
X142190976Y-47085444D02*
X142333833Y-47133063D01*
X143286214Y-48085444D02*
X142714786Y-48085444D01*
X143000500Y-48085444D02*
X143000500Y-47085444D01*
X143000500Y-47085444D02*
X142905262Y-47228301D01*
X142905262Y-47228301D02*
X142810024Y-47323539D01*
X142810024Y-47323539D02*
X142714786Y-47371158D01*
X143619548Y-47085444D02*
X144238595Y-47085444D01*
X144238595Y-47085444D02*
X143905262Y-47466396D01*
X143905262Y-47466396D02*
X144048119Y-47466396D01*
X144048119Y-47466396D02*
X144143357Y-47514015D01*
X144143357Y-47514015D02*
X144190976Y-47561634D01*
X144190976Y-47561634D02*
X144238595Y-47656872D01*
X144238595Y-47656872D02*
X144238595Y-47894967D01*
X144238595Y-47894967D02*
X144190976Y-47990205D01*
X144190976Y-47990205D02*
X144143357Y-48037825D01*
X144143357Y-48037825D02*
X144048119Y-48085444D01*
X144048119Y-48085444D02*
X143762405Y-48085444D01*
X143762405Y-48085444D02*
X143667167Y-48037825D01*
X143667167Y-48037825D02*
X143619548Y-47990205D01*
X104567166Y-122881694D02*
X104567166Y-123595979D01*
X104567166Y-123595979D02*
X104519547Y-123738836D01*
X104519547Y-123738836D02*
X104424309Y-123834075D01*
X104424309Y-123834075D02*
X104281452Y-123881694D01*
X104281452Y-123881694D02*
X104186214Y-123881694D01*
X104995738Y-122976932D02*
X105043357Y-122929313D01*
X105043357Y-122929313D02*
X105138595Y-122881694D01*
X105138595Y-122881694D02*
X105376690Y-122881694D01*
X105376690Y-122881694D02*
X105471928Y-122929313D01*
X105471928Y-122929313D02*
X105519547Y-122976932D01*
X105519547Y-122976932D02*
X105567166Y-123072170D01*
X105567166Y-123072170D02*
X105567166Y-123167408D01*
X105567166Y-123167408D02*
X105519547Y-123310265D01*
X105519547Y-123310265D02*
X104948119Y-123881694D01*
X104948119Y-123881694D02*
X105567166Y-123881694D01*
X142238595Y-123727825D02*
X142381452Y-123775444D01*
X142381452Y-123775444D02*
X142619547Y-123775444D01*
X142619547Y-123775444D02*
X142714785Y-123727825D01*
X142714785Y-123727825D02*
X142762404Y-123680205D01*
X142762404Y-123680205D02*
X142810023Y-123584967D01*
X142810023Y-123584967D02*
X142810023Y-123489729D01*
X142810023Y-123489729D02*
X142762404Y-123394491D01*
X142762404Y-123394491D02*
X142714785Y-123346872D01*
X142714785Y-123346872D02*
X142619547Y-123299253D01*
X142619547Y-123299253D02*
X142429071Y-123251634D01*
X142429071Y-123251634D02*
X142333833Y-123204015D01*
X142333833Y-123204015D02*
X142286214Y-123156396D01*
X142286214Y-123156396D02*
X142238595Y-123061158D01*
X142238595Y-123061158D02*
X142238595Y-122965920D01*
X142238595Y-122965920D02*
X142286214Y-122870682D01*
X142286214Y-122870682D02*
X142333833Y-122823063D01*
X142333833Y-122823063D02*
X142429071Y-122775444D01*
X142429071Y-122775444D02*
X142667166Y-122775444D01*
X142667166Y-122775444D02*
X142810023Y-122823063D01*
X143143357Y-122775444D02*
X143762404Y-122775444D01*
X143762404Y-122775444D02*
X143429071Y-123156396D01*
X143429071Y-123156396D02*
X143571928Y-123156396D01*
X143571928Y-123156396D02*
X143667166Y-123204015D01*
X143667166Y-123204015D02*
X143714785Y-123251634D01*
X143714785Y-123251634D02*
X143762404Y-123346872D01*
X143762404Y-123346872D02*
X143762404Y-123584967D01*
X143762404Y-123584967D02*
X143714785Y-123680205D01*
X143714785Y-123680205D02*
X143667166Y-123727825D01*
X143667166Y-123727825D02*
X143571928Y-123775444D01*
X143571928Y-123775444D02*
X143286214Y-123775444D01*
X143286214Y-123775444D02*
X143190976Y-123727825D01*
X143190976Y-123727825D02*
X143143357Y-123680205D01*
X103662405Y-104677825D02*
X103805262Y-104725444D01*
X103805262Y-104725444D02*
X104043357Y-104725444D01*
X104043357Y-104725444D02*
X104138595Y-104677825D01*
X104138595Y-104677825D02*
X104186214Y-104630205D01*
X104186214Y-104630205D02*
X104233833Y-104534967D01*
X104233833Y-104534967D02*
X104233833Y-104439729D01*
X104233833Y-104439729D02*
X104186214Y-104344491D01*
X104186214Y-104344491D02*
X104138595Y-104296872D01*
X104138595Y-104296872D02*
X104043357Y-104249253D01*
X104043357Y-104249253D02*
X103852881Y-104201634D01*
X103852881Y-104201634D02*
X103757643Y-104154015D01*
X103757643Y-104154015D02*
X103710024Y-104106396D01*
X103710024Y-104106396D02*
X103662405Y-104011158D01*
X103662405Y-104011158D02*
X103662405Y-103915920D01*
X103662405Y-103915920D02*
X103710024Y-103820682D01*
X103710024Y-103820682D02*
X103757643Y-103773063D01*
X103757643Y-103773063D02*
X103852881Y-103725444D01*
X103852881Y-103725444D02*
X104090976Y-103725444D01*
X104090976Y-103725444D02*
X104233833Y-103773063D01*
X105186214Y-104725444D02*
X104614786Y-104725444D01*
X104900500Y-104725444D02*
X104900500Y-103725444D01*
X104900500Y-103725444D02*
X104805262Y-103868301D01*
X104805262Y-103868301D02*
X104710024Y-103963539D01*
X104710024Y-103963539D02*
X104614786Y-104011158D01*
X105805262Y-103725444D02*
X105900500Y-103725444D01*
X105900500Y-103725444D02*
X105995738Y-103773063D01*
X105995738Y-103773063D02*
X106043357Y-103820682D01*
X106043357Y-103820682D02*
X106090976Y-103915920D01*
X106090976Y-103915920D02*
X106138595Y-104106396D01*
X106138595Y-104106396D02*
X106138595Y-104344491D01*
X106138595Y-104344491D02*
X106090976Y-104534967D01*
X106090976Y-104534967D02*
X106043357Y-104630205D01*
X106043357Y-104630205D02*
X105995738Y-104677825D01*
X105995738Y-104677825D02*
X105900500Y-104725444D01*
X105900500Y-104725444D02*
X105805262Y-104725444D01*
X105805262Y-104725444D02*
X105710024Y-104677825D01*
X105710024Y-104677825D02*
X105662405Y-104630205D01*
X105662405Y-104630205D02*
X105614786Y-104534967D01*
X105614786Y-104534967D02*
X105567167Y-104344491D01*
X105567167Y-104344491D02*
X105567167Y-104106396D01*
X105567167Y-104106396D02*
X105614786Y-103915920D01*
X105614786Y-103915920D02*
X105662405Y-103820682D01*
X105662405Y-103820682D02*
X105710024Y-103773063D01*
X105710024Y-103773063D02*
X105805262Y-103725444D01*
X123188595Y-123727825D02*
X123331452Y-123775444D01*
X123331452Y-123775444D02*
X123569547Y-123775444D01*
X123569547Y-123775444D02*
X123664785Y-123727825D01*
X123664785Y-123727825D02*
X123712404Y-123680205D01*
X123712404Y-123680205D02*
X123760023Y-123584967D01*
X123760023Y-123584967D02*
X123760023Y-123489729D01*
X123760023Y-123489729D02*
X123712404Y-123394491D01*
X123712404Y-123394491D02*
X123664785Y-123346872D01*
X123664785Y-123346872D02*
X123569547Y-123299253D01*
X123569547Y-123299253D02*
X123379071Y-123251634D01*
X123379071Y-123251634D02*
X123283833Y-123204015D01*
X123283833Y-123204015D02*
X123236214Y-123156396D01*
X123236214Y-123156396D02*
X123188595Y-123061158D01*
X123188595Y-123061158D02*
X123188595Y-122965920D01*
X123188595Y-122965920D02*
X123236214Y-122870682D01*
X123236214Y-122870682D02*
X123283833Y-122823063D01*
X123283833Y-122823063D02*
X123379071Y-122775444D01*
X123379071Y-122775444D02*
X123617166Y-122775444D01*
X123617166Y-122775444D02*
X123760023Y-122823063D01*
X124617166Y-123108777D02*
X124617166Y-123775444D01*
X124379071Y-122727825D02*
X124140976Y-123442110D01*
X124140976Y-123442110D02*
X124760023Y-123442110D01*
X179862405Y-67087825D02*
X180005262Y-67135444D01*
X180005262Y-67135444D02*
X180243357Y-67135444D01*
X180243357Y-67135444D02*
X180338595Y-67087825D01*
X180338595Y-67087825D02*
X180386214Y-67040205D01*
X180386214Y-67040205D02*
X180433833Y-66944967D01*
X180433833Y-66944967D02*
X180433833Y-66849729D01*
X180433833Y-66849729D02*
X180386214Y-66754491D01*
X180386214Y-66754491D02*
X180338595Y-66706872D01*
X180338595Y-66706872D02*
X180243357Y-66659253D01*
X180243357Y-66659253D02*
X180052881Y-66611634D01*
X180052881Y-66611634D02*
X179957643Y-66564015D01*
X179957643Y-66564015D02*
X179910024Y-66516396D01*
X179910024Y-66516396D02*
X179862405Y-66421158D01*
X179862405Y-66421158D02*
X179862405Y-66325920D01*
X179862405Y-66325920D02*
X179910024Y-66230682D01*
X179910024Y-66230682D02*
X179957643Y-66183063D01*
X179957643Y-66183063D02*
X180052881Y-66135444D01*
X180052881Y-66135444D02*
X180290976Y-66135444D01*
X180290976Y-66135444D02*
X180433833Y-66183063D01*
X180814786Y-66230682D02*
X180862405Y-66183063D01*
X180862405Y-66183063D02*
X180957643Y-66135444D01*
X180957643Y-66135444D02*
X181195738Y-66135444D01*
X181195738Y-66135444D02*
X181290976Y-66183063D01*
X181290976Y-66183063D02*
X181338595Y-66230682D01*
X181338595Y-66230682D02*
X181386214Y-66325920D01*
X181386214Y-66325920D02*
X181386214Y-66421158D01*
X181386214Y-66421158D02*
X181338595Y-66564015D01*
X181338595Y-66564015D02*
X180767167Y-67135444D01*
X180767167Y-67135444D02*
X181386214Y-67135444D01*
X182005262Y-66135444D02*
X182100500Y-66135444D01*
X182100500Y-66135444D02*
X182195738Y-66183063D01*
X182195738Y-66183063D02*
X182243357Y-66230682D01*
X182243357Y-66230682D02*
X182290976Y-66325920D01*
X182290976Y-66325920D02*
X182338595Y-66516396D01*
X182338595Y-66516396D02*
X182338595Y-66754491D01*
X182338595Y-66754491D02*
X182290976Y-66944967D01*
X182290976Y-66944967D02*
X182243357Y-67040205D01*
X182243357Y-67040205D02*
X182195738Y-67087825D01*
X182195738Y-67087825D02*
X182100500Y-67135444D01*
X182100500Y-67135444D02*
X182005262Y-67135444D01*
X182005262Y-67135444D02*
X181910024Y-67087825D01*
X181910024Y-67087825D02*
X181862405Y-67040205D01*
X181862405Y-67040205D02*
X181814786Y-66944967D01*
X181814786Y-66944967D02*
X181767167Y-66754491D01*
X181767167Y-66754491D02*
X181767167Y-66516396D01*
X181767167Y-66516396D02*
X181814786Y-66325920D01*
X181814786Y-66325920D02*
X181862405Y-66230682D01*
X181862405Y-66230682D02*
X181910024Y-66183063D01*
X181910024Y-66183063D02*
X182005262Y-66135444D01*
X119167167Y-112665122D02*
X119267167Y-112703217D01*
X119267167Y-112703217D02*
X119300500Y-112741313D01*
X119300500Y-112741313D02*
X119333833Y-112817503D01*
X119333833Y-112817503D02*
X119333833Y-112931789D01*
X119333833Y-112931789D02*
X119300500Y-113007979D01*
X119300500Y-113007979D02*
X119267167Y-113046075D01*
X119267167Y-113046075D02*
X119200500Y-113084170D01*
X119200500Y-113084170D02*
X118933833Y-113084170D01*
X118933833Y-113084170D02*
X118933833Y-112284170D01*
X118933833Y-112284170D02*
X119167167Y-112284170D01*
X119167167Y-112284170D02*
X119233833Y-112322265D01*
X119233833Y-112322265D02*
X119267167Y-112360360D01*
X119267167Y-112360360D02*
X119300500Y-112436551D01*
X119300500Y-112436551D02*
X119300500Y-112512741D01*
X119300500Y-112512741D02*
X119267167Y-112588932D01*
X119267167Y-112588932D02*
X119233833Y-112627027D01*
X119233833Y-112627027D02*
X119167167Y-112665122D01*
X119167167Y-112665122D02*
X118933833Y-112665122D01*
X119567167Y-112284170D02*
X120033833Y-112284170D01*
X120033833Y-112284170D02*
X119733833Y-113084170D01*
X129144833Y-126535122D02*
X128878167Y-126535122D01*
X128878167Y-126954170D02*
X128878167Y-126154170D01*
X128878167Y-126154170D02*
X129259119Y-126154170D01*
X129944833Y-126154170D02*
X129563881Y-126154170D01*
X129563881Y-126154170D02*
X129525785Y-126535122D01*
X129525785Y-126535122D02*
X129563881Y-126497027D01*
X129563881Y-126497027D02*
X129640071Y-126458932D01*
X129640071Y-126458932D02*
X129830547Y-126458932D01*
X129830547Y-126458932D02*
X129906738Y-126497027D01*
X129906738Y-126497027D02*
X129944833Y-126535122D01*
X129944833Y-126535122D02*
X129982928Y-126611313D01*
X129982928Y-126611313D02*
X129982928Y-126801789D01*
X129982928Y-126801789D02*
X129944833Y-126877979D01*
X129944833Y-126877979D02*
X129906738Y-126916075D01*
X129906738Y-126916075D02*
X129830547Y-126954170D01*
X129830547Y-126954170D02*
X129640071Y-126954170D01*
X129640071Y-126954170D02*
X129563881Y-126916075D01*
X129563881Y-126916075D02*
X129525785Y-126877979D01*
X129144833Y-129075122D02*
X128878167Y-129075122D01*
X128878167Y-129494170D02*
X128878167Y-128694170D01*
X128878167Y-128694170D02*
X129259119Y-128694170D01*
X129906738Y-128960836D02*
X129906738Y-129494170D01*
X129716262Y-128656075D02*
X129525785Y-129227503D01*
X129525785Y-129227503D02*
X130021024Y-129227503D01*
X128457166Y-134556075D02*
X128571452Y-134594170D01*
X128571452Y-134594170D02*
X128761928Y-134594170D01*
X128761928Y-134594170D02*
X128838119Y-134556075D01*
X128838119Y-134556075D02*
X128876214Y-134517979D01*
X128876214Y-134517979D02*
X128914309Y-134441789D01*
X128914309Y-134441789D02*
X128914309Y-134365598D01*
X128914309Y-134365598D02*
X128876214Y-134289408D01*
X128876214Y-134289408D02*
X128838119Y-134251313D01*
X128838119Y-134251313D02*
X128761928Y-134213217D01*
X128761928Y-134213217D02*
X128609547Y-134175122D01*
X128609547Y-134175122D02*
X128533357Y-134137027D01*
X128533357Y-134137027D02*
X128495262Y-134098932D01*
X128495262Y-134098932D02*
X128457166Y-134022741D01*
X128457166Y-134022741D02*
X128457166Y-133946551D01*
X128457166Y-133946551D02*
X128495262Y-133870360D01*
X128495262Y-133870360D02*
X128533357Y-133832265D01*
X128533357Y-133832265D02*
X128609547Y-133794170D01*
X128609547Y-133794170D02*
X128800024Y-133794170D01*
X128800024Y-133794170D02*
X128914309Y-133832265D01*
X129142881Y-133794170D02*
X129600024Y-133794170D01*
X129371452Y-134594170D02*
X129371452Y-133794170D01*
X117899024Y-119334170D02*
X117899024Y-118534170D01*
X117899024Y-118534170D02*
X118089500Y-118534170D01*
X118089500Y-118534170D02*
X118203786Y-118572265D01*
X118203786Y-118572265D02*
X118279976Y-118648455D01*
X118279976Y-118648455D02*
X118318071Y-118724646D01*
X118318071Y-118724646D02*
X118356167Y-118877027D01*
X118356167Y-118877027D02*
X118356167Y-118991313D01*
X118356167Y-118991313D02*
X118318071Y-119143694D01*
X118318071Y-119143694D02*
X118279976Y-119219884D01*
X118279976Y-119219884D02*
X118203786Y-119296075D01*
X118203786Y-119296075D02*
X118089500Y-119334170D01*
X118089500Y-119334170D02*
X117899024Y-119334170D01*
X118622833Y-118534170D02*
X119156167Y-118534170D01*
X119156167Y-118534170D02*
X118813309Y-119334170D01*
X129144833Y-121455122D02*
X128878167Y-121455122D01*
X128878167Y-121874170D02*
X128878167Y-121074170D01*
X128878167Y-121074170D02*
X129259119Y-121074170D01*
X129487690Y-121074170D02*
X130021024Y-121074170D01*
X130021024Y-121074170D02*
X129678166Y-121874170D01*
X117879976Y-131272265D02*
X117803786Y-131234170D01*
X117803786Y-131234170D02*
X117689500Y-131234170D01*
X117689500Y-131234170D02*
X117575214Y-131272265D01*
X117575214Y-131272265D02*
X117499024Y-131348455D01*
X117499024Y-131348455D02*
X117460929Y-131424646D01*
X117460929Y-131424646D02*
X117422833Y-131577027D01*
X117422833Y-131577027D02*
X117422833Y-131691313D01*
X117422833Y-131691313D02*
X117460929Y-131843694D01*
X117460929Y-131843694D02*
X117499024Y-131919884D01*
X117499024Y-131919884D02*
X117575214Y-131996075D01*
X117575214Y-131996075D02*
X117689500Y-132034170D01*
X117689500Y-132034170D02*
X117765691Y-132034170D01*
X117765691Y-132034170D02*
X117879976Y-131996075D01*
X117879976Y-131996075D02*
X117918072Y-131957979D01*
X117918072Y-131957979D02*
X117918072Y-131691313D01*
X117918072Y-131691313D02*
X117765691Y-131691313D01*
X118260929Y-132034170D02*
X118260929Y-131234170D01*
X118260929Y-131234170D02*
X118718072Y-132034170D01*
X118718072Y-132034170D02*
X118718072Y-131234170D01*
X119099024Y-132034170D02*
X119099024Y-131234170D01*
X119099024Y-131234170D02*
X119289500Y-131234170D01*
X119289500Y-131234170D02*
X119403786Y-131272265D01*
X119403786Y-131272265D02*
X119479976Y-131348455D01*
X119479976Y-131348455D02*
X119518071Y-131424646D01*
X119518071Y-131424646D02*
X119556167Y-131577027D01*
X119556167Y-131577027D02*
X119556167Y-131691313D01*
X119556167Y-131691313D02*
X119518071Y-131843694D01*
X119518071Y-131843694D02*
X119479976Y-131919884D01*
X119479976Y-131919884D02*
X119403786Y-131996075D01*
X119403786Y-131996075D02*
X119289500Y-132034170D01*
X119289500Y-132034170D02*
X119099024Y-132034170D01*
X129144833Y-123995122D02*
X128878167Y-123995122D01*
X128878167Y-124414170D02*
X128878167Y-123614170D01*
X128878167Y-123614170D02*
X129259119Y-123614170D01*
X129906738Y-123614170D02*
X129754357Y-123614170D01*
X129754357Y-123614170D02*
X129678166Y-123652265D01*
X129678166Y-123652265D02*
X129640071Y-123690360D01*
X129640071Y-123690360D02*
X129563881Y-123804646D01*
X129563881Y-123804646D02*
X129525785Y-123957027D01*
X129525785Y-123957027D02*
X129525785Y-124261789D01*
X129525785Y-124261789D02*
X129563881Y-124337979D01*
X129563881Y-124337979D02*
X129601976Y-124376075D01*
X129601976Y-124376075D02*
X129678166Y-124414170D01*
X129678166Y-124414170D02*
X129830547Y-124414170D01*
X129830547Y-124414170D02*
X129906738Y-124376075D01*
X129906738Y-124376075D02*
X129944833Y-124337979D01*
X129944833Y-124337979D02*
X129982928Y-124261789D01*
X129982928Y-124261789D02*
X129982928Y-124071313D01*
X129982928Y-124071313D02*
X129944833Y-123995122D01*
X129944833Y-123995122D02*
X129906738Y-123957027D01*
X129906738Y-123957027D02*
X129830547Y-123918932D01*
X129830547Y-123918932D02*
X129678166Y-123918932D01*
X129678166Y-123918932D02*
X129601976Y-123957027D01*
X129601976Y-123957027D02*
X129563881Y-123995122D01*
X129563881Y-123995122D02*
X129525785Y-124071313D01*
X118356167Y-121797979D02*
X118318071Y-121836075D01*
X118318071Y-121836075D02*
X118203786Y-121874170D01*
X118203786Y-121874170D02*
X118127595Y-121874170D01*
X118127595Y-121874170D02*
X118013309Y-121836075D01*
X118013309Y-121836075D02*
X117937119Y-121759884D01*
X117937119Y-121759884D02*
X117899024Y-121683694D01*
X117899024Y-121683694D02*
X117860928Y-121531313D01*
X117860928Y-121531313D02*
X117860928Y-121417027D01*
X117860928Y-121417027D02*
X117899024Y-121264646D01*
X117899024Y-121264646D02*
X117937119Y-121188455D01*
X117937119Y-121188455D02*
X118013309Y-121112265D01*
X118013309Y-121112265D02*
X118127595Y-121074170D01*
X118127595Y-121074170D02*
X118203786Y-121074170D01*
X118203786Y-121074170D02*
X118318071Y-121112265D01*
X118318071Y-121112265D02*
X118356167Y-121150360D01*
X119041881Y-121074170D02*
X118889500Y-121074170D01*
X118889500Y-121074170D02*
X118813309Y-121112265D01*
X118813309Y-121112265D02*
X118775214Y-121150360D01*
X118775214Y-121150360D02*
X118699024Y-121264646D01*
X118699024Y-121264646D02*
X118660928Y-121417027D01*
X118660928Y-121417027D02*
X118660928Y-121721789D01*
X118660928Y-121721789D02*
X118699024Y-121797979D01*
X118699024Y-121797979D02*
X118737119Y-121836075D01*
X118737119Y-121836075D02*
X118813309Y-121874170D01*
X118813309Y-121874170D02*
X118965690Y-121874170D01*
X118965690Y-121874170D02*
X119041881Y-121836075D01*
X119041881Y-121836075D02*
X119079976Y-121797979D01*
X119079976Y-121797979D02*
X119118071Y-121721789D01*
X119118071Y-121721789D02*
X119118071Y-121531313D01*
X119118071Y-121531313D02*
X119079976Y-121455122D01*
X119079976Y-121455122D02*
X119041881Y-121417027D01*
X119041881Y-121417027D02*
X118965690Y-121378932D01*
X118965690Y-121378932D02*
X118813309Y-121378932D01*
X118813309Y-121378932D02*
X118737119Y-121417027D01*
X118737119Y-121417027D02*
X118699024Y-121455122D01*
X118699024Y-121455122D02*
X118660928Y-121531313D01*
X120820024Y-113284170D02*
X120820024Y-112484170D01*
X120820024Y-112484170D02*
X121010500Y-112484170D01*
X121010500Y-112484170D02*
X121124786Y-112522265D01*
X121124786Y-112522265D02*
X121200976Y-112598455D01*
X121200976Y-112598455D02*
X121239071Y-112674646D01*
X121239071Y-112674646D02*
X121277167Y-112827027D01*
X121277167Y-112827027D02*
X121277167Y-112941313D01*
X121277167Y-112941313D02*
X121239071Y-113093694D01*
X121239071Y-113093694D02*
X121200976Y-113169884D01*
X121200976Y-113169884D02*
X121124786Y-113246075D01*
X121124786Y-113246075D02*
X121010500Y-113284170D01*
X121010500Y-113284170D02*
X120820024Y-113284170D01*
X122000976Y-112484170D02*
X121620024Y-112484170D01*
X121620024Y-112484170D02*
X121581928Y-112865122D01*
X121581928Y-112865122D02*
X121620024Y-112827027D01*
X121620024Y-112827027D02*
X121696214Y-112788932D01*
X121696214Y-112788932D02*
X121886690Y-112788932D01*
X121886690Y-112788932D02*
X121962881Y-112827027D01*
X121962881Y-112827027D02*
X122000976Y-112865122D01*
X122000976Y-112865122D02*
X122039071Y-112941313D01*
X122039071Y-112941313D02*
X122039071Y-113131789D01*
X122039071Y-113131789D02*
X122000976Y-113207979D01*
X122000976Y-113207979D02*
X121962881Y-113246075D01*
X121962881Y-113246075D02*
X121886690Y-113284170D01*
X121886690Y-113284170D02*
X121696214Y-113284170D01*
X121696214Y-113284170D02*
X121620024Y-113246075D01*
X121620024Y-113246075D02*
X121581928Y-113207979D01*
X118165690Y-113835122D02*
X118279976Y-113873217D01*
X118279976Y-113873217D02*
X118318071Y-113911313D01*
X118318071Y-113911313D02*
X118356167Y-113987503D01*
X118356167Y-113987503D02*
X118356167Y-114101789D01*
X118356167Y-114101789D02*
X118318071Y-114177979D01*
X118318071Y-114177979D02*
X118279976Y-114216075D01*
X118279976Y-114216075D02*
X118203786Y-114254170D01*
X118203786Y-114254170D02*
X117899024Y-114254170D01*
X117899024Y-114254170D02*
X117899024Y-113454170D01*
X117899024Y-113454170D02*
X118165690Y-113454170D01*
X118165690Y-113454170D02*
X118241881Y-113492265D01*
X118241881Y-113492265D02*
X118279976Y-113530360D01*
X118279976Y-113530360D02*
X118318071Y-113606551D01*
X118318071Y-113606551D02*
X118318071Y-113682741D01*
X118318071Y-113682741D02*
X118279976Y-113758932D01*
X118279976Y-113758932D02*
X118241881Y-113797027D01*
X118241881Y-113797027D02*
X118165690Y-113835122D01*
X118165690Y-113835122D02*
X117899024Y-113835122D01*
X119041881Y-113720836D02*
X119041881Y-114254170D01*
X118851405Y-113416075D02*
X118660928Y-113987503D01*
X118660928Y-113987503D02*
X119156167Y-113987503D01*
X117310023Y-112782091D02*
X117407671Y-112738318D01*
X117407671Y-112738318D02*
X117458179Y-112741685D01*
X117458179Y-112741685D02*
X117535624Y-112771990D01*
X117535624Y-112771990D02*
X117616436Y-112852802D01*
X117616436Y-112852802D02*
X117646740Y-112930247D01*
X117646740Y-112930247D02*
X117650108Y-112980755D01*
X117650108Y-112980755D02*
X117629904Y-113054832D01*
X117629904Y-113054832D02*
X117441343Y-113243394D01*
X117441343Y-113243394D02*
X116875657Y-112677709D01*
X116875657Y-112677709D02*
X117040649Y-112512717D01*
X117040649Y-112512717D02*
X117114727Y-112492514D01*
X117114727Y-112492514D02*
X117165234Y-112495881D01*
X117165234Y-112495881D02*
X117242679Y-112526186D01*
X117242679Y-112526186D02*
X117296554Y-112580061D01*
X117296554Y-112580061D02*
X117326859Y-112657506D01*
X117326859Y-112657506D02*
X117330226Y-112708013D01*
X117330226Y-112708013D02*
X117310023Y-112782091D01*
X117310023Y-112782091D02*
X117145031Y-112947083D01*
X117606334Y-111947032D02*
X117370632Y-112182734D01*
X117370632Y-112182734D02*
X117616436Y-112475678D01*
X117616436Y-112475678D02*
X117613069Y-112425171D01*
X117613069Y-112425171D02*
X117633272Y-112351093D01*
X117633272Y-112351093D02*
X117751123Y-112233242D01*
X117751123Y-112233242D02*
X117825201Y-112213039D01*
X117825201Y-112213039D02*
X117875708Y-112216406D01*
X117875708Y-112216406D02*
X117953153Y-112246710D01*
X117953153Y-112246710D02*
X118087840Y-112381397D01*
X118087840Y-112381397D02*
X118118145Y-112458842D01*
X118118145Y-112458842D02*
X118121512Y-112509350D01*
X118121512Y-112509350D02*
X118101309Y-112583428D01*
X118101309Y-112583428D02*
X117983458Y-112701279D01*
X117983458Y-112701279D02*
X117909380Y-112721482D01*
X117909380Y-112721482D02*
X117858872Y-112718115D01*
X118188151Y-138854170D02*
X118645294Y-138854170D01*
X118416722Y-139654170D02*
X118416722Y-138854170D01*
X118835770Y-138854170D02*
X119369104Y-139654170D01*
X119369104Y-138854170D02*
X118835770Y-139654170D01*
X119826247Y-138854170D02*
X119902437Y-138854170D01*
X119902437Y-138854170D02*
X119978628Y-138892265D01*
X119978628Y-138892265D02*
X120016723Y-138930360D01*
X120016723Y-138930360D02*
X120054818Y-139006551D01*
X120054818Y-139006551D02*
X120092913Y-139158932D01*
X120092913Y-139158932D02*
X120092913Y-139349408D01*
X120092913Y-139349408D02*
X120054818Y-139501789D01*
X120054818Y-139501789D02*
X120016723Y-139577979D01*
X120016723Y-139577979D02*
X119978628Y-139616075D01*
X119978628Y-139616075D02*
X119902437Y-139654170D01*
X119902437Y-139654170D02*
X119826247Y-139654170D01*
X119826247Y-139654170D02*
X119750056Y-139616075D01*
X119750056Y-139616075D02*
X119711961Y-139577979D01*
X119711961Y-139577979D02*
X119673866Y-139501789D01*
X119673866Y-139501789D02*
X119635770Y-139349408D01*
X119635770Y-139349408D02*
X119635770Y-139158932D01*
X119635770Y-139158932D02*
X119673866Y-139006551D01*
X119673866Y-139006551D02*
X119711961Y-138930360D01*
X119711961Y-138930360D02*
X119750056Y-138892265D01*
X119750056Y-138892265D02*
X119826247Y-138854170D01*
X121007199Y-138816075D02*
X120321485Y-139844646D01*
X121273866Y-139654170D02*
X121273866Y-138854170D01*
X121273866Y-138854170D02*
X121464342Y-138854170D01*
X121464342Y-138854170D02*
X121578628Y-138892265D01*
X121578628Y-138892265D02*
X121654818Y-138968455D01*
X121654818Y-138968455D02*
X121692913Y-139044646D01*
X121692913Y-139044646D02*
X121731009Y-139197027D01*
X121731009Y-139197027D02*
X121731009Y-139311313D01*
X121731009Y-139311313D02*
X121692913Y-139463694D01*
X121692913Y-139463694D02*
X121654818Y-139539884D01*
X121654818Y-139539884D02*
X121578628Y-139616075D01*
X121578628Y-139616075D02*
X121464342Y-139654170D01*
X121464342Y-139654170D02*
X121273866Y-139654170D01*
X121997675Y-138854170D02*
X122492913Y-138854170D01*
X122492913Y-138854170D02*
X122226247Y-139158932D01*
X122226247Y-139158932D02*
X122340532Y-139158932D01*
X122340532Y-139158932D02*
X122416723Y-139197027D01*
X122416723Y-139197027D02*
X122454818Y-139235122D01*
X122454818Y-139235122D02*
X122492913Y-139311313D01*
X122492913Y-139311313D02*
X122492913Y-139501789D01*
X122492913Y-139501789D02*
X122454818Y-139577979D01*
X122454818Y-139577979D02*
X122416723Y-139616075D01*
X122416723Y-139616075D02*
X122340532Y-139654170D01*
X122340532Y-139654170D02*
X122111961Y-139654170D01*
X122111961Y-139654170D02*
X122035770Y-139616075D01*
X122035770Y-139616075D02*
X121997675Y-139577979D01*
X129087690Y-116375122D02*
X129201976Y-116413217D01*
X129201976Y-116413217D02*
X129240071Y-116451313D01*
X129240071Y-116451313D02*
X129278167Y-116527503D01*
X129278167Y-116527503D02*
X129278167Y-116641789D01*
X129278167Y-116641789D02*
X129240071Y-116717979D01*
X129240071Y-116717979D02*
X129201976Y-116756075D01*
X129201976Y-116756075D02*
X129125786Y-116794170D01*
X129125786Y-116794170D02*
X128821024Y-116794170D01*
X128821024Y-116794170D02*
X128821024Y-115994170D01*
X128821024Y-115994170D02*
X129087690Y-115994170D01*
X129087690Y-115994170D02*
X129163881Y-116032265D01*
X129163881Y-116032265D02*
X129201976Y-116070360D01*
X129201976Y-116070360D02*
X129240071Y-116146551D01*
X129240071Y-116146551D02*
X129240071Y-116222741D01*
X129240071Y-116222741D02*
X129201976Y-116298932D01*
X129201976Y-116298932D02*
X129163881Y-116337027D01*
X129163881Y-116337027D02*
X129087690Y-116375122D01*
X129087690Y-116375122D02*
X128821024Y-116375122D01*
X129544833Y-115994170D02*
X130040071Y-115994170D01*
X130040071Y-115994170D02*
X129773405Y-116298932D01*
X129773405Y-116298932D02*
X129887690Y-116298932D01*
X129887690Y-116298932D02*
X129963881Y-116337027D01*
X129963881Y-116337027D02*
X130001976Y-116375122D01*
X130001976Y-116375122D02*
X130040071Y-116451313D01*
X130040071Y-116451313D02*
X130040071Y-116641789D01*
X130040071Y-116641789D02*
X130001976Y-116717979D01*
X130001976Y-116717979D02*
X129963881Y-116756075D01*
X129963881Y-116756075D02*
X129887690Y-116794170D01*
X129887690Y-116794170D02*
X129659119Y-116794170D01*
X129659119Y-116794170D02*
X129582928Y-116756075D01*
X129582928Y-116756075D02*
X129544833Y-116717979D01*
X129087690Y-113835122D02*
X129201976Y-113873217D01*
X129201976Y-113873217D02*
X129240071Y-113911313D01*
X129240071Y-113911313D02*
X129278167Y-113987503D01*
X129278167Y-113987503D02*
X129278167Y-114101789D01*
X129278167Y-114101789D02*
X129240071Y-114177979D01*
X129240071Y-114177979D02*
X129201976Y-114216075D01*
X129201976Y-114216075D02*
X129125786Y-114254170D01*
X129125786Y-114254170D02*
X128821024Y-114254170D01*
X128821024Y-114254170D02*
X128821024Y-113454170D01*
X128821024Y-113454170D02*
X129087690Y-113454170D01*
X129087690Y-113454170D02*
X129163881Y-113492265D01*
X129163881Y-113492265D02*
X129201976Y-113530360D01*
X129201976Y-113530360D02*
X129240071Y-113606551D01*
X129240071Y-113606551D02*
X129240071Y-113682741D01*
X129240071Y-113682741D02*
X129201976Y-113758932D01*
X129201976Y-113758932D02*
X129163881Y-113797027D01*
X129163881Y-113797027D02*
X129087690Y-113835122D01*
X129087690Y-113835122D02*
X128821024Y-113835122D01*
X129582928Y-113530360D02*
X129621024Y-113492265D01*
X129621024Y-113492265D02*
X129697214Y-113454170D01*
X129697214Y-113454170D02*
X129887690Y-113454170D01*
X129887690Y-113454170D02*
X129963881Y-113492265D01*
X129963881Y-113492265D02*
X130001976Y-113530360D01*
X130001976Y-113530360D02*
X130040071Y-113606551D01*
X130040071Y-113606551D02*
X130040071Y-113682741D01*
X130040071Y-113682741D02*
X130001976Y-113797027D01*
X130001976Y-113797027D02*
X129544833Y-114254170D01*
X129544833Y-114254170D02*
X130040071Y-114254170D01*
X130510716Y-112862351D02*
X130466943Y-112764703D01*
X130466943Y-112764703D02*
X130470310Y-112714195D01*
X130470310Y-112714195D02*
X130500615Y-112636750D01*
X130500615Y-112636750D02*
X130581427Y-112555938D01*
X130581427Y-112555938D02*
X130658872Y-112525634D01*
X130658872Y-112525634D02*
X130709380Y-112522266D01*
X130709380Y-112522266D02*
X130783457Y-112542470D01*
X130783457Y-112542470D02*
X130972019Y-112731031D01*
X130972019Y-112731031D02*
X130406334Y-113296717D01*
X130406334Y-113296717D02*
X130241342Y-113131725D01*
X130241342Y-113131725D02*
X130221139Y-113057647D01*
X130221139Y-113057647D02*
X130224506Y-113007140D01*
X130224506Y-113007140D02*
X130254811Y-112929695D01*
X130254811Y-112929695D02*
X130308686Y-112875820D01*
X130308686Y-112875820D02*
X130386131Y-112845515D01*
X130386131Y-112845515D02*
X130436638Y-112842148D01*
X130436638Y-112842148D02*
X130510716Y-112862351D01*
X130510716Y-112862351D02*
X130675708Y-113027343D01*
X129699227Y-112589610D02*
X129793508Y-112683891D01*
X129793508Y-112683891D02*
X129867586Y-112704094D01*
X129867586Y-112704094D02*
X129918093Y-112700727D01*
X129918093Y-112700727D02*
X130046046Y-112667055D01*
X130046046Y-112667055D02*
X130177366Y-112582876D01*
X130177366Y-112582876D02*
X130392865Y-112367376D01*
X130392865Y-112367376D02*
X130423170Y-112289931D01*
X130423170Y-112289931D02*
X130426537Y-112239424D01*
X130426537Y-112239424D02*
X130406334Y-112165346D01*
X130406334Y-112165346D02*
X130312053Y-112071065D01*
X130312053Y-112071065D02*
X130237975Y-112050862D01*
X130237975Y-112050862D02*
X130187467Y-112054229D01*
X130187467Y-112054229D02*
X130110022Y-112084534D01*
X130110022Y-112084534D02*
X129975335Y-112219221D01*
X129975335Y-112219221D02*
X129945031Y-112296666D01*
X129945031Y-112296666D02*
X129941664Y-112347173D01*
X129941664Y-112347173D02*
X129961867Y-112421251D01*
X129961867Y-112421251D02*
X130056148Y-112515532D01*
X130056148Y-112515532D02*
X130130225Y-112535735D01*
X130130225Y-112535735D02*
X130180733Y-112532368D01*
X130180733Y-112532368D02*
X130258178Y-112502063D01*
X128217167Y-112665122D02*
X127983833Y-112665122D01*
X127983833Y-113084170D02*
X127983833Y-112284170D01*
X127983833Y-112284170D02*
X128317167Y-112284170D01*
X128717167Y-112284170D02*
X128783833Y-112284170D01*
X128783833Y-112284170D02*
X128850500Y-112322265D01*
X128850500Y-112322265D02*
X128883833Y-112360360D01*
X128883833Y-112360360D02*
X128917167Y-112436551D01*
X128917167Y-112436551D02*
X128950500Y-112588932D01*
X128950500Y-112588932D02*
X128950500Y-112779408D01*
X128950500Y-112779408D02*
X128917167Y-112931789D01*
X128917167Y-112931789D02*
X128883833Y-113007979D01*
X128883833Y-113007979D02*
X128850500Y-113046075D01*
X128850500Y-113046075D02*
X128783833Y-113084170D01*
X128783833Y-113084170D02*
X128717167Y-113084170D01*
X128717167Y-113084170D02*
X128650500Y-113046075D01*
X128650500Y-113046075D02*
X128617167Y-113007979D01*
X128617167Y-113007979D02*
X128583833Y-112931789D01*
X128583833Y-112931789D02*
X128550500Y-112779408D01*
X128550500Y-112779408D02*
X128550500Y-112588932D01*
X128550500Y-112588932D02*
X128583833Y-112436551D01*
X128583833Y-112436551D02*
X128617167Y-112360360D01*
X128617167Y-112360360D02*
X128650500Y-112322265D01*
X128650500Y-112322265D02*
X128717167Y-112284170D01*
X117879976Y-133812265D02*
X117803786Y-133774170D01*
X117803786Y-133774170D02*
X117689500Y-133774170D01*
X117689500Y-133774170D02*
X117575214Y-133812265D01*
X117575214Y-133812265D02*
X117499024Y-133888455D01*
X117499024Y-133888455D02*
X117460929Y-133964646D01*
X117460929Y-133964646D02*
X117422833Y-134117027D01*
X117422833Y-134117027D02*
X117422833Y-134231313D01*
X117422833Y-134231313D02*
X117460929Y-134383694D01*
X117460929Y-134383694D02*
X117499024Y-134459884D01*
X117499024Y-134459884D02*
X117575214Y-134536075D01*
X117575214Y-134536075D02*
X117689500Y-134574170D01*
X117689500Y-134574170D02*
X117765691Y-134574170D01*
X117765691Y-134574170D02*
X117879976Y-134536075D01*
X117879976Y-134536075D02*
X117918072Y-134497979D01*
X117918072Y-134497979D02*
X117918072Y-134231313D01*
X117918072Y-134231313D02*
X117765691Y-134231313D01*
X118260929Y-134574170D02*
X118260929Y-133774170D01*
X118260929Y-133774170D02*
X118718072Y-134574170D01*
X118718072Y-134574170D02*
X118718072Y-133774170D01*
X119099024Y-134574170D02*
X119099024Y-133774170D01*
X119099024Y-133774170D02*
X119289500Y-133774170D01*
X119289500Y-133774170D02*
X119403786Y-133812265D01*
X119403786Y-133812265D02*
X119479976Y-133888455D01*
X119479976Y-133888455D02*
X119518071Y-133964646D01*
X119518071Y-133964646D02*
X119556167Y-134117027D01*
X119556167Y-134117027D02*
X119556167Y-134231313D01*
X119556167Y-134231313D02*
X119518071Y-134383694D01*
X119518071Y-134383694D02*
X119479976Y-134459884D01*
X119479976Y-134459884D02*
X119403786Y-134536075D01*
X119403786Y-134536075D02*
X119289500Y-134574170D01*
X119289500Y-134574170D02*
X119099024Y-134574170D01*
X123817167Y-113207979D02*
X123779071Y-113246075D01*
X123779071Y-113246075D02*
X123664786Y-113284170D01*
X123664786Y-113284170D02*
X123588595Y-113284170D01*
X123588595Y-113284170D02*
X123474309Y-113246075D01*
X123474309Y-113246075D02*
X123398119Y-113169884D01*
X123398119Y-113169884D02*
X123360024Y-113093694D01*
X123360024Y-113093694D02*
X123321928Y-112941313D01*
X123321928Y-112941313D02*
X123321928Y-112827027D01*
X123321928Y-112827027D02*
X123360024Y-112674646D01*
X123360024Y-112674646D02*
X123398119Y-112598455D01*
X123398119Y-112598455D02*
X123474309Y-112522265D01*
X123474309Y-112522265D02*
X123588595Y-112484170D01*
X123588595Y-112484170D02*
X123664786Y-112484170D01*
X123664786Y-112484170D02*
X123779071Y-112522265D01*
X123779071Y-112522265D02*
X123817167Y-112560360D01*
X124083833Y-112484170D02*
X124617167Y-112484170D01*
X124617167Y-112484170D02*
X124274309Y-113284170D01*
X117899024Y-126954170D02*
X117899024Y-126154170D01*
X117899024Y-126154170D02*
X118089500Y-126154170D01*
X118089500Y-126154170D02*
X118203786Y-126192265D01*
X118203786Y-126192265D02*
X118279976Y-126268455D01*
X118279976Y-126268455D02*
X118318071Y-126344646D01*
X118318071Y-126344646D02*
X118356167Y-126497027D01*
X118356167Y-126497027D02*
X118356167Y-126611313D01*
X118356167Y-126611313D02*
X118318071Y-126763694D01*
X118318071Y-126763694D02*
X118279976Y-126839884D01*
X118279976Y-126839884D02*
X118203786Y-126916075D01*
X118203786Y-126916075D02*
X118089500Y-126954170D01*
X118089500Y-126954170D02*
X117899024Y-126954170D01*
X118851405Y-126154170D02*
X118927595Y-126154170D01*
X118927595Y-126154170D02*
X119003786Y-126192265D01*
X119003786Y-126192265D02*
X119041881Y-126230360D01*
X119041881Y-126230360D02*
X119079976Y-126306551D01*
X119079976Y-126306551D02*
X119118071Y-126458932D01*
X119118071Y-126458932D02*
X119118071Y-126649408D01*
X119118071Y-126649408D02*
X119079976Y-126801789D01*
X119079976Y-126801789D02*
X119041881Y-126877979D01*
X119041881Y-126877979D02*
X119003786Y-126916075D01*
X119003786Y-126916075D02*
X118927595Y-126954170D01*
X118927595Y-126954170D02*
X118851405Y-126954170D01*
X118851405Y-126954170D02*
X118775214Y-126916075D01*
X118775214Y-126916075D02*
X118737119Y-126877979D01*
X118737119Y-126877979D02*
X118699024Y-126801789D01*
X118699024Y-126801789D02*
X118660928Y-126649408D01*
X118660928Y-126649408D02*
X118660928Y-126458932D01*
X118660928Y-126458932D02*
X118699024Y-126306551D01*
X118699024Y-126306551D02*
X118737119Y-126230360D01*
X118737119Y-126230360D02*
X118775214Y-126192265D01*
X118775214Y-126192265D02*
X118851405Y-126154170D01*
X117899024Y-137114170D02*
X117899024Y-136314170D01*
X117899024Y-136314170D02*
X118089500Y-136314170D01*
X118089500Y-136314170D02*
X118203786Y-136352265D01*
X118203786Y-136352265D02*
X118279976Y-136428455D01*
X118279976Y-136428455D02*
X118318071Y-136504646D01*
X118318071Y-136504646D02*
X118356167Y-136657027D01*
X118356167Y-136657027D02*
X118356167Y-136771313D01*
X118356167Y-136771313D02*
X118318071Y-136923694D01*
X118318071Y-136923694D02*
X118279976Y-136999884D01*
X118279976Y-136999884D02*
X118203786Y-137076075D01*
X118203786Y-137076075D02*
X118089500Y-137114170D01*
X118089500Y-137114170D02*
X117899024Y-137114170D01*
X118660928Y-136390360D02*
X118699024Y-136352265D01*
X118699024Y-136352265D02*
X118775214Y-136314170D01*
X118775214Y-136314170D02*
X118965690Y-136314170D01*
X118965690Y-136314170D02*
X119041881Y-136352265D01*
X119041881Y-136352265D02*
X119079976Y-136390360D01*
X119079976Y-136390360D02*
X119118071Y-136466551D01*
X119118071Y-136466551D02*
X119118071Y-136542741D01*
X119118071Y-136542741D02*
X119079976Y-136657027D01*
X119079976Y-136657027D02*
X118622833Y-137114170D01*
X118622833Y-137114170D02*
X119118071Y-137114170D01*
X128801976Y-136352265D02*
X128725786Y-136314170D01*
X128725786Y-136314170D02*
X128611500Y-136314170D01*
X128611500Y-136314170D02*
X128497214Y-136352265D01*
X128497214Y-136352265D02*
X128421024Y-136428455D01*
X128421024Y-136428455D02*
X128382929Y-136504646D01*
X128382929Y-136504646D02*
X128344833Y-136657027D01*
X128344833Y-136657027D02*
X128344833Y-136771313D01*
X128344833Y-136771313D02*
X128382929Y-136923694D01*
X128382929Y-136923694D02*
X128421024Y-136999884D01*
X128421024Y-136999884D02*
X128497214Y-137076075D01*
X128497214Y-137076075D02*
X128611500Y-137114170D01*
X128611500Y-137114170D02*
X128687691Y-137114170D01*
X128687691Y-137114170D02*
X128801976Y-137076075D01*
X128801976Y-137076075D02*
X128840072Y-137037979D01*
X128840072Y-137037979D02*
X128840072Y-136771313D01*
X128840072Y-136771313D02*
X128687691Y-136771313D01*
X129182929Y-137114170D02*
X129182929Y-136314170D01*
X129182929Y-136314170D02*
X129640072Y-137114170D01*
X129640072Y-137114170D02*
X129640072Y-136314170D01*
X130021024Y-137114170D02*
X130021024Y-136314170D01*
X130021024Y-136314170D02*
X130211500Y-136314170D01*
X130211500Y-136314170D02*
X130325786Y-136352265D01*
X130325786Y-136352265D02*
X130401976Y-136428455D01*
X130401976Y-136428455D02*
X130440071Y-136504646D01*
X130440071Y-136504646D02*
X130478167Y-136657027D01*
X130478167Y-136657027D02*
X130478167Y-136771313D01*
X130478167Y-136771313D02*
X130440071Y-136923694D01*
X130440071Y-136923694D02*
X130401976Y-136999884D01*
X130401976Y-136999884D02*
X130325786Y-137076075D01*
X130325786Y-137076075D02*
X130211500Y-137114170D01*
X130211500Y-137114170D02*
X130021024Y-137114170D01*
X129087690Y-118915122D02*
X129201976Y-118953217D01*
X129201976Y-118953217D02*
X129240071Y-118991313D01*
X129240071Y-118991313D02*
X129278167Y-119067503D01*
X129278167Y-119067503D02*
X129278167Y-119181789D01*
X129278167Y-119181789D02*
X129240071Y-119257979D01*
X129240071Y-119257979D02*
X129201976Y-119296075D01*
X129201976Y-119296075D02*
X129125786Y-119334170D01*
X129125786Y-119334170D02*
X128821024Y-119334170D01*
X128821024Y-119334170D02*
X128821024Y-118534170D01*
X128821024Y-118534170D02*
X129087690Y-118534170D01*
X129087690Y-118534170D02*
X129163881Y-118572265D01*
X129163881Y-118572265D02*
X129201976Y-118610360D01*
X129201976Y-118610360D02*
X129240071Y-118686551D01*
X129240071Y-118686551D02*
X129240071Y-118762741D01*
X129240071Y-118762741D02*
X129201976Y-118838932D01*
X129201976Y-118838932D02*
X129163881Y-118877027D01*
X129163881Y-118877027D02*
X129087690Y-118915122D01*
X129087690Y-118915122D02*
X128821024Y-118915122D01*
X130040071Y-119334170D02*
X129582928Y-119334170D01*
X129811500Y-119334170D02*
X129811500Y-118534170D01*
X129811500Y-118534170D02*
X129735309Y-118648455D01*
X129735309Y-118648455D02*
X129659119Y-118724646D01*
X129659119Y-118724646D02*
X129582928Y-118762741D01*
X129087690Y-139235122D02*
X129201976Y-139273217D01*
X129201976Y-139273217D02*
X129240071Y-139311313D01*
X129240071Y-139311313D02*
X129278167Y-139387503D01*
X129278167Y-139387503D02*
X129278167Y-139501789D01*
X129278167Y-139501789D02*
X129240071Y-139577979D01*
X129240071Y-139577979D02*
X129201976Y-139616075D01*
X129201976Y-139616075D02*
X129125786Y-139654170D01*
X129125786Y-139654170D02*
X128821024Y-139654170D01*
X128821024Y-139654170D02*
X128821024Y-138854170D01*
X128821024Y-138854170D02*
X129087690Y-138854170D01*
X129087690Y-138854170D02*
X129163881Y-138892265D01*
X129163881Y-138892265D02*
X129201976Y-138930360D01*
X129201976Y-138930360D02*
X129240071Y-139006551D01*
X129240071Y-139006551D02*
X129240071Y-139082741D01*
X129240071Y-139082741D02*
X129201976Y-139158932D01*
X129201976Y-139158932D02*
X129163881Y-139197027D01*
X129163881Y-139197027D02*
X129087690Y-139235122D01*
X129087690Y-139235122D02*
X128821024Y-139235122D01*
X129773405Y-138854170D02*
X129849595Y-138854170D01*
X129849595Y-138854170D02*
X129925786Y-138892265D01*
X129925786Y-138892265D02*
X129963881Y-138930360D01*
X129963881Y-138930360D02*
X130001976Y-139006551D01*
X130001976Y-139006551D02*
X130040071Y-139158932D01*
X130040071Y-139158932D02*
X130040071Y-139349408D01*
X130040071Y-139349408D02*
X130001976Y-139501789D01*
X130001976Y-139501789D02*
X129963881Y-139577979D01*
X129963881Y-139577979D02*
X129925786Y-139616075D01*
X129925786Y-139616075D02*
X129849595Y-139654170D01*
X129849595Y-139654170D02*
X129773405Y-139654170D01*
X129773405Y-139654170D02*
X129697214Y-139616075D01*
X129697214Y-139616075D02*
X129659119Y-139577979D01*
X129659119Y-139577979D02*
X129621024Y-139501789D01*
X129621024Y-139501789D02*
X129582928Y-139349408D01*
X129582928Y-139349408D02*
X129582928Y-139158932D01*
X129582928Y-139158932D02*
X129621024Y-139006551D01*
X129621024Y-139006551D02*
X129659119Y-138930360D01*
X129659119Y-138930360D02*
X129697214Y-138892265D01*
X129697214Y-138892265D02*
X129773405Y-138854170D01*
X117899024Y-124414170D02*
X117899024Y-123614170D01*
X117899024Y-123614170D02*
X118089500Y-123614170D01*
X118089500Y-123614170D02*
X118203786Y-123652265D01*
X118203786Y-123652265D02*
X118279976Y-123728455D01*
X118279976Y-123728455D02*
X118318071Y-123804646D01*
X118318071Y-123804646D02*
X118356167Y-123957027D01*
X118356167Y-123957027D02*
X118356167Y-124071313D01*
X118356167Y-124071313D02*
X118318071Y-124223694D01*
X118318071Y-124223694D02*
X118279976Y-124299884D01*
X118279976Y-124299884D02*
X118203786Y-124376075D01*
X118203786Y-124376075D02*
X118089500Y-124414170D01*
X118089500Y-124414170D02*
X117899024Y-124414170D01*
X119041881Y-123880836D02*
X119041881Y-124414170D01*
X118851405Y-123576075D02*
X118660928Y-124147503D01*
X118660928Y-124147503D02*
X119156167Y-124147503D01*
X128344833Y-131234170D02*
X128611500Y-132034170D01*
X128611500Y-132034170D02*
X128878166Y-131234170D01*
X129601976Y-131957979D02*
X129563880Y-131996075D01*
X129563880Y-131996075D02*
X129449595Y-132034170D01*
X129449595Y-132034170D02*
X129373404Y-132034170D01*
X129373404Y-132034170D02*
X129259118Y-131996075D01*
X129259118Y-131996075D02*
X129182928Y-131919884D01*
X129182928Y-131919884D02*
X129144833Y-131843694D01*
X129144833Y-131843694D02*
X129106737Y-131691313D01*
X129106737Y-131691313D02*
X129106737Y-131577027D01*
X129106737Y-131577027D02*
X129144833Y-131424646D01*
X129144833Y-131424646D02*
X129182928Y-131348455D01*
X129182928Y-131348455D02*
X129259118Y-131272265D01*
X129259118Y-131272265D02*
X129373404Y-131234170D01*
X129373404Y-131234170D02*
X129449595Y-131234170D01*
X129449595Y-131234170D02*
X129563880Y-131272265D01*
X129563880Y-131272265D02*
X129601976Y-131310360D01*
X130401976Y-131957979D02*
X130363880Y-131996075D01*
X130363880Y-131996075D02*
X130249595Y-132034170D01*
X130249595Y-132034170D02*
X130173404Y-132034170D01*
X130173404Y-132034170D02*
X130059118Y-131996075D01*
X130059118Y-131996075D02*
X129982928Y-131919884D01*
X129982928Y-131919884D02*
X129944833Y-131843694D01*
X129944833Y-131843694D02*
X129906737Y-131691313D01*
X129906737Y-131691313D02*
X129906737Y-131577027D01*
X129906737Y-131577027D02*
X129944833Y-131424646D01*
X129944833Y-131424646D02*
X129982928Y-131348455D01*
X129982928Y-131348455D02*
X130059118Y-131272265D01*
X130059118Y-131272265D02*
X130173404Y-131234170D01*
X130173404Y-131234170D02*
X130249595Y-131234170D01*
X130249595Y-131234170D02*
X130363880Y-131272265D01*
X130363880Y-131272265D02*
X130401976Y-131310360D01*
X126223833Y-112865122D02*
X125957167Y-112865122D01*
X125957167Y-113284170D02*
X125957167Y-112484170D01*
X125957167Y-112484170D02*
X126338119Y-112484170D01*
X127061928Y-113284170D02*
X126604785Y-113284170D01*
X126833357Y-113284170D02*
X126833357Y-112484170D01*
X126833357Y-112484170D02*
X126757166Y-112598455D01*
X126757166Y-112598455D02*
X126680976Y-112674646D01*
X126680976Y-112674646D02*
X126604785Y-112712741D01*
X117899024Y-129494170D02*
X117899024Y-128694170D01*
X117899024Y-128694170D02*
X118089500Y-128694170D01*
X118089500Y-128694170D02*
X118203786Y-128732265D01*
X118203786Y-128732265D02*
X118279976Y-128808455D01*
X118279976Y-128808455D02*
X118318071Y-128884646D01*
X118318071Y-128884646D02*
X118356167Y-129037027D01*
X118356167Y-129037027D02*
X118356167Y-129151313D01*
X118356167Y-129151313D02*
X118318071Y-129303694D01*
X118318071Y-129303694D02*
X118279976Y-129379884D01*
X118279976Y-129379884D02*
X118203786Y-129456075D01*
X118203786Y-129456075D02*
X118089500Y-129494170D01*
X118089500Y-129494170D02*
X117899024Y-129494170D01*
X119118071Y-129494170D02*
X118660928Y-129494170D01*
X118889500Y-129494170D02*
X118889500Y-128694170D01*
X118889500Y-128694170D02*
X118813309Y-128808455D01*
X118813309Y-128808455D02*
X118737119Y-128884646D01*
X118737119Y-128884646D02*
X118660928Y-128922741D01*
X117937119Y-116375122D02*
X118203785Y-116375122D01*
X118318071Y-116794170D02*
X117937119Y-116794170D01*
X117937119Y-116794170D02*
X117937119Y-115994170D01*
X117937119Y-115994170D02*
X118318071Y-115994170D01*
X119003786Y-115994170D02*
X118851405Y-115994170D01*
X118851405Y-115994170D02*
X118775214Y-116032265D01*
X118775214Y-116032265D02*
X118737119Y-116070360D01*
X118737119Y-116070360D02*
X118660929Y-116184646D01*
X118660929Y-116184646D02*
X118622833Y-116337027D01*
X118622833Y-116337027D02*
X118622833Y-116641789D01*
X118622833Y-116641789D02*
X118660929Y-116717979D01*
X118660929Y-116717979D02*
X118699024Y-116756075D01*
X118699024Y-116756075D02*
X118775214Y-116794170D01*
X118775214Y-116794170D02*
X118927595Y-116794170D01*
X118927595Y-116794170D02*
X119003786Y-116756075D01*
X119003786Y-116756075D02*
X119041881Y-116717979D01*
X119041881Y-116717979D02*
X119079976Y-116641789D01*
X119079976Y-116641789D02*
X119079976Y-116451313D01*
X119079976Y-116451313D02*
X119041881Y-116375122D01*
X119041881Y-116375122D02*
X119003786Y-116337027D01*
X119003786Y-116337027D02*
X118927595Y-116298932D01*
X118927595Y-116298932D02*
X118775214Y-116298932D01*
X118775214Y-116298932D02*
X118699024Y-116337027D01*
X118699024Y-116337027D02*
X118660929Y-116375122D01*
X118660929Y-116375122D02*
X118622833Y-116451313D01*
X128167167Y-58172622D02*
X128267167Y-58210717D01*
X128267167Y-58210717D02*
X128300500Y-58248813D01*
X128300500Y-58248813D02*
X128333833Y-58325003D01*
X128333833Y-58325003D02*
X128333833Y-58439289D01*
X128333833Y-58439289D02*
X128300500Y-58515479D01*
X128300500Y-58515479D02*
X128267167Y-58553575D01*
X128267167Y-58553575D02*
X128200500Y-58591670D01*
X128200500Y-58591670D02*
X127933833Y-58591670D01*
X127933833Y-58591670D02*
X127933833Y-57791670D01*
X127933833Y-57791670D02*
X128167167Y-57791670D01*
X128167167Y-57791670D02*
X128233833Y-57829765D01*
X128233833Y-57829765D02*
X128267167Y-57867860D01*
X128267167Y-57867860D02*
X128300500Y-57944051D01*
X128300500Y-57944051D02*
X128300500Y-58020241D01*
X128300500Y-58020241D02*
X128267167Y-58096432D01*
X128267167Y-58096432D02*
X128233833Y-58134527D01*
X128233833Y-58134527D02*
X128167167Y-58172622D01*
X128167167Y-58172622D02*
X127933833Y-58172622D01*
X128567167Y-57791670D02*
X129033833Y-57791670D01*
X129033833Y-57791670D02*
X128733833Y-58591670D01*
X117879976Y-33799765D02*
X117803786Y-33761670D01*
X117803786Y-33761670D02*
X117689500Y-33761670D01*
X117689500Y-33761670D02*
X117575214Y-33799765D01*
X117575214Y-33799765D02*
X117499024Y-33875955D01*
X117499024Y-33875955D02*
X117460929Y-33952146D01*
X117460929Y-33952146D02*
X117422833Y-34104527D01*
X117422833Y-34104527D02*
X117422833Y-34218813D01*
X117422833Y-34218813D02*
X117460929Y-34371194D01*
X117460929Y-34371194D02*
X117499024Y-34447384D01*
X117499024Y-34447384D02*
X117575214Y-34523575D01*
X117575214Y-34523575D02*
X117689500Y-34561670D01*
X117689500Y-34561670D02*
X117765691Y-34561670D01*
X117765691Y-34561670D02*
X117879976Y-34523575D01*
X117879976Y-34523575D02*
X117918072Y-34485479D01*
X117918072Y-34485479D02*
X117918072Y-34218813D01*
X117918072Y-34218813D02*
X117765691Y-34218813D01*
X118260929Y-34561670D02*
X118260929Y-33761670D01*
X118260929Y-33761670D02*
X118718072Y-34561670D01*
X118718072Y-34561670D02*
X118718072Y-33761670D01*
X119099024Y-34561670D02*
X119099024Y-33761670D01*
X119099024Y-33761670D02*
X119289500Y-33761670D01*
X119289500Y-33761670D02*
X119403786Y-33799765D01*
X119403786Y-33799765D02*
X119479976Y-33875955D01*
X119479976Y-33875955D02*
X119518071Y-33952146D01*
X119518071Y-33952146D02*
X119556167Y-34104527D01*
X119556167Y-34104527D02*
X119556167Y-34218813D01*
X119556167Y-34218813D02*
X119518071Y-34371194D01*
X119518071Y-34371194D02*
X119479976Y-34447384D01*
X119479976Y-34447384D02*
X119403786Y-34523575D01*
X119403786Y-34523575D02*
X119289500Y-34561670D01*
X119289500Y-34561670D02*
X119099024Y-34561670D01*
X128821024Y-47261670D02*
X128821024Y-46461670D01*
X128821024Y-46461670D02*
X129011500Y-46461670D01*
X129011500Y-46461670D02*
X129125786Y-46499765D01*
X129125786Y-46499765D02*
X129201976Y-46575955D01*
X129201976Y-46575955D02*
X129240071Y-46652146D01*
X129240071Y-46652146D02*
X129278167Y-46804527D01*
X129278167Y-46804527D02*
X129278167Y-46918813D01*
X129278167Y-46918813D02*
X129240071Y-47071194D01*
X129240071Y-47071194D02*
X129201976Y-47147384D01*
X129201976Y-47147384D02*
X129125786Y-47223575D01*
X129125786Y-47223575D02*
X129011500Y-47261670D01*
X129011500Y-47261670D02*
X128821024Y-47261670D01*
X129963881Y-46728336D02*
X129963881Y-47261670D01*
X129773405Y-46423575D02*
X129582928Y-46995003D01*
X129582928Y-46995003D02*
X130078167Y-46995003D01*
X128821024Y-44721670D02*
X128821024Y-43921670D01*
X128821024Y-43921670D02*
X129011500Y-43921670D01*
X129011500Y-43921670D02*
X129125786Y-43959765D01*
X129125786Y-43959765D02*
X129201976Y-44035955D01*
X129201976Y-44035955D02*
X129240071Y-44112146D01*
X129240071Y-44112146D02*
X129278167Y-44264527D01*
X129278167Y-44264527D02*
X129278167Y-44378813D01*
X129278167Y-44378813D02*
X129240071Y-44531194D01*
X129240071Y-44531194D02*
X129201976Y-44607384D01*
X129201976Y-44607384D02*
X129125786Y-44683575D01*
X129125786Y-44683575D02*
X129011500Y-44721670D01*
X129011500Y-44721670D02*
X128821024Y-44721670D01*
X129773405Y-43921670D02*
X129849595Y-43921670D01*
X129849595Y-43921670D02*
X129925786Y-43959765D01*
X129925786Y-43959765D02*
X129963881Y-43997860D01*
X129963881Y-43997860D02*
X130001976Y-44074051D01*
X130001976Y-44074051D02*
X130040071Y-44226432D01*
X130040071Y-44226432D02*
X130040071Y-44416908D01*
X130040071Y-44416908D02*
X130001976Y-44569289D01*
X130001976Y-44569289D02*
X129963881Y-44645479D01*
X129963881Y-44645479D02*
X129925786Y-44683575D01*
X129925786Y-44683575D02*
X129849595Y-44721670D01*
X129849595Y-44721670D02*
X129773405Y-44721670D01*
X129773405Y-44721670D02*
X129697214Y-44683575D01*
X129697214Y-44683575D02*
X129659119Y-44645479D01*
X129659119Y-44645479D02*
X129621024Y-44569289D01*
X129621024Y-44569289D02*
X129582928Y-44416908D01*
X129582928Y-44416908D02*
X129582928Y-44226432D01*
X129582928Y-44226432D02*
X129621024Y-44074051D01*
X129621024Y-44074051D02*
X129659119Y-43997860D01*
X129659119Y-43997860D02*
X129697214Y-43959765D01*
X129697214Y-43959765D02*
X129773405Y-43921670D01*
X117422833Y-38841670D02*
X117689500Y-39641670D01*
X117689500Y-39641670D02*
X117956166Y-38841670D01*
X118679976Y-39565479D02*
X118641880Y-39603575D01*
X118641880Y-39603575D02*
X118527595Y-39641670D01*
X118527595Y-39641670D02*
X118451404Y-39641670D01*
X118451404Y-39641670D02*
X118337118Y-39603575D01*
X118337118Y-39603575D02*
X118260928Y-39527384D01*
X118260928Y-39527384D02*
X118222833Y-39451194D01*
X118222833Y-39451194D02*
X118184737Y-39298813D01*
X118184737Y-39298813D02*
X118184737Y-39184527D01*
X118184737Y-39184527D02*
X118222833Y-39032146D01*
X118222833Y-39032146D02*
X118260928Y-38955955D01*
X118260928Y-38955955D02*
X118337118Y-38879765D01*
X118337118Y-38879765D02*
X118451404Y-38841670D01*
X118451404Y-38841670D02*
X118527595Y-38841670D01*
X118527595Y-38841670D02*
X118641880Y-38879765D01*
X118641880Y-38879765D02*
X118679976Y-38917860D01*
X119479976Y-39565479D02*
X119441880Y-39603575D01*
X119441880Y-39603575D02*
X119327595Y-39641670D01*
X119327595Y-39641670D02*
X119251404Y-39641670D01*
X119251404Y-39641670D02*
X119137118Y-39603575D01*
X119137118Y-39603575D02*
X119060928Y-39527384D01*
X119060928Y-39527384D02*
X119022833Y-39451194D01*
X119022833Y-39451194D02*
X118984737Y-39298813D01*
X118984737Y-39298813D02*
X118984737Y-39184527D01*
X118984737Y-39184527D02*
X119022833Y-39032146D01*
X119022833Y-39032146D02*
X119060928Y-38955955D01*
X119060928Y-38955955D02*
X119137118Y-38879765D01*
X119137118Y-38879765D02*
X119251404Y-38841670D01*
X119251404Y-38841670D02*
X119327595Y-38841670D01*
X119327595Y-38841670D02*
X119441880Y-38879765D01*
X119441880Y-38879765D02*
X119479976Y-38917860D01*
X118377166Y-37043575D02*
X118491452Y-37081670D01*
X118491452Y-37081670D02*
X118681928Y-37081670D01*
X118681928Y-37081670D02*
X118758119Y-37043575D01*
X118758119Y-37043575D02*
X118796214Y-37005479D01*
X118796214Y-37005479D02*
X118834309Y-36929289D01*
X118834309Y-36929289D02*
X118834309Y-36853098D01*
X118834309Y-36853098D02*
X118796214Y-36776908D01*
X118796214Y-36776908D02*
X118758119Y-36738813D01*
X118758119Y-36738813D02*
X118681928Y-36700717D01*
X118681928Y-36700717D02*
X118529547Y-36662622D01*
X118529547Y-36662622D02*
X118453357Y-36624527D01*
X118453357Y-36624527D02*
X118415262Y-36586432D01*
X118415262Y-36586432D02*
X118377166Y-36510241D01*
X118377166Y-36510241D02*
X118377166Y-36434051D01*
X118377166Y-36434051D02*
X118415262Y-36357860D01*
X118415262Y-36357860D02*
X118453357Y-36319765D01*
X118453357Y-36319765D02*
X118529547Y-36281670D01*
X118529547Y-36281670D02*
X118720024Y-36281670D01*
X118720024Y-36281670D02*
X118834309Y-36319765D01*
X119062881Y-36281670D02*
X119520024Y-36281670D01*
X119291452Y-37081670D02*
X119291452Y-36281670D01*
X130110023Y-58489591D02*
X130207671Y-58445818D01*
X130207671Y-58445818D02*
X130258179Y-58449185D01*
X130258179Y-58449185D02*
X130335624Y-58479490D01*
X130335624Y-58479490D02*
X130416436Y-58560302D01*
X130416436Y-58560302D02*
X130446740Y-58637747D01*
X130446740Y-58637747D02*
X130450108Y-58688255D01*
X130450108Y-58688255D02*
X130429904Y-58762332D01*
X130429904Y-58762332D02*
X130241343Y-58950894D01*
X130241343Y-58950894D02*
X129675657Y-58385209D01*
X129675657Y-58385209D02*
X129840649Y-58220217D01*
X129840649Y-58220217D02*
X129914727Y-58200014D01*
X129914727Y-58200014D02*
X129965234Y-58203381D01*
X129965234Y-58203381D02*
X130042679Y-58233686D01*
X130042679Y-58233686D02*
X130096554Y-58287561D01*
X130096554Y-58287561D02*
X130126859Y-58365006D01*
X130126859Y-58365006D02*
X130130226Y-58415513D01*
X130130226Y-58415513D02*
X130110023Y-58489591D01*
X130110023Y-58489591D02*
X129945031Y-58654583D01*
X130406334Y-57654532D02*
X130170632Y-57890234D01*
X130170632Y-57890234D02*
X130416436Y-58183178D01*
X130416436Y-58183178D02*
X130413069Y-58132671D01*
X130413069Y-58132671D02*
X130433272Y-58058593D01*
X130433272Y-58058593D02*
X130551123Y-57940742D01*
X130551123Y-57940742D02*
X130625201Y-57920539D01*
X130625201Y-57920539D02*
X130675708Y-57923906D01*
X130675708Y-57923906D02*
X130753153Y-57954210D01*
X130753153Y-57954210D02*
X130887840Y-58088897D01*
X130887840Y-58088897D02*
X130918145Y-58166342D01*
X130918145Y-58166342D02*
X130921512Y-58216850D01*
X130921512Y-58216850D02*
X130901309Y-58290928D01*
X130901309Y-58290928D02*
X130783458Y-58408779D01*
X130783458Y-58408779D02*
X130709380Y-58428982D01*
X130709380Y-58428982D02*
X130658872Y-58425615D01*
X119217167Y-58172622D02*
X118983833Y-58172622D01*
X118983833Y-58591670D02*
X118983833Y-57791670D01*
X118983833Y-57791670D02*
X119317167Y-57791670D01*
X119717167Y-57791670D02*
X119783833Y-57791670D01*
X119783833Y-57791670D02*
X119850500Y-57829765D01*
X119850500Y-57829765D02*
X119883833Y-57867860D01*
X119883833Y-57867860D02*
X119917167Y-57944051D01*
X119917167Y-57944051D02*
X119950500Y-58096432D01*
X119950500Y-58096432D02*
X119950500Y-58286908D01*
X119950500Y-58286908D02*
X119917167Y-58439289D01*
X119917167Y-58439289D02*
X119883833Y-58515479D01*
X119883833Y-58515479D02*
X119850500Y-58553575D01*
X119850500Y-58553575D02*
X119783833Y-58591670D01*
X119783833Y-58591670D02*
X119717167Y-58591670D01*
X119717167Y-58591670D02*
X119650500Y-58553575D01*
X119650500Y-58553575D02*
X119617167Y-58515479D01*
X119617167Y-58515479D02*
X119583833Y-58439289D01*
X119583833Y-58439289D02*
X119550500Y-58286908D01*
X119550500Y-58286908D02*
X119550500Y-58096432D01*
X119550500Y-58096432D02*
X119583833Y-57944051D01*
X119583833Y-57944051D02*
X119617167Y-57867860D01*
X119617167Y-57867860D02*
X119650500Y-57829765D01*
X119650500Y-57829765D02*
X119717167Y-57791670D01*
X125331895Y-31221670D02*
X125789038Y-31221670D01*
X125560466Y-32021670D02*
X125560466Y-31221670D01*
X125979514Y-31221670D02*
X126512848Y-32021670D01*
X126512848Y-31221670D02*
X125979514Y-32021670D01*
X126969991Y-31221670D02*
X127046181Y-31221670D01*
X127046181Y-31221670D02*
X127122372Y-31259765D01*
X127122372Y-31259765D02*
X127160467Y-31297860D01*
X127160467Y-31297860D02*
X127198562Y-31374051D01*
X127198562Y-31374051D02*
X127236657Y-31526432D01*
X127236657Y-31526432D02*
X127236657Y-31716908D01*
X127236657Y-31716908D02*
X127198562Y-31869289D01*
X127198562Y-31869289D02*
X127160467Y-31945479D01*
X127160467Y-31945479D02*
X127122372Y-31983575D01*
X127122372Y-31983575D02*
X127046181Y-32021670D01*
X127046181Y-32021670D02*
X126969991Y-32021670D01*
X126969991Y-32021670D02*
X126893800Y-31983575D01*
X126893800Y-31983575D02*
X126855705Y-31945479D01*
X126855705Y-31945479D02*
X126817610Y-31869289D01*
X126817610Y-31869289D02*
X126779514Y-31716908D01*
X126779514Y-31716908D02*
X126779514Y-31526432D01*
X126779514Y-31526432D02*
X126817610Y-31374051D01*
X126817610Y-31374051D02*
X126855705Y-31297860D01*
X126855705Y-31297860D02*
X126893800Y-31259765D01*
X126893800Y-31259765D02*
X126969991Y-31221670D01*
X128150943Y-31183575D02*
X127465229Y-32212146D01*
X128417610Y-32021670D02*
X128417610Y-31221670D01*
X128417610Y-31221670D02*
X128608086Y-31221670D01*
X128608086Y-31221670D02*
X128722372Y-31259765D01*
X128722372Y-31259765D02*
X128798562Y-31335955D01*
X128798562Y-31335955D02*
X128836657Y-31412146D01*
X128836657Y-31412146D02*
X128874753Y-31564527D01*
X128874753Y-31564527D02*
X128874753Y-31678813D01*
X128874753Y-31678813D02*
X128836657Y-31831194D01*
X128836657Y-31831194D02*
X128798562Y-31907384D01*
X128798562Y-31907384D02*
X128722372Y-31983575D01*
X128722372Y-31983575D02*
X128608086Y-32021670D01*
X128608086Y-32021670D02*
X128417610Y-32021670D01*
X129141419Y-31221670D02*
X129636657Y-31221670D01*
X129636657Y-31221670D02*
X129369991Y-31526432D01*
X129369991Y-31526432D02*
X129484276Y-31526432D01*
X129484276Y-31526432D02*
X129560467Y-31564527D01*
X129560467Y-31564527D02*
X129598562Y-31602622D01*
X129598562Y-31602622D02*
X129636657Y-31678813D01*
X129636657Y-31678813D02*
X129636657Y-31869289D01*
X129636657Y-31869289D02*
X129598562Y-31945479D01*
X129598562Y-31945479D02*
X129560467Y-31983575D01*
X129560467Y-31983575D02*
X129484276Y-32021670D01*
X129484276Y-32021670D02*
X129255705Y-32021670D01*
X129255705Y-32021670D02*
X129179514Y-31983575D01*
X129179514Y-31983575D02*
X129141419Y-31945479D01*
X123817167Y-58315479D02*
X123779071Y-58353575D01*
X123779071Y-58353575D02*
X123664786Y-58391670D01*
X123664786Y-58391670D02*
X123588595Y-58391670D01*
X123588595Y-58391670D02*
X123474309Y-58353575D01*
X123474309Y-58353575D02*
X123398119Y-58277384D01*
X123398119Y-58277384D02*
X123360024Y-58201194D01*
X123360024Y-58201194D02*
X123321928Y-58048813D01*
X123321928Y-58048813D02*
X123321928Y-57934527D01*
X123321928Y-57934527D02*
X123360024Y-57782146D01*
X123360024Y-57782146D02*
X123398119Y-57705955D01*
X123398119Y-57705955D02*
X123474309Y-57629765D01*
X123474309Y-57629765D02*
X123588595Y-57591670D01*
X123588595Y-57591670D02*
X123664786Y-57591670D01*
X123664786Y-57591670D02*
X123779071Y-57629765D01*
X123779071Y-57629765D02*
X123817167Y-57667860D01*
X124083833Y-57591670D02*
X124617167Y-57591670D01*
X124617167Y-57591670D02*
X124274309Y-58391670D01*
X118222833Y-41762622D02*
X117956167Y-41762622D01*
X117956167Y-42181670D02*
X117956167Y-41381670D01*
X117956167Y-41381670D02*
X118337119Y-41381670D01*
X118984738Y-41648336D02*
X118984738Y-42181670D01*
X118794262Y-41343575D02*
X118603785Y-41915003D01*
X118603785Y-41915003D02*
X119099024Y-41915003D01*
X128821024Y-52341670D02*
X128821024Y-51541670D01*
X128821024Y-51541670D02*
X129011500Y-51541670D01*
X129011500Y-51541670D02*
X129125786Y-51579765D01*
X129125786Y-51579765D02*
X129201976Y-51655955D01*
X129201976Y-51655955D02*
X129240071Y-51732146D01*
X129240071Y-51732146D02*
X129278167Y-51884527D01*
X129278167Y-51884527D02*
X129278167Y-51998813D01*
X129278167Y-51998813D02*
X129240071Y-52151194D01*
X129240071Y-52151194D02*
X129201976Y-52227384D01*
X129201976Y-52227384D02*
X129125786Y-52303575D01*
X129125786Y-52303575D02*
X129011500Y-52341670D01*
X129011500Y-52341670D02*
X128821024Y-52341670D01*
X129544833Y-51541670D02*
X130078167Y-51541670D01*
X130078167Y-51541670D02*
X129735309Y-52341670D01*
X128801976Y-38879765D02*
X128725786Y-38841670D01*
X128725786Y-38841670D02*
X128611500Y-38841670D01*
X128611500Y-38841670D02*
X128497214Y-38879765D01*
X128497214Y-38879765D02*
X128421024Y-38955955D01*
X128421024Y-38955955D02*
X128382929Y-39032146D01*
X128382929Y-39032146D02*
X128344833Y-39184527D01*
X128344833Y-39184527D02*
X128344833Y-39298813D01*
X128344833Y-39298813D02*
X128382929Y-39451194D01*
X128382929Y-39451194D02*
X128421024Y-39527384D01*
X128421024Y-39527384D02*
X128497214Y-39603575D01*
X128497214Y-39603575D02*
X128611500Y-39641670D01*
X128611500Y-39641670D02*
X128687691Y-39641670D01*
X128687691Y-39641670D02*
X128801976Y-39603575D01*
X128801976Y-39603575D02*
X128840072Y-39565479D01*
X128840072Y-39565479D02*
X128840072Y-39298813D01*
X128840072Y-39298813D02*
X128687691Y-39298813D01*
X129182929Y-39641670D02*
X129182929Y-38841670D01*
X129182929Y-38841670D02*
X129640072Y-39641670D01*
X129640072Y-39641670D02*
X129640072Y-38841670D01*
X130021024Y-39641670D02*
X130021024Y-38841670D01*
X130021024Y-38841670D02*
X130211500Y-38841670D01*
X130211500Y-38841670D02*
X130325786Y-38879765D01*
X130325786Y-38879765D02*
X130401976Y-38955955D01*
X130401976Y-38955955D02*
X130440071Y-39032146D01*
X130440071Y-39032146D02*
X130478167Y-39184527D01*
X130478167Y-39184527D02*
X130478167Y-39298813D01*
X130478167Y-39298813D02*
X130440071Y-39451194D01*
X130440071Y-39451194D02*
X130401976Y-39527384D01*
X130401976Y-39527384D02*
X130325786Y-39603575D01*
X130325786Y-39603575D02*
X130211500Y-39641670D01*
X130211500Y-39641670D02*
X130021024Y-39641670D01*
X125900024Y-58391670D02*
X125900024Y-57591670D01*
X125900024Y-57591670D02*
X126090500Y-57591670D01*
X126090500Y-57591670D02*
X126204786Y-57629765D01*
X126204786Y-57629765D02*
X126280976Y-57705955D01*
X126280976Y-57705955D02*
X126319071Y-57782146D01*
X126319071Y-57782146D02*
X126357167Y-57934527D01*
X126357167Y-57934527D02*
X126357167Y-58048813D01*
X126357167Y-58048813D02*
X126319071Y-58201194D01*
X126319071Y-58201194D02*
X126280976Y-58277384D01*
X126280976Y-58277384D02*
X126204786Y-58353575D01*
X126204786Y-58353575D02*
X126090500Y-58391670D01*
X126090500Y-58391670D02*
X125900024Y-58391670D01*
X127080976Y-57591670D02*
X126700024Y-57591670D01*
X126700024Y-57591670D02*
X126661928Y-57972622D01*
X126661928Y-57972622D02*
X126700024Y-57934527D01*
X126700024Y-57934527D02*
X126776214Y-57896432D01*
X126776214Y-57896432D02*
X126966690Y-57896432D01*
X126966690Y-57896432D02*
X127042881Y-57934527D01*
X127042881Y-57934527D02*
X127080976Y-57972622D01*
X127080976Y-57972622D02*
X127119071Y-58048813D01*
X127119071Y-58048813D02*
X127119071Y-58239289D01*
X127119071Y-58239289D02*
X127080976Y-58315479D01*
X127080976Y-58315479D02*
X127042881Y-58353575D01*
X127042881Y-58353575D02*
X126966690Y-58391670D01*
X126966690Y-58391670D02*
X126776214Y-58391670D01*
X126776214Y-58391670D02*
X126700024Y-58353575D01*
X126700024Y-58353575D02*
X126661928Y-58315479D01*
X118165690Y-54462622D02*
X118279976Y-54500717D01*
X118279976Y-54500717D02*
X118318071Y-54538813D01*
X118318071Y-54538813D02*
X118356167Y-54615003D01*
X118356167Y-54615003D02*
X118356167Y-54729289D01*
X118356167Y-54729289D02*
X118318071Y-54805479D01*
X118318071Y-54805479D02*
X118279976Y-54843575D01*
X118279976Y-54843575D02*
X118203786Y-54881670D01*
X118203786Y-54881670D02*
X117899024Y-54881670D01*
X117899024Y-54881670D02*
X117899024Y-54081670D01*
X117899024Y-54081670D02*
X118165690Y-54081670D01*
X118165690Y-54081670D02*
X118241881Y-54119765D01*
X118241881Y-54119765D02*
X118279976Y-54157860D01*
X118279976Y-54157860D02*
X118318071Y-54234051D01*
X118318071Y-54234051D02*
X118318071Y-54310241D01*
X118318071Y-54310241D02*
X118279976Y-54386432D01*
X118279976Y-54386432D02*
X118241881Y-54424527D01*
X118241881Y-54424527D02*
X118165690Y-54462622D01*
X118165690Y-54462622D02*
X117899024Y-54462622D01*
X118622833Y-54081670D02*
X119118071Y-54081670D01*
X119118071Y-54081670D02*
X118851405Y-54386432D01*
X118851405Y-54386432D02*
X118965690Y-54386432D01*
X118965690Y-54386432D02*
X119041881Y-54424527D01*
X119041881Y-54424527D02*
X119079976Y-54462622D01*
X119079976Y-54462622D02*
X119118071Y-54538813D01*
X119118071Y-54538813D02*
X119118071Y-54729289D01*
X119118071Y-54729289D02*
X119079976Y-54805479D01*
X119079976Y-54805479D02*
X119041881Y-54843575D01*
X119041881Y-54843575D02*
X118965690Y-54881670D01*
X118965690Y-54881670D02*
X118737119Y-54881670D01*
X118737119Y-54881670D02*
X118660928Y-54843575D01*
X118660928Y-54843575D02*
X118622833Y-54805479D01*
X128821024Y-34561670D02*
X128821024Y-33761670D01*
X128821024Y-33761670D02*
X129011500Y-33761670D01*
X129011500Y-33761670D02*
X129125786Y-33799765D01*
X129125786Y-33799765D02*
X129201976Y-33875955D01*
X129201976Y-33875955D02*
X129240071Y-33952146D01*
X129240071Y-33952146D02*
X129278167Y-34104527D01*
X129278167Y-34104527D02*
X129278167Y-34218813D01*
X129278167Y-34218813D02*
X129240071Y-34371194D01*
X129240071Y-34371194D02*
X129201976Y-34447384D01*
X129201976Y-34447384D02*
X129125786Y-34523575D01*
X129125786Y-34523575D02*
X129011500Y-34561670D01*
X129011500Y-34561670D02*
X128821024Y-34561670D01*
X129582928Y-33837860D02*
X129621024Y-33799765D01*
X129621024Y-33799765D02*
X129697214Y-33761670D01*
X129697214Y-33761670D02*
X129887690Y-33761670D01*
X129887690Y-33761670D02*
X129963881Y-33799765D01*
X129963881Y-33799765D02*
X130001976Y-33837860D01*
X130001976Y-33837860D02*
X130040071Y-33914051D01*
X130040071Y-33914051D02*
X130040071Y-33990241D01*
X130040071Y-33990241D02*
X130001976Y-34104527D01*
X130001976Y-34104527D02*
X129544833Y-34561670D01*
X129544833Y-34561670D02*
X130040071Y-34561670D01*
X121143833Y-57972622D02*
X120877167Y-57972622D01*
X120877167Y-58391670D02*
X120877167Y-57591670D01*
X120877167Y-57591670D02*
X121258119Y-57591670D01*
X121981928Y-58391670D02*
X121524785Y-58391670D01*
X121753357Y-58391670D02*
X121753357Y-57591670D01*
X121753357Y-57591670D02*
X121677166Y-57705955D01*
X121677166Y-57705955D02*
X121600976Y-57782146D01*
X121600976Y-57782146D02*
X121524785Y-57820241D01*
X129278167Y-49725479D02*
X129240071Y-49763575D01*
X129240071Y-49763575D02*
X129125786Y-49801670D01*
X129125786Y-49801670D02*
X129049595Y-49801670D01*
X129049595Y-49801670D02*
X128935309Y-49763575D01*
X128935309Y-49763575D02*
X128859119Y-49687384D01*
X128859119Y-49687384D02*
X128821024Y-49611194D01*
X128821024Y-49611194D02*
X128782928Y-49458813D01*
X128782928Y-49458813D02*
X128782928Y-49344527D01*
X128782928Y-49344527D02*
X128821024Y-49192146D01*
X128821024Y-49192146D02*
X128859119Y-49115955D01*
X128859119Y-49115955D02*
X128935309Y-49039765D01*
X128935309Y-49039765D02*
X129049595Y-49001670D01*
X129049595Y-49001670D02*
X129125786Y-49001670D01*
X129125786Y-49001670D02*
X129240071Y-49039765D01*
X129240071Y-49039765D02*
X129278167Y-49077860D01*
X129963881Y-49001670D02*
X129811500Y-49001670D01*
X129811500Y-49001670D02*
X129735309Y-49039765D01*
X129735309Y-49039765D02*
X129697214Y-49077860D01*
X129697214Y-49077860D02*
X129621024Y-49192146D01*
X129621024Y-49192146D02*
X129582928Y-49344527D01*
X129582928Y-49344527D02*
X129582928Y-49649289D01*
X129582928Y-49649289D02*
X129621024Y-49725479D01*
X129621024Y-49725479D02*
X129659119Y-49763575D01*
X129659119Y-49763575D02*
X129735309Y-49801670D01*
X129735309Y-49801670D02*
X129887690Y-49801670D01*
X129887690Y-49801670D02*
X129963881Y-49763575D01*
X129963881Y-49763575D02*
X130001976Y-49725479D01*
X130001976Y-49725479D02*
X130040071Y-49649289D01*
X130040071Y-49649289D02*
X130040071Y-49458813D01*
X130040071Y-49458813D02*
X130001976Y-49382622D01*
X130001976Y-49382622D02*
X129963881Y-49344527D01*
X129963881Y-49344527D02*
X129887690Y-49306432D01*
X129887690Y-49306432D02*
X129735309Y-49306432D01*
X129735309Y-49306432D02*
X129659119Y-49344527D01*
X129659119Y-49344527D02*
X129621024Y-49382622D01*
X129621024Y-49382622D02*
X129582928Y-49458813D01*
X118165690Y-31602622D02*
X118279976Y-31640717D01*
X118279976Y-31640717D02*
X118318071Y-31678813D01*
X118318071Y-31678813D02*
X118356167Y-31755003D01*
X118356167Y-31755003D02*
X118356167Y-31869289D01*
X118356167Y-31869289D02*
X118318071Y-31945479D01*
X118318071Y-31945479D02*
X118279976Y-31983575D01*
X118279976Y-31983575D02*
X118203786Y-32021670D01*
X118203786Y-32021670D02*
X117899024Y-32021670D01*
X117899024Y-32021670D02*
X117899024Y-31221670D01*
X117899024Y-31221670D02*
X118165690Y-31221670D01*
X118165690Y-31221670D02*
X118241881Y-31259765D01*
X118241881Y-31259765D02*
X118279976Y-31297860D01*
X118279976Y-31297860D02*
X118318071Y-31374051D01*
X118318071Y-31374051D02*
X118318071Y-31450241D01*
X118318071Y-31450241D02*
X118279976Y-31526432D01*
X118279976Y-31526432D02*
X118241881Y-31564527D01*
X118241881Y-31564527D02*
X118165690Y-31602622D01*
X118165690Y-31602622D02*
X117899024Y-31602622D01*
X118851405Y-31221670D02*
X118927595Y-31221670D01*
X118927595Y-31221670D02*
X119003786Y-31259765D01*
X119003786Y-31259765D02*
X119041881Y-31297860D01*
X119041881Y-31297860D02*
X119079976Y-31374051D01*
X119079976Y-31374051D02*
X119118071Y-31526432D01*
X119118071Y-31526432D02*
X119118071Y-31716908D01*
X119118071Y-31716908D02*
X119079976Y-31869289D01*
X119079976Y-31869289D02*
X119041881Y-31945479D01*
X119041881Y-31945479D02*
X119003786Y-31983575D01*
X119003786Y-31983575D02*
X118927595Y-32021670D01*
X118927595Y-32021670D02*
X118851405Y-32021670D01*
X118851405Y-32021670D02*
X118775214Y-31983575D01*
X118775214Y-31983575D02*
X118737119Y-31945479D01*
X118737119Y-31945479D02*
X118699024Y-31869289D01*
X118699024Y-31869289D02*
X118660928Y-31716908D01*
X118660928Y-31716908D02*
X118660928Y-31526432D01*
X118660928Y-31526432D02*
X118699024Y-31374051D01*
X118699024Y-31374051D02*
X118737119Y-31297860D01*
X118737119Y-31297860D02*
X118775214Y-31259765D01*
X118775214Y-31259765D02*
X118851405Y-31221670D01*
X129087690Y-57002622D02*
X129201976Y-57040717D01*
X129201976Y-57040717D02*
X129240071Y-57078813D01*
X129240071Y-57078813D02*
X129278167Y-57155003D01*
X129278167Y-57155003D02*
X129278167Y-57269289D01*
X129278167Y-57269289D02*
X129240071Y-57345479D01*
X129240071Y-57345479D02*
X129201976Y-57383575D01*
X129201976Y-57383575D02*
X129125786Y-57421670D01*
X129125786Y-57421670D02*
X128821024Y-57421670D01*
X128821024Y-57421670D02*
X128821024Y-56621670D01*
X128821024Y-56621670D02*
X129087690Y-56621670D01*
X129087690Y-56621670D02*
X129163881Y-56659765D01*
X129163881Y-56659765D02*
X129201976Y-56697860D01*
X129201976Y-56697860D02*
X129240071Y-56774051D01*
X129240071Y-56774051D02*
X129240071Y-56850241D01*
X129240071Y-56850241D02*
X129201976Y-56926432D01*
X129201976Y-56926432D02*
X129163881Y-56964527D01*
X129163881Y-56964527D02*
X129087690Y-57002622D01*
X129087690Y-57002622D02*
X128821024Y-57002622D01*
X129963881Y-56888336D02*
X129963881Y-57421670D01*
X129773405Y-56583575D02*
X129582928Y-57155003D01*
X129582928Y-57155003D02*
X130078167Y-57155003D01*
X118165690Y-57002622D02*
X118279976Y-57040717D01*
X118279976Y-57040717D02*
X118318071Y-57078813D01*
X118318071Y-57078813D02*
X118356167Y-57155003D01*
X118356167Y-57155003D02*
X118356167Y-57269289D01*
X118356167Y-57269289D02*
X118318071Y-57345479D01*
X118318071Y-57345479D02*
X118279976Y-57383575D01*
X118279976Y-57383575D02*
X118203786Y-57421670D01*
X118203786Y-57421670D02*
X117899024Y-57421670D01*
X117899024Y-57421670D02*
X117899024Y-56621670D01*
X117899024Y-56621670D02*
X118165690Y-56621670D01*
X118165690Y-56621670D02*
X118241881Y-56659765D01*
X118241881Y-56659765D02*
X118279976Y-56697860D01*
X118279976Y-56697860D02*
X118318071Y-56774051D01*
X118318071Y-56774051D02*
X118318071Y-56850241D01*
X118318071Y-56850241D02*
X118279976Y-56926432D01*
X118279976Y-56926432D02*
X118241881Y-56964527D01*
X118241881Y-56964527D02*
X118165690Y-57002622D01*
X118165690Y-57002622D02*
X117899024Y-57002622D01*
X118660928Y-56697860D02*
X118699024Y-56659765D01*
X118699024Y-56659765D02*
X118775214Y-56621670D01*
X118775214Y-56621670D02*
X118965690Y-56621670D01*
X118965690Y-56621670D02*
X119041881Y-56659765D01*
X119041881Y-56659765D02*
X119079976Y-56697860D01*
X119079976Y-56697860D02*
X119118071Y-56774051D01*
X119118071Y-56774051D02*
X119118071Y-56850241D01*
X119118071Y-56850241D02*
X119079976Y-56964527D01*
X119079976Y-56964527D02*
X118622833Y-57421670D01*
X118622833Y-57421670D02*
X119118071Y-57421670D01*
X118222833Y-49382622D02*
X117956167Y-49382622D01*
X117956167Y-49801670D02*
X117956167Y-49001670D01*
X117956167Y-49001670D02*
X118337119Y-49001670D01*
X118565690Y-49001670D02*
X119099024Y-49001670D01*
X119099024Y-49001670D02*
X118756166Y-49801670D01*
X128801976Y-36339765D02*
X128725786Y-36301670D01*
X128725786Y-36301670D02*
X128611500Y-36301670D01*
X128611500Y-36301670D02*
X128497214Y-36339765D01*
X128497214Y-36339765D02*
X128421024Y-36415955D01*
X128421024Y-36415955D02*
X128382929Y-36492146D01*
X128382929Y-36492146D02*
X128344833Y-36644527D01*
X128344833Y-36644527D02*
X128344833Y-36758813D01*
X128344833Y-36758813D02*
X128382929Y-36911194D01*
X128382929Y-36911194D02*
X128421024Y-36987384D01*
X128421024Y-36987384D02*
X128497214Y-37063575D01*
X128497214Y-37063575D02*
X128611500Y-37101670D01*
X128611500Y-37101670D02*
X128687691Y-37101670D01*
X128687691Y-37101670D02*
X128801976Y-37063575D01*
X128801976Y-37063575D02*
X128840072Y-37025479D01*
X128840072Y-37025479D02*
X128840072Y-36758813D01*
X128840072Y-36758813D02*
X128687691Y-36758813D01*
X129182929Y-37101670D02*
X129182929Y-36301670D01*
X129182929Y-36301670D02*
X129640072Y-37101670D01*
X129640072Y-37101670D02*
X129640072Y-36301670D01*
X130021024Y-37101670D02*
X130021024Y-36301670D01*
X130021024Y-36301670D02*
X130211500Y-36301670D01*
X130211500Y-36301670D02*
X130325786Y-36339765D01*
X130325786Y-36339765D02*
X130401976Y-36415955D01*
X130401976Y-36415955D02*
X130440071Y-36492146D01*
X130440071Y-36492146D02*
X130478167Y-36644527D01*
X130478167Y-36644527D02*
X130478167Y-36758813D01*
X130478167Y-36758813D02*
X130440071Y-36911194D01*
X130440071Y-36911194D02*
X130401976Y-36987384D01*
X130401976Y-36987384D02*
X130325786Y-37063575D01*
X130325786Y-37063575D02*
X130211500Y-37101670D01*
X130211500Y-37101670D02*
X130021024Y-37101670D01*
X117390283Y-58088898D02*
X117434056Y-58186546D01*
X117434056Y-58186546D02*
X117430689Y-58237054D01*
X117430689Y-58237054D02*
X117400384Y-58314499D01*
X117400384Y-58314499D02*
X117319572Y-58395311D01*
X117319572Y-58395311D02*
X117242127Y-58425615D01*
X117242127Y-58425615D02*
X117191619Y-58428983D01*
X117191619Y-58428983D02*
X117117542Y-58408779D01*
X117117542Y-58408779D02*
X116928980Y-58220218D01*
X116928980Y-58220218D02*
X117494665Y-57654532D01*
X117494665Y-57654532D02*
X117659657Y-57819524D01*
X117659657Y-57819524D02*
X117679860Y-57893602D01*
X117679860Y-57893602D02*
X117676493Y-57944109D01*
X117676493Y-57944109D02*
X117646188Y-58021554D01*
X117646188Y-58021554D02*
X117592313Y-58075429D01*
X117592313Y-58075429D02*
X117514868Y-58105734D01*
X117514868Y-58105734D02*
X117464361Y-58109101D01*
X117464361Y-58109101D02*
X117390283Y-58088898D01*
X117390283Y-58088898D02*
X117225291Y-57923906D01*
X118201772Y-58361639D02*
X118107491Y-58267358D01*
X118107491Y-58267358D02*
X118033413Y-58247155D01*
X118033413Y-58247155D02*
X117982906Y-58250522D01*
X117982906Y-58250522D02*
X117854953Y-58284194D01*
X117854953Y-58284194D02*
X117723633Y-58368373D01*
X117723633Y-58368373D02*
X117508134Y-58583873D01*
X117508134Y-58583873D02*
X117477829Y-58661318D01*
X117477829Y-58661318D02*
X117474462Y-58711825D01*
X117474462Y-58711825D02*
X117494665Y-58785903D01*
X117494665Y-58785903D02*
X117588946Y-58880184D01*
X117588946Y-58880184D02*
X117663024Y-58900387D01*
X117663024Y-58900387D02*
X117713532Y-58897020D01*
X117713532Y-58897020D02*
X117790977Y-58866715D01*
X117790977Y-58866715D02*
X117925664Y-58732028D01*
X117925664Y-58732028D02*
X117955968Y-58654583D01*
X117955968Y-58654583D02*
X117959335Y-58604076D01*
X117959335Y-58604076D02*
X117939132Y-58529998D01*
X117939132Y-58529998D02*
X117844851Y-58435717D01*
X117844851Y-58435717D02*
X117770774Y-58415514D01*
X117770774Y-58415514D02*
X117720266Y-58418881D01*
X117720266Y-58418881D02*
X117642821Y-58449186D01*
X128821024Y-42181670D02*
X128821024Y-41381670D01*
X128821024Y-41381670D02*
X129011500Y-41381670D01*
X129011500Y-41381670D02*
X129125786Y-41419765D01*
X129125786Y-41419765D02*
X129201976Y-41495955D01*
X129201976Y-41495955D02*
X129240071Y-41572146D01*
X129240071Y-41572146D02*
X129278167Y-41724527D01*
X129278167Y-41724527D02*
X129278167Y-41838813D01*
X129278167Y-41838813D02*
X129240071Y-41991194D01*
X129240071Y-41991194D02*
X129201976Y-42067384D01*
X129201976Y-42067384D02*
X129125786Y-42143575D01*
X129125786Y-42143575D02*
X129011500Y-42181670D01*
X129011500Y-42181670D02*
X128821024Y-42181670D01*
X130040071Y-42181670D02*
X129582928Y-42181670D01*
X129811500Y-42181670D02*
X129811500Y-41381670D01*
X129811500Y-41381670D02*
X129735309Y-41495955D01*
X129735309Y-41495955D02*
X129659119Y-41572146D01*
X129659119Y-41572146D02*
X129582928Y-41610241D01*
X118165690Y-51922622D02*
X118279976Y-51960717D01*
X118279976Y-51960717D02*
X118318071Y-51998813D01*
X118318071Y-51998813D02*
X118356167Y-52075003D01*
X118356167Y-52075003D02*
X118356167Y-52189289D01*
X118356167Y-52189289D02*
X118318071Y-52265479D01*
X118318071Y-52265479D02*
X118279976Y-52303575D01*
X118279976Y-52303575D02*
X118203786Y-52341670D01*
X118203786Y-52341670D02*
X117899024Y-52341670D01*
X117899024Y-52341670D02*
X117899024Y-51541670D01*
X117899024Y-51541670D02*
X118165690Y-51541670D01*
X118165690Y-51541670D02*
X118241881Y-51579765D01*
X118241881Y-51579765D02*
X118279976Y-51617860D01*
X118279976Y-51617860D02*
X118318071Y-51694051D01*
X118318071Y-51694051D02*
X118318071Y-51770241D01*
X118318071Y-51770241D02*
X118279976Y-51846432D01*
X118279976Y-51846432D02*
X118241881Y-51884527D01*
X118241881Y-51884527D02*
X118165690Y-51922622D01*
X118165690Y-51922622D02*
X117899024Y-51922622D01*
X119118071Y-52341670D02*
X118660928Y-52341670D01*
X118889500Y-52341670D02*
X118889500Y-51541670D01*
X118889500Y-51541670D02*
X118813309Y-51655955D01*
X118813309Y-51655955D02*
X118737119Y-51732146D01*
X118737119Y-51732146D02*
X118660928Y-51770241D01*
X118222833Y-44302622D02*
X117956167Y-44302622D01*
X117956167Y-44721670D02*
X117956167Y-43921670D01*
X117956167Y-43921670D02*
X118337119Y-43921670D01*
X119022833Y-43921670D02*
X118641881Y-43921670D01*
X118641881Y-43921670D02*
X118603785Y-44302622D01*
X118603785Y-44302622D02*
X118641881Y-44264527D01*
X118641881Y-44264527D02*
X118718071Y-44226432D01*
X118718071Y-44226432D02*
X118908547Y-44226432D01*
X118908547Y-44226432D02*
X118984738Y-44264527D01*
X118984738Y-44264527D02*
X119022833Y-44302622D01*
X119022833Y-44302622D02*
X119060928Y-44378813D01*
X119060928Y-44378813D02*
X119060928Y-44569289D01*
X119060928Y-44569289D02*
X119022833Y-44645479D01*
X119022833Y-44645479D02*
X118984738Y-44683575D01*
X118984738Y-44683575D02*
X118908547Y-44721670D01*
X118908547Y-44721670D02*
X118718071Y-44721670D01*
X118718071Y-44721670D02*
X118641881Y-44683575D01*
X118641881Y-44683575D02*
X118603785Y-44645479D01*
X128859119Y-54462622D02*
X129125785Y-54462622D01*
X129240071Y-54881670D02*
X128859119Y-54881670D01*
X128859119Y-54881670D02*
X128859119Y-54081670D01*
X128859119Y-54081670D02*
X129240071Y-54081670D01*
X129925786Y-54081670D02*
X129773405Y-54081670D01*
X129773405Y-54081670D02*
X129697214Y-54119765D01*
X129697214Y-54119765D02*
X129659119Y-54157860D01*
X129659119Y-54157860D02*
X129582929Y-54272146D01*
X129582929Y-54272146D02*
X129544833Y-54424527D01*
X129544833Y-54424527D02*
X129544833Y-54729289D01*
X129544833Y-54729289D02*
X129582929Y-54805479D01*
X129582929Y-54805479D02*
X129621024Y-54843575D01*
X129621024Y-54843575D02*
X129697214Y-54881670D01*
X129697214Y-54881670D02*
X129849595Y-54881670D01*
X129849595Y-54881670D02*
X129925786Y-54843575D01*
X129925786Y-54843575D02*
X129963881Y-54805479D01*
X129963881Y-54805479D02*
X130001976Y-54729289D01*
X130001976Y-54729289D02*
X130001976Y-54538813D01*
X130001976Y-54538813D02*
X129963881Y-54462622D01*
X129963881Y-54462622D02*
X129925786Y-54424527D01*
X129925786Y-54424527D02*
X129849595Y-54386432D01*
X129849595Y-54386432D02*
X129697214Y-54386432D01*
X129697214Y-54386432D02*
X129621024Y-54424527D01*
X129621024Y-54424527D02*
X129582929Y-54462622D01*
X129582929Y-54462622D02*
X129544833Y-54538813D01*
X118222833Y-46842622D02*
X117956167Y-46842622D01*
X117956167Y-47261670D02*
X117956167Y-46461670D01*
X117956167Y-46461670D02*
X118337119Y-46461670D01*
X118984738Y-46461670D02*
X118832357Y-46461670D01*
X118832357Y-46461670D02*
X118756166Y-46499765D01*
X118756166Y-46499765D02*
X118718071Y-46537860D01*
X118718071Y-46537860D02*
X118641881Y-46652146D01*
X118641881Y-46652146D02*
X118603785Y-46804527D01*
X118603785Y-46804527D02*
X118603785Y-47109289D01*
X118603785Y-47109289D02*
X118641881Y-47185479D01*
X118641881Y-47185479D02*
X118679976Y-47223575D01*
X118679976Y-47223575D02*
X118756166Y-47261670D01*
X118756166Y-47261670D02*
X118908547Y-47261670D01*
X118908547Y-47261670D02*
X118984738Y-47223575D01*
X118984738Y-47223575D02*
X119022833Y-47185479D01*
X119022833Y-47185479D02*
X119060928Y-47109289D01*
X119060928Y-47109289D02*
X119060928Y-46918813D01*
X119060928Y-46918813D02*
X119022833Y-46842622D01*
X119022833Y-46842622D02*
X118984738Y-46804527D01*
X118984738Y-46804527D02*
X118908547Y-46766432D01*
X118908547Y-46766432D02*
X118756166Y-46766432D01*
X118756166Y-46766432D02*
X118679976Y-46804527D01*
X118679976Y-46804527D02*
X118641881Y-46842622D01*
X118641881Y-46842622D02*
X118603785Y-46918813D01*
D11*
%TO.C,S25*%
X90410500Y-48530625D02*
X76210500Y-48530625D01*
X76210500Y-48530625D02*
X76210500Y-62730625D01*
X90410500Y-62730625D02*
X90410500Y-48530625D01*
X76210500Y-62730625D02*
X90410500Y-62730625D01*
%TO.C,S7*%
X154950500Y-89170625D02*
X154950500Y-103370625D01*
X154950500Y-103370625D02*
X169150500Y-103370625D01*
X169150500Y-89170625D02*
X154950500Y-89170625D01*
X169150500Y-103370625D02*
X169150500Y-89170625D01*
%TO.C,S26*%
X90410500Y-67580625D02*
X76210500Y-67580625D01*
X76210500Y-67580625D02*
X76210500Y-81780625D01*
X90410500Y-81780625D02*
X90410500Y-67580625D01*
X76210500Y-81780625D02*
X90410500Y-81780625D01*
%TO.C,S17*%
X116850500Y-67580625D02*
X116850500Y-81780625D01*
X116850500Y-81780625D02*
X131050500Y-81780625D01*
X131050500Y-67580625D02*
X116850500Y-67580625D01*
X131050500Y-81780625D02*
X131050500Y-67580625D01*
%TO.C,S27*%
X90410500Y-89170625D02*
X76210500Y-89170625D01*
X76210500Y-89170625D02*
X76210500Y-103370625D01*
X90410500Y-103370625D02*
X90410500Y-89170625D01*
X76210500Y-103370625D02*
X90410500Y-103370625D01*
%TO.C,S16*%
X193050500Y-48530625D02*
X193050500Y-62730625D01*
X193050500Y-62730625D02*
X207250500Y-62730625D01*
X207250500Y-48530625D02*
X193050500Y-48530625D01*
X207250500Y-62730625D02*
X207250500Y-48530625D01*
%TO.C,S5*%
X97800500Y-108220625D02*
X97800500Y-122420625D01*
X97800500Y-122420625D02*
X112000500Y-122420625D01*
X112000500Y-108220625D02*
X97800500Y-108220625D01*
X112000500Y-122420625D02*
X112000500Y-108220625D01*
%TO.C,S24*%
X90410500Y-29480625D02*
X76210500Y-29480625D01*
X76210500Y-29480625D02*
X76210500Y-43680625D01*
X90410500Y-43680625D02*
X90410500Y-29480625D01*
X76210500Y-43680625D02*
X90410500Y-43680625D01*
%TO.C,S1*%
X145425500Y-127270625D02*
X145425500Y-141470625D01*
X145425500Y-141470625D02*
X159625500Y-141470625D01*
X159625500Y-127270625D02*
X145425500Y-127270625D01*
X159625500Y-141470625D02*
X159625500Y-127270625D01*
%TO.C,S23*%
X145425500Y-29480625D02*
X145425500Y-43680625D01*
X145425500Y-43680625D02*
X159625500Y-43680625D01*
X159625500Y-29480625D02*
X145425500Y-29480625D01*
X159625500Y-43680625D02*
X159625500Y-29480625D01*
%TO.C,S22*%
X97800500Y-58055625D02*
X97800500Y-72255625D01*
X97800500Y-72255625D02*
X112000500Y-72255625D01*
X112000500Y-58055625D02*
X97800500Y-58055625D01*
X112000500Y-72255625D02*
X112000500Y-58055625D01*
%TO.C,S6*%
X174000500Y-98695625D02*
X174000500Y-112895625D01*
X174000500Y-112895625D02*
X188200500Y-112895625D01*
X188200500Y-98695625D02*
X174000500Y-98695625D01*
X188200500Y-112895625D02*
X188200500Y-98695625D01*
%TO.C,S12*%
X116850500Y-48530625D02*
X116850500Y-62730625D01*
X116850500Y-62730625D02*
X131050500Y-62730625D01*
X131050500Y-48530625D02*
X116850500Y-48530625D01*
X131050500Y-62730625D02*
X131050500Y-48530625D01*
%TO.C,S28*%
X90410500Y-108220625D02*
X76210500Y-108220625D01*
X76210500Y-108220625D02*
X76210500Y-122420625D01*
X90410500Y-122420625D02*
X90410500Y-108220625D01*
X76210500Y-122420625D02*
X90410500Y-122420625D01*
%TO.C,S11*%
X193050500Y-98695625D02*
X193050500Y-112895625D01*
X193050500Y-112895625D02*
X207250500Y-112895625D01*
X207250500Y-98695625D02*
X193050500Y-98695625D01*
X207250500Y-112895625D02*
X207250500Y-98695625D01*
%TO.C,S8*%
X135900500Y-89170625D02*
X135900500Y-103370625D01*
X135900500Y-103370625D02*
X150100500Y-103370625D01*
X150100500Y-89170625D02*
X135900500Y-89170625D01*
X150100500Y-103370625D02*
X150100500Y-89170625D01*
%TO.C,S15*%
X174000500Y-48530625D02*
X174000500Y-62730625D01*
X174000500Y-62730625D02*
X188200500Y-62730625D01*
X188200500Y-48530625D02*
X174000500Y-48530625D01*
X188200500Y-62730625D02*
X188200500Y-48530625D01*
%TO.C,S2*%
X154950500Y-108220625D02*
X154950500Y-122420625D01*
X154950500Y-122420625D02*
X169150500Y-122420625D01*
X169150500Y-108220625D02*
X154950500Y-108220625D01*
X169150500Y-122420625D02*
X169150500Y-108220625D01*
%TO.C,S18*%
X135900500Y-67580625D02*
X135900500Y-81780625D01*
X135900500Y-81780625D02*
X150100500Y-81780625D01*
X150100500Y-67580625D02*
X135900500Y-67580625D01*
X150100500Y-81780625D02*
X150100500Y-67580625D01*
%TO.C,S14*%
X154950500Y-48530625D02*
X154950500Y-62730625D01*
X154950500Y-62730625D02*
X169150500Y-62730625D01*
X169150500Y-48530625D02*
X154950500Y-48530625D01*
X169150500Y-62730625D02*
X169150500Y-48530625D01*
%TO.C,S9*%
X116850500Y-89170625D02*
X116850500Y-103370625D01*
X116850500Y-103370625D02*
X131050500Y-103370625D01*
X131050500Y-89170625D02*
X116850500Y-89170625D01*
X131050500Y-103370625D02*
X131050500Y-89170625D01*
%TO.C,S21*%
X193050500Y-67580625D02*
X193050500Y-81780625D01*
X193050500Y-81780625D02*
X207250500Y-81780625D01*
X207250500Y-67580625D02*
X193050500Y-67580625D01*
X207250500Y-81780625D02*
X207250500Y-67580625D01*
%TO.C,S19*%
X154950500Y-67580625D02*
X154950500Y-81780625D01*
X154950500Y-81780625D02*
X169150500Y-81780625D01*
X169150500Y-67580625D02*
X154950500Y-67580625D01*
X169150500Y-81780625D02*
X169150500Y-67580625D01*
%TO.C,S13*%
X135900500Y-48530625D02*
X135900500Y-62730625D01*
X135900500Y-62730625D02*
X150100500Y-62730625D01*
X150100500Y-48530625D02*
X135900500Y-48530625D01*
X150100500Y-62730625D02*
X150100500Y-48530625D01*
%TO.C,S3*%
X135900500Y-108220625D02*
X135900500Y-122420625D01*
X135900500Y-122420625D02*
X150100500Y-122420625D01*
X150100500Y-108220625D02*
X135900500Y-108220625D01*
X150100500Y-122420625D02*
X150100500Y-108220625D01*
%TO.C,S10*%
X97800500Y-89170625D02*
X97800500Y-103370625D01*
X97800500Y-103370625D02*
X112000500Y-103370625D01*
X112000500Y-89170625D02*
X97800500Y-89170625D01*
X112000500Y-103370625D02*
X112000500Y-89170625D01*
%TO.C,S4*%
X116850500Y-108220625D02*
X116850500Y-122420625D01*
X116850500Y-122420625D02*
X131050500Y-122420625D01*
X131050500Y-108220625D02*
X116850500Y-108220625D01*
X131050500Y-122420625D02*
X131050500Y-108220625D01*
%TO.C,S20*%
X174000500Y-67580625D02*
X174000500Y-81780625D01*
X174000500Y-81780625D02*
X188200500Y-81780625D01*
X188200500Y-67580625D02*
X174000500Y-67580625D01*
X188200500Y-81780625D02*
X188200500Y-67580625D01*
%TO.C,U1*%
D10*
X129895135Y-134072845D02*
X129795135Y-134072845D01*
X129795135Y-133872845D01*
X129895135Y-133872845D01*
X129895135Y-134072845D01*
G36*
X129895135Y-134072845D02*
G01*
X129795135Y-134072845D01*
X129795135Y-133872845D01*
X129895135Y-133872845D01*
X129895135Y-134072845D01*
G37*
X130095135Y-134272845D02*
X129995135Y-134272845D01*
X129995135Y-134172845D01*
X130095135Y-134172845D01*
X130095135Y-134272845D01*
G36*
X130095135Y-134272845D02*
G01*
X129995135Y-134272845D01*
X129995135Y-134172845D01*
X130095135Y-134172845D01*
X130095135Y-134272845D01*
G37*
X130295135Y-134672845D02*
X130195135Y-134672845D01*
X130195135Y-133872845D01*
X130295135Y-133872845D01*
X130295135Y-134672845D01*
G36*
X130295135Y-134672845D02*
G01*
X130195135Y-134672845D01*
X130195135Y-133872845D01*
X130295135Y-133872845D01*
X130295135Y-134672845D01*
G37*
X129895135Y-134672845D02*
X129795135Y-134672845D01*
X129795135Y-134372845D01*
X129895135Y-134372845D01*
X129895135Y-134672845D01*
G36*
X129895135Y-134672845D02*
G01*
X129795135Y-134672845D01*
X129795135Y-134372845D01*
X129895135Y-134372845D01*
X129895135Y-134672845D01*
G37*
X130295135Y-134672845D02*
X129795135Y-134672845D01*
X129795135Y-134572845D01*
X130295135Y-134572845D01*
X130295135Y-134672845D01*
G36*
X130295135Y-134672845D02*
G01*
X129795135Y-134672845D01*
X129795135Y-134572845D01*
X130295135Y-134572845D01*
X130295135Y-134672845D01*
G37*
D12*
X132840500Y-110081875D02*
X132840500Y-143101875D01*
X115060500Y-110081875D02*
X132840500Y-110081875D01*
X117600500Y-138021875D02*
X115060500Y-138021875D01*
X117600500Y-140561875D02*
X117600500Y-138021875D01*
X117600500Y-140561875D02*
X115060500Y-140561875D01*
X132840500Y-143101875D02*
X115060500Y-143101875D01*
X115060500Y-143101875D02*
X115060500Y-110081875D01*
D10*
%TO.C,R4*%
X109836750Y-131226875D02*
X109836750Y-130026875D01*
X109836750Y-131226875D02*
X109036750Y-131426875D01*
X110636750Y-131426875D02*
X109836750Y-131226875D01*
X109036750Y-131426875D02*
X108836750Y-131626875D01*
X110836750Y-131626875D02*
X110636750Y-131426875D01*
X108836750Y-131626875D02*
X108836750Y-132026875D01*
X110836750Y-132026875D02*
X110836750Y-131626875D01*
X108836750Y-132026875D02*
X109036750Y-132226875D01*
X110636750Y-132226875D02*
X110836750Y-132026875D01*
X109036750Y-132226875D02*
X109036750Y-136226875D01*
X110636750Y-136226875D02*
X110636750Y-132226875D01*
X109036750Y-136226875D02*
X108836750Y-136426875D01*
X110836750Y-136426875D02*
X110636750Y-136226875D01*
X108836750Y-136426875D02*
X108836750Y-136826875D01*
X110836750Y-136826875D02*
X110836750Y-136426875D01*
X108836750Y-136826875D02*
X109036750Y-137026875D01*
X110636750Y-137026875D02*
X110836750Y-136826875D01*
X109036750Y-137026875D02*
X109836750Y-137226875D01*
X109836750Y-137226875D02*
X110636750Y-137026875D01*
X109836750Y-138426875D02*
X109836750Y-137226875D01*
%TO.C,R3*%
X113125500Y-137795625D02*
X113125500Y-138995625D01*
X113125500Y-137795625D02*
X113925500Y-137595625D01*
X112325500Y-137595625D02*
X113125500Y-137795625D01*
X113925500Y-137595625D02*
X114125500Y-137395625D01*
X112125500Y-137395625D02*
X112325500Y-137595625D01*
X114125500Y-137395625D02*
X114125500Y-136995625D01*
X112125500Y-136995625D02*
X112125500Y-137395625D01*
X114125500Y-136995625D02*
X113925500Y-136795625D01*
X112325500Y-136795625D02*
X112125500Y-136995625D01*
X113925500Y-136795625D02*
X113925500Y-132795625D01*
X112325500Y-132795625D02*
X112325500Y-136795625D01*
X113925500Y-132795625D02*
X114125500Y-132595625D01*
X112125500Y-132595625D02*
X112325500Y-132795625D01*
X114125500Y-132595625D02*
X114125500Y-132195625D01*
X112125500Y-132195625D02*
X112125500Y-132595625D01*
X114125500Y-132195625D02*
X113925500Y-131995625D01*
X112325500Y-131995625D02*
X112125500Y-132195625D01*
X113925500Y-131995625D02*
X113125500Y-131795625D01*
X113125500Y-131795625D02*
X112325500Y-131995625D01*
X113125500Y-130595625D02*
X113125500Y-131795625D01*
%TO.C,R1*%
X135856750Y-40924375D02*
X135856750Y-39724375D01*
X135856750Y-39724375D02*
X136656750Y-39524375D01*
X135056750Y-39524375D02*
X135856750Y-39724375D01*
X136656750Y-39524375D02*
X136856750Y-39324375D01*
X134856750Y-39324375D02*
X135056750Y-39524375D01*
X136856750Y-39324375D02*
X136856750Y-38924375D01*
X134856750Y-38924375D02*
X134856750Y-39324375D01*
X136856750Y-38924375D02*
X136656750Y-38724375D01*
X135056750Y-38724375D02*
X134856750Y-38924375D01*
X136656750Y-38724375D02*
X136656750Y-34724375D01*
X135056750Y-34724375D02*
X135056750Y-38724375D01*
X136656750Y-34724375D02*
X136856750Y-34524375D01*
X134856750Y-34524375D02*
X135056750Y-34724375D01*
X136856750Y-34524375D02*
X136856750Y-34124375D01*
X134856750Y-34124375D02*
X134856750Y-34524375D01*
X136856750Y-34124375D02*
X136656750Y-33924375D01*
X135056750Y-33924375D02*
X134856750Y-34124375D01*
X136656750Y-33924375D02*
X135856750Y-33724375D01*
X135856750Y-33724375D02*
X135056750Y-33924375D01*
X135856750Y-33724375D02*
X135856750Y-32524375D01*
%TO.C,R2*%
X138381750Y-34905625D02*
X138381750Y-36105625D01*
X138381750Y-36105625D02*
X137581750Y-36305625D01*
X139181750Y-36305625D02*
X138381750Y-36105625D01*
X137581750Y-36305625D02*
X137381750Y-36505625D01*
X139381750Y-36505625D02*
X139181750Y-36305625D01*
X137381750Y-36505625D02*
X137381750Y-36905625D01*
X139381750Y-36905625D02*
X139381750Y-36505625D01*
X137381750Y-36905625D02*
X137581750Y-37105625D01*
X139181750Y-37105625D02*
X139381750Y-36905625D01*
X137581750Y-37105625D02*
X137581750Y-41105625D01*
X139181750Y-41105625D02*
X139181750Y-37105625D01*
X137581750Y-41105625D02*
X137381750Y-41305625D01*
X139381750Y-41305625D02*
X139181750Y-41105625D01*
X137381750Y-41305625D02*
X137381750Y-41705625D01*
X139381750Y-41705625D02*
X139381750Y-41305625D01*
X137381750Y-41705625D02*
X137581750Y-41905625D01*
X139181750Y-41905625D02*
X139381750Y-41705625D01*
X137581750Y-41905625D02*
X138381750Y-42105625D01*
X138381750Y-42105625D02*
X139181750Y-41905625D01*
X138381750Y-42105625D02*
X138381750Y-43305625D01*
D12*
%TO.C,U3*%
X132840500Y-27849375D02*
X132840500Y-60869375D01*
X115060500Y-27849375D02*
X132840500Y-27849375D01*
X130300500Y-30389375D02*
X132840500Y-30389375D01*
X130300500Y-30389375D02*
X130300500Y-32929375D01*
X130300500Y-32929375D02*
X132840500Y-32929375D01*
X132840500Y-60869375D02*
X115060500Y-60869375D01*
X115060500Y-60869375D02*
X115060500Y-27849375D01*
D10*
X118105865Y-36378405D02*
X117605865Y-36378405D01*
X117605865Y-36278405D01*
X118105865Y-36278405D01*
X118105865Y-36378405D01*
G36*
X118105865Y-36378405D02*
G01*
X117605865Y-36378405D01*
X117605865Y-36278405D01*
X118105865Y-36278405D01*
X118105865Y-36378405D01*
G37*
X118105865Y-36578405D02*
X118005865Y-36578405D01*
X118005865Y-36278405D01*
X118105865Y-36278405D01*
X118105865Y-36578405D01*
G36*
X118105865Y-36578405D02*
G01*
X118005865Y-36578405D01*
X118005865Y-36278405D01*
X118105865Y-36278405D01*
X118105865Y-36578405D01*
G37*
X117705865Y-37078405D02*
X117605865Y-37078405D01*
X117605865Y-36278405D01*
X117705865Y-36278405D01*
X117705865Y-37078405D01*
G36*
X117705865Y-37078405D02*
G01*
X117605865Y-37078405D01*
X117605865Y-36278405D01*
X117705865Y-36278405D01*
X117705865Y-37078405D01*
G37*
X117905865Y-36778405D02*
X117805865Y-36778405D01*
X117805865Y-36678405D01*
X117905865Y-36678405D01*
X117905865Y-36778405D01*
G36*
X117905865Y-36778405D02*
G01*
X117805865Y-36778405D01*
X117805865Y-36678405D01*
X117905865Y-36678405D01*
X117905865Y-36778405D01*
G37*
X118105865Y-37078405D02*
X118005865Y-37078405D01*
X118005865Y-36878405D01*
X118105865Y-36878405D01*
X118105865Y-37078405D01*
G36*
X118105865Y-37078405D02*
G01*
X118005865Y-37078405D01*
X118005865Y-36878405D01*
X118105865Y-36878405D01*
X118105865Y-37078405D01*
G37*
%TD*%
D13*
%TO.C,U1*%
X129030500Y-111351875D03*
X126490500Y-111351875D03*
X123950500Y-111351875D03*
X121410500Y-111351875D03*
X118870500Y-111351875D03*
X131570500Y-139291875D03*
X131570500Y-136751875D03*
X131570500Y-134211875D03*
X131570500Y-131671875D03*
X131570500Y-129131875D03*
X131570500Y-126591875D03*
X131570500Y-124051875D03*
X131570500Y-121511875D03*
X131570500Y-118971875D03*
X131570500Y-116431875D03*
X131570500Y-113891875D03*
X131570500Y-111351875D03*
X116559100Y-111351875D03*
X116330500Y-113891875D03*
X116330500Y-116431875D03*
X116330500Y-118971875D03*
X116330500Y-121511875D03*
X116330500Y-124051875D03*
X116330500Y-126591875D03*
X116330500Y-129131875D03*
X116330500Y-131671875D03*
X116330500Y-134211875D03*
X116330500Y-136751875D03*
D14*
X116330500Y-139291875D03*
%TD*%
D15*
%TO.C,R4*%
X109836750Y-129146875D03*
X109836750Y-139306875D03*
%TD*%
%TO.C,R3*%
X113125500Y-139875625D03*
X113125500Y-129715625D03*
%TD*%
%TO.C,R1*%
X135856750Y-41804375D03*
X135856750Y-31644375D03*
%TD*%
%TO.C,R2*%
X138381750Y-34025625D03*
X138381750Y-44185625D03*
%TD*%
D14*
%TO.C,U3*%
X131570500Y-31659375D03*
D13*
X131570500Y-34199375D03*
X131570500Y-36739375D03*
X131570500Y-39279375D03*
X131570500Y-41819375D03*
X131570500Y-44359375D03*
X131570500Y-46899375D03*
X131570500Y-49439375D03*
X131570500Y-51979375D03*
X131570500Y-54519375D03*
X131570500Y-57059375D03*
X131341900Y-59599375D03*
X116330500Y-59599375D03*
X116330500Y-57059375D03*
X116330500Y-54519375D03*
X116330500Y-51979375D03*
X116330500Y-49439375D03*
X116330500Y-46899375D03*
X116330500Y-44359375D03*
X116330500Y-41819375D03*
X116330500Y-39279375D03*
X116330500Y-36739375D03*
X116330500Y-34199375D03*
X116330500Y-31659375D03*
X129030500Y-59599375D03*
X126490500Y-59599375D03*
X123950500Y-59599375D03*
X121410500Y-59599375D03*
X118870500Y-59599375D03*
%TD*%
%LPC*%
D16*
%TO.C,*%
X75770500Y-21420625D03*
%TD*%
%TO.C,*%
X207675500Y-21420625D03*
%TD*%
%TO.C,*%
X207675500Y-149530625D03*
%TD*%
%TO.C,REF\u002A\u002A*%
X97375500Y-149530625D03*
%TD*%
D17*
%TO.C,REF\u002A\u002A*%
X99225500Y-147680625D03*
%TD*%
%TO.C,REF\u002A\u002A*%
X77620500Y-23270625D03*
%TD*%
%TO.C,REF\u002A\u002A*%
X205825500Y-147680625D03*
%TD*%
%TO.C,REF\u002A\u002A*%
X205825500Y-23270625D03*
%TD*%
D18*
%TO.C,S25*%
X83310500Y-50550625D03*
D19*
X83310500Y-55630625D03*
D18*
X83310500Y-60710625D03*
D20*
X85850500Y-51820625D03*
X88390500Y-58170625D03*
%TD*%
%TO.C,S7*%
X159510500Y-101350625D03*
X165860500Y-98810625D03*
D18*
X156970500Y-96270625D03*
D19*
X162050500Y-96270625D03*
D18*
X167130500Y-96270625D03*
%TD*%
%TO.C,S26*%
X83310500Y-69600625D03*
D19*
X83310500Y-74680625D03*
D18*
X83310500Y-79760625D03*
D20*
X85850500Y-70870625D03*
X88390500Y-77220625D03*
%TD*%
D18*
%TO.C,S17*%
X118870500Y-74680625D03*
D19*
X123950500Y-74680625D03*
D18*
X129030500Y-74680625D03*
D20*
X120140500Y-72140625D03*
X126490500Y-69600625D03*
%TD*%
D18*
%TO.C,S27*%
X83310500Y-91190625D03*
D19*
X83310500Y-96270625D03*
D18*
X83310500Y-101350625D03*
D20*
X85850500Y-92460625D03*
X88390500Y-98810625D03*
%TD*%
D18*
%TO.C,S16*%
X195070500Y-55630625D03*
D19*
X200150500Y-55630625D03*
D18*
X205230500Y-55630625D03*
D20*
X196340500Y-53090625D03*
X202690500Y-50550625D03*
%TD*%
%TO.C,S5*%
X102360500Y-120400625D03*
X108710500Y-117860625D03*
D18*
X99820500Y-115320625D03*
D19*
X104900500Y-115320625D03*
D18*
X109980500Y-115320625D03*
%TD*%
%TO.C,S24*%
X83310500Y-31500625D03*
D19*
X83310500Y-36580625D03*
D18*
X83310500Y-41660625D03*
D20*
X85850500Y-32770625D03*
X88390500Y-39120625D03*
%TD*%
%TO.C,S1*%
X149985500Y-139450625D03*
X156335500Y-136910625D03*
D18*
X147445500Y-134370625D03*
D19*
X152525500Y-134370625D03*
D18*
X157605500Y-134370625D03*
%TD*%
%TO.C,S23*%
X147445500Y-36580625D03*
D19*
X152525500Y-36580625D03*
D18*
X157605500Y-36580625D03*
D20*
X148715500Y-34040625D03*
X155065500Y-31500625D03*
%TD*%
D18*
%TO.C,S22*%
X99820500Y-65155625D03*
D19*
X104900500Y-65155625D03*
D18*
X109980500Y-65155625D03*
D20*
X101090500Y-62615625D03*
X107440500Y-60075625D03*
%TD*%
%TO.C,S6*%
X178560500Y-110875625D03*
X184910500Y-108335625D03*
D18*
X176020500Y-105795625D03*
D19*
X181100500Y-105795625D03*
D18*
X186180500Y-105795625D03*
%TD*%
%TO.C,S12*%
X118870500Y-55630625D03*
D19*
X123950500Y-55630625D03*
D18*
X129030500Y-55630625D03*
D20*
X120140500Y-53090625D03*
X126490500Y-50550625D03*
%TD*%
D18*
%TO.C,S28*%
X83310500Y-110240625D03*
D19*
X83310500Y-115320625D03*
D18*
X83310500Y-120400625D03*
D20*
X85850500Y-111510625D03*
X88390500Y-117860625D03*
%TD*%
%TO.C,S11*%
X197610500Y-110875625D03*
X203960500Y-108335625D03*
D18*
X195070500Y-105795625D03*
D19*
X200150500Y-105795625D03*
D18*
X205230500Y-105795625D03*
%TD*%
D20*
%TO.C,S8*%
X140460500Y-101350625D03*
X146810500Y-98810625D03*
D18*
X137920500Y-96270625D03*
D19*
X143000500Y-96270625D03*
D18*
X148080500Y-96270625D03*
%TD*%
%TO.C,S15*%
X176020500Y-55630625D03*
D19*
X181100500Y-55630625D03*
D18*
X186180500Y-55630625D03*
D20*
X177290500Y-53090625D03*
X183640500Y-50550625D03*
%TD*%
%TO.C,S2*%
X159510500Y-120400625D03*
X165860500Y-117860625D03*
D18*
X156970500Y-115320625D03*
D19*
X162050500Y-115320625D03*
D18*
X167130500Y-115320625D03*
%TD*%
%TO.C,S18*%
X137920500Y-74680625D03*
D19*
X143000500Y-74680625D03*
D18*
X148080500Y-74680625D03*
D20*
X139190500Y-72140625D03*
X145540500Y-69600625D03*
%TD*%
D18*
%TO.C,S14*%
X156970500Y-55630625D03*
D19*
X162050500Y-55630625D03*
D18*
X167130500Y-55630625D03*
D20*
X158240500Y-53090625D03*
X164590500Y-50550625D03*
%TD*%
%TO.C,S9*%
X121410500Y-101350625D03*
X127760500Y-98810625D03*
D18*
X118870500Y-96270625D03*
D19*
X123950500Y-96270625D03*
D18*
X129030500Y-96270625D03*
%TD*%
%TO.C,S21*%
X195070500Y-74680625D03*
D19*
X200150500Y-74680625D03*
D18*
X205230500Y-74680625D03*
D20*
X196340500Y-72140625D03*
X202690500Y-69600625D03*
%TD*%
D18*
%TO.C,S19*%
X156970500Y-74680625D03*
D19*
X162050500Y-74680625D03*
D18*
X167130500Y-74680625D03*
D20*
X158240500Y-72140625D03*
X164590500Y-69600625D03*
%TD*%
D18*
%TO.C,S13*%
X137920500Y-55630625D03*
D19*
X143000500Y-55630625D03*
D18*
X148080500Y-55630625D03*
D20*
X139190500Y-53090625D03*
X145540500Y-50550625D03*
%TD*%
D21*
%TO.C,J2*%
X111800500Y-125676875D03*
X107200500Y-125676875D03*
X102600500Y-125676875D03*
D22*
X98000500Y-125676875D03*
%TD*%
D20*
%TO.C,S3*%
X140460500Y-120400625D03*
X146810500Y-117860625D03*
D18*
X137920500Y-115320625D03*
D19*
X143000500Y-115320625D03*
D18*
X148080500Y-115320625D03*
%TD*%
D20*
%TO.C,S10*%
X102360500Y-101350625D03*
X108710500Y-98810625D03*
D18*
X99820500Y-96270625D03*
D19*
X104900500Y-96270625D03*
D18*
X109980500Y-96270625D03*
%TD*%
D20*
%TO.C,S4*%
X121410500Y-120400625D03*
X127760500Y-117860625D03*
D18*
X118870500Y-115320625D03*
D19*
X123950500Y-115320625D03*
D18*
X129030500Y-115320625D03*
%TD*%
%TO.C,S20*%
X176020500Y-74680625D03*
D19*
X181100500Y-74680625D03*
D18*
X186180500Y-74680625D03*
D20*
X177290500Y-72140625D03*
X183640500Y-69600625D03*
%TD*%
D23*
%TO.C,D21*%
X190625500Y-70795625D03*
D24*
X190625500Y-78415625D03*
%TD*%
D25*
%TO.C,J6*%
X76166750Y-108420625D03*
D21*
X76166750Y-113020625D03*
X76166750Y-117620625D03*
X76166750Y-122220625D03*
%TD*%
D13*
%TO.C,U1*%
X129030500Y-111351875D03*
X126490500Y-111351875D03*
X123950500Y-111351875D03*
X121410500Y-111351875D03*
X118870500Y-111351875D03*
X131570500Y-139291875D03*
X131570500Y-136751875D03*
X131570500Y-134211875D03*
X131570500Y-131671875D03*
X131570500Y-129131875D03*
X131570500Y-126591875D03*
X131570500Y-124051875D03*
X131570500Y-121511875D03*
X131570500Y-118971875D03*
X131570500Y-116431875D03*
X131570500Y-113891875D03*
X131570500Y-111351875D03*
X116559100Y-111351875D03*
X116330500Y-113891875D03*
X116330500Y-116431875D03*
X116330500Y-118971875D03*
X116330500Y-121511875D03*
X116330500Y-124051875D03*
X116330500Y-126591875D03*
X116330500Y-129131875D03*
X116330500Y-131671875D03*
X116330500Y-134211875D03*
X116330500Y-136751875D03*
D14*
X116330500Y-139291875D03*
%TD*%
D24*
%TO.C,D1*%
X138238000Y-130560625D03*
D23*
X138238000Y-138180625D03*
%TD*%
D24*
%TO.C,D3*%
X152525500Y-111510625D03*
D23*
X152525500Y-119130625D03*
%TD*%
%TO.C,D19*%
X152475500Y-70895625D03*
D24*
X152475500Y-78515625D03*
%TD*%
D26*
%TO.C,J3*%
X180375500Y-32405625D03*
D27*
X177835500Y-32405625D03*
X180375500Y-34945625D03*
X177835500Y-34945625D03*
X180375500Y-37485625D03*
X177835500Y-37485625D03*
X180375500Y-40025625D03*
X177835500Y-40025625D03*
%TD*%
D24*
%TO.C,D10*%
X114336750Y-92535625D03*
D23*
X114336750Y-100155625D03*
%TD*%
%TO.C,D13*%
X146810500Y-65155625D03*
D24*
X139190500Y-65155625D03*
%TD*%
D23*
%TO.C,D22*%
X108808000Y-75930625D03*
D24*
X101188000Y-75930625D03*
%TD*%
D23*
%TO.C,D17*%
X114075500Y-70695625D03*
D24*
X114075500Y-78315625D03*
%TD*%
D23*
%TO.C,D27*%
X76166750Y-100080625D03*
D24*
X76166750Y-92460625D03*
%TD*%
D23*
%TO.C,D15*%
X184910500Y-65155625D03*
D24*
X177290500Y-65155625D03*
%TD*%
D15*
%TO.C,R4*%
X109836750Y-129146875D03*
X109836750Y-139306875D03*
%TD*%
%TO.C,R3*%
X113125500Y-139875625D03*
X113125500Y-129715625D03*
%TD*%
D23*
%TO.C,D16*%
X203960500Y-65155625D03*
D24*
X196340500Y-65155625D03*
%TD*%
%TO.C,D6*%
X184910500Y-96270625D03*
D23*
X177290500Y-96270625D03*
%TD*%
%TO.C,D20*%
X171675500Y-70795625D03*
D24*
X171675500Y-78415625D03*
%TD*%
%TO.C,D9*%
X133486750Y-92385625D03*
D23*
X133486750Y-100005625D03*
%TD*%
D15*
%TO.C,R1*%
X135856750Y-41804375D03*
X135856750Y-31644375D03*
%TD*%
D23*
%TO.C,D28*%
X89260500Y-105795625D03*
D24*
X81640500Y-105795625D03*
%TD*%
%TO.C,D4*%
X127760500Y-105795625D03*
D23*
X120140500Y-105795625D03*
%TD*%
D15*
%TO.C,R2*%
X138381750Y-34025625D03*
X138381750Y-44185625D03*
%TD*%
D23*
%TO.C,D26*%
X89501750Y-65155625D03*
D24*
X81881750Y-65155625D03*
%TD*%
D14*
%TO.C,U3*%
X131570500Y-31659375D03*
D13*
X131570500Y-34199375D03*
X131570500Y-36739375D03*
X131570500Y-39279375D03*
X131570500Y-41819375D03*
X131570500Y-44359375D03*
X131570500Y-46899375D03*
X131570500Y-49439375D03*
X131570500Y-51979375D03*
X131570500Y-54519375D03*
X131570500Y-57059375D03*
X131341900Y-59599375D03*
X116330500Y-59599375D03*
X116330500Y-57059375D03*
X116330500Y-54519375D03*
X116330500Y-51979375D03*
X116330500Y-49439375D03*
X116330500Y-46899375D03*
X116330500Y-44359375D03*
X116330500Y-41819375D03*
X116330500Y-39279375D03*
X116330500Y-36739375D03*
X116330500Y-34199375D03*
X116330500Y-31659375D03*
X129030500Y-59599375D03*
X126490500Y-59599375D03*
X123950500Y-59599375D03*
X121410500Y-59599375D03*
X118870500Y-59599375D03*
%TD*%
D24*
%TO.C,D8*%
X152586750Y-92535625D03*
D23*
X152586750Y-100155625D03*
%TD*%
%TO.C,D18*%
X133825500Y-70595625D03*
D24*
X133825500Y-78215625D03*
%TD*%
D23*
%TO.C,D25*%
X89501750Y-46105625D03*
D24*
X81881750Y-46105625D03*
%TD*%
D28*
%TO.C,J4*%
X112150500Y-45274375D03*
D21*
X107550500Y-45274375D03*
X102950500Y-45274375D03*
X98350500Y-45274375D03*
%TD*%
D24*
%TO.C,D11*%
X203960500Y-96270625D03*
D23*
X196340500Y-96270625D03*
%TD*%
%TO.C,D23*%
X156285500Y-45705625D03*
D24*
X148665500Y-45705625D03*
%TD*%
D29*
%TO.C,U4*%
X104900500Y-36449375D03*
X104900500Y-29449375D03*
D30*
X107200500Y-39149375D03*
X102600500Y-38049375D03*
X102600500Y-34049375D03*
X102600500Y-31049375D03*
%TD*%
D24*
%TO.C,D2*%
X171575500Y-111510625D03*
D23*
X171575500Y-119130625D03*
%TD*%
D24*
%TO.C,D7*%
X171586750Y-92535625D03*
D23*
X171586750Y-100155625D03*
%TD*%
%TO.C,D14*%
X165860500Y-65155625D03*
D24*
X158240500Y-65155625D03*
%TD*%
D23*
%TO.C,D24*%
X76166750Y-40390625D03*
D24*
X76166750Y-32770625D03*
%TD*%
D25*
%TO.C,J5*%
X76166750Y-67780625D03*
D21*
X76166750Y-72380625D03*
X76166750Y-76980625D03*
X76166750Y-81580625D03*
%TD*%
D24*
%TO.C,D5*%
X108710500Y-105795625D03*
D23*
X101090500Y-105795625D03*
%TD*%
%TO.C,D12*%
X127760500Y-65155625D03*
D24*
X120140500Y-65155625D03*
%TD*%
D30*
%TO.C,U2*%
X107200500Y-139901875D03*
X107200500Y-136901875D03*
X107200500Y-132901875D03*
X102600500Y-131801875D03*
D29*
X104900500Y-141501875D03*
X104900500Y-134501875D03*
%TD*%
%LPD*%
M02*
