%TF.GenerationSoftware,KiCad,Pcbnew,7.0.10*%
%TF.CreationDate,2024-02-04T21:18:14-08:00*%
%TF.ProjectId,oddball_steno,6f646462-616c-46c5-9f73-74656e6f2e6b,rev?*%
%TF.SameCoordinates,Original*%
%TF.FileFunction,Soldermask,Top*%
%TF.FilePolarity,Negative*%
%FSLAX46Y46*%
G04 Gerber Fmt 4.6, Leading zero omitted, Abs format (unit mm)*
G04 Created by KiCad (PCBNEW 7.0.10) date 2024-02-04 21:18:14*
%MOMM*%
%LPD*%
G01*
G04 APERTURE LIST*
G04 Aperture macros list*
%AMRoundRect*
0 Rectangle with rounded corners*
0 $1 Rounding radius*
0 $2 $3 $4 $5 $6 $7 $8 $9 X,Y pos of 4 corners*
0 Add a 4 corners polygon primitive as box body*
4,1,4,$2,$3,$4,$5,$6,$7,$8,$9,$2,$3,0*
0 Add four circle primitives for the rounded corners*
1,1,$1+$1,$2,$3*
1,1,$1+$1,$4,$5*
1,1,$1+$1,$6,$7*
1,1,$1+$1,$8,$9*
0 Add four rect primitives between the rounded corners*
20,1,$1+$1,$2,$3,$4,$5,0*
20,1,$1+$1,$4,$5,$6,$7,0*
20,1,$1+$1,$6,$7,$8,$9,0*
20,1,$1+$1,$8,$9,$2,$3,0*%
G04 Aperture macros list end*
%ADD10C,1.000000*%
%ADD11C,2.000000*%
%ADD12C,2.500000*%
%ADD13C,1.750000*%
%ADD14C,4.000000*%
%ADD15RoundRect,0.250001X-0.799999X-0.799999X0.799999X-0.799999X0.799999X0.799999X-0.799999X0.799999X0*%
%ADD16C,2.100000*%
%ADD17O,1.600000X1.600000*%
%ADD18R,1.600000X1.600000*%
%ADD19RoundRect,0.250001X-0.799999X0.799999X-0.799999X-0.799999X0.799999X-0.799999X0.799999X0.799999X0*%
%ADD20R,1.752600X1.752600*%
%ADD21C,1.752600*%
%ADD22O,1.700000X1.700000*%
%ADD23R,1.700000X1.700000*%
%ADD24C,1.651000*%
%ADD25RoundRect,0.250001X0.799999X0.799999X-0.799999X0.799999X-0.799999X-0.799999X0.799999X-0.799999X0*%
%ADD26O,1.600000X2.000000*%
%ADD27C,0.800000*%
G04 APERTURE END LIST*
D10*
%TO.C,*%
X78310500Y-21420625D03*
%TD*%
%TO.C,*%
X207675500Y-21420625D03*
%TD*%
%TO.C,*%
X207675500Y-146990625D03*
%TD*%
%TO.C,REF\u002A\u002A*%
X97375500Y-146990625D03*
%TD*%
D11*
%TO.C,REF\u002A\u002A*%
X99225500Y-145140625D03*
%TD*%
%TO.C,REF\u002A\u002A*%
X80160500Y-23270625D03*
%TD*%
%TO.C,REF\u002A\u002A*%
X205825500Y-145140625D03*
%TD*%
%TO.C,REF\u002A\u002A*%
X205825500Y-23270625D03*
%TD*%
D12*
%TO.C,S25*%
X90930500Y-58170625D03*
X88390500Y-51820625D03*
D13*
X85850500Y-60710625D03*
D14*
X85850500Y-55630625D03*
D13*
X85850500Y-50550625D03*
%TD*%
%TO.C,S7*%
X167130500Y-93730625D03*
D14*
X162050500Y-93730625D03*
D13*
X156970500Y-93730625D03*
D12*
X165860500Y-96270625D03*
X159510500Y-98810625D03*
%TD*%
%TO.C,S26*%
X90930500Y-77220625D03*
X88390500Y-70870625D03*
D13*
X85850500Y-79760625D03*
D14*
X85850500Y-74680625D03*
D13*
X85850500Y-69600625D03*
%TD*%
D12*
%TO.C,S17*%
X126490500Y-69600625D03*
X120140500Y-72140625D03*
D13*
X129030500Y-74680625D03*
D14*
X123950500Y-74680625D03*
D13*
X118870500Y-74680625D03*
%TD*%
%TO.C,S27*%
X85850500Y-88650625D03*
D14*
X85850500Y-93730625D03*
D13*
X85850500Y-98810625D03*
D12*
X88390500Y-89920625D03*
X90930500Y-96270625D03*
%TD*%
%TO.C,S16*%
X202690500Y-50550625D03*
X196340500Y-53090625D03*
D13*
X205230500Y-55630625D03*
D14*
X200150500Y-55630625D03*
D13*
X195070500Y-55630625D03*
%TD*%
%TO.C,S5*%
X109980500Y-112780625D03*
D14*
X104900500Y-112780625D03*
D13*
X99820500Y-112780625D03*
D12*
X108710500Y-115320625D03*
X102360500Y-117860625D03*
%TD*%
%TO.C,S24*%
X90930500Y-39120625D03*
X88390500Y-32770625D03*
D13*
X85850500Y-41660625D03*
D14*
X85850500Y-36580625D03*
D13*
X85850500Y-31500625D03*
%TD*%
%TO.C,S1*%
X157605500Y-131830625D03*
D14*
X152525500Y-131830625D03*
D13*
X147445500Y-131830625D03*
D12*
X156335500Y-134370625D03*
X149985500Y-136910625D03*
%TD*%
%TO.C,S23*%
X155065500Y-31500625D03*
X148715500Y-34040625D03*
D13*
X157605500Y-36580625D03*
D14*
X152525500Y-36580625D03*
D13*
X147445500Y-36580625D03*
%TD*%
D12*
%TO.C,S22*%
X107440500Y-60075625D03*
X101090500Y-62615625D03*
D13*
X109980500Y-65155625D03*
D14*
X104900500Y-65155625D03*
D13*
X99820500Y-65155625D03*
%TD*%
%TO.C,S6*%
X186180500Y-103255625D03*
D14*
X181100500Y-103255625D03*
D13*
X176020500Y-103255625D03*
D12*
X184910500Y-105795625D03*
X178560500Y-108335625D03*
%TD*%
%TO.C,S12*%
X126490500Y-50550625D03*
X120140500Y-53090625D03*
D13*
X129030500Y-55630625D03*
D14*
X123950500Y-55630625D03*
D13*
X118870500Y-55630625D03*
%TD*%
%TO.C,S28*%
X85850500Y-107700625D03*
D14*
X85850500Y-112780625D03*
D13*
X85850500Y-117860625D03*
D12*
X88390500Y-108970625D03*
X90930500Y-115320625D03*
%TD*%
D13*
%TO.C,S11*%
X205230500Y-103255625D03*
D14*
X200150500Y-103255625D03*
D13*
X195070500Y-103255625D03*
D12*
X203960500Y-105795625D03*
X197610500Y-108335625D03*
%TD*%
D13*
%TO.C,S8*%
X148080500Y-93730625D03*
D14*
X143000500Y-93730625D03*
D13*
X137920500Y-93730625D03*
D12*
X146810500Y-96270625D03*
X140460500Y-98810625D03*
%TD*%
%TO.C,S15*%
X183640500Y-50550625D03*
X177290500Y-53090625D03*
D13*
X186180500Y-55630625D03*
D14*
X181100500Y-55630625D03*
D13*
X176020500Y-55630625D03*
%TD*%
%TO.C,S2*%
X167130500Y-112780625D03*
D14*
X162050500Y-112780625D03*
D13*
X156970500Y-112780625D03*
D12*
X165860500Y-115320625D03*
X159510500Y-117860625D03*
%TD*%
%TO.C,S18*%
X145540500Y-69600625D03*
X139190500Y-72140625D03*
D13*
X148080500Y-74680625D03*
D14*
X143000500Y-74680625D03*
D13*
X137920500Y-74680625D03*
%TD*%
D12*
%TO.C,S14*%
X164590500Y-50550625D03*
X158240500Y-53090625D03*
D13*
X167130500Y-55630625D03*
D14*
X162050500Y-55630625D03*
D13*
X156970500Y-55630625D03*
%TD*%
%TO.C,S9*%
X129030500Y-93730625D03*
D14*
X123950500Y-93730625D03*
D13*
X118870500Y-93730625D03*
D12*
X127760500Y-96270625D03*
X121410500Y-98810625D03*
%TD*%
%TO.C,S21*%
X202690500Y-69600625D03*
X196340500Y-72140625D03*
D13*
X205230500Y-74680625D03*
D14*
X200150500Y-74680625D03*
D13*
X195070500Y-74680625D03*
%TD*%
D12*
%TO.C,S19*%
X164590500Y-69600625D03*
X158240500Y-72140625D03*
D13*
X167130500Y-74680625D03*
D14*
X162050500Y-74680625D03*
D13*
X156970500Y-74680625D03*
%TD*%
D12*
%TO.C,S13*%
X145540500Y-50550625D03*
X139190500Y-53090625D03*
D13*
X148080500Y-55630625D03*
D14*
X143000500Y-55630625D03*
D13*
X137920500Y-55630625D03*
%TD*%
D15*
%TO.C,J2*%
X98000500Y-123136875D03*
D16*
X102600500Y-123136875D03*
X107200500Y-123136875D03*
X111800500Y-123136875D03*
%TD*%
D13*
%TO.C,S3*%
X148080500Y-112780625D03*
D14*
X143000500Y-112780625D03*
D13*
X137920500Y-112780625D03*
D12*
X146810500Y-115320625D03*
X140460500Y-117860625D03*
%TD*%
D13*
%TO.C,S10*%
X109980500Y-93730625D03*
D14*
X104900500Y-93730625D03*
D13*
X99820500Y-93730625D03*
D12*
X108710500Y-96270625D03*
X102360500Y-98810625D03*
%TD*%
D13*
%TO.C,S4*%
X129030500Y-112780625D03*
D14*
X123950500Y-112780625D03*
D13*
X118870500Y-112780625D03*
D12*
X127760500Y-115320625D03*
X121410500Y-117860625D03*
%TD*%
%TO.C,S20*%
X183640500Y-69600625D03*
X177290500Y-72140625D03*
D13*
X186180500Y-74680625D03*
D14*
X181100500Y-74680625D03*
D13*
X176020500Y-74680625D03*
%TD*%
D17*
%TO.C,D21*%
X190625500Y-78415625D03*
D18*
X190625500Y-70795625D03*
%TD*%
D19*
%TO.C,J6*%
X78706750Y-105880625D03*
D16*
X78706750Y-110480625D03*
X78706750Y-115080625D03*
X78706750Y-119680625D03*
%TD*%
D20*
%TO.C,U1*%
X116330500Y-136751875D03*
D21*
X116330500Y-134211875D03*
X116330500Y-131671875D03*
X116330500Y-129131875D03*
X116330500Y-126591875D03*
X116330500Y-124051875D03*
X116330500Y-121511875D03*
X116330500Y-118971875D03*
X116330500Y-116431875D03*
X116330500Y-113891875D03*
X116330500Y-111351875D03*
X116559100Y-108811875D03*
X131570500Y-108811875D03*
X131570500Y-111351875D03*
X131570500Y-113891875D03*
X131570500Y-116431875D03*
X131570500Y-118971875D03*
X131570500Y-121511875D03*
X131570500Y-124051875D03*
X131570500Y-126591875D03*
X131570500Y-129131875D03*
X131570500Y-131671875D03*
X131570500Y-134211875D03*
X131570500Y-136751875D03*
X118870500Y-108811875D03*
X121410500Y-108811875D03*
X123950500Y-108811875D03*
X126490500Y-108811875D03*
X129030500Y-108811875D03*
%TD*%
D18*
%TO.C,D1*%
X138238000Y-135640625D03*
D17*
X138238000Y-128020625D03*
%TD*%
D18*
%TO.C,D3*%
X152525500Y-116590625D03*
D17*
X152525500Y-108970625D03*
%TD*%
%TO.C,D19*%
X152475500Y-78515625D03*
D18*
X152475500Y-70895625D03*
%TD*%
D22*
%TO.C,J3*%
X177835500Y-40025625D03*
X180375500Y-40025625D03*
X177835500Y-37485625D03*
X180375500Y-37485625D03*
X177835500Y-34945625D03*
X180375500Y-34945625D03*
X177835500Y-32405625D03*
D23*
X180375500Y-32405625D03*
%TD*%
D18*
%TO.C,D10*%
X114336750Y-97615625D03*
D17*
X114336750Y-89995625D03*
%TD*%
%TO.C,D13*%
X139190500Y-65155625D03*
D18*
X146810500Y-65155625D03*
%TD*%
D17*
%TO.C,D22*%
X101188000Y-75930625D03*
D18*
X108808000Y-75930625D03*
%TD*%
D17*
%TO.C,D17*%
X114075500Y-78315625D03*
D18*
X114075500Y-70695625D03*
%TD*%
%TO.C,D27*%
X78706750Y-97540625D03*
D17*
X78706750Y-89920625D03*
%TD*%
%TO.C,D15*%
X177290500Y-65155625D03*
D18*
X184910500Y-65155625D03*
%TD*%
D24*
%TO.C,R4*%
X109836750Y-136766875D03*
X109836750Y-126606875D03*
%TD*%
%TO.C,R3*%
X113125500Y-127175625D03*
X113125500Y-137335625D03*
%TD*%
D17*
%TO.C,D16*%
X196340500Y-65155625D03*
D18*
X203960500Y-65155625D03*
%TD*%
%TO.C,D6*%
X177290500Y-93730625D03*
D17*
X184910500Y-93730625D03*
%TD*%
%TO.C,D20*%
X171675500Y-78415625D03*
D18*
X171675500Y-70795625D03*
%TD*%
%TO.C,D9*%
X133486750Y-97465625D03*
D17*
X133486750Y-89845625D03*
%TD*%
D24*
%TO.C,R1*%
X135856750Y-31644375D03*
X135856750Y-41804375D03*
%TD*%
D18*
%TO.C,D28*%
X91800500Y-103255625D03*
D17*
X84180500Y-103255625D03*
%TD*%
D18*
%TO.C,D4*%
X120140500Y-103255625D03*
D17*
X127760500Y-103255625D03*
%TD*%
D24*
%TO.C,R2*%
X138381750Y-44185625D03*
X138381750Y-34025625D03*
%TD*%
D17*
%TO.C,D26*%
X84421750Y-65155625D03*
D18*
X92041750Y-65155625D03*
%TD*%
D21*
%TO.C,U3*%
X118870500Y-59599375D03*
X121410500Y-59599375D03*
X123950500Y-59599375D03*
X126490500Y-59599375D03*
X129030500Y-59599375D03*
X116330500Y-31659375D03*
X116330500Y-34199375D03*
X116330500Y-36739375D03*
X116330500Y-39279375D03*
X116330500Y-41819375D03*
X116330500Y-44359375D03*
X116330500Y-46899375D03*
X116330500Y-49439375D03*
X116330500Y-51979375D03*
X116330500Y-54519375D03*
X116330500Y-57059375D03*
X116330500Y-59599375D03*
X131341900Y-59599375D03*
X131570500Y-57059375D03*
X131570500Y-54519375D03*
X131570500Y-51979375D03*
X131570500Y-49439375D03*
X131570500Y-46899375D03*
X131570500Y-44359375D03*
X131570500Y-41819375D03*
X131570500Y-39279375D03*
X131570500Y-36739375D03*
X131570500Y-34199375D03*
D20*
X131570500Y-31659375D03*
%TD*%
D18*
%TO.C,D8*%
X152586750Y-97615625D03*
D17*
X152586750Y-89995625D03*
%TD*%
%TO.C,D18*%
X133825500Y-78215625D03*
D18*
X133825500Y-70595625D03*
%TD*%
D17*
%TO.C,D25*%
X84421750Y-46105625D03*
D18*
X92041750Y-46105625D03*
%TD*%
D16*
%TO.C,J4*%
X98350500Y-45274375D03*
X102950500Y-45274375D03*
X107550500Y-45274375D03*
D25*
X112150500Y-45274375D03*
%TD*%
D18*
%TO.C,D11*%
X196340500Y-93730625D03*
D17*
X203960500Y-93730625D03*
%TD*%
%TO.C,D23*%
X148665500Y-45705625D03*
D18*
X156285500Y-45705625D03*
%TD*%
D26*
%TO.C,U4*%
X102600500Y-31049375D03*
X102600500Y-34049375D03*
X102600500Y-38049375D03*
X107200500Y-39149375D03*
D27*
X104900500Y-29449375D03*
X104900500Y-36449375D03*
%TD*%
D18*
%TO.C,D2*%
X171575500Y-116590625D03*
D17*
X171575500Y-108970625D03*
%TD*%
D18*
%TO.C,D7*%
X171586750Y-97615625D03*
D17*
X171586750Y-89995625D03*
%TD*%
%TO.C,D14*%
X158240500Y-65155625D03*
D18*
X165860500Y-65155625D03*
%TD*%
D17*
%TO.C,D24*%
X78706750Y-32770625D03*
D18*
X78706750Y-40390625D03*
%TD*%
D16*
%TO.C,J5*%
X78706750Y-81580625D03*
X78706750Y-76980625D03*
X78706750Y-72380625D03*
D19*
X78706750Y-67780625D03*
%TD*%
D18*
%TO.C,D5*%
X101090500Y-103255625D03*
D17*
X108710500Y-103255625D03*
%TD*%
%TO.C,D12*%
X120140500Y-65155625D03*
D18*
X127760500Y-65155625D03*
%TD*%
D27*
%TO.C,U2*%
X104900500Y-131961875D03*
X104900500Y-138961875D03*
D26*
X102600500Y-129261875D03*
X107200500Y-130361875D03*
X107200500Y-134361875D03*
X107200500Y-137361875D03*
%TD*%
M02*
