%TF.GenerationSoftware,KiCad,Pcbnew,7.0.10*%
%TF.CreationDate,2024-02-04T21:18:53-08:00*%
%TF.ProjectId,oddball_steno,6f646462-616c-46c5-9f73-74656e6f2e6b,rev?*%
%TF.SameCoordinates,Original*%
%TF.FileFunction,Drillmap*%
%TF.FilePolarity,Positive*%
%FSLAX45Y45*%
G04 Gerber Fmt 4.5, Leading zero omitted, Abs format (unit mm)*
G04 Created by KiCad (PCBNEW 7.0.10) date 2024-02-04 21:18:53*
%MOMM*%
%LPD*%
G01*
G04 APERTURE LIST*
%ADD10C,0.100000*%
%ADD11C,0.200000*%
%ADD12C,0.175000*%
%ADD13C,0.400000*%
G04 APERTURE END LIST*
D10*
X20967550Y-15153062D02*
X9537550Y-15153062D01*
X9537550Y-12230562D01*
X7632550Y-12230562D01*
X7632550Y-1942062D01*
X20967550Y-1942062D01*
X20967550Y-15153062D01*
D11*
D10*
X10450050Y-2904937D02*
X10530050Y-2984937D01*
X10530050Y-2904937D02*
X10450050Y-2984937D01*
X10450050Y-3604937D02*
X10530050Y-3684937D01*
X10530050Y-3604937D02*
X10450050Y-3684937D01*
X10450050Y-13156187D02*
X10530050Y-13236187D01*
X10530050Y-13156187D02*
X10450050Y-13236187D01*
X10450050Y-13856187D02*
X10530050Y-13936187D01*
X10530050Y-13856187D02*
X10450050Y-13936187D01*
D12*
X8672550Y-3150062D02*
G75*
G03*
X8497550Y-3150062I-87500J0D01*
G01*
X8497550Y-3150062D02*
G75*
G03*
X8672550Y-3150062I87500J0D01*
G01*
X8672550Y-4166062D02*
G75*
G03*
X8497550Y-4166062I-87500J0D01*
G01*
X8497550Y-4166062D02*
G75*
G03*
X8672550Y-4166062I87500J0D01*
G01*
X8672550Y-5055063D02*
G75*
G03*
X8497550Y-5055063I-87500J0D01*
G01*
X8497550Y-5055063D02*
G75*
G03*
X8672550Y-5055063I87500J0D01*
G01*
X8672550Y-6071062D02*
G75*
G03*
X8497550Y-6071062I-87500J0D01*
G01*
X8497550Y-6071062D02*
G75*
G03*
X8672550Y-6071062I87500J0D01*
G01*
X8672550Y-6960062D02*
G75*
G03*
X8497550Y-6960062I-87500J0D01*
G01*
X8497550Y-6960062D02*
G75*
G03*
X8672550Y-6960062I87500J0D01*
G01*
X8672550Y-7976062D02*
G75*
G03*
X8497550Y-7976062I-87500J0D01*
G01*
X8497550Y-7976062D02*
G75*
G03*
X8672550Y-7976062I87500J0D01*
G01*
X8672550Y-8865063D02*
G75*
G03*
X8497550Y-8865063I-87500J0D01*
G01*
X8497550Y-8865063D02*
G75*
G03*
X8672550Y-8865063I87500J0D01*
G01*
X8672550Y-9881063D02*
G75*
G03*
X8497550Y-9881063I-87500J0D01*
G01*
X8497550Y-9881063D02*
G75*
G03*
X8672550Y-9881063I87500J0D01*
G01*
X8672550Y-10770063D02*
G75*
G03*
X8497550Y-10770063I-87500J0D01*
G01*
X8497550Y-10770063D02*
G75*
G03*
X8672550Y-10770063I87500J0D01*
G01*
X8672550Y-11786062D02*
G75*
G03*
X8497550Y-11786062I-87500J0D01*
G01*
X8497550Y-11786062D02*
G75*
G03*
X8672550Y-11786062I87500J0D01*
G01*
X10069550Y-6515562D02*
G75*
G03*
X9894550Y-6515562I-87500J0D01*
G01*
X9894550Y-6515562D02*
G75*
G03*
X10069550Y-6515562I87500J0D01*
G01*
X10069550Y-9373063D02*
G75*
G03*
X9894550Y-9373063I-87500J0D01*
G01*
X9894550Y-9373063D02*
G75*
G03*
X10069550Y-9373063I87500J0D01*
G01*
X10069550Y-11278062D02*
G75*
G03*
X9894550Y-11278062I-87500J0D01*
G01*
X9894550Y-11278062D02*
G75*
G03*
X10069550Y-11278062I87500J0D01*
G01*
X11085550Y-6515562D02*
G75*
G03*
X10910550Y-6515562I-87500J0D01*
G01*
X10910550Y-6515562D02*
G75*
G03*
X11085550Y-6515562I87500J0D01*
G01*
X11085550Y-9373063D02*
G75*
G03*
X10910550Y-9373063I-87500J0D01*
G01*
X10910550Y-9373063D02*
G75*
G03*
X11085550Y-9373063I87500J0D01*
G01*
X11085550Y-11278062D02*
G75*
G03*
X10910550Y-11278062I-87500J0D01*
G01*
X10910550Y-11278062D02*
G75*
G03*
X11085550Y-11278062I87500J0D01*
G01*
X11974550Y-5563063D02*
G75*
G03*
X11799550Y-5563063I-87500J0D01*
G01*
X11799550Y-5563063D02*
G75*
G03*
X11974550Y-5563063I87500J0D01*
G01*
X11974550Y-7468062D02*
G75*
G03*
X11799550Y-7468062I-87500J0D01*
G01*
X11799550Y-7468062D02*
G75*
G03*
X11974550Y-7468062I87500J0D01*
G01*
X11974550Y-9373063D02*
G75*
G03*
X11799550Y-9373063I-87500J0D01*
G01*
X11799550Y-9373063D02*
G75*
G03*
X11974550Y-9373063I87500J0D01*
G01*
X11974550Y-11278062D02*
G75*
G03*
X11799550Y-11278062I-87500J0D01*
G01*
X11799550Y-11278062D02*
G75*
G03*
X11974550Y-11278062I87500J0D01*
G01*
X12990550Y-5563063D02*
G75*
G03*
X12815550Y-5563063I-87500J0D01*
G01*
X12815550Y-5563063D02*
G75*
G03*
X12990550Y-5563063I87500J0D01*
G01*
X12990550Y-7468062D02*
G75*
G03*
X12815550Y-7468062I-87500J0D01*
G01*
X12815550Y-7468062D02*
G75*
G03*
X12990550Y-7468062I87500J0D01*
G01*
X12990550Y-9373063D02*
G75*
G03*
X12815550Y-9373063I-87500J0D01*
G01*
X12815550Y-9373063D02*
G75*
G03*
X12990550Y-9373063I87500J0D01*
G01*
X12990550Y-11278062D02*
G75*
G03*
X12815550Y-11278062I-87500J0D01*
G01*
X12815550Y-11278062D02*
G75*
G03*
X12990550Y-11278062I87500J0D01*
G01*
X13879550Y-5563063D02*
G75*
G03*
X13704550Y-5563063I-87500J0D01*
G01*
X13704550Y-5563063D02*
G75*
G03*
X13879550Y-5563063I87500J0D01*
G01*
X13879550Y-7468062D02*
G75*
G03*
X13704550Y-7468062I-87500J0D01*
G01*
X13704550Y-7468062D02*
G75*
G03*
X13879550Y-7468062I87500J0D01*
G01*
X13879550Y-9373063D02*
G75*
G03*
X13704550Y-9373063I-87500J0D01*
G01*
X13704550Y-9373063D02*
G75*
G03*
X13879550Y-9373063I87500J0D01*
G01*
X13879550Y-11278062D02*
G75*
G03*
X13704550Y-11278062I-87500J0D01*
G01*
X13704550Y-11278062D02*
G75*
G03*
X13879550Y-11278062I87500J0D01*
G01*
X14832050Y-3658062D02*
G75*
G03*
X14657050Y-3658062I-87500J0D01*
G01*
X14657050Y-3658062D02*
G75*
G03*
X14832050Y-3658062I87500J0D01*
G01*
X14832050Y-13183062D02*
G75*
G03*
X14657050Y-13183062I-87500J0D01*
G01*
X14657050Y-13183062D02*
G75*
G03*
X14832050Y-13183062I87500J0D01*
G01*
X14895550Y-5563063D02*
G75*
G03*
X14720550Y-5563063I-87500J0D01*
G01*
X14720550Y-5563063D02*
G75*
G03*
X14895550Y-5563063I87500J0D01*
G01*
X14895550Y-7468062D02*
G75*
G03*
X14720550Y-7468062I-87500J0D01*
G01*
X14720550Y-7468062D02*
G75*
G03*
X14895550Y-7468062I87500J0D01*
G01*
X14895550Y-9373063D02*
G75*
G03*
X14720550Y-9373063I-87500J0D01*
G01*
X14720550Y-9373063D02*
G75*
G03*
X14895550Y-9373063I87500J0D01*
G01*
X14895550Y-11278062D02*
G75*
G03*
X14720550Y-11278062I-87500J0D01*
G01*
X14720550Y-11278062D02*
G75*
G03*
X14895550Y-11278062I87500J0D01*
G01*
X15784550Y-5563063D02*
G75*
G03*
X15609550Y-5563063I-87500J0D01*
G01*
X15609550Y-5563063D02*
G75*
G03*
X15784550Y-5563063I87500J0D01*
G01*
X15784550Y-7468062D02*
G75*
G03*
X15609550Y-7468062I-87500J0D01*
G01*
X15609550Y-7468062D02*
G75*
G03*
X15784550Y-7468062I87500J0D01*
G01*
X15784550Y-9373063D02*
G75*
G03*
X15609550Y-9373063I-87500J0D01*
G01*
X15609550Y-9373063D02*
G75*
G03*
X15784550Y-9373063I87500J0D01*
G01*
X15784550Y-11278062D02*
G75*
G03*
X15609550Y-11278062I-87500J0D01*
G01*
X15609550Y-11278062D02*
G75*
G03*
X15784550Y-11278062I87500J0D01*
G01*
X15848050Y-3658062D02*
G75*
G03*
X15673050Y-3658062I-87500J0D01*
G01*
X15673050Y-3658062D02*
G75*
G03*
X15848050Y-3658062I87500J0D01*
G01*
X15848050Y-13183062D02*
G75*
G03*
X15673050Y-13183062I-87500J0D01*
G01*
X15673050Y-13183062D02*
G75*
G03*
X15848050Y-13183062I87500J0D01*
G01*
X16800550Y-5563063D02*
G75*
G03*
X16625550Y-5563063I-87500J0D01*
G01*
X16625550Y-5563063D02*
G75*
G03*
X16800550Y-5563063I87500J0D01*
G01*
X16800550Y-7468062D02*
G75*
G03*
X16625550Y-7468062I-87500J0D01*
G01*
X16625550Y-7468062D02*
G75*
G03*
X16800550Y-7468062I87500J0D01*
G01*
X16800550Y-9373063D02*
G75*
G03*
X16625550Y-9373063I-87500J0D01*
G01*
X16625550Y-9373063D02*
G75*
G03*
X16800550Y-9373063I87500J0D01*
G01*
X16800550Y-11278062D02*
G75*
G03*
X16625550Y-11278062I-87500J0D01*
G01*
X16625550Y-11278062D02*
G75*
G03*
X16800550Y-11278062I87500J0D01*
G01*
X17689550Y-5563063D02*
G75*
G03*
X17514550Y-5563063I-87500J0D01*
G01*
X17514550Y-5563063D02*
G75*
G03*
X17689550Y-5563063I87500J0D01*
G01*
X17689550Y-7468062D02*
G75*
G03*
X17514550Y-7468062I-87500J0D01*
G01*
X17514550Y-7468062D02*
G75*
G03*
X17689550Y-7468062I87500J0D01*
G01*
X17689550Y-10325563D02*
G75*
G03*
X17514550Y-10325563I-87500J0D01*
G01*
X17514550Y-10325563D02*
G75*
G03*
X17689550Y-10325563I87500J0D01*
G01*
X18705550Y-5563063D02*
G75*
G03*
X18530550Y-5563063I-87500J0D01*
G01*
X18530550Y-5563063D02*
G75*
G03*
X18705550Y-5563063I87500J0D01*
G01*
X18705550Y-7468062D02*
G75*
G03*
X18530550Y-7468062I-87500J0D01*
G01*
X18530550Y-7468062D02*
G75*
G03*
X18705550Y-7468062I87500J0D01*
G01*
X18705550Y-10325563D02*
G75*
G03*
X18530550Y-10325563I-87500J0D01*
G01*
X18530550Y-10325563D02*
G75*
G03*
X18705550Y-10325563I87500J0D01*
G01*
X19594550Y-5563063D02*
G75*
G03*
X19419550Y-5563063I-87500J0D01*
G01*
X19419550Y-5563063D02*
G75*
G03*
X19594550Y-5563063I87500J0D01*
G01*
X19594550Y-7468062D02*
G75*
G03*
X19419550Y-7468062I-87500J0D01*
G01*
X19419550Y-7468062D02*
G75*
G03*
X19594550Y-7468062I87500J0D01*
G01*
X19594550Y-10325563D02*
G75*
G03*
X19419550Y-10325563I-87500J0D01*
G01*
X19419550Y-10325563D02*
G75*
G03*
X19594550Y-10325563I87500J0D01*
G01*
X20610550Y-5563063D02*
G75*
G03*
X20435550Y-5563063I-87500J0D01*
G01*
X20435550Y-5563063D02*
G75*
G03*
X20610550Y-5563063I87500J0D01*
G01*
X20610550Y-7468062D02*
G75*
G03*
X20435550Y-7468062I-87500J0D01*
G01*
X20435550Y-7468062D02*
G75*
G03*
X20610550Y-7468062I87500J0D01*
G01*
X20610550Y-10325563D02*
G75*
G03*
X20435550Y-10325563I-87500J0D01*
G01*
X20435550Y-10325563D02*
G75*
G03*
X20610550Y-10325563I87500J0D01*
G01*
D11*
X7831050Y-2042062D02*
X7831050Y-2242063D01*
X7731050Y-2142063D02*
X7931050Y-2142063D01*
X9737550Y-14599062D02*
X9737550Y-14799062D01*
X9637550Y-14699062D02*
X9837550Y-14699062D01*
X20767550Y-2042062D02*
X20767550Y-2242063D01*
X20667550Y-2142063D02*
X20867550Y-2142063D01*
X20767550Y-14599062D02*
X20767550Y-14799062D01*
X20667550Y-14699062D02*
X20867550Y-14699062D01*
D13*
X8726473Y-3799485D02*
X8726473Y-3516640D01*
X8443627Y-3516640D01*
X8443627Y-3799485D01*
X8726473Y-3799485D01*
X8726473Y-5704485D02*
X8726473Y-5421640D01*
X8443627Y-5421640D01*
X8443627Y-5704485D01*
X8726473Y-5704485D01*
X8726473Y-7609485D02*
X8726473Y-7326640D01*
X8443627Y-7326640D01*
X8443627Y-7609485D01*
X8726473Y-7609485D01*
X8726473Y-9514485D02*
X8726473Y-9231640D01*
X8443627Y-9231640D01*
X8443627Y-9514485D01*
X8726473Y-9514485D01*
X8726473Y-11419485D02*
X8726473Y-11136640D01*
X8443627Y-11136640D01*
X8443627Y-11419485D01*
X8726473Y-11419485D01*
X10631473Y-6656985D02*
X10631473Y-6374140D01*
X10348627Y-6374140D01*
X10348627Y-6656985D01*
X10631473Y-6656985D01*
X10631473Y-9514485D02*
X10631473Y-9231640D01*
X10348627Y-9231640D01*
X10348627Y-9514485D01*
X10631473Y-9514485D01*
X10631473Y-11419485D02*
X10631473Y-11136640D01*
X10348627Y-11136640D01*
X10348627Y-11419485D01*
X10631473Y-11419485D01*
X12536473Y-5704485D02*
X12536473Y-5421640D01*
X12253627Y-5421640D01*
X12253627Y-5704485D01*
X12536473Y-5704485D01*
X12536473Y-7609485D02*
X12536473Y-7326640D01*
X12253627Y-7326640D01*
X12253627Y-7609485D01*
X12536473Y-7609485D01*
X12536473Y-9514485D02*
X12536473Y-9231640D01*
X12253627Y-9231640D01*
X12253627Y-9514485D01*
X12536473Y-9514485D01*
X12536473Y-11419485D02*
X12536473Y-11136640D01*
X12253627Y-11136640D01*
X12253627Y-11419485D01*
X12536473Y-11419485D01*
X14441473Y-5704485D02*
X14441473Y-5421640D01*
X14158627Y-5421640D01*
X14158627Y-5704485D01*
X14441473Y-5704485D01*
X14441473Y-7609485D02*
X14441473Y-7326640D01*
X14158627Y-7326640D01*
X14158627Y-7609485D01*
X14441473Y-7609485D01*
X14441473Y-9514485D02*
X14441473Y-9231640D01*
X14158627Y-9231640D01*
X14158627Y-9514485D01*
X14441473Y-9514485D01*
X14441473Y-11419485D02*
X14441473Y-11136640D01*
X14158627Y-11136640D01*
X14158627Y-11419485D01*
X14441473Y-11419485D01*
X15393973Y-3799485D02*
X15393973Y-3516640D01*
X15111127Y-3516640D01*
X15111127Y-3799485D01*
X15393973Y-3799485D01*
X15393973Y-13324485D02*
X15393973Y-13041640D01*
X15111127Y-13041640D01*
X15111127Y-13324485D01*
X15393973Y-13324485D01*
X16346473Y-5704485D02*
X16346473Y-5421640D01*
X16063627Y-5421640D01*
X16063627Y-5704485D01*
X16346473Y-5704485D01*
X16346473Y-7609485D02*
X16346473Y-7326640D01*
X16063627Y-7326640D01*
X16063627Y-7609485D01*
X16346473Y-7609485D01*
X16346473Y-9514485D02*
X16346473Y-9231640D01*
X16063627Y-9231640D01*
X16063627Y-9514485D01*
X16346473Y-9514485D01*
X16346473Y-11419485D02*
X16346473Y-11136640D01*
X16063627Y-11136640D01*
X16063627Y-11419485D01*
X16346473Y-11419485D01*
X18251473Y-5704485D02*
X18251473Y-5421640D01*
X17968627Y-5421640D01*
X17968627Y-5704485D01*
X18251473Y-5704485D01*
X18251473Y-7609485D02*
X18251473Y-7326640D01*
X17968627Y-7326640D01*
X17968627Y-7609485D01*
X18251473Y-7609485D01*
X18251473Y-10466985D02*
X18251473Y-10184140D01*
X17968627Y-10184140D01*
X17968627Y-10466985D01*
X18251473Y-10466985D01*
X20156473Y-5704485D02*
X20156473Y-5421640D01*
X19873627Y-5421640D01*
X19873627Y-5704485D01*
X20156473Y-5704485D01*
X20156473Y-7609485D02*
X20156473Y-7326640D01*
X19873627Y-7326640D01*
X19873627Y-7609485D01*
X20156473Y-7609485D01*
X20156473Y-10466985D02*
X20156473Y-10184140D01*
X19873627Y-10184140D01*
X19873627Y-10466985D01*
X20156473Y-10466985D01*
D11*
X7888327Y-15469546D02*
X7888327Y-15269546D01*
X7888327Y-15269546D02*
X7935946Y-15269546D01*
X7935946Y-15269546D02*
X7964517Y-15279070D01*
X7964517Y-15279070D02*
X7983565Y-15298118D01*
X7983565Y-15298118D02*
X7993089Y-15317165D01*
X7993089Y-15317165D02*
X8002612Y-15355260D01*
X8002612Y-15355260D02*
X8002612Y-15383832D01*
X8002612Y-15383832D02*
X7993089Y-15421927D01*
X7993089Y-15421927D02*
X7983565Y-15440975D01*
X7983565Y-15440975D02*
X7964517Y-15460022D01*
X7964517Y-15460022D02*
X7935946Y-15469546D01*
X7935946Y-15469546D02*
X7888327Y-15469546D01*
X8088327Y-15469546D02*
X8088327Y-15336213D01*
X8088327Y-15374308D02*
X8097851Y-15355260D01*
X8097851Y-15355260D02*
X8107374Y-15345737D01*
X8107374Y-15345737D02*
X8126422Y-15336213D01*
X8126422Y-15336213D02*
X8145470Y-15336213D01*
X8212136Y-15469546D02*
X8212136Y-15336213D01*
X8212136Y-15269546D02*
X8202612Y-15279070D01*
X8202612Y-15279070D02*
X8212136Y-15288594D01*
X8212136Y-15288594D02*
X8221660Y-15279070D01*
X8221660Y-15279070D02*
X8212136Y-15269546D01*
X8212136Y-15269546D02*
X8212136Y-15288594D01*
X8335946Y-15469546D02*
X8316898Y-15460022D01*
X8316898Y-15460022D02*
X8307374Y-15440975D01*
X8307374Y-15440975D02*
X8307374Y-15269546D01*
X8440708Y-15469546D02*
X8421660Y-15460022D01*
X8421660Y-15460022D02*
X8412136Y-15440975D01*
X8412136Y-15440975D02*
X8412136Y-15269546D01*
X8669279Y-15469546D02*
X8669279Y-15269546D01*
X8669279Y-15269546D02*
X8735946Y-15412403D01*
X8735946Y-15412403D02*
X8802613Y-15269546D01*
X8802613Y-15269546D02*
X8802613Y-15469546D01*
X8983565Y-15469546D02*
X8983565Y-15364784D01*
X8983565Y-15364784D02*
X8974041Y-15345737D01*
X8974041Y-15345737D02*
X8954994Y-15336213D01*
X8954994Y-15336213D02*
X8916898Y-15336213D01*
X8916898Y-15336213D02*
X8897851Y-15345737D01*
X8983565Y-15460022D02*
X8964517Y-15469546D01*
X8964517Y-15469546D02*
X8916898Y-15469546D01*
X8916898Y-15469546D02*
X8897851Y-15460022D01*
X8897851Y-15460022D02*
X8888327Y-15440975D01*
X8888327Y-15440975D02*
X8888327Y-15421927D01*
X8888327Y-15421927D02*
X8897851Y-15402880D01*
X8897851Y-15402880D02*
X8916898Y-15393356D01*
X8916898Y-15393356D02*
X8964517Y-15393356D01*
X8964517Y-15393356D02*
X8983565Y-15383832D01*
X9078803Y-15336213D02*
X9078803Y-15536213D01*
X9078803Y-15345737D02*
X9097851Y-15336213D01*
X9097851Y-15336213D02*
X9135946Y-15336213D01*
X9135946Y-15336213D02*
X9154994Y-15345737D01*
X9154994Y-15345737D02*
X9164517Y-15355260D01*
X9164517Y-15355260D02*
X9174041Y-15374308D01*
X9174041Y-15374308D02*
X9174041Y-15431451D01*
X9174041Y-15431451D02*
X9164517Y-15450499D01*
X9164517Y-15450499D02*
X9154994Y-15460022D01*
X9154994Y-15460022D02*
X9135946Y-15469546D01*
X9135946Y-15469546D02*
X9097851Y-15469546D01*
X9097851Y-15469546D02*
X9078803Y-15460022D01*
X9259755Y-15450499D02*
X9269279Y-15460022D01*
X9269279Y-15460022D02*
X9259755Y-15469546D01*
X9259755Y-15469546D02*
X9250232Y-15460022D01*
X9250232Y-15460022D02*
X9259755Y-15450499D01*
X9259755Y-15450499D02*
X9259755Y-15469546D01*
X9259755Y-15345737D02*
X9269279Y-15355260D01*
X9269279Y-15355260D02*
X9259755Y-15364784D01*
X9259755Y-15364784D02*
X9250232Y-15355260D01*
X9250232Y-15355260D02*
X9259755Y-15345737D01*
X9259755Y-15345737D02*
X9259755Y-15364784D01*
D10*
X7547550Y-15758062D02*
X7627550Y-15838062D01*
X7627550Y-15758062D02*
X7547550Y-15838062D01*
D11*
X7926422Y-15689546D02*
X7945470Y-15689546D01*
X7945470Y-15689546D02*
X7964517Y-15699070D01*
X7964517Y-15699070D02*
X7974041Y-15708594D01*
X7974041Y-15708594D02*
X7983565Y-15727641D01*
X7983565Y-15727641D02*
X7993089Y-15765737D01*
X7993089Y-15765737D02*
X7993089Y-15813356D01*
X7993089Y-15813356D02*
X7983565Y-15851451D01*
X7983565Y-15851451D02*
X7974041Y-15870499D01*
X7974041Y-15870499D02*
X7964517Y-15880022D01*
X7964517Y-15880022D02*
X7945470Y-15889546D01*
X7945470Y-15889546D02*
X7926422Y-15889546D01*
X7926422Y-15889546D02*
X7907374Y-15880022D01*
X7907374Y-15880022D02*
X7897851Y-15870499D01*
X7897851Y-15870499D02*
X7888327Y-15851451D01*
X7888327Y-15851451D02*
X7878803Y-15813356D01*
X7878803Y-15813356D02*
X7878803Y-15765737D01*
X7878803Y-15765737D02*
X7888327Y-15727641D01*
X7888327Y-15727641D02*
X7897851Y-15708594D01*
X7897851Y-15708594D02*
X7907374Y-15699070D01*
X7907374Y-15699070D02*
X7926422Y-15689546D01*
X8078803Y-15870499D02*
X8088327Y-15880022D01*
X8088327Y-15880022D02*
X8078803Y-15889546D01*
X8078803Y-15889546D02*
X8069279Y-15880022D01*
X8069279Y-15880022D02*
X8078803Y-15870499D01*
X8078803Y-15870499D02*
X8078803Y-15889546D01*
X8202612Y-15775260D02*
X8183565Y-15765737D01*
X8183565Y-15765737D02*
X8174041Y-15756213D01*
X8174041Y-15756213D02*
X8164517Y-15737165D01*
X8164517Y-15737165D02*
X8164517Y-15727641D01*
X8164517Y-15727641D02*
X8174041Y-15708594D01*
X8174041Y-15708594D02*
X8183565Y-15699070D01*
X8183565Y-15699070D02*
X8202612Y-15689546D01*
X8202612Y-15689546D02*
X8240708Y-15689546D01*
X8240708Y-15689546D02*
X8259755Y-15699070D01*
X8259755Y-15699070D02*
X8269279Y-15708594D01*
X8269279Y-15708594D02*
X8278803Y-15727641D01*
X8278803Y-15727641D02*
X8278803Y-15737165D01*
X8278803Y-15737165D02*
X8269279Y-15756213D01*
X8269279Y-15756213D02*
X8259755Y-15765737D01*
X8259755Y-15765737D02*
X8240708Y-15775260D01*
X8240708Y-15775260D02*
X8202612Y-15775260D01*
X8202612Y-15775260D02*
X8183565Y-15784784D01*
X8183565Y-15784784D02*
X8174041Y-15794308D01*
X8174041Y-15794308D02*
X8164517Y-15813356D01*
X8164517Y-15813356D02*
X8164517Y-15851451D01*
X8164517Y-15851451D02*
X8174041Y-15870499D01*
X8174041Y-15870499D02*
X8183565Y-15880022D01*
X8183565Y-15880022D02*
X8202612Y-15889546D01*
X8202612Y-15889546D02*
X8240708Y-15889546D01*
X8240708Y-15889546D02*
X8259755Y-15880022D01*
X8259755Y-15880022D02*
X8269279Y-15870499D01*
X8269279Y-15870499D02*
X8278803Y-15851451D01*
X8278803Y-15851451D02*
X8278803Y-15813356D01*
X8278803Y-15813356D02*
X8269279Y-15794308D01*
X8269279Y-15794308D02*
X8259755Y-15784784D01*
X8259755Y-15784784D02*
X8240708Y-15775260D01*
X8402613Y-15689546D02*
X8421660Y-15689546D01*
X8421660Y-15689546D02*
X8440708Y-15699070D01*
X8440708Y-15699070D02*
X8450232Y-15708594D01*
X8450232Y-15708594D02*
X8459755Y-15727641D01*
X8459755Y-15727641D02*
X8469279Y-15765737D01*
X8469279Y-15765737D02*
X8469279Y-15813356D01*
X8469279Y-15813356D02*
X8459755Y-15851451D01*
X8459755Y-15851451D02*
X8450232Y-15870499D01*
X8450232Y-15870499D02*
X8440708Y-15880022D01*
X8440708Y-15880022D02*
X8421660Y-15889546D01*
X8421660Y-15889546D02*
X8402613Y-15889546D01*
X8402613Y-15889546D02*
X8383565Y-15880022D01*
X8383565Y-15880022D02*
X8374041Y-15870499D01*
X8374041Y-15870499D02*
X8364517Y-15851451D01*
X8364517Y-15851451D02*
X8354993Y-15813356D01*
X8354993Y-15813356D02*
X8354993Y-15765737D01*
X8354993Y-15765737D02*
X8364517Y-15727641D01*
X8364517Y-15727641D02*
X8374041Y-15708594D01*
X8374041Y-15708594D02*
X8383565Y-15699070D01*
X8383565Y-15699070D02*
X8402613Y-15689546D01*
X8593089Y-15689546D02*
X8612136Y-15689546D01*
X8612136Y-15689546D02*
X8631184Y-15699070D01*
X8631184Y-15699070D02*
X8640708Y-15708594D01*
X8640708Y-15708594D02*
X8650232Y-15727641D01*
X8650232Y-15727641D02*
X8659755Y-15765737D01*
X8659755Y-15765737D02*
X8659755Y-15813356D01*
X8659755Y-15813356D02*
X8650232Y-15851451D01*
X8650232Y-15851451D02*
X8640708Y-15870499D01*
X8640708Y-15870499D02*
X8631184Y-15880022D01*
X8631184Y-15880022D02*
X8612136Y-15889546D01*
X8612136Y-15889546D02*
X8593089Y-15889546D01*
X8593089Y-15889546D02*
X8574041Y-15880022D01*
X8574041Y-15880022D02*
X8564517Y-15870499D01*
X8564517Y-15870499D02*
X8554994Y-15851451D01*
X8554994Y-15851451D02*
X8545470Y-15813356D01*
X8545470Y-15813356D02*
X8545470Y-15765737D01*
X8545470Y-15765737D02*
X8554994Y-15727641D01*
X8554994Y-15727641D02*
X8564517Y-15708594D01*
X8564517Y-15708594D02*
X8574041Y-15699070D01*
X8574041Y-15699070D02*
X8593089Y-15689546D01*
X8745470Y-15889546D02*
X8745470Y-15756213D01*
X8745470Y-15775260D02*
X8754994Y-15765737D01*
X8754994Y-15765737D02*
X8774041Y-15756213D01*
X8774041Y-15756213D02*
X8802613Y-15756213D01*
X8802613Y-15756213D02*
X8821660Y-15765737D01*
X8821660Y-15765737D02*
X8831184Y-15784784D01*
X8831184Y-15784784D02*
X8831184Y-15889546D01*
X8831184Y-15784784D02*
X8840708Y-15765737D01*
X8840708Y-15765737D02*
X8859755Y-15756213D01*
X8859755Y-15756213D02*
X8888327Y-15756213D01*
X8888327Y-15756213D02*
X8907375Y-15765737D01*
X8907375Y-15765737D02*
X8916898Y-15784784D01*
X8916898Y-15784784D02*
X8916898Y-15889546D01*
X9012136Y-15889546D02*
X9012136Y-15756213D01*
X9012136Y-15775260D02*
X9021660Y-15765737D01*
X9021660Y-15765737D02*
X9040708Y-15756213D01*
X9040708Y-15756213D02*
X9069279Y-15756213D01*
X9069279Y-15756213D02*
X9088327Y-15765737D01*
X9088327Y-15765737D02*
X9097851Y-15784784D01*
X9097851Y-15784784D02*
X9097851Y-15889546D01*
X9097851Y-15784784D02*
X9107375Y-15765737D01*
X9107375Y-15765737D02*
X9126422Y-15756213D01*
X9126422Y-15756213D02*
X9154994Y-15756213D01*
X9154994Y-15756213D02*
X9174041Y-15765737D01*
X9174041Y-15765737D02*
X9183565Y-15784784D01*
X9183565Y-15784784D02*
X9183565Y-15889546D01*
X9574041Y-15680022D02*
X9402613Y-15937165D01*
X9831184Y-15689546D02*
X9850232Y-15689546D01*
X9850232Y-15689546D02*
X9869279Y-15699070D01*
X9869279Y-15699070D02*
X9878803Y-15708594D01*
X9878803Y-15708594D02*
X9888327Y-15727641D01*
X9888327Y-15727641D02*
X9897851Y-15765737D01*
X9897851Y-15765737D02*
X9897851Y-15813356D01*
X9897851Y-15813356D02*
X9888327Y-15851451D01*
X9888327Y-15851451D02*
X9878803Y-15870499D01*
X9878803Y-15870499D02*
X9869279Y-15880022D01*
X9869279Y-15880022D02*
X9850232Y-15889546D01*
X9850232Y-15889546D02*
X9831184Y-15889546D01*
X9831184Y-15889546D02*
X9812137Y-15880022D01*
X9812137Y-15880022D02*
X9802613Y-15870499D01*
X9802613Y-15870499D02*
X9793089Y-15851451D01*
X9793089Y-15851451D02*
X9783565Y-15813356D01*
X9783565Y-15813356D02*
X9783565Y-15765737D01*
X9783565Y-15765737D02*
X9793089Y-15727641D01*
X9793089Y-15727641D02*
X9802613Y-15708594D01*
X9802613Y-15708594D02*
X9812137Y-15699070D01*
X9812137Y-15699070D02*
X9831184Y-15689546D01*
X9983565Y-15870499D02*
X9993089Y-15880022D01*
X9993089Y-15880022D02*
X9983565Y-15889546D01*
X9983565Y-15889546D02*
X9974041Y-15880022D01*
X9974041Y-15880022D02*
X9983565Y-15870499D01*
X9983565Y-15870499D02*
X9983565Y-15889546D01*
X10116898Y-15689546D02*
X10135946Y-15689546D01*
X10135946Y-15689546D02*
X10154994Y-15699070D01*
X10154994Y-15699070D02*
X10164518Y-15708594D01*
X10164518Y-15708594D02*
X10174041Y-15727641D01*
X10174041Y-15727641D02*
X10183565Y-15765737D01*
X10183565Y-15765737D02*
X10183565Y-15813356D01*
X10183565Y-15813356D02*
X10174041Y-15851451D01*
X10174041Y-15851451D02*
X10164518Y-15870499D01*
X10164518Y-15870499D02*
X10154994Y-15880022D01*
X10154994Y-15880022D02*
X10135946Y-15889546D01*
X10135946Y-15889546D02*
X10116898Y-15889546D01*
X10116898Y-15889546D02*
X10097851Y-15880022D01*
X10097851Y-15880022D02*
X10088327Y-15870499D01*
X10088327Y-15870499D02*
X10078803Y-15851451D01*
X10078803Y-15851451D02*
X10069279Y-15813356D01*
X10069279Y-15813356D02*
X10069279Y-15765737D01*
X10069279Y-15765737D02*
X10078803Y-15727641D01*
X10078803Y-15727641D02*
X10088327Y-15708594D01*
X10088327Y-15708594D02*
X10097851Y-15699070D01*
X10097851Y-15699070D02*
X10116898Y-15689546D01*
X10250232Y-15689546D02*
X10374041Y-15689546D01*
X10374041Y-15689546D02*
X10307375Y-15765737D01*
X10307375Y-15765737D02*
X10335946Y-15765737D01*
X10335946Y-15765737D02*
X10354994Y-15775260D01*
X10354994Y-15775260D02*
X10364518Y-15784784D01*
X10364518Y-15784784D02*
X10374041Y-15803832D01*
X10374041Y-15803832D02*
X10374041Y-15851451D01*
X10374041Y-15851451D02*
X10364518Y-15870499D01*
X10364518Y-15870499D02*
X10354994Y-15880022D01*
X10354994Y-15880022D02*
X10335946Y-15889546D01*
X10335946Y-15889546D02*
X10278803Y-15889546D01*
X10278803Y-15889546D02*
X10259756Y-15880022D01*
X10259756Y-15880022D02*
X10250232Y-15870499D01*
X10564518Y-15889546D02*
X10450232Y-15889546D01*
X10507375Y-15889546D02*
X10507375Y-15689546D01*
X10507375Y-15689546D02*
X10488327Y-15718118D01*
X10488327Y-15718118D02*
X10469279Y-15737165D01*
X10469279Y-15737165D02*
X10450232Y-15746689D01*
X10745470Y-15689546D02*
X10650232Y-15689546D01*
X10650232Y-15689546D02*
X10640708Y-15784784D01*
X10640708Y-15784784D02*
X10650232Y-15775260D01*
X10650232Y-15775260D02*
X10669279Y-15765737D01*
X10669279Y-15765737D02*
X10716899Y-15765737D01*
X10716899Y-15765737D02*
X10735946Y-15775260D01*
X10735946Y-15775260D02*
X10745470Y-15784784D01*
X10745470Y-15784784D02*
X10754994Y-15803832D01*
X10754994Y-15803832D02*
X10754994Y-15851451D01*
X10754994Y-15851451D02*
X10745470Y-15870499D01*
X10745470Y-15870499D02*
X10735946Y-15880022D01*
X10735946Y-15880022D02*
X10716899Y-15889546D01*
X10716899Y-15889546D02*
X10669279Y-15889546D01*
X10669279Y-15889546D02*
X10650232Y-15880022D01*
X10650232Y-15880022D02*
X10640708Y-15870499D01*
X10831184Y-15689546D02*
X10831184Y-15727641D01*
X10907375Y-15689546D02*
X10907375Y-15727641D01*
X11202613Y-15965737D02*
X11193089Y-15956213D01*
X11193089Y-15956213D02*
X11174041Y-15927641D01*
X11174041Y-15927641D02*
X11164518Y-15908594D01*
X11164518Y-15908594D02*
X11154994Y-15880022D01*
X11154994Y-15880022D02*
X11145470Y-15832403D01*
X11145470Y-15832403D02*
X11145470Y-15794308D01*
X11145470Y-15794308D02*
X11154994Y-15746689D01*
X11154994Y-15746689D02*
X11164518Y-15718118D01*
X11164518Y-15718118D02*
X11174041Y-15699070D01*
X11174041Y-15699070D02*
X11193089Y-15670499D01*
X11193089Y-15670499D02*
X11202613Y-15660975D01*
X11364518Y-15756213D02*
X11364518Y-15889546D01*
X11316898Y-15680022D02*
X11269279Y-15822880D01*
X11269279Y-15822880D02*
X11393089Y-15822880D01*
X11621660Y-15889546D02*
X11621660Y-15689546D01*
X11707375Y-15889546D02*
X11707375Y-15784784D01*
X11707375Y-15784784D02*
X11697851Y-15765737D01*
X11697851Y-15765737D02*
X11678803Y-15756213D01*
X11678803Y-15756213D02*
X11650232Y-15756213D01*
X11650232Y-15756213D02*
X11631184Y-15765737D01*
X11631184Y-15765737D02*
X11621660Y-15775260D01*
X11831184Y-15889546D02*
X11812137Y-15880022D01*
X11812137Y-15880022D02*
X11802613Y-15870499D01*
X11802613Y-15870499D02*
X11793089Y-15851451D01*
X11793089Y-15851451D02*
X11793089Y-15794308D01*
X11793089Y-15794308D02*
X11802613Y-15775260D01*
X11802613Y-15775260D02*
X11812137Y-15765737D01*
X11812137Y-15765737D02*
X11831184Y-15756213D01*
X11831184Y-15756213D02*
X11859756Y-15756213D01*
X11859756Y-15756213D02*
X11878803Y-15765737D01*
X11878803Y-15765737D02*
X11888327Y-15775260D01*
X11888327Y-15775260D02*
X11897851Y-15794308D01*
X11897851Y-15794308D02*
X11897851Y-15851451D01*
X11897851Y-15851451D02*
X11888327Y-15870499D01*
X11888327Y-15870499D02*
X11878803Y-15880022D01*
X11878803Y-15880022D02*
X11859756Y-15889546D01*
X11859756Y-15889546D02*
X11831184Y-15889546D01*
X12012137Y-15889546D02*
X11993089Y-15880022D01*
X11993089Y-15880022D02*
X11983565Y-15860975D01*
X11983565Y-15860975D02*
X11983565Y-15689546D01*
X12164518Y-15880022D02*
X12145470Y-15889546D01*
X12145470Y-15889546D02*
X12107375Y-15889546D01*
X12107375Y-15889546D02*
X12088327Y-15880022D01*
X12088327Y-15880022D02*
X12078803Y-15860975D01*
X12078803Y-15860975D02*
X12078803Y-15784784D01*
X12078803Y-15784784D02*
X12088327Y-15765737D01*
X12088327Y-15765737D02*
X12107375Y-15756213D01*
X12107375Y-15756213D02*
X12145470Y-15756213D01*
X12145470Y-15756213D02*
X12164518Y-15765737D01*
X12164518Y-15765737D02*
X12174041Y-15784784D01*
X12174041Y-15784784D02*
X12174041Y-15803832D01*
X12174041Y-15803832D02*
X12078803Y-15822880D01*
X12250232Y-15880022D02*
X12269280Y-15889546D01*
X12269280Y-15889546D02*
X12307375Y-15889546D01*
X12307375Y-15889546D02*
X12326422Y-15880022D01*
X12326422Y-15880022D02*
X12335946Y-15860975D01*
X12335946Y-15860975D02*
X12335946Y-15851451D01*
X12335946Y-15851451D02*
X12326422Y-15832403D01*
X12326422Y-15832403D02*
X12307375Y-15822880D01*
X12307375Y-15822880D02*
X12278803Y-15822880D01*
X12278803Y-15822880D02*
X12259756Y-15813356D01*
X12259756Y-15813356D02*
X12250232Y-15794308D01*
X12250232Y-15794308D02*
X12250232Y-15784784D01*
X12250232Y-15784784D02*
X12259756Y-15765737D01*
X12259756Y-15765737D02*
X12278803Y-15756213D01*
X12278803Y-15756213D02*
X12307375Y-15756213D01*
X12307375Y-15756213D02*
X12326422Y-15765737D01*
X12402613Y-15965737D02*
X12412137Y-15956213D01*
X12412137Y-15956213D02*
X12431184Y-15927641D01*
X12431184Y-15927641D02*
X12440708Y-15908594D01*
X12440708Y-15908594D02*
X12450232Y-15880022D01*
X12450232Y-15880022D02*
X12459756Y-15832403D01*
X12459756Y-15832403D02*
X12459756Y-15794308D01*
X12459756Y-15794308D02*
X12450232Y-15746689D01*
X12450232Y-15746689D02*
X12440708Y-15718118D01*
X12440708Y-15718118D02*
X12431184Y-15699070D01*
X12431184Y-15699070D02*
X12412137Y-15670499D01*
X12412137Y-15670499D02*
X12402613Y-15660975D01*
X12764518Y-15965737D02*
X12754994Y-15956213D01*
X12754994Y-15956213D02*
X12735946Y-15927641D01*
X12735946Y-15927641D02*
X12726422Y-15908594D01*
X12726422Y-15908594D02*
X12716899Y-15880022D01*
X12716899Y-15880022D02*
X12707375Y-15832403D01*
X12707375Y-15832403D02*
X12707375Y-15794308D01*
X12707375Y-15794308D02*
X12716899Y-15746689D01*
X12716899Y-15746689D02*
X12726422Y-15718118D01*
X12726422Y-15718118D02*
X12735946Y-15699070D01*
X12735946Y-15699070D02*
X12754994Y-15670499D01*
X12754994Y-15670499D02*
X12764518Y-15660975D01*
X12840708Y-15756213D02*
X12840708Y-15889546D01*
X12840708Y-15775260D02*
X12850232Y-15765737D01*
X12850232Y-15765737D02*
X12869280Y-15756213D01*
X12869280Y-15756213D02*
X12897851Y-15756213D01*
X12897851Y-15756213D02*
X12916899Y-15765737D01*
X12916899Y-15765737D02*
X12926422Y-15784784D01*
X12926422Y-15784784D02*
X12926422Y-15889546D01*
X13050232Y-15889546D02*
X13031184Y-15880022D01*
X13031184Y-15880022D02*
X13021661Y-15870499D01*
X13021661Y-15870499D02*
X13012137Y-15851451D01*
X13012137Y-15851451D02*
X13012137Y-15794308D01*
X13012137Y-15794308D02*
X13021661Y-15775260D01*
X13021661Y-15775260D02*
X13031184Y-15765737D01*
X13031184Y-15765737D02*
X13050232Y-15756213D01*
X13050232Y-15756213D02*
X13078803Y-15756213D01*
X13078803Y-15756213D02*
X13097851Y-15765737D01*
X13097851Y-15765737D02*
X13107375Y-15775260D01*
X13107375Y-15775260D02*
X13116899Y-15794308D01*
X13116899Y-15794308D02*
X13116899Y-15851451D01*
X13116899Y-15851451D02*
X13107375Y-15870499D01*
X13107375Y-15870499D02*
X13097851Y-15880022D01*
X13097851Y-15880022D02*
X13078803Y-15889546D01*
X13078803Y-15889546D02*
X13050232Y-15889546D01*
X13174042Y-15756213D02*
X13250232Y-15756213D01*
X13202613Y-15689546D02*
X13202613Y-15860975D01*
X13202613Y-15860975D02*
X13212137Y-15880022D01*
X13212137Y-15880022D02*
X13231184Y-15889546D01*
X13231184Y-15889546D02*
X13250232Y-15889546D01*
X13469280Y-15756213D02*
X13469280Y-15956213D01*
X13469280Y-15765737D02*
X13488327Y-15756213D01*
X13488327Y-15756213D02*
X13526423Y-15756213D01*
X13526423Y-15756213D02*
X13545470Y-15765737D01*
X13545470Y-15765737D02*
X13554994Y-15775260D01*
X13554994Y-15775260D02*
X13564518Y-15794308D01*
X13564518Y-15794308D02*
X13564518Y-15851451D01*
X13564518Y-15851451D02*
X13554994Y-15870499D01*
X13554994Y-15870499D02*
X13545470Y-15880022D01*
X13545470Y-15880022D02*
X13526423Y-15889546D01*
X13526423Y-15889546D02*
X13488327Y-15889546D01*
X13488327Y-15889546D02*
X13469280Y-15880022D01*
X13678803Y-15889546D02*
X13659756Y-15880022D01*
X13659756Y-15880022D02*
X13650232Y-15860975D01*
X13650232Y-15860975D02*
X13650232Y-15689546D01*
X13840708Y-15889546D02*
X13840708Y-15784784D01*
X13840708Y-15784784D02*
X13831184Y-15765737D01*
X13831184Y-15765737D02*
X13812137Y-15756213D01*
X13812137Y-15756213D02*
X13774042Y-15756213D01*
X13774042Y-15756213D02*
X13754994Y-15765737D01*
X13840708Y-15880022D02*
X13821661Y-15889546D01*
X13821661Y-15889546D02*
X13774042Y-15889546D01*
X13774042Y-15889546D02*
X13754994Y-15880022D01*
X13754994Y-15880022D02*
X13745470Y-15860975D01*
X13745470Y-15860975D02*
X13745470Y-15841927D01*
X13745470Y-15841927D02*
X13754994Y-15822880D01*
X13754994Y-15822880D02*
X13774042Y-15813356D01*
X13774042Y-15813356D02*
X13821661Y-15813356D01*
X13821661Y-15813356D02*
X13840708Y-15803832D01*
X13907375Y-15756213D02*
X13983565Y-15756213D01*
X13935946Y-15689546D02*
X13935946Y-15860975D01*
X13935946Y-15860975D02*
X13945470Y-15880022D01*
X13945470Y-15880022D02*
X13964518Y-15889546D01*
X13964518Y-15889546D02*
X13983565Y-15889546D01*
X14126423Y-15880022D02*
X14107375Y-15889546D01*
X14107375Y-15889546D02*
X14069280Y-15889546D01*
X14069280Y-15889546D02*
X14050232Y-15880022D01*
X14050232Y-15880022D02*
X14040708Y-15860975D01*
X14040708Y-15860975D02*
X14040708Y-15784784D01*
X14040708Y-15784784D02*
X14050232Y-15765737D01*
X14050232Y-15765737D02*
X14069280Y-15756213D01*
X14069280Y-15756213D02*
X14107375Y-15756213D01*
X14107375Y-15756213D02*
X14126423Y-15765737D01*
X14126423Y-15765737D02*
X14135946Y-15784784D01*
X14135946Y-15784784D02*
X14135946Y-15803832D01*
X14135946Y-15803832D02*
X14040708Y-15822880D01*
X14307375Y-15889546D02*
X14307375Y-15689546D01*
X14307375Y-15880022D02*
X14288327Y-15889546D01*
X14288327Y-15889546D02*
X14250232Y-15889546D01*
X14250232Y-15889546D02*
X14231184Y-15880022D01*
X14231184Y-15880022D02*
X14221661Y-15870499D01*
X14221661Y-15870499D02*
X14212137Y-15851451D01*
X14212137Y-15851451D02*
X14212137Y-15794308D01*
X14212137Y-15794308D02*
X14221661Y-15775260D01*
X14221661Y-15775260D02*
X14231184Y-15765737D01*
X14231184Y-15765737D02*
X14250232Y-15756213D01*
X14250232Y-15756213D02*
X14288327Y-15756213D01*
X14288327Y-15756213D02*
X14307375Y-15765737D01*
X14383565Y-15965737D02*
X14393089Y-15956213D01*
X14393089Y-15956213D02*
X14412137Y-15927641D01*
X14412137Y-15927641D02*
X14421661Y-15908594D01*
X14421661Y-15908594D02*
X14431184Y-15880022D01*
X14431184Y-15880022D02*
X14440708Y-15832403D01*
X14440708Y-15832403D02*
X14440708Y-15794308D01*
X14440708Y-15794308D02*
X14431184Y-15746689D01*
X14431184Y-15746689D02*
X14421661Y-15718118D01*
X14421661Y-15718118D02*
X14412137Y-15699070D01*
X14412137Y-15699070D02*
X14393089Y-15670499D01*
X14393089Y-15670499D02*
X14383565Y-15660975D01*
D12*
X7627550Y-16062062D02*
G75*
G03*
X7452550Y-16062062I-87500J0D01*
G01*
X7452550Y-16062062D02*
G75*
G03*
X7627550Y-16062062I87500J0D01*
G01*
D11*
X7993089Y-16153546D02*
X7878803Y-16153546D01*
X7935946Y-16153546D02*
X7935946Y-15953546D01*
X7935946Y-15953546D02*
X7916898Y-15982118D01*
X7916898Y-15982118D02*
X7897851Y-16001165D01*
X7897851Y-16001165D02*
X7878803Y-16010689D01*
X8078803Y-16134499D02*
X8088327Y-16144022D01*
X8088327Y-16144022D02*
X8078803Y-16153546D01*
X8078803Y-16153546D02*
X8069279Y-16144022D01*
X8069279Y-16144022D02*
X8078803Y-16134499D01*
X8078803Y-16134499D02*
X8078803Y-16153546D01*
X8154993Y-15953546D02*
X8288327Y-15953546D01*
X8288327Y-15953546D02*
X8202612Y-16153546D01*
X8459755Y-15953546D02*
X8364517Y-15953546D01*
X8364517Y-15953546D02*
X8354993Y-16048784D01*
X8354993Y-16048784D02*
X8364517Y-16039260D01*
X8364517Y-16039260D02*
X8383565Y-16029737D01*
X8383565Y-16029737D02*
X8431184Y-16029737D01*
X8431184Y-16029737D02*
X8450232Y-16039260D01*
X8450232Y-16039260D02*
X8459755Y-16048784D01*
X8459755Y-16048784D02*
X8469279Y-16067832D01*
X8469279Y-16067832D02*
X8469279Y-16115451D01*
X8469279Y-16115451D02*
X8459755Y-16134499D01*
X8459755Y-16134499D02*
X8450232Y-16144022D01*
X8450232Y-16144022D02*
X8431184Y-16153546D01*
X8431184Y-16153546D02*
X8383565Y-16153546D01*
X8383565Y-16153546D02*
X8364517Y-16144022D01*
X8364517Y-16144022D02*
X8354993Y-16134499D01*
X8593089Y-15953546D02*
X8612136Y-15953546D01*
X8612136Y-15953546D02*
X8631184Y-15963070D01*
X8631184Y-15963070D02*
X8640708Y-15972594D01*
X8640708Y-15972594D02*
X8650232Y-15991641D01*
X8650232Y-15991641D02*
X8659755Y-16029737D01*
X8659755Y-16029737D02*
X8659755Y-16077356D01*
X8659755Y-16077356D02*
X8650232Y-16115451D01*
X8650232Y-16115451D02*
X8640708Y-16134499D01*
X8640708Y-16134499D02*
X8631184Y-16144022D01*
X8631184Y-16144022D02*
X8612136Y-16153546D01*
X8612136Y-16153546D02*
X8593089Y-16153546D01*
X8593089Y-16153546D02*
X8574041Y-16144022D01*
X8574041Y-16144022D02*
X8564517Y-16134499D01*
X8564517Y-16134499D02*
X8554994Y-16115451D01*
X8554994Y-16115451D02*
X8545470Y-16077356D01*
X8545470Y-16077356D02*
X8545470Y-16029737D01*
X8545470Y-16029737D02*
X8554994Y-15991641D01*
X8554994Y-15991641D02*
X8564517Y-15972594D01*
X8564517Y-15972594D02*
X8574041Y-15963070D01*
X8574041Y-15963070D02*
X8593089Y-15953546D01*
X8745470Y-16153546D02*
X8745470Y-16020213D01*
X8745470Y-16039260D02*
X8754994Y-16029737D01*
X8754994Y-16029737D02*
X8774041Y-16020213D01*
X8774041Y-16020213D02*
X8802613Y-16020213D01*
X8802613Y-16020213D02*
X8821660Y-16029737D01*
X8821660Y-16029737D02*
X8831184Y-16048784D01*
X8831184Y-16048784D02*
X8831184Y-16153546D01*
X8831184Y-16048784D02*
X8840708Y-16029737D01*
X8840708Y-16029737D02*
X8859755Y-16020213D01*
X8859755Y-16020213D02*
X8888327Y-16020213D01*
X8888327Y-16020213D02*
X8907375Y-16029737D01*
X8907375Y-16029737D02*
X8916898Y-16048784D01*
X8916898Y-16048784D02*
X8916898Y-16153546D01*
X9012136Y-16153546D02*
X9012136Y-16020213D01*
X9012136Y-16039260D02*
X9021660Y-16029737D01*
X9021660Y-16029737D02*
X9040708Y-16020213D01*
X9040708Y-16020213D02*
X9069279Y-16020213D01*
X9069279Y-16020213D02*
X9088327Y-16029737D01*
X9088327Y-16029737D02*
X9097851Y-16048784D01*
X9097851Y-16048784D02*
X9097851Y-16153546D01*
X9097851Y-16048784D02*
X9107375Y-16029737D01*
X9107375Y-16029737D02*
X9126422Y-16020213D01*
X9126422Y-16020213D02*
X9154994Y-16020213D01*
X9154994Y-16020213D02*
X9174041Y-16029737D01*
X9174041Y-16029737D02*
X9183565Y-16048784D01*
X9183565Y-16048784D02*
X9183565Y-16153546D01*
X9574041Y-15944022D02*
X9402613Y-16201165D01*
X9831184Y-15953546D02*
X9850232Y-15953546D01*
X9850232Y-15953546D02*
X9869279Y-15963070D01*
X9869279Y-15963070D02*
X9878803Y-15972594D01*
X9878803Y-15972594D02*
X9888327Y-15991641D01*
X9888327Y-15991641D02*
X9897851Y-16029737D01*
X9897851Y-16029737D02*
X9897851Y-16077356D01*
X9897851Y-16077356D02*
X9888327Y-16115451D01*
X9888327Y-16115451D02*
X9878803Y-16134499D01*
X9878803Y-16134499D02*
X9869279Y-16144022D01*
X9869279Y-16144022D02*
X9850232Y-16153546D01*
X9850232Y-16153546D02*
X9831184Y-16153546D01*
X9831184Y-16153546D02*
X9812137Y-16144022D01*
X9812137Y-16144022D02*
X9802613Y-16134499D01*
X9802613Y-16134499D02*
X9793089Y-16115451D01*
X9793089Y-16115451D02*
X9783565Y-16077356D01*
X9783565Y-16077356D02*
X9783565Y-16029737D01*
X9783565Y-16029737D02*
X9793089Y-15991641D01*
X9793089Y-15991641D02*
X9802613Y-15972594D01*
X9802613Y-15972594D02*
X9812137Y-15963070D01*
X9812137Y-15963070D02*
X9831184Y-15953546D01*
X9983565Y-16134499D02*
X9993089Y-16144022D01*
X9993089Y-16144022D02*
X9983565Y-16153546D01*
X9983565Y-16153546D02*
X9974041Y-16144022D01*
X9974041Y-16144022D02*
X9983565Y-16134499D01*
X9983565Y-16134499D02*
X9983565Y-16153546D01*
X10116898Y-15953546D02*
X10135946Y-15953546D01*
X10135946Y-15953546D02*
X10154994Y-15963070D01*
X10154994Y-15963070D02*
X10164518Y-15972594D01*
X10164518Y-15972594D02*
X10174041Y-15991641D01*
X10174041Y-15991641D02*
X10183565Y-16029737D01*
X10183565Y-16029737D02*
X10183565Y-16077356D01*
X10183565Y-16077356D02*
X10174041Y-16115451D01*
X10174041Y-16115451D02*
X10164518Y-16134499D01*
X10164518Y-16134499D02*
X10154994Y-16144022D01*
X10154994Y-16144022D02*
X10135946Y-16153546D01*
X10135946Y-16153546D02*
X10116898Y-16153546D01*
X10116898Y-16153546D02*
X10097851Y-16144022D01*
X10097851Y-16144022D02*
X10088327Y-16134499D01*
X10088327Y-16134499D02*
X10078803Y-16115451D01*
X10078803Y-16115451D02*
X10069279Y-16077356D01*
X10069279Y-16077356D02*
X10069279Y-16029737D01*
X10069279Y-16029737D02*
X10078803Y-15991641D01*
X10078803Y-15991641D02*
X10088327Y-15972594D01*
X10088327Y-15972594D02*
X10097851Y-15963070D01*
X10097851Y-15963070D02*
X10116898Y-15953546D01*
X10354994Y-15953546D02*
X10316898Y-15953546D01*
X10316898Y-15953546D02*
X10297851Y-15963070D01*
X10297851Y-15963070D02*
X10288327Y-15972594D01*
X10288327Y-15972594D02*
X10269279Y-16001165D01*
X10269279Y-16001165D02*
X10259756Y-16039260D01*
X10259756Y-16039260D02*
X10259756Y-16115451D01*
X10259756Y-16115451D02*
X10269279Y-16134499D01*
X10269279Y-16134499D02*
X10278803Y-16144022D01*
X10278803Y-16144022D02*
X10297851Y-16153546D01*
X10297851Y-16153546D02*
X10335946Y-16153546D01*
X10335946Y-16153546D02*
X10354994Y-16144022D01*
X10354994Y-16144022D02*
X10364518Y-16134499D01*
X10364518Y-16134499D02*
X10374041Y-16115451D01*
X10374041Y-16115451D02*
X10374041Y-16067832D01*
X10374041Y-16067832D02*
X10364518Y-16048784D01*
X10364518Y-16048784D02*
X10354994Y-16039260D01*
X10354994Y-16039260D02*
X10335946Y-16029737D01*
X10335946Y-16029737D02*
X10297851Y-16029737D01*
X10297851Y-16029737D02*
X10278803Y-16039260D01*
X10278803Y-16039260D02*
X10269279Y-16048784D01*
X10269279Y-16048784D02*
X10259756Y-16067832D01*
X10488327Y-16039260D02*
X10469279Y-16029737D01*
X10469279Y-16029737D02*
X10459756Y-16020213D01*
X10459756Y-16020213D02*
X10450232Y-16001165D01*
X10450232Y-16001165D02*
X10450232Y-15991641D01*
X10450232Y-15991641D02*
X10459756Y-15972594D01*
X10459756Y-15972594D02*
X10469279Y-15963070D01*
X10469279Y-15963070D02*
X10488327Y-15953546D01*
X10488327Y-15953546D02*
X10526422Y-15953546D01*
X10526422Y-15953546D02*
X10545470Y-15963070D01*
X10545470Y-15963070D02*
X10554994Y-15972594D01*
X10554994Y-15972594D02*
X10564518Y-15991641D01*
X10564518Y-15991641D02*
X10564518Y-16001165D01*
X10564518Y-16001165D02*
X10554994Y-16020213D01*
X10554994Y-16020213D02*
X10545470Y-16029737D01*
X10545470Y-16029737D02*
X10526422Y-16039260D01*
X10526422Y-16039260D02*
X10488327Y-16039260D01*
X10488327Y-16039260D02*
X10469279Y-16048784D01*
X10469279Y-16048784D02*
X10459756Y-16058308D01*
X10459756Y-16058308D02*
X10450232Y-16077356D01*
X10450232Y-16077356D02*
X10450232Y-16115451D01*
X10450232Y-16115451D02*
X10459756Y-16134499D01*
X10459756Y-16134499D02*
X10469279Y-16144022D01*
X10469279Y-16144022D02*
X10488327Y-16153546D01*
X10488327Y-16153546D02*
X10526422Y-16153546D01*
X10526422Y-16153546D02*
X10545470Y-16144022D01*
X10545470Y-16144022D02*
X10554994Y-16134499D01*
X10554994Y-16134499D02*
X10564518Y-16115451D01*
X10564518Y-16115451D02*
X10564518Y-16077356D01*
X10564518Y-16077356D02*
X10554994Y-16058308D01*
X10554994Y-16058308D02*
X10545470Y-16048784D01*
X10545470Y-16048784D02*
X10526422Y-16039260D01*
X10659756Y-16153546D02*
X10697851Y-16153546D01*
X10697851Y-16153546D02*
X10716899Y-16144022D01*
X10716899Y-16144022D02*
X10726422Y-16134499D01*
X10726422Y-16134499D02*
X10745470Y-16105927D01*
X10745470Y-16105927D02*
X10754994Y-16067832D01*
X10754994Y-16067832D02*
X10754994Y-15991641D01*
X10754994Y-15991641D02*
X10745470Y-15972594D01*
X10745470Y-15972594D02*
X10735946Y-15963070D01*
X10735946Y-15963070D02*
X10716899Y-15953546D01*
X10716899Y-15953546D02*
X10678803Y-15953546D01*
X10678803Y-15953546D02*
X10659756Y-15963070D01*
X10659756Y-15963070D02*
X10650232Y-15972594D01*
X10650232Y-15972594D02*
X10640708Y-15991641D01*
X10640708Y-15991641D02*
X10640708Y-16039260D01*
X10640708Y-16039260D02*
X10650232Y-16058308D01*
X10650232Y-16058308D02*
X10659756Y-16067832D01*
X10659756Y-16067832D02*
X10678803Y-16077356D01*
X10678803Y-16077356D02*
X10716899Y-16077356D01*
X10716899Y-16077356D02*
X10735946Y-16067832D01*
X10735946Y-16067832D02*
X10745470Y-16058308D01*
X10745470Y-16058308D02*
X10754994Y-16039260D01*
X10831184Y-15953546D02*
X10831184Y-15991641D01*
X10907375Y-15953546D02*
X10907375Y-15991641D01*
X11202613Y-16229737D02*
X11193089Y-16220213D01*
X11193089Y-16220213D02*
X11174041Y-16191641D01*
X11174041Y-16191641D02*
X11164518Y-16172594D01*
X11164518Y-16172594D02*
X11154994Y-16144022D01*
X11154994Y-16144022D02*
X11145470Y-16096403D01*
X11145470Y-16096403D02*
X11145470Y-16058308D01*
X11145470Y-16058308D02*
X11154994Y-16010689D01*
X11154994Y-16010689D02*
X11164518Y-15982118D01*
X11164518Y-15982118D02*
X11174041Y-15963070D01*
X11174041Y-15963070D02*
X11193089Y-15934499D01*
X11193089Y-15934499D02*
X11202613Y-15924975D01*
X11374041Y-15953546D02*
X11278803Y-15953546D01*
X11278803Y-15953546D02*
X11269279Y-16048784D01*
X11269279Y-16048784D02*
X11278803Y-16039260D01*
X11278803Y-16039260D02*
X11297851Y-16029737D01*
X11297851Y-16029737D02*
X11345470Y-16029737D01*
X11345470Y-16029737D02*
X11364518Y-16039260D01*
X11364518Y-16039260D02*
X11374041Y-16048784D01*
X11374041Y-16048784D02*
X11383565Y-16067832D01*
X11383565Y-16067832D02*
X11383565Y-16115451D01*
X11383565Y-16115451D02*
X11374041Y-16134499D01*
X11374041Y-16134499D02*
X11364518Y-16144022D01*
X11364518Y-16144022D02*
X11345470Y-16153546D01*
X11345470Y-16153546D02*
X11297851Y-16153546D01*
X11297851Y-16153546D02*
X11278803Y-16144022D01*
X11278803Y-16144022D02*
X11269279Y-16134499D01*
X11554994Y-15953546D02*
X11516898Y-15953546D01*
X11516898Y-15953546D02*
X11497851Y-15963070D01*
X11497851Y-15963070D02*
X11488327Y-15972594D01*
X11488327Y-15972594D02*
X11469279Y-16001165D01*
X11469279Y-16001165D02*
X11459756Y-16039260D01*
X11459756Y-16039260D02*
X11459756Y-16115451D01*
X11459756Y-16115451D02*
X11469279Y-16134499D01*
X11469279Y-16134499D02*
X11478803Y-16144022D01*
X11478803Y-16144022D02*
X11497851Y-16153546D01*
X11497851Y-16153546D02*
X11535946Y-16153546D01*
X11535946Y-16153546D02*
X11554994Y-16144022D01*
X11554994Y-16144022D02*
X11564518Y-16134499D01*
X11564518Y-16134499D02*
X11574041Y-16115451D01*
X11574041Y-16115451D02*
X11574041Y-16067832D01*
X11574041Y-16067832D02*
X11564518Y-16048784D01*
X11564518Y-16048784D02*
X11554994Y-16039260D01*
X11554994Y-16039260D02*
X11535946Y-16029737D01*
X11535946Y-16029737D02*
X11497851Y-16029737D01*
X11497851Y-16029737D02*
X11478803Y-16039260D01*
X11478803Y-16039260D02*
X11469279Y-16048784D01*
X11469279Y-16048784D02*
X11459756Y-16067832D01*
X11812137Y-16153546D02*
X11812137Y-15953546D01*
X11897851Y-16153546D02*
X11897851Y-16048784D01*
X11897851Y-16048784D02*
X11888327Y-16029737D01*
X11888327Y-16029737D02*
X11869280Y-16020213D01*
X11869280Y-16020213D02*
X11840708Y-16020213D01*
X11840708Y-16020213D02*
X11821660Y-16029737D01*
X11821660Y-16029737D02*
X11812137Y-16039260D01*
X12021660Y-16153546D02*
X12002613Y-16144022D01*
X12002613Y-16144022D02*
X11993089Y-16134499D01*
X11993089Y-16134499D02*
X11983565Y-16115451D01*
X11983565Y-16115451D02*
X11983565Y-16058308D01*
X11983565Y-16058308D02*
X11993089Y-16039260D01*
X11993089Y-16039260D02*
X12002613Y-16029737D01*
X12002613Y-16029737D02*
X12021660Y-16020213D01*
X12021660Y-16020213D02*
X12050232Y-16020213D01*
X12050232Y-16020213D02*
X12069280Y-16029737D01*
X12069280Y-16029737D02*
X12078803Y-16039260D01*
X12078803Y-16039260D02*
X12088327Y-16058308D01*
X12088327Y-16058308D02*
X12088327Y-16115451D01*
X12088327Y-16115451D02*
X12078803Y-16134499D01*
X12078803Y-16134499D02*
X12069280Y-16144022D01*
X12069280Y-16144022D02*
X12050232Y-16153546D01*
X12050232Y-16153546D02*
X12021660Y-16153546D01*
X12202613Y-16153546D02*
X12183565Y-16144022D01*
X12183565Y-16144022D02*
X12174041Y-16124975D01*
X12174041Y-16124975D02*
X12174041Y-15953546D01*
X12354994Y-16144022D02*
X12335946Y-16153546D01*
X12335946Y-16153546D02*
X12297851Y-16153546D01*
X12297851Y-16153546D02*
X12278803Y-16144022D01*
X12278803Y-16144022D02*
X12269280Y-16124975D01*
X12269280Y-16124975D02*
X12269280Y-16048784D01*
X12269280Y-16048784D02*
X12278803Y-16029737D01*
X12278803Y-16029737D02*
X12297851Y-16020213D01*
X12297851Y-16020213D02*
X12335946Y-16020213D01*
X12335946Y-16020213D02*
X12354994Y-16029737D01*
X12354994Y-16029737D02*
X12364518Y-16048784D01*
X12364518Y-16048784D02*
X12364518Y-16067832D01*
X12364518Y-16067832D02*
X12269280Y-16086880D01*
X12440708Y-16144022D02*
X12459756Y-16153546D01*
X12459756Y-16153546D02*
X12497851Y-16153546D01*
X12497851Y-16153546D02*
X12516899Y-16144022D01*
X12516899Y-16144022D02*
X12526422Y-16124975D01*
X12526422Y-16124975D02*
X12526422Y-16115451D01*
X12526422Y-16115451D02*
X12516899Y-16096403D01*
X12516899Y-16096403D02*
X12497851Y-16086880D01*
X12497851Y-16086880D02*
X12469280Y-16086880D01*
X12469280Y-16086880D02*
X12450232Y-16077356D01*
X12450232Y-16077356D02*
X12440708Y-16058308D01*
X12440708Y-16058308D02*
X12440708Y-16048784D01*
X12440708Y-16048784D02*
X12450232Y-16029737D01*
X12450232Y-16029737D02*
X12469280Y-16020213D01*
X12469280Y-16020213D02*
X12497851Y-16020213D01*
X12497851Y-16020213D02*
X12516899Y-16029737D01*
X12593089Y-16229737D02*
X12602613Y-16220213D01*
X12602613Y-16220213D02*
X12621661Y-16191641D01*
X12621661Y-16191641D02*
X12631184Y-16172594D01*
X12631184Y-16172594D02*
X12640708Y-16144022D01*
X12640708Y-16144022D02*
X12650232Y-16096403D01*
X12650232Y-16096403D02*
X12650232Y-16058308D01*
X12650232Y-16058308D02*
X12640708Y-16010689D01*
X12640708Y-16010689D02*
X12631184Y-15982118D01*
X12631184Y-15982118D02*
X12621661Y-15963070D01*
X12621661Y-15963070D02*
X12602613Y-15934499D01*
X12602613Y-15934499D02*
X12593089Y-15924975D01*
X12954994Y-16229737D02*
X12945470Y-16220213D01*
X12945470Y-16220213D02*
X12926422Y-16191641D01*
X12926422Y-16191641D02*
X12916899Y-16172594D01*
X12916899Y-16172594D02*
X12907375Y-16144022D01*
X12907375Y-16144022D02*
X12897851Y-16096403D01*
X12897851Y-16096403D02*
X12897851Y-16058308D01*
X12897851Y-16058308D02*
X12907375Y-16010689D01*
X12907375Y-16010689D02*
X12916899Y-15982118D01*
X12916899Y-15982118D02*
X12926422Y-15963070D01*
X12926422Y-15963070D02*
X12945470Y-15934499D01*
X12945470Y-15934499D02*
X12954994Y-15924975D01*
X13031184Y-16020213D02*
X13031184Y-16153546D01*
X13031184Y-16039260D02*
X13040708Y-16029737D01*
X13040708Y-16029737D02*
X13059756Y-16020213D01*
X13059756Y-16020213D02*
X13088327Y-16020213D01*
X13088327Y-16020213D02*
X13107375Y-16029737D01*
X13107375Y-16029737D02*
X13116899Y-16048784D01*
X13116899Y-16048784D02*
X13116899Y-16153546D01*
X13240708Y-16153546D02*
X13221661Y-16144022D01*
X13221661Y-16144022D02*
X13212137Y-16134499D01*
X13212137Y-16134499D02*
X13202613Y-16115451D01*
X13202613Y-16115451D02*
X13202613Y-16058308D01*
X13202613Y-16058308D02*
X13212137Y-16039260D01*
X13212137Y-16039260D02*
X13221661Y-16029737D01*
X13221661Y-16029737D02*
X13240708Y-16020213D01*
X13240708Y-16020213D02*
X13269280Y-16020213D01*
X13269280Y-16020213D02*
X13288327Y-16029737D01*
X13288327Y-16029737D02*
X13297851Y-16039260D01*
X13297851Y-16039260D02*
X13307375Y-16058308D01*
X13307375Y-16058308D02*
X13307375Y-16115451D01*
X13307375Y-16115451D02*
X13297851Y-16134499D01*
X13297851Y-16134499D02*
X13288327Y-16144022D01*
X13288327Y-16144022D02*
X13269280Y-16153546D01*
X13269280Y-16153546D02*
X13240708Y-16153546D01*
X13364518Y-16020213D02*
X13440708Y-16020213D01*
X13393089Y-15953546D02*
X13393089Y-16124975D01*
X13393089Y-16124975D02*
X13402613Y-16144022D01*
X13402613Y-16144022D02*
X13421661Y-16153546D01*
X13421661Y-16153546D02*
X13440708Y-16153546D01*
X13659756Y-16020213D02*
X13659756Y-16220213D01*
X13659756Y-16029737D02*
X13678803Y-16020213D01*
X13678803Y-16020213D02*
X13716899Y-16020213D01*
X13716899Y-16020213D02*
X13735946Y-16029737D01*
X13735946Y-16029737D02*
X13745470Y-16039260D01*
X13745470Y-16039260D02*
X13754994Y-16058308D01*
X13754994Y-16058308D02*
X13754994Y-16115451D01*
X13754994Y-16115451D02*
X13745470Y-16134499D01*
X13745470Y-16134499D02*
X13735946Y-16144022D01*
X13735946Y-16144022D02*
X13716899Y-16153546D01*
X13716899Y-16153546D02*
X13678803Y-16153546D01*
X13678803Y-16153546D02*
X13659756Y-16144022D01*
X13869280Y-16153546D02*
X13850232Y-16144022D01*
X13850232Y-16144022D02*
X13840708Y-16124975D01*
X13840708Y-16124975D02*
X13840708Y-15953546D01*
X14031184Y-16153546D02*
X14031184Y-16048784D01*
X14031184Y-16048784D02*
X14021661Y-16029737D01*
X14021661Y-16029737D02*
X14002613Y-16020213D01*
X14002613Y-16020213D02*
X13964518Y-16020213D01*
X13964518Y-16020213D02*
X13945470Y-16029737D01*
X14031184Y-16144022D02*
X14012137Y-16153546D01*
X14012137Y-16153546D02*
X13964518Y-16153546D01*
X13964518Y-16153546D02*
X13945470Y-16144022D01*
X13945470Y-16144022D02*
X13935946Y-16124975D01*
X13935946Y-16124975D02*
X13935946Y-16105927D01*
X13935946Y-16105927D02*
X13945470Y-16086880D01*
X13945470Y-16086880D02*
X13964518Y-16077356D01*
X13964518Y-16077356D02*
X14012137Y-16077356D01*
X14012137Y-16077356D02*
X14031184Y-16067832D01*
X14097851Y-16020213D02*
X14174042Y-16020213D01*
X14126423Y-15953546D02*
X14126423Y-16124975D01*
X14126423Y-16124975D02*
X14135946Y-16144022D01*
X14135946Y-16144022D02*
X14154994Y-16153546D01*
X14154994Y-16153546D02*
X14174042Y-16153546D01*
X14316899Y-16144022D02*
X14297851Y-16153546D01*
X14297851Y-16153546D02*
X14259756Y-16153546D01*
X14259756Y-16153546D02*
X14240708Y-16144022D01*
X14240708Y-16144022D02*
X14231184Y-16124975D01*
X14231184Y-16124975D02*
X14231184Y-16048784D01*
X14231184Y-16048784D02*
X14240708Y-16029737D01*
X14240708Y-16029737D02*
X14259756Y-16020213D01*
X14259756Y-16020213D02*
X14297851Y-16020213D01*
X14297851Y-16020213D02*
X14316899Y-16029737D01*
X14316899Y-16029737D02*
X14326423Y-16048784D01*
X14326423Y-16048784D02*
X14326423Y-16067832D01*
X14326423Y-16067832D02*
X14231184Y-16086880D01*
X14497851Y-16153546D02*
X14497851Y-15953546D01*
X14497851Y-16144022D02*
X14478804Y-16153546D01*
X14478804Y-16153546D02*
X14440708Y-16153546D01*
X14440708Y-16153546D02*
X14421661Y-16144022D01*
X14421661Y-16144022D02*
X14412137Y-16134499D01*
X14412137Y-16134499D02*
X14402613Y-16115451D01*
X14402613Y-16115451D02*
X14402613Y-16058308D01*
X14402613Y-16058308D02*
X14412137Y-16039260D01*
X14412137Y-16039260D02*
X14421661Y-16029737D01*
X14421661Y-16029737D02*
X14440708Y-16020213D01*
X14440708Y-16020213D02*
X14478804Y-16020213D01*
X14478804Y-16020213D02*
X14497851Y-16029737D01*
X14574042Y-16229737D02*
X14583565Y-16220213D01*
X14583565Y-16220213D02*
X14602613Y-16191641D01*
X14602613Y-16191641D02*
X14612137Y-16172594D01*
X14612137Y-16172594D02*
X14621661Y-16144022D01*
X14621661Y-16144022D02*
X14631184Y-16096403D01*
X14631184Y-16096403D02*
X14631184Y-16058308D01*
X14631184Y-16058308D02*
X14621661Y-16010689D01*
X14621661Y-16010689D02*
X14612137Y-15982118D01*
X14612137Y-15982118D02*
X14602613Y-15963070D01*
X14602613Y-15963070D02*
X14583565Y-15934499D01*
X14583565Y-15934499D02*
X14574042Y-15924975D01*
X7527550Y-16257062D02*
X7527550Y-16457062D01*
X7427550Y-16357062D02*
X7627550Y-16357062D01*
X7878803Y-16267594D02*
X7888327Y-16258070D01*
X7888327Y-16258070D02*
X7907374Y-16248546D01*
X7907374Y-16248546D02*
X7954993Y-16248546D01*
X7954993Y-16248546D02*
X7974041Y-16258070D01*
X7974041Y-16258070D02*
X7983565Y-16267594D01*
X7983565Y-16267594D02*
X7993089Y-16286641D01*
X7993089Y-16286641D02*
X7993089Y-16305689D01*
X7993089Y-16305689D02*
X7983565Y-16334260D01*
X7983565Y-16334260D02*
X7869279Y-16448546D01*
X7869279Y-16448546D02*
X7993089Y-16448546D01*
X8078803Y-16429499D02*
X8088327Y-16439022D01*
X8088327Y-16439022D02*
X8078803Y-16448546D01*
X8078803Y-16448546D02*
X8069279Y-16439022D01*
X8069279Y-16439022D02*
X8078803Y-16429499D01*
X8078803Y-16429499D02*
X8078803Y-16448546D01*
X8212136Y-16248546D02*
X8231184Y-16248546D01*
X8231184Y-16248546D02*
X8250232Y-16258070D01*
X8250232Y-16258070D02*
X8259755Y-16267594D01*
X8259755Y-16267594D02*
X8269279Y-16286641D01*
X8269279Y-16286641D02*
X8278803Y-16324737D01*
X8278803Y-16324737D02*
X8278803Y-16372356D01*
X8278803Y-16372356D02*
X8269279Y-16410451D01*
X8269279Y-16410451D02*
X8259755Y-16429499D01*
X8259755Y-16429499D02*
X8250232Y-16439022D01*
X8250232Y-16439022D02*
X8231184Y-16448546D01*
X8231184Y-16448546D02*
X8212136Y-16448546D01*
X8212136Y-16448546D02*
X8193089Y-16439022D01*
X8193089Y-16439022D02*
X8183565Y-16429499D01*
X8183565Y-16429499D02*
X8174041Y-16410451D01*
X8174041Y-16410451D02*
X8164517Y-16372356D01*
X8164517Y-16372356D02*
X8164517Y-16324737D01*
X8164517Y-16324737D02*
X8174041Y-16286641D01*
X8174041Y-16286641D02*
X8183565Y-16267594D01*
X8183565Y-16267594D02*
X8193089Y-16258070D01*
X8193089Y-16258070D02*
X8212136Y-16248546D01*
X8402613Y-16248546D02*
X8421660Y-16248546D01*
X8421660Y-16248546D02*
X8440708Y-16258070D01*
X8440708Y-16258070D02*
X8450232Y-16267594D01*
X8450232Y-16267594D02*
X8459755Y-16286641D01*
X8459755Y-16286641D02*
X8469279Y-16324737D01*
X8469279Y-16324737D02*
X8469279Y-16372356D01*
X8469279Y-16372356D02*
X8459755Y-16410451D01*
X8459755Y-16410451D02*
X8450232Y-16429499D01*
X8450232Y-16429499D02*
X8440708Y-16439022D01*
X8440708Y-16439022D02*
X8421660Y-16448546D01*
X8421660Y-16448546D02*
X8402613Y-16448546D01*
X8402613Y-16448546D02*
X8383565Y-16439022D01*
X8383565Y-16439022D02*
X8374041Y-16429499D01*
X8374041Y-16429499D02*
X8364517Y-16410451D01*
X8364517Y-16410451D02*
X8354993Y-16372356D01*
X8354993Y-16372356D02*
X8354993Y-16324737D01*
X8354993Y-16324737D02*
X8364517Y-16286641D01*
X8364517Y-16286641D02*
X8374041Y-16267594D01*
X8374041Y-16267594D02*
X8383565Y-16258070D01*
X8383565Y-16258070D02*
X8402613Y-16248546D01*
X8593089Y-16248546D02*
X8612136Y-16248546D01*
X8612136Y-16248546D02*
X8631184Y-16258070D01*
X8631184Y-16258070D02*
X8640708Y-16267594D01*
X8640708Y-16267594D02*
X8650232Y-16286641D01*
X8650232Y-16286641D02*
X8659755Y-16324737D01*
X8659755Y-16324737D02*
X8659755Y-16372356D01*
X8659755Y-16372356D02*
X8650232Y-16410451D01*
X8650232Y-16410451D02*
X8640708Y-16429499D01*
X8640708Y-16429499D02*
X8631184Y-16439022D01*
X8631184Y-16439022D02*
X8612136Y-16448546D01*
X8612136Y-16448546D02*
X8593089Y-16448546D01*
X8593089Y-16448546D02*
X8574041Y-16439022D01*
X8574041Y-16439022D02*
X8564517Y-16429499D01*
X8564517Y-16429499D02*
X8554994Y-16410451D01*
X8554994Y-16410451D02*
X8545470Y-16372356D01*
X8545470Y-16372356D02*
X8545470Y-16324737D01*
X8545470Y-16324737D02*
X8554994Y-16286641D01*
X8554994Y-16286641D02*
X8564517Y-16267594D01*
X8564517Y-16267594D02*
X8574041Y-16258070D01*
X8574041Y-16258070D02*
X8593089Y-16248546D01*
X8745470Y-16448546D02*
X8745470Y-16315213D01*
X8745470Y-16334260D02*
X8754994Y-16324737D01*
X8754994Y-16324737D02*
X8774041Y-16315213D01*
X8774041Y-16315213D02*
X8802613Y-16315213D01*
X8802613Y-16315213D02*
X8821660Y-16324737D01*
X8821660Y-16324737D02*
X8831184Y-16343784D01*
X8831184Y-16343784D02*
X8831184Y-16448546D01*
X8831184Y-16343784D02*
X8840708Y-16324737D01*
X8840708Y-16324737D02*
X8859755Y-16315213D01*
X8859755Y-16315213D02*
X8888327Y-16315213D01*
X8888327Y-16315213D02*
X8907375Y-16324737D01*
X8907375Y-16324737D02*
X8916898Y-16343784D01*
X8916898Y-16343784D02*
X8916898Y-16448546D01*
X9012136Y-16448546D02*
X9012136Y-16315213D01*
X9012136Y-16334260D02*
X9021660Y-16324737D01*
X9021660Y-16324737D02*
X9040708Y-16315213D01*
X9040708Y-16315213D02*
X9069279Y-16315213D01*
X9069279Y-16315213D02*
X9088327Y-16324737D01*
X9088327Y-16324737D02*
X9097851Y-16343784D01*
X9097851Y-16343784D02*
X9097851Y-16448546D01*
X9097851Y-16343784D02*
X9107375Y-16324737D01*
X9107375Y-16324737D02*
X9126422Y-16315213D01*
X9126422Y-16315213D02*
X9154994Y-16315213D01*
X9154994Y-16315213D02*
X9174041Y-16324737D01*
X9174041Y-16324737D02*
X9183565Y-16343784D01*
X9183565Y-16343784D02*
X9183565Y-16448546D01*
X9574041Y-16239022D02*
X9402613Y-16496165D01*
X9831184Y-16248546D02*
X9850232Y-16248546D01*
X9850232Y-16248546D02*
X9869279Y-16258070D01*
X9869279Y-16258070D02*
X9878803Y-16267594D01*
X9878803Y-16267594D02*
X9888327Y-16286641D01*
X9888327Y-16286641D02*
X9897851Y-16324737D01*
X9897851Y-16324737D02*
X9897851Y-16372356D01*
X9897851Y-16372356D02*
X9888327Y-16410451D01*
X9888327Y-16410451D02*
X9878803Y-16429499D01*
X9878803Y-16429499D02*
X9869279Y-16439022D01*
X9869279Y-16439022D02*
X9850232Y-16448546D01*
X9850232Y-16448546D02*
X9831184Y-16448546D01*
X9831184Y-16448546D02*
X9812137Y-16439022D01*
X9812137Y-16439022D02*
X9802613Y-16429499D01*
X9802613Y-16429499D02*
X9793089Y-16410451D01*
X9793089Y-16410451D02*
X9783565Y-16372356D01*
X9783565Y-16372356D02*
X9783565Y-16324737D01*
X9783565Y-16324737D02*
X9793089Y-16286641D01*
X9793089Y-16286641D02*
X9802613Y-16267594D01*
X9802613Y-16267594D02*
X9812137Y-16258070D01*
X9812137Y-16258070D02*
X9831184Y-16248546D01*
X9983565Y-16429499D02*
X9993089Y-16439022D01*
X9993089Y-16439022D02*
X9983565Y-16448546D01*
X9983565Y-16448546D02*
X9974041Y-16439022D01*
X9974041Y-16439022D02*
X9983565Y-16429499D01*
X9983565Y-16429499D02*
X9983565Y-16448546D01*
X10116898Y-16248546D02*
X10135946Y-16248546D01*
X10135946Y-16248546D02*
X10154994Y-16258070D01*
X10154994Y-16258070D02*
X10164518Y-16267594D01*
X10164518Y-16267594D02*
X10174041Y-16286641D01*
X10174041Y-16286641D02*
X10183565Y-16324737D01*
X10183565Y-16324737D02*
X10183565Y-16372356D01*
X10183565Y-16372356D02*
X10174041Y-16410451D01*
X10174041Y-16410451D02*
X10164518Y-16429499D01*
X10164518Y-16429499D02*
X10154994Y-16439022D01*
X10154994Y-16439022D02*
X10135946Y-16448546D01*
X10135946Y-16448546D02*
X10116898Y-16448546D01*
X10116898Y-16448546D02*
X10097851Y-16439022D01*
X10097851Y-16439022D02*
X10088327Y-16429499D01*
X10088327Y-16429499D02*
X10078803Y-16410451D01*
X10078803Y-16410451D02*
X10069279Y-16372356D01*
X10069279Y-16372356D02*
X10069279Y-16324737D01*
X10069279Y-16324737D02*
X10078803Y-16286641D01*
X10078803Y-16286641D02*
X10088327Y-16267594D01*
X10088327Y-16267594D02*
X10097851Y-16258070D01*
X10097851Y-16258070D02*
X10116898Y-16248546D01*
X10250232Y-16248546D02*
X10383565Y-16248546D01*
X10383565Y-16248546D02*
X10297851Y-16448546D01*
X10488327Y-16334260D02*
X10469279Y-16324737D01*
X10469279Y-16324737D02*
X10459756Y-16315213D01*
X10459756Y-16315213D02*
X10450232Y-16296165D01*
X10450232Y-16296165D02*
X10450232Y-16286641D01*
X10450232Y-16286641D02*
X10459756Y-16267594D01*
X10459756Y-16267594D02*
X10469279Y-16258070D01*
X10469279Y-16258070D02*
X10488327Y-16248546D01*
X10488327Y-16248546D02*
X10526422Y-16248546D01*
X10526422Y-16248546D02*
X10545470Y-16258070D01*
X10545470Y-16258070D02*
X10554994Y-16267594D01*
X10554994Y-16267594D02*
X10564518Y-16286641D01*
X10564518Y-16286641D02*
X10564518Y-16296165D01*
X10564518Y-16296165D02*
X10554994Y-16315213D01*
X10554994Y-16315213D02*
X10545470Y-16324737D01*
X10545470Y-16324737D02*
X10526422Y-16334260D01*
X10526422Y-16334260D02*
X10488327Y-16334260D01*
X10488327Y-16334260D02*
X10469279Y-16343784D01*
X10469279Y-16343784D02*
X10459756Y-16353308D01*
X10459756Y-16353308D02*
X10450232Y-16372356D01*
X10450232Y-16372356D02*
X10450232Y-16410451D01*
X10450232Y-16410451D02*
X10459756Y-16429499D01*
X10459756Y-16429499D02*
X10469279Y-16439022D01*
X10469279Y-16439022D02*
X10488327Y-16448546D01*
X10488327Y-16448546D02*
X10526422Y-16448546D01*
X10526422Y-16448546D02*
X10545470Y-16439022D01*
X10545470Y-16439022D02*
X10554994Y-16429499D01*
X10554994Y-16429499D02*
X10564518Y-16410451D01*
X10564518Y-16410451D02*
X10564518Y-16372356D01*
X10564518Y-16372356D02*
X10554994Y-16353308D01*
X10554994Y-16353308D02*
X10545470Y-16343784D01*
X10545470Y-16343784D02*
X10526422Y-16334260D01*
X10631184Y-16248546D02*
X10764518Y-16248546D01*
X10764518Y-16248546D02*
X10678803Y-16448546D01*
X10831184Y-16248546D02*
X10831184Y-16286641D01*
X10907375Y-16248546D02*
X10907375Y-16286641D01*
X11202613Y-16524737D02*
X11193089Y-16515213D01*
X11193089Y-16515213D02*
X11174041Y-16486641D01*
X11174041Y-16486641D02*
X11164518Y-16467594D01*
X11164518Y-16467594D02*
X11154994Y-16439022D01*
X11154994Y-16439022D02*
X11145470Y-16391403D01*
X11145470Y-16391403D02*
X11145470Y-16353308D01*
X11145470Y-16353308D02*
X11154994Y-16305689D01*
X11154994Y-16305689D02*
X11164518Y-16277118D01*
X11164518Y-16277118D02*
X11174041Y-16258070D01*
X11174041Y-16258070D02*
X11193089Y-16229499D01*
X11193089Y-16229499D02*
X11202613Y-16219975D01*
X11364518Y-16315213D02*
X11364518Y-16448546D01*
X11316898Y-16239022D02*
X11269279Y-16381880D01*
X11269279Y-16381880D02*
X11393089Y-16381880D01*
X11621660Y-16448546D02*
X11621660Y-16248546D01*
X11707375Y-16448546D02*
X11707375Y-16343784D01*
X11707375Y-16343784D02*
X11697851Y-16324737D01*
X11697851Y-16324737D02*
X11678803Y-16315213D01*
X11678803Y-16315213D02*
X11650232Y-16315213D01*
X11650232Y-16315213D02*
X11631184Y-16324737D01*
X11631184Y-16324737D02*
X11621660Y-16334260D01*
X11831184Y-16448546D02*
X11812137Y-16439022D01*
X11812137Y-16439022D02*
X11802613Y-16429499D01*
X11802613Y-16429499D02*
X11793089Y-16410451D01*
X11793089Y-16410451D02*
X11793089Y-16353308D01*
X11793089Y-16353308D02*
X11802613Y-16334260D01*
X11802613Y-16334260D02*
X11812137Y-16324737D01*
X11812137Y-16324737D02*
X11831184Y-16315213D01*
X11831184Y-16315213D02*
X11859756Y-16315213D01*
X11859756Y-16315213D02*
X11878803Y-16324737D01*
X11878803Y-16324737D02*
X11888327Y-16334260D01*
X11888327Y-16334260D02*
X11897851Y-16353308D01*
X11897851Y-16353308D02*
X11897851Y-16410451D01*
X11897851Y-16410451D02*
X11888327Y-16429499D01*
X11888327Y-16429499D02*
X11878803Y-16439022D01*
X11878803Y-16439022D02*
X11859756Y-16448546D01*
X11859756Y-16448546D02*
X11831184Y-16448546D01*
X12012137Y-16448546D02*
X11993089Y-16439022D01*
X11993089Y-16439022D02*
X11983565Y-16419975D01*
X11983565Y-16419975D02*
X11983565Y-16248546D01*
X12164518Y-16439022D02*
X12145470Y-16448546D01*
X12145470Y-16448546D02*
X12107375Y-16448546D01*
X12107375Y-16448546D02*
X12088327Y-16439022D01*
X12088327Y-16439022D02*
X12078803Y-16419975D01*
X12078803Y-16419975D02*
X12078803Y-16343784D01*
X12078803Y-16343784D02*
X12088327Y-16324737D01*
X12088327Y-16324737D02*
X12107375Y-16315213D01*
X12107375Y-16315213D02*
X12145470Y-16315213D01*
X12145470Y-16315213D02*
X12164518Y-16324737D01*
X12164518Y-16324737D02*
X12174041Y-16343784D01*
X12174041Y-16343784D02*
X12174041Y-16362832D01*
X12174041Y-16362832D02*
X12078803Y-16381880D01*
X12250232Y-16439022D02*
X12269280Y-16448546D01*
X12269280Y-16448546D02*
X12307375Y-16448546D01*
X12307375Y-16448546D02*
X12326422Y-16439022D01*
X12326422Y-16439022D02*
X12335946Y-16419975D01*
X12335946Y-16419975D02*
X12335946Y-16410451D01*
X12335946Y-16410451D02*
X12326422Y-16391403D01*
X12326422Y-16391403D02*
X12307375Y-16381880D01*
X12307375Y-16381880D02*
X12278803Y-16381880D01*
X12278803Y-16381880D02*
X12259756Y-16372356D01*
X12259756Y-16372356D02*
X12250232Y-16353308D01*
X12250232Y-16353308D02*
X12250232Y-16343784D01*
X12250232Y-16343784D02*
X12259756Y-16324737D01*
X12259756Y-16324737D02*
X12278803Y-16315213D01*
X12278803Y-16315213D02*
X12307375Y-16315213D01*
X12307375Y-16315213D02*
X12326422Y-16324737D01*
X12402613Y-16524737D02*
X12412137Y-16515213D01*
X12412137Y-16515213D02*
X12431184Y-16486641D01*
X12431184Y-16486641D02*
X12440708Y-16467594D01*
X12440708Y-16467594D02*
X12450232Y-16439022D01*
X12450232Y-16439022D02*
X12459756Y-16391403D01*
X12459756Y-16391403D02*
X12459756Y-16353308D01*
X12459756Y-16353308D02*
X12450232Y-16305689D01*
X12450232Y-16305689D02*
X12440708Y-16277118D01*
X12440708Y-16277118D02*
X12431184Y-16258070D01*
X12431184Y-16258070D02*
X12412137Y-16229499D01*
X12412137Y-16229499D02*
X12402613Y-16219975D01*
X12764518Y-16524737D02*
X12754994Y-16515213D01*
X12754994Y-16515213D02*
X12735946Y-16486641D01*
X12735946Y-16486641D02*
X12726422Y-16467594D01*
X12726422Y-16467594D02*
X12716899Y-16439022D01*
X12716899Y-16439022D02*
X12707375Y-16391403D01*
X12707375Y-16391403D02*
X12707375Y-16353308D01*
X12707375Y-16353308D02*
X12716899Y-16305689D01*
X12716899Y-16305689D02*
X12726422Y-16277118D01*
X12726422Y-16277118D02*
X12735946Y-16258070D01*
X12735946Y-16258070D02*
X12754994Y-16229499D01*
X12754994Y-16229499D02*
X12764518Y-16219975D01*
X12840708Y-16315213D02*
X12840708Y-16448546D01*
X12840708Y-16334260D02*
X12850232Y-16324737D01*
X12850232Y-16324737D02*
X12869280Y-16315213D01*
X12869280Y-16315213D02*
X12897851Y-16315213D01*
X12897851Y-16315213D02*
X12916899Y-16324737D01*
X12916899Y-16324737D02*
X12926422Y-16343784D01*
X12926422Y-16343784D02*
X12926422Y-16448546D01*
X13050232Y-16448546D02*
X13031184Y-16439022D01*
X13031184Y-16439022D02*
X13021661Y-16429499D01*
X13021661Y-16429499D02*
X13012137Y-16410451D01*
X13012137Y-16410451D02*
X13012137Y-16353308D01*
X13012137Y-16353308D02*
X13021661Y-16334260D01*
X13021661Y-16334260D02*
X13031184Y-16324737D01*
X13031184Y-16324737D02*
X13050232Y-16315213D01*
X13050232Y-16315213D02*
X13078803Y-16315213D01*
X13078803Y-16315213D02*
X13097851Y-16324737D01*
X13097851Y-16324737D02*
X13107375Y-16334260D01*
X13107375Y-16334260D02*
X13116899Y-16353308D01*
X13116899Y-16353308D02*
X13116899Y-16410451D01*
X13116899Y-16410451D02*
X13107375Y-16429499D01*
X13107375Y-16429499D02*
X13097851Y-16439022D01*
X13097851Y-16439022D02*
X13078803Y-16448546D01*
X13078803Y-16448546D02*
X13050232Y-16448546D01*
X13174042Y-16315213D02*
X13250232Y-16315213D01*
X13202613Y-16248546D02*
X13202613Y-16419975D01*
X13202613Y-16419975D02*
X13212137Y-16439022D01*
X13212137Y-16439022D02*
X13231184Y-16448546D01*
X13231184Y-16448546D02*
X13250232Y-16448546D01*
X13469280Y-16315213D02*
X13469280Y-16515213D01*
X13469280Y-16324737D02*
X13488327Y-16315213D01*
X13488327Y-16315213D02*
X13526423Y-16315213D01*
X13526423Y-16315213D02*
X13545470Y-16324737D01*
X13545470Y-16324737D02*
X13554994Y-16334260D01*
X13554994Y-16334260D02*
X13564518Y-16353308D01*
X13564518Y-16353308D02*
X13564518Y-16410451D01*
X13564518Y-16410451D02*
X13554994Y-16429499D01*
X13554994Y-16429499D02*
X13545470Y-16439022D01*
X13545470Y-16439022D02*
X13526423Y-16448546D01*
X13526423Y-16448546D02*
X13488327Y-16448546D01*
X13488327Y-16448546D02*
X13469280Y-16439022D01*
X13678803Y-16448546D02*
X13659756Y-16439022D01*
X13659756Y-16439022D02*
X13650232Y-16419975D01*
X13650232Y-16419975D02*
X13650232Y-16248546D01*
X13840708Y-16448546D02*
X13840708Y-16343784D01*
X13840708Y-16343784D02*
X13831184Y-16324737D01*
X13831184Y-16324737D02*
X13812137Y-16315213D01*
X13812137Y-16315213D02*
X13774042Y-16315213D01*
X13774042Y-16315213D02*
X13754994Y-16324737D01*
X13840708Y-16439022D02*
X13821661Y-16448546D01*
X13821661Y-16448546D02*
X13774042Y-16448546D01*
X13774042Y-16448546D02*
X13754994Y-16439022D01*
X13754994Y-16439022D02*
X13745470Y-16419975D01*
X13745470Y-16419975D02*
X13745470Y-16400927D01*
X13745470Y-16400927D02*
X13754994Y-16381880D01*
X13754994Y-16381880D02*
X13774042Y-16372356D01*
X13774042Y-16372356D02*
X13821661Y-16372356D01*
X13821661Y-16372356D02*
X13840708Y-16362832D01*
X13907375Y-16315213D02*
X13983565Y-16315213D01*
X13935946Y-16248546D02*
X13935946Y-16419975D01*
X13935946Y-16419975D02*
X13945470Y-16439022D01*
X13945470Y-16439022D02*
X13964518Y-16448546D01*
X13964518Y-16448546D02*
X13983565Y-16448546D01*
X14126423Y-16439022D02*
X14107375Y-16448546D01*
X14107375Y-16448546D02*
X14069280Y-16448546D01*
X14069280Y-16448546D02*
X14050232Y-16439022D01*
X14050232Y-16439022D02*
X14040708Y-16419975D01*
X14040708Y-16419975D02*
X14040708Y-16343784D01*
X14040708Y-16343784D02*
X14050232Y-16324737D01*
X14050232Y-16324737D02*
X14069280Y-16315213D01*
X14069280Y-16315213D02*
X14107375Y-16315213D01*
X14107375Y-16315213D02*
X14126423Y-16324737D01*
X14126423Y-16324737D02*
X14135946Y-16343784D01*
X14135946Y-16343784D02*
X14135946Y-16362832D01*
X14135946Y-16362832D02*
X14040708Y-16381880D01*
X14307375Y-16448546D02*
X14307375Y-16248546D01*
X14307375Y-16439022D02*
X14288327Y-16448546D01*
X14288327Y-16448546D02*
X14250232Y-16448546D01*
X14250232Y-16448546D02*
X14231184Y-16439022D01*
X14231184Y-16439022D02*
X14221661Y-16429499D01*
X14221661Y-16429499D02*
X14212137Y-16410451D01*
X14212137Y-16410451D02*
X14212137Y-16353308D01*
X14212137Y-16353308D02*
X14221661Y-16334260D01*
X14221661Y-16334260D02*
X14231184Y-16324737D01*
X14231184Y-16324737D02*
X14250232Y-16315213D01*
X14250232Y-16315213D02*
X14288327Y-16315213D01*
X14288327Y-16315213D02*
X14307375Y-16324737D01*
X14383565Y-16524737D02*
X14393089Y-16515213D01*
X14393089Y-16515213D02*
X14412137Y-16486641D01*
X14412137Y-16486641D02*
X14421661Y-16467594D01*
X14421661Y-16467594D02*
X14431184Y-16439022D01*
X14431184Y-16439022D02*
X14440708Y-16391403D01*
X14440708Y-16391403D02*
X14440708Y-16353308D01*
X14440708Y-16353308D02*
X14431184Y-16305689D01*
X14431184Y-16305689D02*
X14421661Y-16277118D01*
X14421661Y-16277118D02*
X14412137Y-16258070D01*
X14412137Y-16258070D02*
X14393089Y-16229499D01*
X14393089Y-16229499D02*
X14383565Y-16219975D01*
X7598261Y-16747774D02*
X7598261Y-16606351D01*
X7456839Y-16606351D01*
X7456839Y-16747774D01*
X7598261Y-16747774D01*
X7974041Y-16635213D02*
X7974041Y-16768546D01*
X7926422Y-16559022D02*
X7878803Y-16701880D01*
X7878803Y-16701880D02*
X8002612Y-16701880D01*
X8078803Y-16749499D02*
X8088327Y-16759022D01*
X8088327Y-16759022D02*
X8078803Y-16768546D01*
X8078803Y-16768546D02*
X8069279Y-16759022D01*
X8069279Y-16759022D02*
X8078803Y-16749499D01*
X8078803Y-16749499D02*
X8078803Y-16768546D01*
X8212136Y-16568546D02*
X8231184Y-16568546D01*
X8231184Y-16568546D02*
X8250232Y-16578070D01*
X8250232Y-16578070D02*
X8259755Y-16587594D01*
X8259755Y-16587594D02*
X8269279Y-16606641D01*
X8269279Y-16606641D02*
X8278803Y-16644737D01*
X8278803Y-16644737D02*
X8278803Y-16692356D01*
X8278803Y-16692356D02*
X8269279Y-16730451D01*
X8269279Y-16730451D02*
X8259755Y-16749499D01*
X8259755Y-16749499D02*
X8250232Y-16759022D01*
X8250232Y-16759022D02*
X8231184Y-16768546D01*
X8231184Y-16768546D02*
X8212136Y-16768546D01*
X8212136Y-16768546D02*
X8193089Y-16759022D01*
X8193089Y-16759022D02*
X8183565Y-16749499D01*
X8183565Y-16749499D02*
X8174041Y-16730451D01*
X8174041Y-16730451D02*
X8164517Y-16692356D01*
X8164517Y-16692356D02*
X8164517Y-16644737D01*
X8164517Y-16644737D02*
X8174041Y-16606641D01*
X8174041Y-16606641D02*
X8183565Y-16587594D01*
X8183565Y-16587594D02*
X8193089Y-16578070D01*
X8193089Y-16578070D02*
X8212136Y-16568546D01*
X8402613Y-16568546D02*
X8421660Y-16568546D01*
X8421660Y-16568546D02*
X8440708Y-16578070D01*
X8440708Y-16578070D02*
X8450232Y-16587594D01*
X8450232Y-16587594D02*
X8459755Y-16606641D01*
X8459755Y-16606641D02*
X8469279Y-16644737D01*
X8469279Y-16644737D02*
X8469279Y-16692356D01*
X8469279Y-16692356D02*
X8459755Y-16730451D01*
X8459755Y-16730451D02*
X8450232Y-16749499D01*
X8450232Y-16749499D02*
X8440708Y-16759022D01*
X8440708Y-16759022D02*
X8421660Y-16768546D01*
X8421660Y-16768546D02*
X8402613Y-16768546D01*
X8402613Y-16768546D02*
X8383565Y-16759022D01*
X8383565Y-16759022D02*
X8374041Y-16749499D01*
X8374041Y-16749499D02*
X8364517Y-16730451D01*
X8364517Y-16730451D02*
X8354993Y-16692356D01*
X8354993Y-16692356D02*
X8354993Y-16644737D01*
X8354993Y-16644737D02*
X8364517Y-16606641D01*
X8364517Y-16606641D02*
X8374041Y-16587594D01*
X8374041Y-16587594D02*
X8383565Y-16578070D01*
X8383565Y-16578070D02*
X8402613Y-16568546D01*
X8593089Y-16568546D02*
X8612136Y-16568546D01*
X8612136Y-16568546D02*
X8631184Y-16578070D01*
X8631184Y-16578070D02*
X8640708Y-16587594D01*
X8640708Y-16587594D02*
X8650232Y-16606641D01*
X8650232Y-16606641D02*
X8659755Y-16644737D01*
X8659755Y-16644737D02*
X8659755Y-16692356D01*
X8659755Y-16692356D02*
X8650232Y-16730451D01*
X8650232Y-16730451D02*
X8640708Y-16749499D01*
X8640708Y-16749499D02*
X8631184Y-16759022D01*
X8631184Y-16759022D02*
X8612136Y-16768546D01*
X8612136Y-16768546D02*
X8593089Y-16768546D01*
X8593089Y-16768546D02*
X8574041Y-16759022D01*
X8574041Y-16759022D02*
X8564517Y-16749499D01*
X8564517Y-16749499D02*
X8554994Y-16730451D01*
X8554994Y-16730451D02*
X8545470Y-16692356D01*
X8545470Y-16692356D02*
X8545470Y-16644737D01*
X8545470Y-16644737D02*
X8554994Y-16606641D01*
X8554994Y-16606641D02*
X8564517Y-16587594D01*
X8564517Y-16587594D02*
X8574041Y-16578070D01*
X8574041Y-16578070D02*
X8593089Y-16568546D01*
X8745470Y-16768546D02*
X8745470Y-16635213D01*
X8745470Y-16654260D02*
X8754994Y-16644737D01*
X8754994Y-16644737D02*
X8774041Y-16635213D01*
X8774041Y-16635213D02*
X8802613Y-16635213D01*
X8802613Y-16635213D02*
X8821660Y-16644737D01*
X8821660Y-16644737D02*
X8831184Y-16663784D01*
X8831184Y-16663784D02*
X8831184Y-16768546D01*
X8831184Y-16663784D02*
X8840708Y-16644737D01*
X8840708Y-16644737D02*
X8859755Y-16635213D01*
X8859755Y-16635213D02*
X8888327Y-16635213D01*
X8888327Y-16635213D02*
X8907375Y-16644737D01*
X8907375Y-16644737D02*
X8916898Y-16663784D01*
X8916898Y-16663784D02*
X8916898Y-16768546D01*
X9012136Y-16768546D02*
X9012136Y-16635213D01*
X9012136Y-16654260D02*
X9021660Y-16644737D01*
X9021660Y-16644737D02*
X9040708Y-16635213D01*
X9040708Y-16635213D02*
X9069279Y-16635213D01*
X9069279Y-16635213D02*
X9088327Y-16644737D01*
X9088327Y-16644737D02*
X9097851Y-16663784D01*
X9097851Y-16663784D02*
X9097851Y-16768546D01*
X9097851Y-16663784D02*
X9107375Y-16644737D01*
X9107375Y-16644737D02*
X9126422Y-16635213D01*
X9126422Y-16635213D02*
X9154994Y-16635213D01*
X9154994Y-16635213D02*
X9174041Y-16644737D01*
X9174041Y-16644737D02*
X9183565Y-16663784D01*
X9183565Y-16663784D02*
X9183565Y-16768546D01*
X9574041Y-16559022D02*
X9402613Y-16816165D01*
X9831184Y-16568546D02*
X9850232Y-16568546D01*
X9850232Y-16568546D02*
X9869279Y-16578070D01*
X9869279Y-16578070D02*
X9878803Y-16587594D01*
X9878803Y-16587594D02*
X9888327Y-16606641D01*
X9888327Y-16606641D02*
X9897851Y-16644737D01*
X9897851Y-16644737D02*
X9897851Y-16692356D01*
X9897851Y-16692356D02*
X9888327Y-16730451D01*
X9888327Y-16730451D02*
X9878803Y-16749499D01*
X9878803Y-16749499D02*
X9869279Y-16759022D01*
X9869279Y-16759022D02*
X9850232Y-16768546D01*
X9850232Y-16768546D02*
X9831184Y-16768546D01*
X9831184Y-16768546D02*
X9812137Y-16759022D01*
X9812137Y-16759022D02*
X9802613Y-16749499D01*
X9802613Y-16749499D02*
X9793089Y-16730451D01*
X9793089Y-16730451D02*
X9783565Y-16692356D01*
X9783565Y-16692356D02*
X9783565Y-16644737D01*
X9783565Y-16644737D02*
X9793089Y-16606641D01*
X9793089Y-16606641D02*
X9802613Y-16587594D01*
X9802613Y-16587594D02*
X9812137Y-16578070D01*
X9812137Y-16578070D02*
X9831184Y-16568546D01*
X9983565Y-16749499D02*
X9993089Y-16759022D01*
X9993089Y-16759022D02*
X9983565Y-16768546D01*
X9983565Y-16768546D02*
X9974041Y-16759022D01*
X9974041Y-16759022D02*
X9983565Y-16749499D01*
X9983565Y-16749499D02*
X9983565Y-16768546D01*
X10183565Y-16768546D02*
X10069279Y-16768546D01*
X10126422Y-16768546D02*
X10126422Y-16568546D01*
X10126422Y-16568546D02*
X10107375Y-16597118D01*
X10107375Y-16597118D02*
X10088327Y-16616165D01*
X10088327Y-16616165D02*
X10069279Y-16625689D01*
X10364518Y-16568546D02*
X10269279Y-16568546D01*
X10269279Y-16568546D02*
X10259756Y-16663784D01*
X10259756Y-16663784D02*
X10269279Y-16654260D01*
X10269279Y-16654260D02*
X10288327Y-16644737D01*
X10288327Y-16644737D02*
X10335946Y-16644737D01*
X10335946Y-16644737D02*
X10354994Y-16654260D01*
X10354994Y-16654260D02*
X10364518Y-16663784D01*
X10364518Y-16663784D02*
X10374041Y-16682832D01*
X10374041Y-16682832D02*
X10374041Y-16730451D01*
X10374041Y-16730451D02*
X10364518Y-16749499D01*
X10364518Y-16749499D02*
X10354994Y-16759022D01*
X10354994Y-16759022D02*
X10335946Y-16768546D01*
X10335946Y-16768546D02*
X10288327Y-16768546D01*
X10288327Y-16768546D02*
X10269279Y-16759022D01*
X10269279Y-16759022D02*
X10259756Y-16749499D01*
X10440708Y-16568546D02*
X10574041Y-16568546D01*
X10574041Y-16568546D02*
X10488327Y-16768546D01*
X10745470Y-16568546D02*
X10650232Y-16568546D01*
X10650232Y-16568546D02*
X10640708Y-16663784D01*
X10640708Y-16663784D02*
X10650232Y-16654260D01*
X10650232Y-16654260D02*
X10669279Y-16644737D01*
X10669279Y-16644737D02*
X10716899Y-16644737D01*
X10716899Y-16644737D02*
X10735946Y-16654260D01*
X10735946Y-16654260D02*
X10745470Y-16663784D01*
X10745470Y-16663784D02*
X10754994Y-16682832D01*
X10754994Y-16682832D02*
X10754994Y-16730451D01*
X10754994Y-16730451D02*
X10745470Y-16749499D01*
X10745470Y-16749499D02*
X10735946Y-16759022D01*
X10735946Y-16759022D02*
X10716899Y-16768546D01*
X10716899Y-16768546D02*
X10669279Y-16768546D01*
X10669279Y-16768546D02*
X10650232Y-16759022D01*
X10650232Y-16759022D02*
X10640708Y-16749499D01*
X10831184Y-16568546D02*
X10831184Y-16606641D01*
X10907375Y-16568546D02*
X10907375Y-16606641D01*
X11202613Y-16844737D02*
X11193089Y-16835213D01*
X11193089Y-16835213D02*
X11174041Y-16806642D01*
X11174041Y-16806642D02*
X11164518Y-16787594D01*
X11164518Y-16787594D02*
X11154994Y-16759022D01*
X11154994Y-16759022D02*
X11145470Y-16711403D01*
X11145470Y-16711403D02*
X11145470Y-16673308D01*
X11145470Y-16673308D02*
X11154994Y-16625689D01*
X11154994Y-16625689D02*
X11164518Y-16597118D01*
X11164518Y-16597118D02*
X11174041Y-16578070D01*
X11174041Y-16578070D02*
X11193089Y-16549499D01*
X11193089Y-16549499D02*
X11202613Y-16539975D01*
X11269279Y-16587594D02*
X11278803Y-16578070D01*
X11278803Y-16578070D02*
X11297851Y-16568546D01*
X11297851Y-16568546D02*
X11345470Y-16568546D01*
X11345470Y-16568546D02*
X11364518Y-16578070D01*
X11364518Y-16578070D02*
X11374041Y-16587594D01*
X11374041Y-16587594D02*
X11383565Y-16606641D01*
X11383565Y-16606641D02*
X11383565Y-16625689D01*
X11383565Y-16625689D02*
X11374041Y-16654260D01*
X11374041Y-16654260D02*
X11259756Y-16768546D01*
X11259756Y-16768546D02*
X11383565Y-16768546D01*
X11497851Y-16654260D02*
X11478803Y-16644737D01*
X11478803Y-16644737D02*
X11469279Y-16635213D01*
X11469279Y-16635213D02*
X11459756Y-16616165D01*
X11459756Y-16616165D02*
X11459756Y-16606641D01*
X11459756Y-16606641D02*
X11469279Y-16587594D01*
X11469279Y-16587594D02*
X11478803Y-16578070D01*
X11478803Y-16578070D02*
X11497851Y-16568546D01*
X11497851Y-16568546D02*
X11535946Y-16568546D01*
X11535946Y-16568546D02*
X11554994Y-16578070D01*
X11554994Y-16578070D02*
X11564518Y-16587594D01*
X11564518Y-16587594D02*
X11574041Y-16606641D01*
X11574041Y-16606641D02*
X11574041Y-16616165D01*
X11574041Y-16616165D02*
X11564518Y-16635213D01*
X11564518Y-16635213D02*
X11554994Y-16644737D01*
X11554994Y-16644737D02*
X11535946Y-16654260D01*
X11535946Y-16654260D02*
X11497851Y-16654260D01*
X11497851Y-16654260D02*
X11478803Y-16663784D01*
X11478803Y-16663784D02*
X11469279Y-16673308D01*
X11469279Y-16673308D02*
X11459756Y-16692356D01*
X11459756Y-16692356D02*
X11459756Y-16730451D01*
X11459756Y-16730451D02*
X11469279Y-16749499D01*
X11469279Y-16749499D02*
X11478803Y-16759022D01*
X11478803Y-16759022D02*
X11497851Y-16768546D01*
X11497851Y-16768546D02*
X11535946Y-16768546D01*
X11535946Y-16768546D02*
X11554994Y-16759022D01*
X11554994Y-16759022D02*
X11564518Y-16749499D01*
X11564518Y-16749499D02*
X11574041Y-16730451D01*
X11574041Y-16730451D02*
X11574041Y-16692356D01*
X11574041Y-16692356D02*
X11564518Y-16673308D01*
X11564518Y-16673308D02*
X11554994Y-16663784D01*
X11554994Y-16663784D02*
X11535946Y-16654260D01*
X11812137Y-16768546D02*
X11812137Y-16568546D01*
X11897851Y-16768546D02*
X11897851Y-16663784D01*
X11897851Y-16663784D02*
X11888327Y-16644737D01*
X11888327Y-16644737D02*
X11869280Y-16635213D01*
X11869280Y-16635213D02*
X11840708Y-16635213D01*
X11840708Y-16635213D02*
X11821660Y-16644737D01*
X11821660Y-16644737D02*
X11812137Y-16654260D01*
X12021660Y-16768546D02*
X12002613Y-16759022D01*
X12002613Y-16759022D02*
X11993089Y-16749499D01*
X11993089Y-16749499D02*
X11983565Y-16730451D01*
X11983565Y-16730451D02*
X11983565Y-16673308D01*
X11983565Y-16673308D02*
X11993089Y-16654260D01*
X11993089Y-16654260D02*
X12002613Y-16644737D01*
X12002613Y-16644737D02*
X12021660Y-16635213D01*
X12021660Y-16635213D02*
X12050232Y-16635213D01*
X12050232Y-16635213D02*
X12069280Y-16644737D01*
X12069280Y-16644737D02*
X12078803Y-16654260D01*
X12078803Y-16654260D02*
X12088327Y-16673308D01*
X12088327Y-16673308D02*
X12088327Y-16730451D01*
X12088327Y-16730451D02*
X12078803Y-16749499D01*
X12078803Y-16749499D02*
X12069280Y-16759022D01*
X12069280Y-16759022D02*
X12050232Y-16768546D01*
X12050232Y-16768546D02*
X12021660Y-16768546D01*
X12202613Y-16768546D02*
X12183565Y-16759022D01*
X12183565Y-16759022D02*
X12174041Y-16739975D01*
X12174041Y-16739975D02*
X12174041Y-16568546D01*
X12354994Y-16759022D02*
X12335946Y-16768546D01*
X12335946Y-16768546D02*
X12297851Y-16768546D01*
X12297851Y-16768546D02*
X12278803Y-16759022D01*
X12278803Y-16759022D02*
X12269280Y-16739975D01*
X12269280Y-16739975D02*
X12269280Y-16663784D01*
X12269280Y-16663784D02*
X12278803Y-16644737D01*
X12278803Y-16644737D02*
X12297851Y-16635213D01*
X12297851Y-16635213D02*
X12335946Y-16635213D01*
X12335946Y-16635213D02*
X12354994Y-16644737D01*
X12354994Y-16644737D02*
X12364518Y-16663784D01*
X12364518Y-16663784D02*
X12364518Y-16682832D01*
X12364518Y-16682832D02*
X12269280Y-16701880D01*
X12440708Y-16759022D02*
X12459756Y-16768546D01*
X12459756Y-16768546D02*
X12497851Y-16768546D01*
X12497851Y-16768546D02*
X12516899Y-16759022D01*
X12516899Y-16759022D02*
X12526422Y-16739975D01*
X12526422Y-16739975D02*
X12526422Y-16730451D01*
X12526422Y-16730451D02*
X12516899Y-16711403D01*
X12516899Y-16711403D02*
X12497851Y-16701880D01*
X12497851Y-16701880D02*
X12469280Y-16701880D01*
X12469280Y-16701880D02*
X12450232Y-16692356D01*
X12450232Y-16692356D02*
X12440708Y-16673308D01*
X12440708Y-16673308D02*
X12440708Y-16663784D01*
X12440708Y-16663784D02*
X12450232Y-16644737D01*
X12450232Y-16644737D02*
X12469280Y-16635213D01*
X12469280Y-16635213D02*
X12497851Y-16635213D01*
X12497851Y-16635213D02*
X12516899Y-16644737D01*
X12593089Y-16844737D02*
X12602613Y-16835213D01*
X12602613Y-16835213D02*
X12621661Y-16806642D01*
X12621661Y-16806642D02*
X12631184Y-16787594D01*
X12631184Y-16787594D02*
X12640708Y-16759022D01*
X12640708Y-16759022D02*
X12650232Y-16711403D01*
X12650232Y-16711403D02*
X12650232Y-16673308D01*
X12650232Y-16673308D02*
X12640708Y-16625689D01*
X12640708Y-16625689D02*
X12631184Y-16597118D01*
X12631184Y-16597118D02*
X12621661Y-16578070D01*
X12621661Y-16578070D02*
X12602613Y-16549499D01*
X12602613Y-16549499D02*
X12593089Y-16539975D01*
X12954994Y-16844737D02*
X12945470Y-16835213D01*
X12945470Y-16835213D02*
X12926422Y-16806642D01*
X12926422Y-16806642D02*
X12916899Y-16787594D01*
X12916899Y-16787594D02*
X12907375Y-16759022D01*
X12907375Y-16759022D02*
X12897851Y-16711403D01*
X12897851Y-16711403D02*
X12897851Y-16673308D01*
X12897851Y-16673308D02*
X12907375Y-16625689D01*
X12907375Y-16625689D02*
X12916899Y-16597118D01*
X12916899Y-16597118D02*
X12926422Y-16578070D01*
X12926422Y-16578070D02*
X12945470Y-16549499D01*
X12945470Y-16549499D02*
X12954994Y-16539975D01*
X13031184Y-16635213D02*
X13031184Y-16768546D01*
X13031184Y-16654260D02*
X13040708Y-16644737D01*
X13040708Y-16644737D02*
X13059756Y-16635213D01*
X13059756Y-16635213D02*
X13088327Y-16635213D01*
X13088327Y-16635213D02*
X13107375Y-16644737D01*
X13107375Y-16644737D02*
X13116899Y-16663784D01*
X13116899Y-16663784D02*
X13116899Y-16768546D01*
X13240708Y-16768546D02*
X13221661Y-16759022D01*
X13221661Y-16759022D02*
X13212137Y-16749499D01*
X13212137Y-16749499D02*
X13202613Y-16730451D01*
X13202613Y-16730451D02*
X13202613Y-16673308D01*
X13202613Y-16673308D02*
X13212137Y-16654260D01*
X13212137Y-16654260D02*
X13221661Y-16644737D01*
X13221661Y-16644737D02*
X13240708Y-16635213D01*
X13240708Y-16635213D02*
X13269280Y-16635213D01*
X13269280Y-16635213D02*
X13288327Y-16644737D01*
X13288327Y-16644737D02*
X13297851Y-16654260D01*
X13297851Y-16654260D02*
X13307375Y-16673308D01*
X13307375Y-16673308D02*
X13307375Y-16730451D01*
X13307375Y-16730451D02*
X13297851Y-16749499D01*
X13297851Y-16749499D02*
X13288327Y-16759022D01*
X13288327Y-16759022D02*
X13269280Y-16768546D01*
X13269280Y-16768546D02*
X13240708Y-16768546D01*
X13364518Y-16635213D02*
X13440708Y-16635213D01*
X13393089Y-16568546D02*
X13393089Y-16739975D01*
X13393089Y-16739975D02*
X13402613Y-16759022D01*
X13402613Y-16759022D02*
X13421661Y-16768546D01*
X13421661Y-16768546D02*
X13440708Y-16768546D01*
X13659756Y-16635213D02*
X13659756Y-16835213D01*
X13659756Y-16644737D02*
X13678803Y-16635213D01*
X13678803Y-16635213D02*
X13716899Y-16635213D01*
X13716899Y-16635213D02*
X13735946Y-16644737D01*
X13735946Y-16644737D02*
X13745470Y-16654260D01*
X13745470Y-16654260D02*
X13754994Y-16673308D01*
X13754994Y-16673308D02*
X13754994Y-16730451D01*
X13754994Y-16730451D02*
X13745470Y-16749499D01*
X13745470Y-16749499D02*
X13735946Y-16759022D01*
X13735946Y-16759022D02*
X13716899Y-16768546D01*
X13716899Y-16768546D02*
X13678803Y-16768546D01*
X13678803Y-16768546D02*
X13659756Y-16759022D01*
X13869280Y-16768546D02*
X13850232Y-16759022D01*
X13850232Y-16759022D02*
X13840708Y-16739975D01*
X13840708Y-16739975D02*
X13840708Y-16568546D01*
X14031184Y-16768546D02*
X14031184Y-16663784D01*
X14031184Y-16663784D02*
X14021661Y-16644737D01*
X14021661Y-16644737D02*
X14002613Y-16635213D01*
X14002613Y-16635213D02*
X13964518Y-16635213D01*
X13964518Y-16635213D02*
X13945470Y-16644737D01*
X14031184Y-16759022D02*
X14012137Y-16768546D01*
X14012137Y-16768546D02*
X13964518Y-16768546D01*
X13964518Y-16768546D02*
X13945470Y-16759022D01*
X13945470Y-16759022D02*
X13935946Y-16739975D01*
X13935946Y-16739975D02*
X13935946Y-16720927D01*
X13935946Y-16720927D02*
X13945470Y-16701880D01*
X13945470Y-16701880D02*
X13964518Y-16692356D01*
X13964518Y-16692356D02*
X14012137Y-16692356D01*
X14012137Y-16692356D02*
X14031184Y-16682832D01*
X14097851Y-16635213D02*
X14174042Y-16635213D01*
X14126423Y-16568546D02*
X14126423Y-16739975D01*
X14126423Y-16739975D02*
X14135946Y-16759022D01*
X14135946Y-16759022D02*
X14154994Y-16768546D01*
X14154994Y-16768546D02*
X14174042Y-16768546D01*
X14316899Y-16759022D02*
X14297851Y-16768546D01*
X14297851Y-16768546D02*
X14259756Y-16768546D01*
X14259756Y-16768546D02*
X14240708Y-16759022D01*
X14240708Y-16759022D02*
X14231184Y-16739975D01*
X14231184Y-16739975D02*
X14231184Y-16663784D01*
X14231184Y-16663784D02*
X14240708Y-16644737D01*
X14240708Y-16644737D02*
X14259756Y-16635213D01*
X14259756Y-16635213D02*
X14297851Y-16635213D01*
X14297851Y-16635213D02*
X14316899Y-16644737D01*
X14316899Y-16644737D02*
X14326423Y-16663784D01*
X14326423Y-16663784D02*
X14326423Y-16682832D01*
X14326423Y-16682832D02*
X14231184Y-16701880D01*
X14497851Y-16768546D02*
X14497851Y-16568546D01*
X14497851Y-16759022D02*
X14478804Y-16768546D01*
X14478804Y-16768546D02*
X14440708Y-16768546D01*
X14440708Y-16768546D02*
X14421661Y-16759022D01*
X14421661Y-16759022D02*
X14412137Y-16749499D01*
X14412137Y-16749499D02*
X14402613Y-16730451D01*
X14402613Y-16730451D02*
X14402613Y-16673308D01*
X14402613Y-16673308D02*
X14412137Y-16654260D01*
X14412137Y-16654260D02*
X14421661Y-16644737D01*
X14421661Y-16644737D02*
X14440708Y-16635213D01*
X14440708Y-16635213D02*
X14478804Y-16635213D01*
X14478804Y-16635213D02*
X14497851Y-16644737D01*
X14574042Y-16844737D02*
X14583565Y-16835213D01*
X14583565Y-16835213D02*
X14602613Y-16806642D01*
X14602613Y-16806642D02*
X14612137Y-16787594D01*
X14612137Y-16787594D02*
X14621661Y-16759022D01*
X14621661Y-16759022D02*
X14631184Y-16711403D01*
X14631184Y-16711403D02*
X14631184Y-16673308D01*
X14631184Y-16673308D02*
X14621661Y-16625689D01*
X14621661Y-16625689D02*
X14612137Y-16597118D01*
X14612137Y-16597118D02*
X14602613Y-16578070D01*
X14602613Y-16578070D02*
X14583565Y-16549499D01*
X14583565Y-16549499D02*
X14574042Y-16539975D01*
M02*
