M48
; DRILL file {KiCad 7.0.10} date Sun Feb  4 21:18:48 2024
; FORMAT={-:-/ absolute / metric / decimal}
; #@! TF.CreationDate,2024-02-04T21:18:48-08:00
; #@! TF.GenerationSoftware,Kicad,Pcbnew,7.0.10
; #@! TF.FileFunction,NonPlated,1,2,NPTH
FMAT,2
METRIC
; #@! TA.AperFunction,NonPlated,NPTH,ComponentDrill
T1C0.800
; #@! TA.AperFunction,NonPlated,NPTH,ComponentDrill
T2C1.750
; #@! TA.AperFunction,NonPlated,NPTH,ComponentDrill
T3C2.000
; #@! TA.AperFunction,NonPlated,NPTH,ComponentDrill
T4C4.000
%
G90
G05
T1
X104.9Y-29.449
X104.9Y-36.449
X104.9Y-131.962
X104.9Y-138.962
T2
X85.85Y-31.501
X85.85Y-41.661
X85.85Y-50.551
X85.85Y-60.711
X85.85Y-69.601
X85.85Y-79.761
X85.85Y-88.651
X85.85Y-98.811
X85.85Y-107.701
X85.85Y-117.861
X99.82Y-65.156
X99.82Y-93.731
X99.82Y-112.781
X109.98Y-65.156
X109.98Y-93.731
X109.98Y-112.781
X118.87Y-55.631
X118.87Y-74.681
X118.87Y-93.731
X118.87Y-112.781
X129.03Y-55.631
X129.03Y-74.681
X129.03Y-93.731
X129.03Y-112.781
X137.921Y-55.631
X137.921Y-74.681
X137.921Y-93.731
X137.921Y-112.781
X147.445Y-36.581
X147.445Y-131.831
X148.081Y-55.631
X148.081Y-74.681
X148.081Y-93.731
X148.081Y-112.781
X156.97Y-55.631
X156.97Y-74.681
X156.97Y-93.731
X156.97Y-112.781
X157.606Y-36.581
X157.606Y-131.831
X167.13Y-55.631
X167.13Y-74.681
X167.13Y-93.731
X167.13Y-112.781
X176.02Y-55.631
X176.02Y-74.681
X176.02Y-103.256
X186.18Y-55.631
X186.18Y-74.681
X186.18Y-103.256
X195.07Y-55.631
X195.07Y-74.681
X195.07Y-103.256
X205.23Y-55.631
X205.23Y-74.681
X205.23Y-103.256
T3
X78.31Y-21.421
X97.376Y-146.991
X207.675Y-21.421
X207.675Y-146.991
T4
X85.85Y-36.581
X85.85Y-55.631
X85.85Y-74.681
X85.85Y-93.731
X85.85Y-112.781
X104.9Y-65.156
X104.9Y-93.731
X104.9Y-112.781
X123.95Y-55.631
X123.95Y-74.681
X123.95Y-93.731
X123.95Y-112.781
X143.0Y-55.631
X143.0Y-74.681
X143.0Y-93.731
X143.0Y-112.781
X152.525Y-36.581
X152.525Y-131.831
X162.05Y-55.631
X162.05Y-74.681
X162.05Y-93.731
X162.05Y-112.781
X181.1Y-55.631
X181.1Y-74.681
X181.1Y-103.256
X200.15Y-55.631
X200.15Y-74.681
X200.15Y-103.256
M30
